<?xml version="1.0" encoding="utf-8"?>
<!-- Generator: Adobe Illustrator 21.1.0, SVG Export Plug-In . SVG Version: 6.00 Build 0)  -->
<svg version="1.1" xmlns="http://www.w3.org/2000/svg" xmlns:xlink="http://www.w3.org/1999/xlink" x="0px" y="0px"
	 viewBox="0 0 48 48" style="enable-background:new 0 0 48 48;" xml:space="preserve">
<style type="text/css">
	.st0{fill:#FFD4C3;stroke:#504B46;stroke-linecap:round;stroke-linejoin:round;stroke-miterlimit:10;}
	.st1{fill:#FFC258;}
	.st2{fill:#4F4B45;}
	.st3{fill:#FABFA5;}
	.st4{fill:none;stroke:#504B46;stroke-linecap:round;stroke-linejoin:round;stroke-miterlimit:10;}
	.Graphic_x0020_Style{opacity:0.15;fill:#45413C;}
	.st5{opacity:0.15;fill:#45413C;}
	.st6{fill:#DEBB7E;stroke:#45413C;stroke-linecap:round;stroke-linejoin:round;stroke-miterlimit:10;}
	.st7{fill:#F0D5A8;}
	.st8{fill:#F7E5C6;}
	.st9{fill:#DEBB7E;}
	.st10{fill:none;stroke:#45413C;stroke-linecap:round;stroke-linejoin:round;stroke-miterlimit:10;}
	.st11{fill:#FFE500;}
	.st12{fill:#EBCB00;}
	.st13{fill:none;stroke:#EBCB00;stroke-linecap:round;stroke-linejoin:round;stroke-miterlimit:10;}
	.st14{fill:#FF6242;stroke:#45413C;stroke-linecap:round;stroke-linejoin:round;stroke-miterlimit:10;}
	.st15{fill:#FFFFFF;stroke:#45413C;stroke-linecap:round;stroke-linejoin:round;stroke-miterlimit:10;}
	.st16{fill:#E5F8FF;}
	.st17{fill:#FFFFFF;}
	.st18{fill:#E8F4FA;}
	.st19{fill:#E8F4FA;stroke:#45413C;stroke-linecap:round;stroke-linejoin:round;stroke-miterlimit:10;}
	.st20{fill:#FFCCDD;}
	.st21{fill:#FFB0CA;stroke:#45413C;stroke-linecap:round;stroke-linejoin:round;stroke-miterlimit:10;}
	.st22{fill:#FF87AF;stroke:#45413C;stroke-linecap:round;stroke-linejoin:round;stroke-miterlimit:10;}
	.st23{fill:#E5F8FF;stroke:#45413C;stroke-linecap:round;stroke-linejoin:round;stroke-miterlimit:10;}
	.st24{fill:#BF8256;stroke:#45413C;stroke-linecap:round;stroke-linejoin:round;stroke-miterlimit:10;}
	.st25{fill:#9CEB60;}
	.st26{fill:#6DD627;}
	.st27{fill:#C8FFA1;}
	.st28{fill:#FFFACF;}
	.st29{fill:#FF87AF;}
	.st30{fill:#FFB0CA;}
	.st31{fill:#FF6196;}
	.st32{fill:#FFCCDD;stroke:#45413C;stroke-linecap:round;stroke-linejoin:round;stroke-miterlimit:10;}
	.st33{fill:#FF6196;stroke:#45413C;stroke-linecap:round;stroke-linejoin:round;stroke-miterlimit:10;}
	.st34{fill:#FFE5EE;}
	.st35{fill:#00B8F0;}
	.st36{fill:#4ACFFF;}
	.st37{fill:#BF8256;}
	.st38{fill:#DEA47A;}
	.st39{fill:#915E3A;}
	.st40{fill:#FFF5E3;}
	.st41{fill:#F0F0F0;}
	.st42{fill:#8CA4B8;}
	.st43{fill:#627B8C;}
	.st44{fill:#C0DCEB;}
	.st45{fill:#FFF48C;}
	.st46{fill:#FFE500;stroke:#45413C;stroke-linecap:round;stroke-linejoin:round;stroke-miterlimit:10;}
	.st47{fill:#FFAA54;}
	.st48{fill:#6DD627;stroke:#45413C;stroke-linecap:round;stroke-linejoin:round;stroke-miterlimit:10;}
	.st49{fill:#FF8A14;}
	.st50{fill:#FFCC99;}
	.st51{fill:#EBCB00;stroke:#45413C;stroke-linecap:round;stroke-linejoin:round;stroke-miterlimit:10;}
	.st52{fill:#00F5BC;stroke:#45413C;stroke-linecap:round;stroke-linejoin:round;stroke-miterlimit:10;}
	.st53{fill:#BF8DF2;stroke:#45413C;stroke-linecap:round;stroke-linejoin:round;stroke-miterlimit:10;}
	.st54{fill:#FF8A14;stroke:#45413C;stroke-linecap:round;stroke-linejoin:round;stroke-miterlimit:10;}
	.st55{fill:#4AEFF7;stroke:#45413C;stroke-linecap:round;stroke-linejoin:round;stroke-miterlimit:10;}
	.st56{fill:#FFF48C;stroke:#45413C;stroke-linecap:round;stroke-linejoin:round;stroke-miterlimit:10;}
	.st57{fill:#FF6242;}
	.st58{fill:#E04122;}
	.st59{fill:#46B000;}
	.st60{fill:none;stroke:#45413C;stroke-miterlimit:10;}
	.st61{fill:#00B8F0;stroke:#45413C;stroke-linecap:round;stroke-linejoin:round;stroke-miterlimit:10;}
	.st62{fill:#FF866E;}
	.st63{fill:#9F5AE5;stroke:#45413C;stroke-linecap:round;stroke-linejoin:round;stroke-miterlimit:10;}
	.st64{fill:#E4FFD1;}
	.st65{fill:#FFFEF2;}
	.st66{fill:#B89558;}
	.st67{fill:none;stroke:#915E3A;stroke-linecap:round;stroke-linejoin:round;stroke-miterlimit:10;}
	.st68{fill:#915E3A;stroke:#45413C;stroke-linecap:round;stroke-linejoin:round;stroke-miterlimit:10;}
	.st69{fill:#BF8DF2;}
	.st70{fill:#9F5AE5;}
	.st71{fill:#DABFF5;}
	.st72{fill:none;stroke:#45413C;stroke-linejoin:round;stroke-miterlimit:10;}
	.st73{fill:#656769;}
	.st74{fill:#87898C;}
	.st75{fill:#E0E0E0;}
	.st76{fill:#BDBEC0;}
	.st77{fill:#656769;stroke:#45413C;stroke-linecap:round;stroke-linejoin:round;stroke-miterlimit:10;}
	.st78{fill:#45413C;stroke:#45413C;stroke-linecap:round;stroke-linejoin:round;stroke-miterlimit:10;}
	.st79{fill:#FFA694;}
	.st80{fill:#E04122;stroke:#45413C;stroke-linecap:round;stroke-linejoin:round;stroke-miterlimit:10;}
	.st81{fill:#E0E0E0;stroke:#45413C;stroke-linecap:round;stroke-linejoin:round;stroke-miterlimit:10;}
	.st82{fill:#F0F0F0;stroke:#45413C;stroke-linecap:round;stroke-linejoin:round;stroke-miterlimit:10;}
	.st83{fill:#DAEDF7;}
	.st84{fill:#BDBEC0;stroke:#45413C;stroke-linecap:round;stroke-linejoin:round;stroke-miterlimit:10;}
	.st85{fill:#87898C;stroke:#45413C;stroke-linecap:round;stroke-linejoin:round;stroke-miterlimit:10;}
	.st86{fill:#00DFEB;}
	.st87{fill:#4AEFF7;}
	.st88{fill:#DAEDF7;stroke:#45413C;stroke-linecap:round;stroke-linejoin:round;stroke-miterlimit:10;}
	.st89{fill:#FFDA8F;}
	.st90{fill:#FFBE3D;}
	.st91{fill:#FFE9BD;}
	.st92{fill:#DEA47A;stroke:#45413C;stroke-linecap:round;stroke-linejoin:round;stroke-miterlimit:10;}
	.st93{fill:#45413C;}
	.st94{fill:#F0C2A1;}
	.st95{fill:none;stroke:#45413C;stroke-width:1.0064;stroke-linecap:round;stroke-linejoin:round;stroke-miterlimit:10;}
	.st96{fill:#525252;}
	.st97{fill:#EB6D00;stroke:#45413C;stroke-linecap:round;stroke-linejoin:round;stroke-miterlimit:10;}
	.st98{fill:#EB6D00;}
	.st99{fill:#E5FEFF;}
	.st100{fill:#FF866E;stroke:#45413C;stroke-linecap:round;stroke-linejoin:round;stroke-miterlimit:10;}
	.st101{fill:#627B8C;stroke:#45413C;stroke-linecap:round;stroke-linejoin:round;stroke-miterlimit:10;}
	.st102{fill:#FFFCE5;stroke:#45413C;stroke-linecap:round;stroke-linejoin:round;stroke-miterlimit:10;}
	.st103{fill:#A6FBFF;}
	.st104{fill:#D9FDFF;}
	.st105{fill:#FFFACF;stroke:#45413C;stroke-linecap:round;stroke-linejoin:round;stroke-miterlimit:10;}
	.st106{fill:#B8ECFF;}
	.st107{fill:#FFCABF;}
	.st108{fill:#E5FFF9;}
	.st109{fill:#C8FFA1;stroke:#45413C;stroke-linecap:round;stroke-linejoin:round;stroke-miterlimit:10;}
	.st110{fill:#4CF4FC;}
	.st111{fill:#F0D5A8;stroke:#45413C;stroke-linecap:round;stroke-linejoin:round;stroke-miterlimit:10;}
	.st112{fill:#FFDCD1;stroke:#45413C;stroke-linecap:round;stroke-linejoin:round;stroke-miterlimit:10;}
	.st113{fill:#80DDFF;}
	.st114{fill:#46B000;stroke:#45413C;stroke-linecap:round;stroke-linejoin:round;stroke-miterlimit:10;}
	.st115{fill:#4ACFFF;stroke:#45413C;stroke-linecap:round;stroke-linejoin:round;stroke-miterlimit:10;}
	.st116{fill:#ADC4D9;}
	.st117{fill:#BDBEC0;stroke:#45413C;stroke-width:1.0064;stroke-linecap:round;stroke-linejoin:round;stroke-miterlimit:10;}
	.st118{fill:#FFFCE5;}
	.st119{fill:#947746;}
	.st120{fill:#525252;stroke:#45413C;stroke-linecap:round;stroke-linejoin:round;stroke-miterlimit:10;}
</style>
<symbol  id="New_Symbol_14" viewBox="-6.5 -6.5 13 13">
	<path class="st0" d="M0-6c2.2,0,4.1,1.5,4.7,3.5c0,0,0,0,0,0C6.3-2.5,6.4,0,5,0v1c0,2.8-2.2,5-5,5c-2.8,0-5-2.2-5-5V0
		c-1.4,0-1.3-2.5,0.2-2.5c0,0,0,0,0,0C-4.1-4.5-2.2-6,0-6z"/>
	<g>
		<circle class="st1" cx="-1.6" cy="-0.1" r="0.1"/>
		<path class="st2" d="M-1.6,0.5c-0.3,0-0.6-0.3-0.6-0.6S-2-0.8-1.6-0.8C-1.3-0.8-1-0.5-1-0.1S-1.3,0.5-1.6,0.5L-1.6,0.5z"/>
	</g>
	<g>
		<circle class="st1" cx="1.6" cy="-0.1" r="0.1"/>
		<path class="st2" d="M1.6,0.5C1.3,0.5,1,0.2,1-0.1s0.3-0.6,0.6-0.6c0.3,0,0.6,0.3,0.6,0.6S2,0.5,1.6,0.5L1.6,0.5z"/>
	</g>
	<circle class="st3" cx="-3" cy="-1.5" r="0.5"/>
	<circle class="st3" cx="3" cy="-1.5" r="0.5"/>
	<path class="st4" d="M-1.2-3c0.8-0.5,1.7-0.5,2.5,0"/>
</symbol>
<g id="Bg">
</g>
<g id="Icons">
	<g id="XMLID_787_">
		<ellipse id="XMLID_2_" class="st5" cx="23.8" cy="42.1" rx="13.5" ry="1.5"/>
		<path id="XMLID_38_" class="st6" d="M40.4,19.8l0.3,1.4c0,0-10.9,3.9-16.2,5c-6,1.3-15.6,2.1-18.7,2.6c-1.6,0.2-3.2-0.6-3.9-2
			L1.3,26l38.8-7.6L40.4,19.8z"/>
		<g id="XMLID_16_">
			<g id="XMLID_31_">
				<g id="XMLID_33_">
					<path id="XMLID_37_" class="st7" d="M40.4,19.8l-0.5-2.4c-0.7-3.7-9-8.1-19-7.1c0,0-1.9-3.4,1-4.6s23.9-5.2,24.7,10.8
						c0.1,1.2-0.8,2.3-2,2.5L40.4,19.8z"/>
					<path id="XMLID_36_" class="st8" d="M22,5.7c-1.9,0.8-1.8,2.5-1.4,3.6c0.3-0.3,0.6-0.6,1.2-0.8c2.8-1.1,22.7-4.9,24.6,9.5
						c0.3-0.4,0.4-0.9,0.4-1.4C45.9,0.5,24.9,4.5,22,5.7z"/>
					<path id="XMLID_35_" class="st9" d="M40.4,19.8l4.3-0.8c1.2-0.2,2.1-1.3,2-2.5c-0.1-1.5-0.3-2.8-0.7-4
						c-0.8-0.3-1.7-0.3-2.6-0.2c-2.3,0.4-4,2.3-3.6,4.1l-0.1,0.1c0.1,0.3,0.2,0.5,0.3,0.8L40.4,19.8z"/>
					<path id="XMLID_34_" class="st10" d="M40.4,19.8l-0.5-2.4c-0.7-3.7-9-8.1-19-7.1c0,0-1.9-3.4,1-4.6s23.9-5.2,24.7,10.8
						c0.1,1.2-0.8,2.3-2,2.5L40.4,19.8z"/>
				</g>
				<path id="XMLID_32_" class="st10" d="M45.9,12.5c-0.8-0.3-1.7-0.3-2.6-0.2c-2.3,0.4-4,2.3-3.6,4.1"/>
			</g>
			<line id="XMLID_30_" class="st10" x1="39.7" y1="16.2" x2="39.9" y2="17.4"/>
			<g id="XMLID_22_">
				<path id="XMLID_29_" class="st11" d="M21,10.3l-19.3,14c-0.4,0.3-0.6,0.8-0.5,1.2L1.3,26l0.5,2.4c0.1,0.7,0.8,1.1,1.4,1
					c0.7-0.1,1.1-0.8,1-1.4l-0.2-1.2L7.6,26l0.3,1.8c0.2,1,1.2,1.7,2.2,1.5c1-0.2,1.7-1.2,1.5-2.2l-0.3-1.8l17-3.2l0.2,1.2
					c0.1,0.7,0.8,1.1,1.4,1c0.7-0.1,1.1-0.8,1-1.4l-0.2-1.2l6.1-1.1l0.3,1.8c0.2,1,1.2,1.7,2.2,1.5c1-0.2,1.7-1.2,1.5-2.2l-0.8-4.3
					C39.2,13.7,30.9,9.3,21,10.3z"/>
				<path id="XMLID_28_" class="st12" d="M36.7,20.5l0.3,1.8c0.2,1,1.2,1.7,2.2,1.5c1-0.2,1.7-1.2,1.5-2.2l-0.8-4.3
					c-0.7-3.7-9-8.1-19-7.1l-1.1,0.8c8.2,0.3,14.6,4,15.2,7.2l0.5,2.4L36.7,20.5z"/>
				<line id="XMLID_27_" class="st13" x1="6.5" y1="23.7" x2="36.9" y2="18"/>
				<line id="XMLID_26_" class="st10" x1="30.7" y1="21.7" x2="30.4" y2="20.4"/>
				<line id="XMLID_25_" class="st10" x1="36.7" y1="20.5" x2="36.3" y2="18.1"/>
				<path id="XMLID_24_" class="st10" d="M21,10.3l-19.3,14c-0.4,0.3-0.6,0.8-0.5,1.2L1.3,26l0.5,2.4c0.1,0.7,0.8,1.1,1.4,1
					c0.7-0.1,1.1-0.8,1-1.4l-0.2-1.2L7.6,26l0.3,1.8c0.2,1,1.2,1.7,2.2,1.5c1-0.2,1.7-1.2,1.5-2.2l-0.3-1.8l17-3.2l0.2,1.2
					c0.1,0.7,0.8,1.1,1.4,1c0.7-0.1,1.1-0.8,1-1.4l-0.2-1.2l6.1-1.1l0.3,1.8c0.2,1,1.2,1.7,2.2,1.5c1-0.2,1.7-1.2,1.5-2.2l-0.8-4.3
					C39.2,13.7,30.9,9.3,21,10.3z"/>
				<line id="XMLID_23_" class="st10" x1="7.6" y1="26" x2="7.3" y2="24.8"/>
			</g>
			<g id="XMLID_17_">
				<path id="XMLID_21_" class="st14" d="M18.3,16.4c2.3-0.4,4-1.9,3.8-3.2c-0.2-1-1.3-1.6-2.8-1.7l-5.4,3.9
					C14.6,16.4,16.4,16.8,18.3,16.4z"/>
				<path id="XMLID_20_" class="st14" d="M34.5,18.4c0.3-0.4,0.4-0.9,0.4-1.3c-0.3-1.3-2.4-2.1-4.7-1.6c-2.3,0.4-4,1.9-3.8,3.2
					c0.1,0.4,0.4,0.8,0.8,1.1L34.5,18.4z"/>
				<path id="XMLID_19_" class="st14" d="M10.2,23c0.3-0.4,0.4-0.9,0.4-1.3c-0.2-1-1.4-1.6-2.9-1.7l-5.4,3.9
					c0.1,0.2,0.3,0.4,0.6,0.5L10.2,23z"/>
				<path id="XMLID_18_" class="st14" d="M24,20.4c-0.7-1.3-2.9-2-5.2-1.5s-4.1,1.9-4.3,3.3L24,20.4z"/>
			</g>
		</g>
	</g>
</g>
</svg>
