<?xml version="1.0" encoding="utf-8"?>
<!-- Generator: Adobe Illustrator 21.1.0, SVG Export Plug-In . SVG Version: 6.00 Build 0)  -->
<svg version="1.1" xmlns="http://www.w3.org/2000/svg" xmlns:xlink="http://www.w3.org/1999/xlink" x="0px" y="0px"
	 viewBox="0 0 48 48" style="enable-background:new 0 0 48 48;" xml:space="preserve">
<style type="text/css">
	.st0{fill:#FFD4C3;stroke:#504B46;stroke-linecap:round;stroke-linejoin:round;stroke-miterlimit:10;}
	.st1{fill:#FFC258;}
	.st2{fill:#4F4B45;}
	.st3{fill:#FABFA5;}
	.st4{fill:none;stroke:#504B46;stroke-linecap:round;stroke-linejoin:round;stroke-miterlimit:10;}
	.Graphic_x0020_Style{opacity:0.15;fill:#45413C;}
	.st5{opacity:0.15;fill:#45413C;}
	.st6{fill:#DEBB7E;stroke:#45413C;stroke-linecap:round;stroke-linejoin:round;stroke-miterlimit:10;}
	.st7{fill:#F0D5A8;}
	.st8{fill:#F7E5C6;}
	.st9{fill:#DEBB7E;}
	.st10{fill:none;stroke:#45413C;stroke-linecap:round;stroke-linejoin:round;stroke-miterlimit:10;}
	.st11{fill:#FFE500;}
	.st12{fill:#EBCB00;}
	.st13{fill:none;stroke:#EBCB00;stroke-linecap:round;stroke-linejoin:round;stroke-miterlimit:10;}
	.st14{fill:#FF6242;stroke:#45413C;stroke-linecap:round;stroke-linejoin:round;stroke-miterlimit:10;}
	.st15{fill:#FFFFFF;stroke:#45413C;stroke-linecap:round;stroke-linejoin:round;stroke-miterlimit:10;}
	.st16{fill:#E5F8FF;}
	.st17{fill:#FFFFFF;}
	.st18{fill:#E8F4FA;}
	.st19{fill:#E8F4FA;stroke:#45413C;stroke-linecap:round;stroke-linejoin:round;stroke-miterlimit:10;}
	.st20{fill:#FFCCDD;}
	.st21{fill:#FFB0CA;stroke:#45413C;stroke-linecap:round;stroke-linejoin:round;stroke-miterlimit:10;}
	.st22{fill:#FF87AF;stroke:#45413C;stroke-linecap:round;stroke-linejoin:round;stroke-miterlimit:10;}
	.st23{fill:#E5F8FF;stroke:#45413C;stroke-linecap:round;stroke-linejoin:round;stroke-miterlimit:10;}
	.st24{fill:#BF8256;stroke:#45413C;stroke-linecap:round;stroke-linejoin:round;stroke-miterlimit:10;}
	.st25{fill:#9CEB60;}
	.st26{fill:#6DD627;}
	.st27{fill:#C8FFA1;}
	.st28{fill:#FFFACF;}
	.st29{fill:#FF87AF;}
	.st30{fill:#FFB0CA;}
	.st31{fill:#FF6196;}
	.st32{fill:#FFCCDD;stroke:#45413C;stroke-linecap:round;stroke-linejoin:round;stroke-miterlimit:10;}
	.st33{fill:#FF6196;stroke:#45413C;stroke-linecap:round;stroke-linejoin:round;stroke-miterlimit:10;}
	.st34{fill:#FFE5EE;}
	.st35{fill:#00B8F0;}
	.st36{fill:#4ACFFF;}
	.st37{fill:#BF8256;}
	.st38{fill:#DEA47A;}
	.st39{fill:#915E3A;}
	.st40{fill:#FFF5E3;}
	.st41{fill:#F0F0F0;}
	.st42{fill:#8CA4B8;}
	.st43{fill:#627B8C;}
	.st44{fill:#C0DCEB;}
	.st45{fill:#FFF48C;}
	.st46{fill:#FFE500;stroke:#45413C;stroke-linecap:round;stroke-linejoin:round;stroke-miterlimit:10;}
	.st47{fill:#FFAA54;}
	.st48{fill:#6DD627;stroke:#45413C;stroke-linecap:round;stroke-linejoin:round;stroke-miterlimit:10;}
	.st49{fill:#FF8A14;}
	.st50{fill:#FFCC99;}
	.st51{fill:#EBCB00;stroke:#45413C;stroke-linecap:round;stroke-linejoin:round;stroke-miterlimit:10;}
	.st52{fill:#00F5BC;stroke:#45413C;stroke-linecap:round;stroke-linejoin:round;stroke-miterlimit:10;}
	.st53{fill:#BF8DF2;stroke:#45413C;stroke-linecap:round;stroke-linejoin:round;stroke-miterlimit:10;}
	.st54{fill:#FF8A14;stroke:#45413C;stroke-linecap:round;stroke-linejoin:round;stroke-miterlimit:10;}
	.st55{fill:#4AEFF7;stroke:#45413C;stroke-linecap:round;stroke-linejoin:round;stroke-miterlimit:10;}
	.st56{fill:#FFF48C;stroke:#45413C;stroke-linecap:round;stroke-linejoin:round;stroke-miterlimit:10;}
	.st57{fill:#FF6242;}
	.st58{fill:#E04122;}
	.st59{fill:#46B000;}
	.st60{fill:none;stroke:#45413C;stroke-miterlimit:10;}
	.st61{fill:#00B8F0;stroke:#45413C;stroke-linecap:round;stroke-linejoin:round;stroke-miterlimit:10;}
	.st62{fill:#FF866E;}
	.st63{fill:#9F5AE5;stroke:#45413C;stroke-linecap:round;stroke-linejoin:round;stroke-miterlimit:10;}
	.st64{fill:#E4FFD1;}
	.st65{fill:#FFFEF2;}
	.st66{fill:#B89558;}
	.st67{fill:none;stroke:#915E3A;stroke-linecap:round;stroke-linejoin:round;stroke-miterlimit:10;}
	.st68{fill:#915E3A;stroke:#45413C;stroke-linecap:round;stroke-linejoin:round;stroke-miterlimit:10;}
	.st69{fill:#BF8DF2;}
	.st70{fill:#9F5AE5;}
	.st71{fill:#DABFF5;}
	.st72{fill:none;stroke:#45413C;stroke-linejoin:round;stroke-miterlimit:10;}
	.st73{fill:#656769;}
	.st74{fill:#87898C;}
	.st75{fill:#E0E0E0;}
	.st76{fill:#BDBEC0;}
	.st77{fill:#656769;stroke:#45413C;stroke-linecap:round;stroke-linejoin:round;stroke-miterlimit:10;}
	.st78{fill:#45413C;stroke:#45413C;stroke-linecap:round;stroke-linejoin:round;stroke-miterlimit:10;}
	.st79{fill:#FFA694;}
	.st80{fill:#E04122;stroke:#45413C;stroke-linecap:round;stroke-linejoin:round;stroke-miterlimit:10;}
	.st81{fill:#E0E0E0;stroke:#45413C;stroke-linecap:round;stroke-linejoin:round;stroke-miterlimit:10;}
	.st82{fill:#F0F0F0;stroke:#45413C;stroke-linecap:round;stroke-linejoin:round;stroke-miterlimit:10;}
	.st83{fill:#DAEDF7;}
	.st84{fill:#BDBEC0;stroke:#45413C;stroke-linecap:round;stroke-linejoin:round;stroke-miterlimit:10;}
	.st85{fill:#87898C;stroke:#45413C;stroke-linecap:round;stroke-linejoin:round;stroke-miterlimit:10;}
	.st86{fill:#00DFEB;}
	.st87{fill:#4AEFF7;}
	.st88{fill:#DAEDF7;stroke:#45413C;stroke-linecap:round;stroke-linejoin:round;stroke-miterlimit:10;}
	.st89{fill:#FFDA8F;}
	.st90{fill:#FFBE3D;}
	.st91{fill:#FFE9BD;}
	.st92{fill:#DEA47A;stroke:#45413C;stroke-linecap:round;stroke-linejoin:round;stroke-miterlimit:10;}
	.st93{fill:#45413C;}
	.st94{fill:#F0C2A1;}
	.st95{fill:none;stroke:#45413C;stroke-width:1.0064;stroke-linecap:round;stroke-linejoin:round;stroke-miterlimit:10;}
	.st96{fill:#525252;}
	.st97{fill:#EB6D00;stroke:#45413C;stroke-linecap:round;stroke-linejoin:round;stroke-miterlimit:10;}
	.st98{fill:#EB6D00;}
	.st99{fill:#E5FEFF;}
	.st100{fill:#FF866E;stroke:#45413C;stroke-linecap:round;stroke-linejoin:round;stroke-miterlimit:10;}
	.st101{fill:#627B8C;stroke:#45413C;stroke-linecap:round;stroke-linejoin:round;stroke-miterlimit:10;}
	.st102{fill:#FFFCE5;stroke:#45413C;stroke-linecap:round;stroke-linejoin:round;stroke-miterlimit:10;}
	.st103{fill:#A6FBFF;}
	.st104{fill:#D9FDFF;}
	.st105{fill:#FFFACF;stroke:#45413C;stroke-linecap:round;stroke-linejoin:round;stroke-miterlimit:10;}
	.st106{fill:#B8ECFF;}
	.st107{fill:#FFCABF;}
	.st108{fill:#E5FFF9;}
	.st109{fill:#C8FFA1;stroke:#45413C;stroke-linecap:round;stroke-linejoin:round;stroke-miterlimit:10;}
	.st110{fill:#4CF4FC;}
	.st111{fill:#F0D5A8;stroke:#45413C;stroke-linecap:round;stroke-linejoin:round;stroke-miterlimit:10;}
	.st112{fill:#FFDCD1;stroke:#45413C;stroke-linecap:round;stroke-linejoin:round;stroke-miterlimit:10;}
	.st113{fill:#80DDFF;}
	.st114{fill:#46B000;stroke:#45413C;stroke-linecap:round;stroke-linejoin:round;stroke-miterlimit:10;}
	.st115{fill:#4ACFFF;stroke:#45413C;stroke-linecap:round;stroke-linejoin:round;stroke-miterlimit:10;}
	.st116{fill:#ADC4D9;}
	.st117{fill:#BDBEC0;stroke:#45413C;stroke-width:1.0064;stroke-linecap:round;stroke-linejoin:round;stroke-miterlimit:10;}
	.st118{fill:#FFFCE5;}
	.st119{fill:#947746;}
	.st120{fill:#525252;stroke:#45413C;stroke-linecap:round;stroke-linejoin:round;stroke-miterlimit:10;}
</style>
<symbol  id="New_Symbol_14" viewBox="-6.5 -6.5 13 13">
	<path class="st0" d="M0-6c2.2,0,4.1,1.5,4.7,3.5c0,0,0,0,0,0C6.3-2.5,6.4,0,5,0v1c0,2.8-2.2,5-5,5c-2.8,0-5-2.2-5-5V0
		c-1.4,0-1.3-2.5,0.2-2.5c0,0,0,0,0,0C-4.1-4.5-2.2-6,0-6z"/>
	<g>
		<circle class="st1" cx="-1.6" cy="-0.1" r="0.1"/>
		<path class="st2" d="M-1.6,0.5c-0.3,0-0.6-0.3-0.6-0.6S-2-0.8-1.6-0.8C-1.3-0.8-1-0.5-1-0.1S-1.3,0.5-1.6,0.5L-1.6,0.5z"/>
	</g>
	<g>
		<circle class="st1" cx="1.6" cy="-0.1" r="0.1"/>
		<path class="st2" d="M1.6,0.5C1.3,0.5,1,0.2,1-0.1s0.3-0.6,0.6-0.6c0.3,0,0.6,0.3,0.6,0.6S2,0.5,1.6,0.5L1.6,0.5z"/>
	</g>
	<circle class="st3" cx="-3" cy="-1.5" r="0.5"/>
	<circle class="st3" cx="3" cy="-1.5" r="0.5"/>
	<path class="st4" d="M-1.2-3c0.8-0.5,1.7-0.5,2.5,0"/>
</symbol>
<g id="Bg">
</g>
<g id="Icons">
	<g id="XMLID_1136_">
		<ellipse id="XMLID_512_" class="st5" cx="24" cy="45.3" rx="13.5" ry="1.5"/>
		<g id="XMLID_492_">
			<g id="XMLID_493_">
				<path id="XMLID_497_" class="st42" d="M46.7,16.8c0-2.2-1.5-4-3.6-4.4c0-0.2,0.1-0.4,0.1-0.6c0-2.5-2-4.5-4.5-4.5
					c-0.9,0-1.8,0.3-2.5,0.8c0-0.1,0-0.2,0-0.3c0-2.5-2-4.5-4.5-4.5c-1.2,0-2.4,0.5-3.2,1.3c-0.5-1.9-2.3-3.3-4.3-3.3
					s-3.8,1.4-4.3,3.3c-0.8-0.8-1.9-1.3-3.2-1.3c-2.5,0-4.5,2-4.5,4.5c0,0.1,0,0.2,0,0.3c-0.7-0.5-1.6-0.8-2.5-0.8
					C7,7.3,5,9.3,5,11.8c0,0.2,0,0.4,0.1,0.6c-2,0.4-3.6,2.2-3.6,4.4c0,2.3,1.7,4.1,3.8,4.5c-0.2,0.5-0.3,1-0.3,1.6
					c0,2.5,2,4.5,4.5,4.5c0.9,0,1.8-0.3,2.5-0.8c0,0.1,0,0.2,0,0.3c0,2.5,2,4.5,4.5,4.5c1.4,0,2.6-0.6,3.4-1.6
					c0.7,1.5,2.3,2.6,4.1,2.6c1.8,0,3.4-1.1,4.1-2.6c0.8,1,2.1,1.6,3.4,1.6c2.5,0,4.5-2,4.5-4.5c0-0.1,0-0.2,0-0.3
					c0.7,0.5,1.6,0.8,2.5,0.8c2.5,0,4.5-2,4.5-4.5c0-0.6-0.1-1.1-0.3-1.6C45,20.9,46.7,19.1,46.7,16.8z"/>
				<path id="XMLID_496_" class="st43" d="M44.1,15.1c0.2,0.5,0.3,1.1,0.3,1.7c0,2.7-2.2,4.8-4.8,4.8c-1,0-1.9-0.3-2.7-0.8
					c0,0.1,0,0.2,0,0.3c0,2.7-2.2,4.8-4.8,4.8c-1.5,0-2.8-0.7-3.7-1.7c-0.8,1.7-2.4,2.8-4.4,2.8s-3.6-1.2-4.4-2.8
					c-0.9,1-2.2,1.7-3.7,1.7c-2.7,0-4.8-2.2-4.8-4.8c0-0.1,0-0.2,0-0.3c-0.8,0.5-1.7,0.8-2.7,0.8c-2.7,0-4.8-2.2-4.8-4.8
					c0-0.6,0.1-1.2,0.3-1.7c-0.7-0.1-1.3-0.4-1.8-0.7c-0.5,0.7-0.7,1.5-0.7,2.5c0,2.3,1.7,4.1,3.8,4.5c-0.2,0.5-0.3,1-0.3,1.6
					c0,2.5,2,4.5,4.5,4.5c0.9,0,1.8-0.3,2.5-0.8c0,0.1,0,0.2,0,0.3c0,2.5,2,4.5,4.5,4.5c1.4,0,2.6-0.6,3.4-1.6
					c0.7,1.5,2.3,2.6,4.1,2.6c1.8,0,3.4-1.1,4.1-2.6c0.8,1,2.1,1.6,3.4,1.6c2.5,0,4.5-2,4.5-4.5c0-0.1,0-0.2,0-0.3
					c0.7,0.5,1.6,0.8,2.5,0.8c2.5,0,4.5-2,4.5-4.5c0-0.6-0.1-1.1-0.3-1.6c2.2-0.3,3.8-2.2,3.8-4.5c0-0.9-0.3-1.7-0.7-2.5
					C45.4,14.7,44.8,15,44.1,15.1z"/>
				<path id="XMLID_494_" class="st10" d="M46.7,16.8c0-2.2-1.5-4-3.6-4.4c0-0.2,0.1-0.4,0.1-0.6c0-2.5-2-4.5-4.5-4.5
					c-0.9,0-1.8,0.3-2.5,0.8c0-0.1,0-0.2,0-0.3c0-2.5-2-4.5-4.5-4.5c-1.2,0-2.4,0.5-3.2,1.3c-0.5-1.9-2.3-3.3-4.3-3.3
					s-3.8,1.4-4.3,3.3c-0.8-0.8-1.9-1.3-3.2-1.3c-2.5,0-4.5,2-4.5,4.5c0,0.1,0,0.2,0,0.3c-0.7-0.5-1.6-0.8-2.5-0.8
					C7,7.3,5,9.3,5,11.8c0,0.2,0,0.4,0.1,0.6c-2,0.4-3.6,2.2-3.6,4.4c0,2.3,1.7,4.1,3.8,4.5c-0.2,0.5-0.3,1-0.3,1.6
					c0,2.5,2,4.5,4.5,4.5c0.9,0,1.8-0.3,2.5-0.8c0,0.1,0,0.2,0,0.3c0,2.5,2,4.5,4.5,4.5c1.4,0,2.6-0.6,3.4-1.6
					c0.7,1.5,2.3,2.6,4.1,2.6c1.8,0,3.4-1.1,4.1-2.6c0.8,1,2.1,1.6,3.4,1.6c2.5,0,4.5-2,4.5-4.5c0-0.1,0-0.2,0-0.3
					c0.7,0.5,1.6,0.8,2.5,0.8c2.5,0,4.5-2,4.5-4.5c0-0.6-0.1-1.1-0.3-1.6C45,20.9,46.7,19.1,46.7,16.8z"/>
			</g>
		</g>
		<ellipse id="XMLID_491_" class="st43" cx="16.9" cy="17.7" rx="1.3" ry="0.8"/>
		<g id="XMLID_489_">
			<path id="XMLID_490_" class="st21" d="M20.8,23.6c-0.3,0-0.5-0.1-0.7-0.3C20,23,19.9,22.8,20,22.5c0.2-0.9,0.8-1.7,1.5-2.3
				c0.7-0.6,1.6-0.9,2.6-0.9c1,0,1.9,0.3,2.6,0.9c0.7,0.6,1.3,1.4,1.5,2.3c0.1,0.3,0,0.5-0.2,0.7c-0.2,0.2-0.4,0.3-0.7,0.3
				c0,0-2-0.4-3.3-0.4C22.8,23.1,20.8,23.6,20.8,23.6z"/>
		</g>
		<path id="XMLID_488_" class="st10" d="M19.7,14.3c-0.4,1.1-1.6,1.7-2.7,1.3"/>
		<ellipse id="XMLID_487_" class="st43" cx="31.2" cy="17.7" rx="1.3" ry="0.8"/>
		<path id="XMLID_486_" class="st10" d="M28.4,14.3c0.4,1.1,1.6,1.7,2.7,1.3"/>
		<g id="XMLID_482_">
			<path id="XMLID_485_" class="st44" d="M31.8,44.2c0,0.9-0.7,1.6-1.6,1.6c-0.9,0-1.6-0.7-1.6-1.6c0-0.6,0.8-2.5,1.3-3.5
				c0.1-0.2,0.5-0.2,0.6,0C31,41.7,31.8,43.6,31.8,44.2z"/>
			<path id="XMLID_484_" class="st18" d="M30.2,44.7c-0.7,0-1.2-0.4-1.5-1c-0.1,0.2-0.1,0.4-0.1,0.5c0,0.9,0.7,1.6,1.6,1.6
				c0.9,0,1.6-0.7,1.6-1.6c0-0.1,0-0.3-0.1-0.5C31.5,44.3,30.9,44.7,30.2,44.7z"/>
			<path id="XMLID_483_" class="st10" d="M31.8,44.2c0,0.9-0.7,1.6-1.6,1.6c-0.9,0-1.6-0.7-1.6-1.6c0-0.6,0.8-2.5,1.3-3.5
				c0.1-0.2,0.5-0.2,0.6,0C31,41.7,31.8,43.6,31.8,44.2z"/>
		</g>
		<g id="XMLID_478_">
			<path id="XMLID_481_" class="st44" d="M36.8,37.3c0,0.9-0.7,1.6-1.6,1.6s-1.6-0.7-1.6-1.6c0-0.6,0.8-2.5,1.3-3.5
				c0.1-0.2,0.5-0.2,0.6,0C36,34.8,36.8,36.7,36.8,37.3z"/>
			<path id="XMLID_480_" class="st18" d="M35.2,37.9c-0.7,0-1.2-0.4-1.5-1c-0.1,0.2-0.1,0.4-0.1,0.5c0,0.9,0.7,1.6,1.6,1.6
				c0.9,0,1.6-0.7,1.6-1.6c0-0.1,0-0.3-0.1-0.5C36.5,37.4,35.9,37.9,35.2,37.9z"/>
			<path id="XMLID_479_" class="st10" d="M36.8,37.3c0,0.9-0.7,1.6-1.6,1.6s-1.6-0.7-1.6-1.6c0-0.6,0.8-2.5,1.3-3.5
				c0.1-0.2,0.5-0.2,0.6,0C36,34.8,36.8,36.7,36.8,37.3z"/>
		</g>
		<g id="XMLID_474_">
			<path id="XMLID_477_" class="st44" d="M16.2,44.2c0,0.9,0.7,1.6,1.6,1.6s1.6-0.7,1.6-1.6c0-0.6-0.8-2.5-1.3-3.5
				c-0.1-0.2-0.5-0.2-0.6,0C17,41.7,16.2,43.6,16.2,44.2z"/>
			<path id="XMLID_476_" class="st18" d="M17.8,44.7c0.7,0,1.2-0.4,1.5-1c0.1,0.2,0.1,0.4,0.1,0.5c0,0.9-0.7,1.6-1.6,1.6
				s-1.6-0.7-1.6-1.6c0-0.1,0-0.3,0.1-0.5C16.5,44.3,17.1,44.7,17.8,44.7z"/>
			<path id="XMLID_475_" class="st10" d="M16.2,44.2c0,0.9,0.7,1.6,1.6,1.6s1.6-0.7,1.6-1.6c0-0.6-0.8-2.5-1.3-3.5
				c-0.1-0.2-0.5-0.2-0.6,0C17,41.7,16.2,43.6,16.2,44.2z"/>
		</g>
		<g id="XMLID_470_">
			<path id="XMLID_473_" class="st44" d="M11.2,37.3c0,0.9,0.7,1.6,1.6,1.6c0.9,0,1.6-0.7,1.6-1.6c0-0.6-0.8-2.5-1.3-3.5
				c-0.1-0.2-0.5-0.2-0.6,0C12,34.8,11.2,36.7,11.2,37.3z"/>
			<path id="XMLID_472_" class="st18" d="M12.8,37.9c0.7,0,1.2-0.4,1.5-1c0.1,0.2,0.1,0.4,0.1,0.5c0,0.9-0.7,1.6-1.6,1.6
				c-0.9,0-1.6-0.7-1.6-1.6c0-0.1,0-0.3,0.1-0.5C11.5,37.4,12.1,37.9,12.8,37.9z"/>
			<path id="XMLID_471_" class="st10" d="M11.2,37.3c0,0.9,0.7,1.6,1.6,1.6c0.9,0,1.6-0.7,1.6-1.6c0-0.6-0.8-2.5-1.3-3.5
				c-0.1-0.2-0.5-0.2-0.6,0C12,34.8,11.2,36.7,11.2,37.3z"/>
		</g>
		<g id="XMLID_466_">
			<path id="XMLID_469_" class="st44" d="M25.6,40.8c0,0.9-0.7,1.6-1.6,1.6c-0.9,0-1.6-0.7-1.6-1.6c0-0.6,0.8-2.5,1.3-3.5
				c0.1-0.2,0.5-0.2,0.6,0C24.7,38.3,25.6,40.1,25.6,40.8z"/>
			<path id="XMLID_468_" class="st18" d="M24,41.3c-0.7,0-1.2-0.4-1.5-1c-0.1,0.2-0.1,0.4-0.1,0.5c0,0.9,0.7,1.6,1.6,1.6
				c0.9,0,1.6-0.7,1.6-1.6c0-0.1,0-0.3-0.1-0.5C25.2,40.9,24.7,41.3,24,41.3z"/>
			<path id="XMLID_467_" class="st10" d="M25.6,40.8c0,0.9-0.7,1.6-1.6,1.6c-0.9,0-1.6-0.7-1.6-1.6c0-0.6,0.8-2.5,1.3-3.5
				c0.1-0.2,0.5-0.2,0.6,0C24.7,38.3,25.6,40.1,25.6,40.8z"/>
		</g>
		<g id="XMLID_464_">
			<path id="XMLID_465_" class="st21" d="M20.8,23.6c-0.3,0-0.5-0.1-0.7-0.3C20,23,19.9,22.8,20,22.5c0.2-0.9,0.8-1.7,1.5-2.3
				c0.7-0.6,1.6-0.9,2.6-0.9c1,0,1.9,0.3,2.6,0.9c0.7,0.6,1.3,1.4,1.5,2.3c0.1,0.3,0,0.5-0.2,0.7c-0.2,0.2-0.4,0.3-0.7,0.3
				c0,0-2-0.4-3.3-0.4C22.8,23.1,20.8,23.6,20.8,23.6z"/>
		</g>
	</g>
</g>
</svg>
