<?xml version="1.0" encoding="utf-8"?>
<!-- Generator: Adobe Illustrator 21.1.0, SVG Export Plug-In . SVG Version: 6.00 Build 0)  -->
<svg version="1.1" xmlns="http://www.w3.org/2000/svg" xmlns:xlink="http://www.w3.org/1999/xlink" x="0px" y="0px"
	 viewBox="0 0 48 48" style="enable-background:new 0 0 48 48;" xml:space="preserve">
<style type="text/css">
	.st0{fill:#FFD4C3;stroke:#504B46;stroke-linecap:round;stroke-linejoin:round;stroke-miterlimit:10;}
	.st1{fill:#FFC258;}
	.st2{fill:#4F4B45;}
	.st3{fill:#FABFA5;}
	.st4{fill:none;stroke:#504B46;stroke-linecap:round;stroke-linejoin:round;stroke-miterlimit:10;}
	.Graphic_x0020_Style{opacity:0.15;fill:#45413C;}
	.st5{opacity:0.15;fill:#45413C;}
	.st6{fill:#DEBB7E;stroke:#45413C;stroke-linecap:round;stroke-linejoin:round;stroke-miterlimit:10;}
	.st7{fill:#F0D5A8;}
	.st8{fill:#F7E5C6;}
	.st9{fill:#DEBB7E;}
	.st10{fill:none;stroke:#45413C;stroke-linecap:round;stroke-linejoin:round;stroke-miterlimit:10;}
	.st11{fill:#FFE500;}
	.st12{fill:#EBCB00;}
	.st13{fill:none;stroke:#EBCB00;stroke-linecap:round;stroke-linejoin:round;stroke-miterlimit:10;}
	.st14{fill:#FF6242;stroke:#45413C;stroke-linecap:round;stroke-linejoin:round;stroke-miterlimit:10;}
	.st15{fill:#FFFFFF;stroke:#45413C;stroke-linecap:round;stroke-linejoin:round;stroke-miterlimit:10;}
	.st16{fill:#E5F8FF;}
	.st17{fill:#FFFFFF;}
	.st18{fill:#E8F4FA;}
	.st19{fill:#E8F4FA;stroke:#45413C;stroke-linecap:round;stroke-linejoin:round;stroke-miterlimit:10;}
	.st20{fill:#FFCCDD;}
	.st21{fill:#FFB0CA;stroke:#45413C;stroke-linecap:round;stroke-linejoin:round;stroke-miterlimit:10;}
	.st22{fill:#FF87AF;stroke:#45413C;stroke-linecap:round;stroke-linejoin:round;stroke-miterlimit:10;}
	.st23{fill:#E5F8FF;stroke:#45413C;stroke-linecap:round;stroke-linejoin:round;stroke-miterlimit:10;}
	.st24{fill:#BF8256;stroke:#45413C;stroke-linecap:round;stroke-linejoin:round;stroke-miterlimit:10;}
	.st25{fill:#9CEB60;}
	.st26{fill:#6DD627;}
	.st27{fill:#C8FFA1;}
	.st28{fill:#FFFACF;}
	.st29{fill:#FF87AF;}
	.st30{fill:#FFB0CA;}
	.st31{fill:#FF6196;}
	.st32{fill:#FFCCDD;stroke:#45413C;stroke-linecap:round;stroke-linejoin:round;stroke-miterlimit:10;}
	.st33{fill:#FF6196;stroke:#45413C;stroke-linecap:round;stroke-linejoin:round;stroke-miterlimit:10;}
	.st34{fill:#FFE5EE;}
	.st35{fill:#00B8F0;}
	.st36{fill:#4ACFFF;}
	.st37{fill:#BF8256;}
	.st38{fill:#DEA47A;}
	.st39{fill:#915E3A;}
	.st40{fill:#FFF5E3;}
	.st41{fill:#F0F0F0;}
	.st42{fill:#8CA4B8;}
	.st43{fill:#627B8C;}
	.st44{fill:#C0DCEB;}
	.st45{fill:#FFF48C;}
	.st46{fill:#FFE500;stroke:#45413C;stroke-linecap:round;stroke-linejoin:round;stroke-miterlimit:10;}
	.st47{fill:#FFAA54;}
	.st48{fill:#6DD627;stroke:#45413C;stroke-linecap:round;stroke-linejoin:round;stroke-miterlimit:10;}
	.st49{fill:#FF8A14;}
	.st50{fill:#FFCC99;}
	.st51{fill:#EBCB00;stroke:#45413C;stroke-linecap:round;stroke-linejoin:round;stroke-miterlimit:10;}
	.st52{fill:#00F5BC;stroke:#45413C;stroke-linecap:round;stroke-linejoin:round;stroke-miterlimit:10;}
	.st53{fill:#BF8DF2;stroke:#45413C;stroke-linecap:round;stroke-linejoin:round;stroke-miterlimit:10;}
	.st54{fill:#FF8A14;stroke:#45413C;stroke-linecap:round;stroke-linejoin:round;stroke-miterlimit:10;}
	.st55{fill:#4AEFF7;stroke:#45413C;stroke-linecap:round;stroke-linejoin:round;stroke-miterlimit:10;}
	.st56{fill:#FFF48C;stroke:#45413C;stroke-linecap:round;stroke-linejoin:round;stroke-miterlimit:10;}
	.st57{fill:#FF6242;}
	.st58{fill:#E04122;}
	.st59{fill:#46B000;}
	.st60{fill:none;stroke:#45413C;stroke-miterlimit:10;}
	.st61{fill:#00B8F0;stroke:#45413C;stroke-linecap:round;stroke-linejoin:round;stroke-miterlimit:10;}
	.st62{fill:#FF866E;}
	.st63{fill:#9F5AE5;stroke:#45413C;stroke-linecap:round;stroke-linejoin:round;stroke-miterlimit:10;}
	.st64{fill:#E4FFD1;}
	.st65{fill:#FFFEF2;}
	.st66{fill:#B89558;}
	.st67{fill:none;stroke:#915E3A;stroke-linecap:round;stroke-linejoin:round;stroke-miterlimit:10;}
	.st68{fill:#915E3A;stroke:#45413C;stroke-linecap:round;stroke-linejoin:round;stroke-miterlimit:10;}
	.st69{fill:#BF8DF2;}
	.st70{fill:#9F5AE5;}
	.st71{fill:#DABFF5;}
	.st72{fill:none;stroke:#45413C;stroke-linejoin:round;stroke-miterlimit:10;}
	.st73{fill:#656769;}
	.st74{fill:#87898C;}
	.st75{fill:#E0E0E0;}
	.st76{fill:#BDBEC0;}
	.st77{fill:#656769;stroke:#45413C;stroke-linecap:round;stroke-linejoin:round;stroke-miterlimit:10;}
	.st78{fill:#45413C;stroke:#45413C;stroke-linecap:round;stroke-linejoin:round;stroke-miterlimit:10;}
	.st79{fill:#FFA694;}
	.st80{fill:#E04122;stroke:#45413C;stroke-linecap:round;stroke-linejoin:round;stroke-miterlimit:10;}
	.st81{fill:#E0E0E0;stroke:#45413C;stroke-linecap:round;stroke-linejoin:round;stroke-miterlimit:10;}
	.st82{fill:#F0F0F0;stroke:#45413C;stroke-linecap:round;stroke-linejoin:round;stroke-miterlimit:10;}
	.st83{fill:#DAEDF7;}
	.st84{fill:#BDBEC0;stroke:#45413C;stroke-linecap:round;stroke-linejoin:round;stroke-miterlimit:10;}
	.st85{fill:#87898C;stroke:#45413C;stroke-linecap:round;stroke-linejoin:round;stroke-miterlimit:10;}
	.st86{fill:#00DFEB;}
	.st87{fill:#4AEFF7;}
	.st88{fill:#DAEDF7;stroke:#45413C;stroke-linecap:round;stroke-linejoin:round;stroke-miterlimit:10;}
	.st89{fill:#FFDA8F;}
	.st90{fill:#FFBE3D;}
	.st91{fill:#FFE9BD;}
	.st92{fill:#DEA47A;stroke:#45413C;stroke-linecap:round;stroke-linejoin:round;stroke-miterlimit:10;}
	.st93{fill:#45413C;}
	.st94{fill:#F0C2A1;}
	.st95{fill:none;stroke:#45413C;stroke-width:1.0064;stroke-linecap:round;stroke-linejoin:round;stroke-miterlimit:10;}
	.st96{fill:#525252;}
	.st97{fill:#EB6D00;stroke:#45413C;stroke-linecap:round;stroke-linejoin:round;stroke-miterlimit:10;}
	.st98{fill:#EB6D00;}
	.st99{fill:#E5FEFF;}
	.st100{fill:#FF866E;stroke:#45413C;stroke-linecap:round;stroke-linejoin:round;stroke-miterlimit:10;}
	.st101{fill:#627B8C;stroke:#45413C;stroke-linecap:round;stroke-linejoin:round;stroke-miterlimit:10;}
	.st102{fill:#FFFCE5;stroke:#45413C;stroke-linecap:round;stroke-linejoin:round;stroke-miterlimit:10;}
	.st103{fill:#A6FBFF;}
	.st104{fill:#D9FDFF;}
	.st105{fill:#FFFACF;stroke:#45413C;stroke-linecap:round;stroke-linejoin:round;stroke-miterlimit:10;}
	.st106{fill:#B8ECFF;}
	.st107{fill:#FFCABF;}
	.st108{fill:#E5FFF9;}
	.st109{fill:#C8FFA1;stroke:#45413C;stroke-linecap:round;stroke-linejoin:round;stroke-miterlimit:10;}
	.st110{fill:#4CF4FC;}
	.st111{fill:#F0D5A8;stroke:#45413C;stroke-linecap:round;stroke-linejoin:round;stroke-miterlimit:10;}
	.st112{fill:#FFDCD1;stroke:#45413C;stroke-linecap:round;stroke-linejoin:round;stroke-miterlimit:10;}
	.st113{fill:#80DDFF;}
	.st114{fill:#46B000;stroke:#45413C;stroke-linecap:round;stroke-linejoin:round;stroke-miterlimit:10;}
	.st115{fill:#4ACFFF;stroke:#45413C;stroke-linecap:round;stroke-linejoin:round;stroke-miterlimit:10;}
	.st116{fill:#ADC4D9;}
	.st117{fill:#BDBEC0;stroke:#45413C;stroke-width:1.0064;stroke-linecap:round;stroke-linejoin:round;stroke-miterlimit:10;}
	.st118{fill:#FFFCE5;}
	.st119{fill:#947746;}
	.st120{fill:#525252;stroke:#45413C;stroke-linecap:round;stroke-linejoin:round;stroke-miterlimit:10;}
</style>
<symbol  id="New_Symbol_14" viewBox="-6.5 -6.5 13 13">
	<path class="st0" d="M0-6c2.2,0,4.1,1.5,4.7,3.5c0,0,0,0,0,0C6.3-2.5,6.4,0,5,0v1c0,2.8-2.2,5-5,5c-2.8,0-5-2.2-5-5V0
		c-1.4,0-1.3-2.5,0.2-2.5c0,0,0,0,0,0C-4.1-4.5-2.2-6,0-6z"/>
	<g>
		<circle class="st1" cx="-1.6" cy="-0.1" r="0.1"/>
		<path class="st2" d="M-1.6,0.5c-0.3,0-0.6-0.3-0.6-0.6S-2-0.8-1.6-0.8C-1.3-0.8-1-0.5-1-0.1S-1.3,0.5-1.6,0.5L-1.6,0.5z"/>
	</g>
	<g>
		<circle class="st1" cx="1.6" cy="-0.1" r="0.1"/>
		<path class="st2" d="M1.6,0.5C1.3,0.5,1,0.2,1-0.1s0.3-0.6,0.6-0.6c0.3,0,0.6,0.3,0.6,0.6S2,0.5,1.6,0.5L1.6,0.5z"/>
	</g>
	<circle class="st3" cx="-3" cy="-1.5" r="0.5"/>
	<circle class="st3" cx="3" cy="-1.5" r="0.5"/>
	<path class="st4" d="M-1.2-3c0.8-0.5,1.7-0.5,2.5,0"/>
</symbol>
<g id="Bg">
</g>
<g id="Icons">
	<g id="XMLID_1219_">
		<ellipse id="XMLID_1253_" class="st5" cx="24" cy="44.5" rx="10" ry="1.5"/>
		<g id="XMLID_1163_">
			<path id="XMLID_1213_" class="st61" d="M33.1,42.4c-0.6-1.1-3.4-1.9-7-2.2c-0.5,0-0.8-0.4-0.8-0.9v-15h-2.6v15
				c0,0.5-0.4,0.8-0.8,0.9c-3.6,0.2-6.4,1.1-7,2.2c-0.1,0.2,0,0.5,0.2,0.6c0.9,0.4,3.6,1.6,8.9,1.6s8.1-1.1,8.9-1.6
				C33.1,42.8,33.2,42.6,33.1,42.4z"/>
			<g id="XMLID_1202_">
				<g id="XMLID_1208_">
					<path id="XMLID_1212_" class="st35" d="M41.2,9.8c0-2.2-7.7-4-17.2-4S6.8,7.6,6.8,9.8v1.8c0,0.8,0.3,1.5,1,2l14,11.5
						c0,0,0,1.8,2.2,1.8s2.2-1.8,2.2-1.8l14-11.5c0.6-0.5,1-1.2,1-2V9.8z"/>
					<path id="XMLID_1211_" class="st36" d="M33.8,6.5C31,6.1,27.7,5.8,24,5.8c-9.5,0-17.2,1.8-17.2,4v1.8c0,0.8,0.3,1.5,1,2
						l12.4,10.2C26.6,18.7,31,11.9,33.8,6.5z"/>
					<ellipse id="XMLID_1210_" class="st35" cx="24" cy="9.8" rx="17.2" ry="4"/>
					<path id="XMLID_1209_" class="st10" d="M41.2,9.8c0-2.2-7.7-4-17.2-4S6.8,7.6,6.8,9.8v1.8c0,0.8,0.3,1.5,1,2l14,11.5
						c0,0,0,1.8,2.2,1.8s2.2-1.8,2.2-1.8l14-11.5c0.6-0.5,1-1.2,1-2V9.8z"/>
				</g>
				<g id="XMLID_1203_">
					<path id="XMLID_1207_" class="st27" d="M35.4,15L25.8,23c0,0-0.9,0.9-1.8,0.9c-0.9,0-1.8-0.9-1.8-0.9L12.6,15
						c0,0,3.1-1.8,11.4-1.8S35.4,15,35.4,15z"/>
					<path id="XMLID_1206_" class="st64" d="M29.6,13.6c-1.5-0.2-3.4-0.3-5.6-0.3c-8.4,0-11.4,1.8-11.4,1.8l9.1,7.5
						C24.8,19.8,27.4,16.7,29.6,13.6z"/>
					<path id="XMLID_1205_" class="st25" d="M35.4,15c0,0-3.1,1.8-11.4,1.8S12.6,15,12.6,15s3.1-1.8,11.4-1.8S35.4,15,35.4,15z"/>
					<path id="XMLID_1204_" class="st27" d="M27.2,16.7c0.8-1,1.6-2.1,2.3-3.1c-1.5-0.2-3.4-0.3-5.6-0.3c-8.4,0-11.4,1.8-11.4,1.8
						s3.1,1.8,11.4,1.8C25.2,16.8,26.3,16.8,27.2,16.7z"/>
				</g>
			</g>
			<g id="XMLID_1190_">
				
					<ellipse id="XMLID_1201_" transform="matrix(0.5598 -0.8286 0.8286 0.5598 11.7394 30.9545)" class="st57" cx="35" cy="4.4" rx="2.6" ry="2.6"/>
				<path id="XMLID_1200_" class="st62" d="M32.4,4.9c-0.3-1.4,0.7-2.8,2.1-3.1c1.4-0.3,2.8,0.7,3.1,2.1L32.4,4.9z"/>
				<line id="XMLID_1199_" class="st10" x1="33.5" y1="6.6" x2="31.1" y2="10.3"/>
				
					<ellipse id="XMLID_1198_" transform="matrix(0.5598 -0.8286 0.8286 0.5598 2.7041 29.9947)" class="st59" cx="29.6" cy="12.5" rx="2.6" ry="3.5"/>
				<path id="XMLID_1197_" class="st26" d="M26.7,13l5.8-1.1c-0.3-0.6-0.8-1.2-1.4-1.6c-1.6-1.1-3.6-1-4.4,0.2
					C26.2,11.2,26.2,12.1,26.7,13z"/>
				
					<ellipse id="XMLID_1196_" transform="matrix(0.5598 -0.8286 0.8286 0.5598 2.7041 29.9947)" class="st10" cx="29.6" cy="12.5" rx="2.6" ry="3.5"/>
				
					<ellipse id="XMLID_1195_" transform="matrix(0.5598 -0.8286 0.8286 0.5598 -2.2244 29.4709)" class="st59" cx="26.6" cy="16.8" rx="2.6" ry="3.5"/>
				<path id="XMLID_1194_" class="st26" d="M23.7,17.4l5.8-1.1c-0.3-0.6-0.8-1.2-1.4-1.6c-1.6-1.1-3.6-1-4.4,0.2
					C23.2,15.6,23.3,16.5,23.7,17.4z"/>
				
					<ellipse id="XMLID_1193_" transform="matrix(0.5598 -0.8286 0.8286 0.5598 -2.2244 29.4709)" class="st10" cx="26.6" cy="16.8" rx="2.6" ry="3.5"/>
				<line id="XMLID_1192_" class="st10" x1="25.1" y1="19" x2="23.7" y2="21.2"/>
				
					<ellipse id="XMLID_1191_" transform="matrix(0.5598 -0.8286 0.8286 0.5598 11.7394 30.9545)" class="st10" cx="35" cy="4.4" rx="2.6" ry="2.6"/>
			</g>
			<path id="XMLID_1165_" class="st10" d="M41.2,9.8c0,2.2-7.7,4-17.2,4s-17.2-1.8-17.2-4"/>
		</g>
	</g>
</g>
</svg>
