<?xml version="1.0" encoding="utf-8"?>
<!-- Generator: Adobe Illustrator 21.1.0, SVG Export Plug-In . SVG Version: 6.00 Build 0)  -->
<svg version="1.1" xmlns="http://www.w3.org/2000/svg" xmlns:xlink="http://www.w3.org/1999/xlink" x="0px" y="0px"
	 viewBox="0 0 48 48" style="enable-background:new 0 0 48 48;" xml:space="preserve">
<style type="text/css">
	.st0{fill:#FFD4C3;stroke:#504B46;stroke-linecap:round;stroke-linejoin:round;stroke-miterlimit:10;}
	.st1{fill:#FFC258;}
	.st2{fill:#4F4B45;}
	.st3{fill:#FABFA5;}
	.st4{fill:none;stroke:#504B46;stroke-linecap:round;stroke-linejoin:round;stroke-miterlimit:10;}
	.Graphic_x0020_Style{opacity:0.15;fill:#45413C;}
	.st5{opacity:0.15;fill:#45413C;}
	.st6{fill:#DEBB7E;stroke:#45413C;stroke-linecap:round;stroke-linejoin:round;stroke-miterlimit:10;}
	.st7{fill:#F0D5A8;}
	.st8{fill:#F7E5C6;}
	.st9{fill:#DEBB7E;}
	.st10{fill:none;stroke:#45413C;stroke-linecap:round;stroke-linejoin:round;stroke-miterlimit:10;}
	.st11{fill:#FFE500;}
	.st12{fill:#EBCB00;}
	.st13{fill:none;stroke:#EBCB00;stroke-linecap:round;stroke-linejoin:round;stroke-miterlimit:10;}
	.st14{fill:#FF6242;stroke:#45413C;stroke-linecap:round;stroke-linejoin:round;stroke-miterlimit:10;}
	.st15{fill:#FFFFFF;stroke:#45413C;stroke-linecap:round;stroke-linejoin:round;stroke-miterlimit:10;}
	.st16{fill:#E5F8FF;}
	.st17{fill:#FFFFFF;}
	.st18{fill:#E8F4FA;}
	.st19{fill:#E8F4FA;stroke:#45413C;stroke-linecap:round;stroke-linejoin:round;stroke-miterlimit:10;}
	.st20{fill:#FFCCDD;}
	.st21{fill:#FFB0CA;stroke:#45413C;stroke-linecap:round;stroke-linejoin:round;stroke-miterlimit:10;}
	.st22{fill:#FF87AF;stroke:#45413C;stroke-linecap:round;stroke-linejoin:round;stroke-miterlimit:10;}
	.st23{fill:#E5F8FF;stroke:#45413C;stroke-linecap:round;stroke-linejoin:round;stroke-miterlimit:10;}
	.st24{fill:#BF8256;stroke:#45413C;stroke-linecap:round;stroke-linejoin:round;stroke-miterlimit:10;}
	.st25{fill:#9CEB60;}
	.st26{fill:#6DD627;}
	.st27{fill:#C8FFA1;}
	.st28{fill:#FFFACF;}
	.st29{fill:#FF87AF;}
	.st30{fill:#FFB0CA;}
	.st31{fill:#FF6196;}
	.st32{fill:#FFCCDD;stroke:#45413C;stroke-linecap:round;stroke-linejoin:round;stroke-miterlimit:10;}
	.st33{fill:#FF6196;stroke:#45413C;stroke-linecap:round;stroke-linejoin:round;stroke-miterlimit:10;}
	.st34{fill:#FFE5EE;}
	.st35{fill:#00B8F0;}
	.st36{fill:#4ACFFF;}
	.st37{fill:#BF8256;}
	.st38{fill:#DEA47A;}
	.st39{fill:#915E3A;}
	.st40{fill:#FFF5E3;}
	.st41{fill:#F0F0F0;}
	.st42{fill:#8CA4B8;}
	.st43{fill:#627B8C;}
	.st44{fill:#C0DCEB;}
	.st45{fill:#FFF48C;}
	.st46{fill:#FFE500;stroke:#45413C;stroke-linecap:round;stroke-linejoin:round;stroke-miterlimit:10;}
	.st47{fill:#FFAA54;}
	.st48{fill:#6DD627;stroke:#45413C;stroke-linecap:round;stroke-linejoin:round;stroke-miterlimit:10;}
	.st49{fill:#FF8A14;}
	.st50{fill:#FFCC99;}
	.st51{fill:#EBCB00;stroke:#45413C;stroke-linecap:round;stroke-linejoin:round;stroke-miterlimit:10;}
	.st52{fill:#00F5BC;stroke:#45413C;stroke-linecap:round;stroke-linejoin:round;stroke-miterlimit:10;}
	.st53{fill:#BF8DF2;stroke:#45413C;stroke-linecap:round;stroke-linejoin:round;stroke-miterlimit:10;}
	.st54{fill:#FF8A14;stroke:#45413C;stroke-linecap:round;stroke-linejoin:round;stroke-miterlimit:10;}
	.st55{fill:#4AEFF7;stroke:#45413C;stroke-linecap:round;stroke-linejoin:round;stroke-miterlimit:10;}
	.st56{fill:#FFF48C;stroke:#45413C;stroke-linecap:round;stroke-linejoin:round;stroke-miterlimit:10;}
	.st57{fill:#FF6242;}
	.st58{fill:#E04122;}
	.st59{fill:#46B000;}
	.st60{fill:none;stroke:#45413C;stroke-miterlimit:10;}
	.st61{fill:#00B8F0;stroke:#45413C;stroke-linecap:round;stroke-linejoin:round;stroke-miterlimit:10;}
	.st62{fill:#FF866E;}
	.st63{fill:#9F5AE5;stroke:#45413C;stroke-linecap:round;stroke-linejoin:round;stroke-miterlimit:10;}
	.st64{fill:#E4FFD1;}
	.st65{fill:#FFFEF2;}
	.st66{fill:#B89558;}
	.st67{fill:none;stroke:#915E3A;stroke-linecap:round;stroke-linejoin:round;stroke-miterlimit:10;}
	.st68{fill:#915E3A;stroke:#45413C;stroke-linecap:round;stroke-linejoin:round;stroke-miterlimit:10;}
	.st69{fill:#BF8DF2;}
	.st70{fill:#9F5AE5;}
	.st71{fill:#DABFF5;}
	.st72{fill:none;stroke:#45413C;stroke-linejoin:round;stroke-miterlimit:10;}
	.st73{fill:#656769;}
	.st74{fill:#87898C;}
	.st75{fill:#E0E0E0;}
	.st76{fill:#BDBEC0;}
	.st77{fill:#656769;stroke:#45413C;stroke-linecap:round;stroke-linejoin:round;stroke-miterlimit:10;}
	.st78{fill:#45413C;stroke:#45413C;stroke-linecap:round;stroke-linejoin:round;stroke-miterlimit:10;}
	.st79{fill:#FFA694;}
	.st80{fill:#E04122;stroke:#45413C;stroke-linecap:round;stroke-linejoin:round;stroke-miterlimit:10;}
	.st81{fill:#E0E0E0;stroke:#45413C;stroke-linecap:round;stroke-linejoin:round;stroke-miterlimit:10;}
	.st82{fill:#F0F0F0;stroke:#45413C;stroke-linecap:round;stroke-linejoin:round;stroke-miterlimit:10;}
	.st83{fill:#DAEDF7;}
	.st84{fill:#BDBEC0;stroke:#45413C;stroke-linecap:round;stroke-linejoin:round;stroke-miterlimit:10;}
	.st85{fill:#87898C;stroke:#45413C;stroke-linecap:round;stroke-linejoin:round;stroke-miterlimit:10;}
	.st86{fill:#00DFEB;}
	.st87{fill:#4AEFF7;}
	.st88{fill:#DAEDF7;stroke:#45413C;stroke-linecap:round;stroke-linejoin:round;stroke-miterlimit:10;}
	.st89{fill:#FFDA8F;}
	.st90{fill:#FFBE3D;}
	.st91{fill:#FFE9BD;}
	.st92{fill:#DEA47A;stroke:#45413C;stroke-linecap:round;stroke-linejoin:round;stroke-miterlimit:10;}
	.st93{fill:#45413C;}
	.st94{fill:#F0C2A1;}
	.st95{fill:none;stroke:#45413C;stroke-width:1.0064;stroke-linecap:round;stroke-linejoin:round;stroke-miterlimit:10;}
	.st96{fill:#525252;}
	.st97{fill:#EB6D00;stroke:#45413C;stroke-linecap:round;stroke-linejoin:round;stroke-miterlimit:10;}
	.st98{fill:#EB6D00;}
	.st99{fill:#E5FEFF;}
	.st100{fill:#FF866E;stroke:#45413C;stroke-linecap:round;stroke-linejoin:round;stroke-miterlimit:10;}
	.st101{fill:#627B8C;stroke:#45413C;stroke-linecap:round;stroke-linejoin:round;stroke-miterlimit:10;}
	.st102{fill:#FFFCE5;stroke:#45413C;stroke-linecap:round;stroke-linejoin:round;stroke-miterlimit:10;}
	.st103{fill:#A6FBFF;}
	.st104{fill:#D9FDFF;}
	.st105{fill:#FFFACF;stroke:#45413C;stroke-linecap:round;stroke-linejoin:round;stroke-miterlimit:10;}
	.st106{fill:#B8ECFF;}
	.st107{fill:#FFCABF;}
	.st108{fill:#E5FFF9;}
	.st109{fill:#C8FFA1;stroke:#45413C;stroke-linecap:round;stroke-linejoin:round;stroke-miterlimit:10;}
	.st110{fill:#4CF4FC;}
	.st111{fill:#F0D5A8;stroke:#45413C;stroke-linecap:round;stroke-linejoin:round;stroke-miterlimit:10;}
	.st112{fill:#FFDCD1;stroke:#45413C;stroke-linecap:round;stroke-linejoin:round;stroke-miterlimit:10;}
	.st113{fill:#80DDFF;}
	.st114{fill:#46B000;stroke:#45413C;stroke-linecap:round;stroke-linejoin:round;stroke-miterlimit:10;}
	.st115{fill:#4ACFFF;stroke:#45413C;stroke-linecap:round;stroke-linejoin:round;stroke-miterlimit:10;}
	.st116{fill:#ADC4D9;}
	.st117{fill:#BDBEC0;stroke:#45413C;stroke-width:1.0064;stroke-linecap:round;stroke-linejoin:round;stroke-miterlimit:10;}
	.st118{fill:#FFFCE5;}
	.st119{fill:#947746;}
	.st120{fill:#525252;stroke:#45413C;stroke-linecap:round;stroke-linejoin:round;stroke-miterlimit:10;}
</style>
<symbol  id="New_Symbol_14" viewBox="-6.5 -6.5 13 13">
	<path class="st0" d="M0-6c2.2,0,4.1,1.5,4.7,3.5c0,0,0,0,0,0C6.3-2.5,6.4,0,5,0v1c0,2.8-2.2,5-5,5c-2.8,0-5-2.2-5-5V0
		c-1.4,0-1.3-2.5,0.2-2.5c0,0,0,0,0,0C-4.1-4.5-2.2-6,0-6z"/>
	<g>
		<circle class="st1" cx="-1.6" cy="-0.1" r="0.1"/>
		<path class="st2" d="M-1.6,0.5c-0.3,0-0.6-0.3-0.6-0.6S-2-0.8-1.6-0.8C-1.3-0.8-1-0.5-1-0.1S-1.3,0.5-1.6,0.5L-1.6,0.5z"/>
	</g>
	<g>
		<circle class="st1" cx="1.6" cy="-0.1" r="0.1"/>
		<path class="st2" d="M1.6,0.5C1.3,0.5,1,0.2,1-0.1s0.3-0.6,0.6-0.6c0.3,0,0.6,0.3,0.6,0.6S2,0.5,1.6,0.5L1.6,0.5z"/>
	</g>
	<circle class="st3" cx="-3" cy="-1.5" r="0.5"/>
	<circle class="st3" cx="3" cy="-1.5" r="0.5"/>
	<path class="st4" d="M-1.2-3c0.8-0.5,1.7-0.5,2.5,0"/>
</symbol>
<g id="Bg">
</g>
<g id="Icons">
	<g id="XMLID_1891_">
		<ellipse id="XMLID_762_" class="st5" cx="11.4" cy="45.2" rx="9" ry="1.5"/>
		<ellipse id="XMLID_1279_" class="st5" cx="36.1" cy="45.2" rx="9" ry="1.5"/>
		<g id="XMLID_92_">
			<path id="XMLID_689_" class="st61" d="M10.7,29.6c0,4.1-1.9,10.6-1.9,10.6c-0.1,0.3-0.4,0.6-0.8,0.5c-2.7-0.5-5-0.4-5.6,0.3
				c-0.1,0.1-0.1,0.3,0,0.5C3,42,4.8,43.3,8.8,44.3c3.9,1,6.2,0.6,6.9,0.5c0.2,0,0.3-0.2,0.3-0.4c-0.2-0.9-2.1-2-4.8-2.9
				c-0.3-0.1-0.5-0.5-0.4-0.8c0,0,1.3-6.6,3.2-10.3L10.7,29.6z"/>
			<g id="XMLID_96_">
				<g id="XMLID_102_">
					<path id="XMLID_687_" class="st35" d="M12.1,4.4c0.9-0.8,3.1-0.6,6.5,0.2c3.4,0.8,5.4,1.7,5.9,2.8c1,2-0.1,14.4-0.7,16.7
						c-1.3,5.2-6.6,8.4-11.8,7.1C6.8,30,3.6,24.7,4.9,19.5C5.5,17.2,10.3,5.7,12.1,4.4z"/>
					<path id="XMLID_686_" class="st36" d="M6.1,26.9c9.8-1.9,15.7-9.5,18.8-15.1c0-2.1-0.1-3.8-0.4-4.4c-0.4-1.1-2.4-2-5.9-2.8
						s-5.6-1-6.5-0.2c-1.8,1.3-6.6,12.7-7.2,15.1C4.3,22.1,4.7,24.8,6.1,26.9z"/>
					<path id="XMLID_684_" class="st35" d="M18,7.2c3.4,0.8,6.3,0.9,6.5,0.2c-0.4-1.1-2.4-2-5.9-2.8s-5.6-1-6.5-0.2
						C11.9,5.1,14.5,6.4,18,7.2z"/>
					<path id="XMLID_671_" class="st10" d="M12.1,4.4c0.9-0.8,3.1-0.6,6.5,0.2c3.4,0.8,5.4,1.7,5.9,2.8c1,2-0.1,14.4-0.7,16.7
						c-1.3,5.2-6.6,8.4-11.8,7.1C6.8,30,3.6,24.7,4.9,19.5C5.5,17.2,10.3,5.7,12.1,4.4z"/>
					<path id="XMLID_667_" class="st10" d="M24.5,7.5c-0.2,0.7-3.1,0.6-6.5-0.2s-6-2.1-5.9-2.8"/>
				</g>
				<g id="XMLID_97_">
					<path id="XMLID_101_" class="st58" d="M7.2,21.5c0,0,1.3-2.4,4.9-1.6c3.6,0.9,3.9,3.7,3.9,3.7L7.2,21.5z"/>
					<path id="XMLID_99_" class="st58" d="M22.1,23.8c-1.1,4.3-5.4,6.9-9.7,5.9s-6.9-5.4-5.9-9.7c0,0,2.3,1.9,4.2,2.4
						c2,0.5,5.2-1.5,7.1-1C19.9,21.8,22.1,23.8,22.1,23.8z"/>
					<path id="XMLID_98_" class="st57" d="M7.8,26.5c3.8-1,7-3,9.6-5.2c-2-0.1-4.8,1.5-6.6,1.1c-2-0.5-4.2-2.4-4.2-2.4
						C5.9,22.3,6.5,24.7,7.8,26.5z"/>
				</g>
			</g>
			<g id="XMLID_93_">
				
					<ellipse id="XMLID_95_" transform="matrix(0.2405 -0.9707 0.9707 0.2405 0.4655 20.2573)" class="st16" cx="13.2" cy="9.8" rx="1.3" ry="1.3"/>
				
					<ellipse id="XMLID_94_" transform="matrix(0.2405 -0.9707 0.9707 0.2405 -2.8088 19.0089)" class="st16" cx="10.7" cy="11.3" rx="0.7" ry="0.7"/>
			</g>
		</g>
		<g id="XMLID_54_">
			<path id="XMLID_91_" class="st61" d="M33.3,27.7c2.2,3.5,3.9,10.1,3.9,10.1c0.1,0.3-0.1,0.7-0.4,0.8c-2.6,1-4.4,2.3-4.6,3.2
				c0,0.2,0.1,0.3,0.3,0.4c0.7,0.1,3,0.3,6.8-0.9c3.9-1.2,5.6-2.7,6.1-3.2c0.1-0.1,0.1-0.3,0-0.5c-0.7-0.6-2.9-0.6-5.6,0.1
				c-0.3,0.1-0.7-0.1-0.8-0.4c0,0-2.4-6.3-2.7-10.5L33.3,27.7z"/>
			<g id="XMLID_58_">
				<g id="XMLID_63_">
					<path id="XMLID_90_" class="st35" d="M21.3,5.6c0.3-1.2,2.3-2.1,5.7-3.2s5.5-1.4,6.5-0.7c1.9,1.2,7.5,12.3,8.2,14.6
						c1.6,5.1-1.2,10.6-6.3,12.2c-5.1,1.6-10.6-1.2-12.2-6.3C22.4,19.9,20.4,7.7,21.3,5.6z"/>
					<path id="XMLID_89_" class="st36" d="M28,27.9c7.3-6.7,8.4-16.3,8.1-22.7c-1.1-1.8-2-3.1-2.7-3.5c-0.9-0.8-3.1-0.4-6.5,0.7
						s-5.3,2.1-5.7,3.2c-0.9,2.1,1.1,14.3,1.8,16.6C24,24.8,25.8,26.8,28,27.9z"/>
					<path id="XMLID_88_" class="st35" d="M27.8,4.9c3.3-1.1,5.9-2.5,5.7-3.2c-0.9-0.8-3.1-0.4-6.5,0.7s-5.3,2.1-5.7,3.2
						C21.5,6.3,24.4,6,27.8,4.9z"/>
					<path id="XMLID_87_" class="st10" d="M21.3,5.6c0.3-1.2,2.3-2.1,5.7-3.2s5.5-1.4,6.5-0.7c1.9,1.2,7.5,12.3,8.2,14.6
						c1.6,5.1-1.2,10.6-6.3,12.2c-5.1,1.6-10.6-1.2-12.2-6.3C22.4,19.9,20.4,7.7,21.3,5.6z"/>
					<path id="XMLID_64_" class="st10" d="M33.4,1.7c0.2,0.7-2.3,2.1-5.7,3.2s-6.2,1.4-6.5,0.7"/>
				</g>
				<g id="XMLID_59_">
					<path id="XMLID_62_" class="st58" d="M26.1,22.7c0,0-0.2-2.8,3.3-3.9s5.3,1.1,5.3,1.1L26.1,22.7z"/>
					<path id="XMLID_61_" class="st58" d="M40,16.8c1.4,4.2-1,8.8-5.2,10.1c-4.2,1.4-8.8-1-10.1-5.2c0,0,3,0.5,4.9-0.2
						c1.9-0.6,3.6-4,5.6-4.6C37.1,16.3,40,16.8,40,16.8z"/>
					<path id="XMLID_60_" class="st57" d="M29.3,26.7c2.7-2.9,4.4-6.2,5.4-9.5c-1.7,1-3.3,3.8-5.1,4.4c-1.9,0.6-4.9,0.2-4.9,0.2
						C25.5,24,27.2,25.8,29.3,26.7z"/>
				</g>
			</g>
			<g id="XMLID_55_">
				
					<ellipse id="XMLID_57_" transform="matrix(0.9522 -0.3056 0.3056 0.9522 -1.7435 8.1197)" class="st16" cx="25.1" cy="9.6" rx="1.3" ry="1.3"/>
				
					<ellipse id="XMLID_56_" transform="matrix(0.9522 -0.3056 0.3056 0.9522 -2.5783 7.8436)" class="st16" cx="23.8" cy="12.2" rx="0.7" ry="0.7"/>
			</g>
		</g>
	</g>
</g>
</svg>
