<?xml version="1.0" encoding="utf-8"?>
<!-- Generator: Adobe Illustrator 21.1.0, SVG Export Plug-In . SVG Version: 6.00 Build 0)  -->
<svg version="1.1" xmlns="http://www.w3.org/2000/svg" xmlns:xlink="http://www.w3.org/1999/xlink" x="0px" y="0px"
	 viewBox="0 0 48 48" style="enable-background:new 0 0 48 48;" xml:space="preserve">
<style type="text/css">
	.st0{fill:#FFD4C3;stroke:#504B46;stroke-linecap:round;stroke-linejoin:round;stroke-miterlimit:10;}
	.st1{fill:#FFC258;}
	.st2{fill:#4F4B45;}
	.st3{fill:#FABFA5;}
	.st4{fill:none;stroke:#504B46;stroke-linecap:round;stroke-linejoin:round;stroke-miterlimit:10;}
	.Graphic_x0020_Style{opacity:0.15;fill:#45413C;}
	.st5{opacity:0.15;fill:#45413C;}
	.st6{fill:#DEBB7E;stroke:#45413C;stroke-linecap:round;stroke-linejoin:round;stroke-miterlimit:10;}
	.st7{fill:#F0D5A8;}
	.st8{fill:#F7E5C6;}
	.st9{fill:#DEBB7E;}
	.st10{fill:none;stroke:#45413C;stroke-linecap:round;stroke-linejoin:round;stroke-miterlimit:10;}
	.st11{fill:#FFE500;}
	.st12{fill:#EBCB00;}
	.st13{fill:none;stroke:#EBCB00;stroke-linecap:round;stroke-linejoin:round;stroke-miterlimit:10;}
	.st14{fill:#FF6242;stroke:#45413C;stroke-linecap:round;stroke-linejoin:round;stroke-miterlimit:10;}
	.st15{fill:#FFFFFF;stroke:#45413C;stroke-linecap:round;stroke-linejoin:round;stroke-miterlimit:10;}
	.st16{fill:#E5F8FF;}
	.st17{fill:#FFFFFF;}
	.st18{fill:#E8F4FA;}
	.st19{fill:#E8F4FA;stroke:#45413C;stroke-linecap:round;stroke-linejoin:round;stroke-miterlimit:10;}
	.st20{fill:#FFCCDD;}
	.st21{fill:#FFB0CA;stroke:#45413C;stroke-linecap:round;stroke-linejoin:round;stroke-miterlimit:10;}
	.st22{fill:#FF87AF;stroke:#45413C;stroke-linecap:round;stroke-linejoin:round;stroke-miterlimit:10;}
	.st23{fill:#E5F8FF;stroke:#45413C;stroke-linecap:round;stroke-linejoin:round;stroke-miterlimit:10;}
	.st24{fill:#BF8256;stroke:#45413C;stroke-linecap:round;stroke-linejoin:round;stroke-miterlimit:10;}
	.st25{fill:#9CEB60;}
	.st26{fill:#6DD627;}
	.st27{fill:#C8FFA1;}
	.st28{fill:#FFFACF;}
	.st29{fill:#FF87AF;}
	.st30{fill:#FFB0CA;}
	.st31{fill:#FF6196;}
	.st32{fill:#FFCCDD;stroke:#45413C;stroke-linecap:round;stroke-linejoin:round;stroke-miterlimit:10;}
	.st33{fill:#FF6196;stroke:#45413C;stroke-linecap:round;stroke-linejoin:round;stroke-miterlimit:10;}
	.st34{fill:#FFE5EE;}
	.st35{fill:#00B8F0;}
	.st36{fill:#4ACFFF;}
	.st37{fill:#BF8256;}
	.st38{fill:#DEA47A;}
	.st39{fill:#915E3A;}
	.st40{fill:#FFF5E3;}
	.st41{fill:#F0F0F0;}
	.st42{fill:#8CA4B8;}
	.st43{fill:#627B8C;}
	.st44{fill:#C0DCEB;}
	.st45{fill:#FFF48C;}
	.st46{fill:#FFE500;stroke:#45413C;stroke-linecap:round;stroke-linejoin:round;stroke-miterlimit:10;}
	.st47{fill:#FFAA54;}
	.st48{fill:#6DD627;stroke:#45413C;stroke-linecap:round;stroke-linejoin:round;stroke-miterlimit:10;}
	.st49{fill:#FF8A14;}
	.st50{fill:#FFCC99;}
	.st51{fill:#EBCB00;stroke:#45413C;stroke-linecap:round;stroke-linejoin:round;stroke-miterlimit:10;}
	.st52{fill:#00F5BC;stroke:#45413C;stroke-linecap:round;stroke-linejoin:round;stroke-miterlimit:10;}
	.st53{fill:#BF8DF2;stroke:#45413C;stroke-linecap:round;stroke-linejoin:round;stroke-miterlimit:10;}
	.st54{fill:#FF8A14;stroke:#45413C;stroke-linecap:round;stroke-linejoin:round;stroke-miterlimit:10;}
	.st55{fill:#4AEFF7;stroke:#45413C;stroke-linecap:round;stroke-linejoin:round;stroke-miterlimit:10;}
	.st56{fill:#FFF48C;stroke:#45413C;stroke-linecap:round;stroke-linejoin:round;stroke-miterlimit:10;}
	.st57{fill:#FF6242;}
	.st58{fill:#E04122;}
	.st59{fill:#46B000;}
	.st60{fill:none;stroke:#45413C;stroke-miterlimit:10;}
	.st61{fill:#00B8F0;stroke:#45413C;stroke-linecap:round;stroke-linejoin:round;stroke-miterlimit:10;}
	.st62{fill:#FF866E;}
	.st63{fill:#9F5AE5;stroke:#45413C;stroke-linecap:round;stroke-linejoin:round;stroke-miterlimit:10;}
	.st64{fill:#E4FFD1;}
	.st65{fill:#FFFEF2;}
	.st66{fill:#B89558;}
	.st67{fill:none;stroke:#915E3A;stroke-linecap:round;stroke-linejoin:round;stroke-miterlimit:10;}
	.st68{fill:#915E3A;stroke:#45413C;stroke-linecap:round;stroke-linejoin:round;stroke-miterlimit:10;}
	.st69{fill:#BF8DF2;}
	.st70{fill:#9F5AE5;}
	.st71{fill:#DABFF5;}
	.st72{fill:none;stroke:#45413C;stroke-linejoin:round;stroke-miterlimit:10;}
	.st73{fill:#656769;}
	.st74{fill:#87898C;}
	.st75{fill:#E0E0E0;}
	.st76{fill:#BDBEC0;}
	.st77{fill:#656769;stroke:#45413C;stroke-linecap:round;stroke-linejoin:round;stroke-miterlimit:10;}
	.st78{fill:#45413C;stroke:#45413C;stroke-linecap:round;stroke-linejoin:round;stroke-miterlimit:10;}
	.st79{fill:#FFA694;}
	.st80{fill:#E04122;stroke:#45413C;stroke-linecap:round;stroke-linejoin:round;stroke-miterlimit:10;}
	.st81{fill:#E0E0E0;stroke:#45413C;stroke-linecap:round;stroke-linejoin:round;stroke-miterlimit:10;}
	.st82{fill:#F0F0F0;stroke:#45413C;stroke-linecap:round;stroke-linejoin:round;stroke-miterlimit:10;}
	.st83{fill:#DAEDF7;}
	.st84{fill:#BDBEC0;stroke:#45413C;stroke-linecap:round;stroke-linejoin:round;stroke-miterlimit:10;}
	.st85{fill:#87898C;stroke:#45413C;stroke-linecap:round;stroke-linejoin:round;stroke-miterlimit:10;}
	.st86{fill:#00DFEB;}
	.st87{fill:#4AEFF7;}
	.st88{fill:#DAEDF7;stroke:#45413C;stroke-linecap:round;stroke-linejoin:round;stroke-miterlimit:10;}
	.st89{fill:#FFDA8F;}
	.st90{fill:#FFBE3D;}
	.st91{fill:#FFE9BD;}
	.st92{fill:#DEA47A;stroke:#45413C;stroke-linecap:round;stroke-linejoin:round;stroke-miterlimit:10;}
	.st93{fill:#45413C;}
	.st94{fill:#F0C2A1;}
	.st95{fill:none;stroke:#45413C;stroke-width:1.0064;stroke-linecap:round;stroke-linejoin:round;stroke-miterlimit:10;}
	.st96{fill:#525252;}
	.st97{fill:#EB6D00;stroke:#45413C;stroke-linecap:round;stroke-linejoin:round;stroke-miterlimit:10;}
	.st98{fill:#EB6D00;}
	.st99{fill:#E5FEFF;}
	.st100{fill:#FF866E;stroke:#45413C;stroke-linecap:round;stroke-linejoin:round;stroke-miterlimit:10;}
	.st101{fill:#627B8C;stroke:#45413C;stroke-linecap:round;stroke-linejoin:round;stroke-miterlimit:10;}
	.st102{fill:#FFFCE5;stroke:#45413C;stroke-linecap:round;stroke-linejoin:round;stroke-miterlimit:10;}
	.st103{fill:#A6FBFF;}
	.st104{fill:#D9FDFF;}
	.st105{fill:#FFFACF;stroke:#45413C;stroke-linecap:round;stroke-linejoin:round;stroke-miterlimit:10;}
	.st106{fill:#B8ECFF;}
	.st107{fill:#FFCABF;}
	.st108{fill:#E5FFF9;}
	.st109{fill:#C8FFA1;stroke:#45413C;stroke-linecap:round;stroke-linejoin:round;stroke-miterlimit:10;}
	.st110{fill:#4CF4FC;}
	.st111{fill:#F0D5A8;stroke:#45413C;stroke-linecap:round;stroke-linejoin:round;stroke-miterlimit:10;}
	.st112{fill:#FFDCD1;stroke:#45413C;stroke-linecap:round;stroke-linejoin:round;stroke-miterlimit:10;}
	.st113{fill:#80DDFF;}
	.st114{fill:#46B000;stroke:#45413C;stroke-linecap:round;stroke-linejoin:round;stroke-miterlimit:10;}
	.st115{fill:#4ACFFF;stroke:#45413C;stroke-linecap:round;stroke-linejoin:round;stroke-miterlimit:10;}
	.st116{fill:#ADC4D9;}
	.st117{fill:#BDBEC0;stroke:#45413C;stroke-width:1.0064;stroke-linecap:round;stroke-linejoin:round;stroke-miterlimit:10;}
	.st118{fill:#FFFCE5;}
	.st119{fill:#947746;}
	.st120{fill:#525252;stroke:#45413C;stroke-linecap:round;stroke-linejoin:round;stroke-miterlimit:10;}
</style>
<symbol  id="New_Symbol_14" viewBox="-6.5 -6.5 13 13">
	<path class="st0" d="M0-6c2.2,0,4.1,1.5,4.7,3.5c0,0,0,0,0,0C6.3-2.5,6.4,0,5,0v1c0,2.8-2.2,5-5,5c-2.8,0-5-2.2-5-5V0
		c-1.4,0-1.3-2.5,0.2-2.5c0,0,0,0,0,0C-4.1-4.5-2.2-6,0-6z"/>
	<g>
		<circle class="st1" cx="-1.6" cy="-0.1" r="0.1"/>
		<path class="st2" d="M-1.6,0.5c-0.3,0-0.6-0.3-0.6-0.6S-2-0.8-1.6-0.8C-1.3-0.8-1-0.5-1-0.1S-1.3,0.5-1.6,0.5L-1.6,0.5z"/>
	</g>
	<g>
		<circle class="st1" cx="1.6" cy="-0.1" r="0.1"/>
		<path class="st2" d="M1.6,0.5C1.3,0.5,1,0.2,1-0.1s0.3-0.6,0.6-0.6c0.3,0,0.6,0.3,0.6,0.6S2,0.5,1.6,0.5L1.6,0.5z"/>
	</g>
	<circle class="st3" cx="-3" cy="-1.5" r="0.5"/>
	<circle class="st3" cx="3" cy="-1.5" r="0.5"/>
	<path class="st4" d="M-1.2-3c0.8-0.5,1.7-0.5,2.5,0"/>
</symbol>
<g id="Bg">
</g>
<g id="Icons">
	<g id="XMLID_1890_">
		<ellipse id="XMLID_1461_" class="st5" cx="12.1" cy="45.2" rx="9" ry="1.5"/>
		<ellipse id="XMLID_1460_" class="st5" cx="36.8" cy="45.2" rx="9" ry="1.5"/>
		<g id="XMLID_1497_">
			<path id="XMLID_1557_" class="st61" d="M10.6,29.7c0,4.2-2,10.7-2,10.7c-0.1,0.3-0.4,0.6-0.8,0.5c-2.7-0.5-5-0.4-5.6,0.3
				c-0.1,0.1-0.1,0.3,0,0.5c0.6,0.5,2.4,1.8,6.4,2.8c4,1,6.2,0.6,6.9,0.5c0.2,0,0.3-0.2,0.3-0.4c-0.2-0.9-2.1-2.1-4.8-2.9
				c-0.3-0.1-0.5-0.5-0.5-0.8c0,0,1.3-6.7,3.3-10.4L10.6,29.7z"/>
			<g id="XMLID_1503_">
				<g id="XMLID_1508_">
					<path id="XMLID_1556_" class="st35" d="M12,4.4c0.9-0.8,3.1-0.6,6.5,0.2C22,5.5,24,6.3,24.4,7.5c1,2-0.1,14.4-0.7,16.8
						c-1.3,5.2-6.6,8.4-11.8,7.1s-8.4-6.6-7.1-11.8C5.4,17.2,10.2,5.7,12,4.4z"/>
					<path id="XMLID_1555_" class="st36" d="M5.9,27.1c9.8-1.9,15.8-9.6,18.9-15.2c0-2.1-0.1-3.8-0.4-4.4c-0.4-1.1-2.5-2-5.9-2.8
						c-3.4-0.9-5.6-1.1-6.5-0.2c-1.9,1.3-6.6,12.8-7.2,15.2C4.1,22.2,4.6,24.9,5.9,27.1z"/>
					<path id="XMLID_1552_" class="st35" d="M17.9,7.2c3.4,0.9,6.4,1,6.5,0.2c-0.4-1.1-2.5-2-5.9-2.8c-3.4-0.9-5.6-1.1-6.5-0.2
						C11.8,5.1,14.5,6.4,17.9,7.2z"/>
					<path id="XMLID_1551_" class="st10" d="M12,4.4c0.9-0.8,3.1-0.6,6.5,0.2C22,5.5,24,6.3,24.4,7.5c1,2-0.1,14.4-0.7,16.8
						c-1.3,5.2-6.6,8.4-11.8,7.1s-8.4-6.6-7.1-11.8C5.4,17.2,10.2,5.7,12,4.4z"/>
					<path id="XMLID_1522_" class="st10" d="M24.4,7.5c-0.2,0.7-3.1,0.6-6.5-0.2S11.8,5.1,12,4.4"/>
				</g>
				<g id="XMLID_1504_">
					<path id="XMLID_1507_" class="st45" d="M7.1,21.6c0,0,1.3-2.5,4.9-1.6c3.6,0.9,3.9,3.8,3.9,3.8L7.1,21.6z"/>
					<path id="XMLID_1506_" class="st45" d="M22.1,23.9c-1.1,4.3-5.5,7-9.8,5.9c-4.3-1.1-7-5.5-5.9-9.8c0,0,2.3,2,4.3,2.4
						c2,0.5,5.2-1.5,7.2-1C19.8,21.9,22.1,23.9,22.1,23.9z"/>
					<path id="XMLID_1505_" class="st28" d="M7.7,26.6c3.8-1,7-3,9.6-5.3c-2-0.1-4.9,1.5-6.7,1.1C8.7,22,6.4,20,6.4,20
						C5.8,22.4,6.4,24.8,7.7,26.6z"/>
				</g>
			</g>
			<g id="XMLID_1498_">
				
					<ellipse id="XMLID_1502_" transform="matrix(0.2404 -0.9707 0.9707 0.2404 0.385 20.1904)" class="st16" cx="13.1" cy="9.8" rx="1.3" ry="1.3"/>
				
					<ellipse id="XMLID_1501_" transform="matrix(0.2405 -0.9707 0.9707 0.2405 -2.9089 18.9346)" class="st16" cx="10.6" cy="11.3" rx="0.7" ry="0.7"/>
			</g>
		</g>
		<g id="XMLID_1280_">
			<path id="XMLID_1494_" class="st61" d="M33.4,27.9c2.2,3.5,4,10.1,4,10.1c0.1,0.3-0.1,0.7-0.4,0.8c-2.6,1-4.4,2.3-4.6,3.2
				c0,0.2,0.1,0.3,0.3,0.4c0.7,0.1,3,0.3,6.9-0.9c3.9-1.2,5.6-2.7,6.1-3.3c0.1-0.1,0.1-0.3,0-0.5c-0.7-0.6-2.9-0.6-5.6,0.1
				c-0.3,0.1-0.7-0.1-0.8-0.4c0,0-2.4-6.4-2.7-10.5L33.4,27.9z"/>
			<g id="XMLID_1284_">
				<g id="XMLID_1300_">
					<path id="XMLID_1319_" class="st35" d="M21.3,5.6c0.3-1.2,2.3-2.2,5.7-3.2c3.4-1.1,5.6-1.4,6.5-0.7C35.4,2.8,41,14,41.7,16.3
						c1.6,5.1-1.2,10.6-6.3,12.3c-5.1,1.6-10.6-1.2-12.3-6.3C22.4,20,20.4,7.7,21.3,5.6z"/>
					<path id="XMLID_1318_" class="st36" d="M28,28c7.4-6.8,8.4-16.4,8.1-22.8c-1.1-1.8-2.1-3.2-2.7-3.5c-1-0.8-3.1-0.4-6.5,0.7
						c-3.4,1.1-5.4,2.1-5.7,3.2c-0.9,2.1,1.1,14.4,1.8,16.7C23.9,24.9,25.8,26.9,28,28z"/>
					<path id="XMLID_1317_" class="st35" d="M27.8,4.9c3.4-1.1,5.9-2.5,5.7-3.2c-1-0.8-3.1-0.4-6.5,0.7c-3.4,1.1-5.4,2.1-5.7,3.2
						C21.5,6.3,24.4,6,27.8,4.9z"/>
					<path id="XMLID_1316_" class="st10" d="M21.3,5.6c0.3-1.2,2.3-2.2,5.7-3.2c3.4-1.1,5.6-1.4,6.5-0.7C35.4,2.8,41,14,41.7,16.3
						c1.6,5.1-1.2,10.6-6.3,12.3c-5.1,1.6-10.6-1.2-12.3-6.3C22.4,20,20.4,7.7,21.3,5.6z"/>
					<path id="XMLID_1301_" class="st10" d="M33.5,1.7c0.2,0.7-2.3,2.2-5.7,3.2s-6.3,1.4-6.5,0.7"/>
				</g>
				<g id="XMLID_1285_">
					<path id="XMLID_1288_" class="st45" d="M26.1,22.8c0,0-0.2-2.8,3.3-3.9c3.5-1.1,5.3,1.1,5.3,1.1L26.1,22.8z"/>
					<path id="XMLID_1287_" class="st45" d="M40.1,16.9c1.4,4.3-1,8.8-5.2,10.2c-4.3,1.4-8.8-1-10.2-5.2c0,0,3,0.5,4.9-0.2
						c1.9-0.6,3.7-4,5.6-4.6C37.1,16.4,40.1,16.9,40.1,16.9z"/>
					<path id="XMLID_1286_" class="st28" d="M29.3,26.8c2.7-2.9,4.4-6.2,5.4-9.5c-1.7,1-3.3,3.8-5.1,4.4c-1.9,0.6-4.9,0.2-4.9,0.2
						C25.5,24.1,27.2,25.9,29.3,26.8z"/>
				</g>
			</g>
			<g id="XMLID_1281_">
				
					<ellipse id="XMLID_1283_" transform="matrix(0.9522 -0.3056 0.3056 0.9522 -1.7493 8.1167)" class="st16" cx="25.1" cy="9.6" rx="1.3" ry="1.3"/>
				
					<ellipse id="XMLID_1282_" transform="matrix(0.9522 -0.3055 0.3055 0.9522 -2.589 7.8386)" class="st16" cx="23.7" cy="12.2" rx="0.7" ry="0.7"/>
			</g>
		</g>
	</g>
</g>
</svg>
