<?xml version="1.0" encoding="utf-8"?>
<!-- Generator: Adobe Illustrator 21.1.0, SVG Export Plug-In . SVG Version: 6.00 Build 0)  -->
<svg version="1.1" xmlns="http://www.w3.org/2000/svg" xmlns:xlink="http://www.w3.org/1999/xlink" x="0px" y="0px"
	 viewBox="0 0 48 48" style="enable-background:new 0 0 48 48;" xml:space="preserve">
<style type="text/css">
	.st0{fill:#FFD4C3;stroke:#504B46;stroke-linecap:round;stroke-linejoin:round;stroke-miterlimit:10;}
	.st1{fill:#FFC258;}
	.st2{fill:#4F4B45;}
	.st3{fill:#FABFA5;}
	.st4{fill:none;stroke:#504B46;stroke-linecap:round;stroke-linejoin:round;stroke-miterlimit:10;}
	.Graphic_x0020_Style{opacity:0.15;fill:#45413C;}
	.st5{opacity:0.15;fill:#45413C;}
	.st6{fill:#DEBB7E;stroke:#45413C;stroke-linecap:round;stroke-linejoin:round;stroke-miterlimit:10;}
	.st7{fill:#F0D5A8;}
	.st8{fill:#F7E5C6;}
	.st9{fill:#DEBB7E;}
	.st10{fill:none;stroke:#45413C;stroke-linecap:round;stroke-linejoin:round;stroke-miterlimit:10;}
	.st11{fill:#FFE500;}
	.st12{fill:#EBCB00;}
	.st13{fill:none;stroke:#EBCB00;stroke-linecap:round;stroke-linejoin:round;stroke-miterlimit:10;}
	.st14{fill:#FF6242;stroke:#45413C;stroke-linecap:round;stroke-linejoin:round;stroke-miterlimit:10;}
	.st15{fill:#FFFFFF;stroke:#45413C;stroke-linecap:round;stroke-linejoin:round;stroke-miterlimit:10;}
	.st16{fill:#E5F8FF;}
	.st17{fill:#FFFFFF;}
	.st18{fill:#E8F4FA;}
	.st19{fill:#E8F4FA;stroke:#45413C;stroke-linecap:round;stroke-linejoin:round;stroke-miterlimit:10;}
	.st20{fill:#FFCCDD;}
	.st21{fill:#FFB0CA;stroke:#45413C;stroke-linecap:round;stroke-linejoin:round;stroke-miterlimit:10;}
	.st22{fill:#FF87AF;stroke:#45413C;stroke-linecap:round;stroke-linejoin:round;stroke-miterlimit:10;}
	.st23{fill:#E5F8FF;stroke:#45413C;stroke-linecap:round;stroke-linejoin:round;stroke-miterlimit:10;}
	.st24{fill:#BF8256;stroke:#45413C;stroke-linecap:round;stroke-linejoin:round;stroke-miterlimit:10;}
	.st25{fill:#9CEB60;}
	.st26{fill:#6DD627;}
	.st27{fill:#C8FFA1;}
	.st28{fill:#FFFACF;}
	.st29{fill:#FF87AF;}
	.st30{fill:#FFB0CA;}
	.st31{fill:#FF6196;}
	.st32{fill:#FFCCDD;stroke:#45413C;stroke-linecap:round;stroke-linejoin:round;stroke-miterlimit:10;}
	.st33{fill:#FF6196;stroke:#45413C;stroke-linecap:round;stroke-linejoin:round;stroke-miterlimit:10;}
	.st34{fill:#FFE5EE;}
	.st35{fill:#00B8F0;}
	.st36{fill:#4ACFFF;}
	.st37{fill:#BF8256;}
	.st38{fill:#DEA47A;}
	.st39{fill:#915E3A;}
	.st40{fill:#FFF5E3;}
	.st41{fill:#F0F0F0;}
	.st42{fill:#8CA4B8;}
	.st43{fill:#627B8C;}
	.st44{fill:#C0DCEB;}
	.st45{fill:#FFF48C;}
	.st46{fill:#FFE500;stroke:#45413C;stroke-linecap:round;stroke-linejoin:round;stroke-miterlimit:10;}
	.st47{fill:#FFAA54;}
	.st48{fill:#6DD627;stroke:#45413C;stroke-linecap:round;stroke-linejoin:round;stroke-miterlimit:10;}
	.st49{fill:#FF8A14;}
	.st50{fill:#FFCC99;}
	.st51{fill:#EBCB00;stroke:#45413C;stroke-linecap:round;stroke-linejoin:round;stroke-miterlimit:10;}
	.st52{fill:#00F5BC;stroke:#45413C;stroke-linecap:round;stroke-linejoin:round;stroke-miterlimit:10;}
	.st53{fill:#BF8DF2;stroke:#45413C;stroke-linecap:round;stroke-linejoin:round;stroke-miterlimit:10;}
	.st54{fill:#FF8A14;stroke:#45413C;stroke-linecap:round;stroke-linejoin:round;stroke-miterlimit:10;}
	.st55{fill:#4AEFF7;stroke:#45413C;stroke-linecap:round;stroke-linejoin:round;stroke-miterlimit:10;}
	.st56{fill:#FFF48C;stroke:#45413C;stroke-linecap:round;stroke-linejoin:round;stroke-miterlimit:10;}
	.st57{fill:#FF6242;}
	.st58{fill:#E04122;}
	.st59{fill:#46B000;}
	.st60{fill:none;stroke:#45413C;stroke-miterlimit:10;}
	.st61{fill:#00B8F0;stroke:#45413C;stroke-linecap:round;stroke-linejoin:round;stroke-miterlimit:10;}
	.st62{fill:#FF866E;}
	.st63{fill:#9F5AE5;stroke:#45413C;stroke-linecap:round;stroke-linejoin:round;stroke-miterlimit:10;}
	.st64{fill:#E4FFD1;}
	.st65{fill:#FFFEF2;}
	.st66{fill:#B89558;}
	.st67{fill:none;stroke:#915E3A;stroke-linecap:round;stroke-linejoin:round;stroke-miterlimit:10;}
	.st68{fill:#915E3A;stroke:#45413C;stroke-linecap:round;stroke-linejoin:round;stroke-miterlimit:10;}
	.st69{fill:#BF8DF2;}
	.st70{fill:#9F5AE5;}
	.st71{fill:#DABFF5;}
	.st72{fill:none;stroke:#45413C;stroke-linejoin:round;stroke-miterlimit:10;}
	.st73{fill:#656769;}
	.st74{fill:#87898C;}
	.st75{fill:#E0E0E0;}
	.st76{fill:#BDBEC0;}
	.st77{fill:#656769;stroke:#45413C;stroke-linecap:round;stroke-linejoin:round;stroke-miterlimit:10;}
	.st78{fill:#45413C;stroke:#45413C;stroke-linecap:round;stroke-linejoin:round;stroke-miterlimit:10;}
	.st79{fill:#FFA694;}
	.st80{fill:#E04122;stroke:#45413C;stroke-linecap:round;stroke-linejoin:round;stroke-miterlimit:10;}
	.st81{fill:#E0E0E0;stroke:#45413C;stroke-linecap:round;stroke-linejoin:round;stroke-miterlimit:10;}
	.st82{fill:#F0F0F0;stroke:#45413C;stroke-linecap:round;stroke-linejoin:round;stroke-miterlimit:10;}
	.st83{fill:#DAEDF7;}
	.st84{fill:#BDBEC0;stroke:#45413C;stroke-linecap:round;stroke-linejoin:round;stroke-miterlimit:10;}
	.st85{fill:#87898C;stroke:#45413C;stroke-linecap:round;stroke-linejoin:round;stroke-miterlimit:10;}
	.st86{fill:#00DFEB;}
	.st87{fill:#4AEFF7;}
	.st88{fill:#DAEDF7;stroke:#45413C;stroke-linecap:round;stroke-linejoin:round;stroke-miterlimit:10;}
	.st89{fill:#FFDA8F;}
	.st90{fill:#FFBE3D;}
	.st91{fill:#FFE9BD;}
	.st92{fill:#DEA47A;stroke:#45413C;stroke-linecap:round;stroke-linejoin:round;stroke-miterlimit:10;}
	.st93{fill:#45413C;}
	.st94{fill:#F0C2A1;}
	.st95{fill:none;stroke:#45413C;stroke-width:1.0064;stroke-linecap:round;stroke-linejoin:round;stroke-miterlimit:10;}
	.st96{fill:#525252;}
	.st97{fill:#EB6D00;stroke:#45413C;stroke-linecap:round;stroke-linejoin:round;stroke-miterlimit:10;}
	.st98{fill:#EB6D00;}
	.st99{fill:#E5FEFF;}
	.st100{fill:#FF866E;stroke:#45413C;stroke-linecap:round;stroke-linejoin:round;stroke-miterlimit:10;}
	.st101{fill:#627B8C;stroke:#45413C;stroke-linecap:round;stroke-linejoin:round;stroke-miterlimit:10;}
	.st102{fill:#FFFCE5;stroke:#45413C;stroke-linecap:round;stroke-linejoin:round;stroke-miterlimit:10;}
	.st103{fill:#A6FBFF;}
	.st104{fill:#D9FDFF;}
	.st105{fill:#FFFACF;stroke:#45413C;stroke-linecap:round;stroke-linejoin:round;stroke-miterlimit:10;}
	.st106{fill:#B8ECFF;}
	.st107{fill:#FFCABF;}
	.st108{fill:#E5FFF9;}
	.st109{fill:#C8FFA1;stroke:#45413C;stroke-linecap:round;stroke-linejoin:round;stroke-miterlimit:10;}
	.st110{fill:#4CF4FC;}
	.st111{fill:#F0D5A8;stroke:#45413C;stroke-linecap:round;stroke-linejoin:round;stroke-miterlimit:10;}
	.st112{fill:#FFDCD1;stroke:#45413C;stroke-linecap:round;stroke-linejoin:round;stroke-miterlimit:10;}
	.st113{fill:#80DDFF;}
	.st114{fill:#46B000;stroke:#45413C;stroke-linecap:round;stroke-linejoin:round;stroke-miterlimit:10;}
	.st115{fill:#4ACFFF;stroke:#45413C;stroke-linecap:round;stroke-linejoin:round;stroke-miterlimit:10;}
	.st116{fill:#ADC4D9;}
	.st117{fill:#BDBEC0;stroke:#45413C;stroke-width:1.0064;stroke-linecap:round;stroke-linejoin:round;stroke-miterlimit:10;}
	.st118{fill:#FFFCE5;}
	.st119{fill:#947746;}
	.st120{fill:#525252;stroke:#45413C;stroke-linecap:round;stroke-linejoin:round;stroke-miterlimit:10;}
</style>
<symbol  id="New_Symbol_14" viewBox="-6.5 -6.5 13 13">
	<path class="st0" d="M0-6c2.2,0,4.1,1.5,4.7,3.5c0,0,0,0,0,0C6.3-2.5,6.4,0,5,0v1c0,2.8-2.2,5-5,5c-2.8,0-5-2.2-5-5V0
		c-1.4,0-1.3-2.5,0.2-2.5c0,0,0,0,0,0C-4.1-4.5-2.2-6,0-6z"/>
	<g>
		<circle class="st1" cx="-1.6" cy="-0.1" r="0.1"/>
		<path class="st2" d="M-1.6,0.5c-0.3,0-0.6-0.3-0.6-0.6S-2-0.8-1.6-0.8C-1.3-0.8-1-0.5-1-0.1S-1.3,0.5-1.6,0.5L-1.6,0.5z"/>
	</g>
	<g>
		<circle class="st1" cx="1.6" cy="-0.1" r="0.1"/>
		<path class="st2" d="M1.6,0.5C1.3,0.5,1,0.2,1-0.1s0.3-0.6,0.6-0.6c0.3,0,0.6,0.3,0.6,0.6S2,0.5,1.6,0.5L1.6,0.5z"/>
	</g>
	<circle class="st3" cx="-3" cy="-1.5" r="0.5"/>
	<circle class="st3" cx="3" cy="-1.5" r="0.5"/>
	<path class="st4" d="M-1.2-3c0.8-0.5,1.7-0.5,2.5,0"/>
</symbol>
<g id="Bg">
</g>
<g id="Icons">
	<g id="XMLID_1888_">
		<ellipse id="XMLID_1742_" class="st5" cx="12.5" cy="45.1" rx="9" ry="1.5"/>
		<ellipse id="XMLID_2021_" class="st5" cx="35.7" cy="45.1" rx="9" ry="1.5"/>
		<g id="XMLID_1643_">
			<path id="XMLID_1727_" class="st61" d="M10.8,30.5c0.1,3.9-1.5,10-1.5,10c-0.1,0.3-0.4,0.5-0.7,0.5c-2.6-0.4-4.7-0.2-5.2,0.5
				c-0.1,0.1-0.1,0.3,0.1,0.4c0.5,0.4,2.3,1.6,6,2.4c3.7,0.8,5.8,0.4,6.5,0.2c0.2,0,0.3-0.2,0.2-0.4c-0.2-0.8-2.1-1.8-4.6-2.5
				c-0.3-0.1-0.5-0.4-0.4-0.7c0,0,1-6.3,2.7-9.8L10.8,30.5z"/>
			<g id="XMLID_1722_">
				<path id="XMLID_1726_" class="st35" d="M20.8,25.9c-0.8,3.9-4.8,7-8.7,6.2c-3.9-0.8-6.3-5.3-5.5-9.2l5.7-21L24,4.4L20.8,25.9z"
					/>
				<path id="XMLID_1725_" class="st36" d="M22.4,15.1L24,4.4L12.3,1.9l-5.7,21c-0.2,0.9-0.2,1.9-0.1,2.8
					C12.6,23.4,18.3,19.9,22.4,15.1z"/>
				<path id="XMLID_1724_" class="st10" d="M20.8,25.9c-0.8,3.9-4.8,7-8.7,6.2c-3.9-0.8-6.3-5.3-5.5-9.2l5.7-21L24,4.4L20.8,25.9z"
					/>
				
					<ellipse id="XMLID_1723_" transform="matrix(0.2056 -0.9786 0.9786 0.2056 11.3338 20.2519)" class="st61" cx="18.1" cy="3.1" rx="1.3" ry="6"/>
			</g>
			<g id="XMLID_1648_">
				<path id="XMLID_1721_" class="st11" d="M10,18.8c0,0,0.9-1.4,2.8-1c2.2,0.5,3.1,2.3,3.1,2.3L10,18.8z"/>
				<path id="XMLID_1658_" class="st11" d="M19.3,24.9c-0.6,3.1-3.9,6.3-7,5.6c-3.1-0.6-4.8-4.9-4.1-7.9l1.3-4.9
					c0,0,0.4,1.1,2.6,1.5c2.2,0.5,3.2-1.3,5.3-0.8c2.2,0.5,2.6,1.5,2.6,1.5L19.3,24.9z"/>
				<path id="XMLID_1657_" class="st45" d="M18.6,18.8c-0.3-0.1-0.7-0.3-1.1-0.4c-2.2-0.5-3.2,1.3-5.3,0.8c-2.2-0.5-2.6-1.5-2.6-1.5
					l-1.3,4.9c-0.2,0.8-0.2,1.6-0.1,2.5C12,23.5,15.6,21.4,18.6,18.8z"/>
				
					<ellipse id="XMLID_1656_" transform="matrix(0.2056 -0.9786 0.9786 0.2056 -0.6057 30.8464)" class="st11" cx="18.7" cy="15.8" rx="0.6" ry="0.6"/>
				
					<ellipse id="XMLID_1655_" transform="matrix(0.2056 -0.9786 0.9786 0.2056 -8.3534 35.7201)" class="st45" cx="17.8" cy="23" rx="0.6" ry="0.6"/>
				
					<ellipse id="XMLID_1654_" transform="matrix(0.2056 -0.9786 0.9786 0.2056 -17.0761 32.6261)" class="st45" cx="11.6" cy="26.8" rx="0.6" ry="0.6"/>
				
					<ellipse id="XMLID_1653_" transform="matrix(0.2056 -0.9786 0.9786 0.2056 -12.1104 32.7465)" class="st45" cx="14.1" cy="23.8" rx="0.6" ry="0.6"/>
				
					<ellipse id="XMLID_1652_" transform="matrix(0.2056 -0.9786 0.9786 0.2056 -14.72 37.2098)" class="st45" cx="15.6" cy="27.7" rx="0.6" ry="0.6"/>
				
					<ellipse id="XMLID_1651_" transform="matrix(0.2056 -0.9786 0.9786 0.2056 -5.6409 24.5192)" class="st11" cx="12.3" cy="15.7" rx="0.6" ry="0.6"/>
				
					<ellipse id="XMLID_1650_" transform="matrix(0.2056 -0.9786 0.9786 0.2056 -11.988 27.7814)" class="st28" cx="11.1" cy="21.3" rx="0.6" ry="0.6"/>
				
					<ellipse id="XMLID_1649_" transform="matrix(0.2056 -0.9786 0.9786 0.2056 -0.303 26.2322)" class="st11" cx="16" cy="13.3" rx="0.6" ry="0.6"/>
			</g>
			<g id="XMLID_1644_">
				
					<ellipse id="XMLID_1647_" transform="matrix(0.2056 -0.9786 0.9786 0.2056 4.7761 20.5023)" class="st16" cx="15" cy="7.3" rx="1.3" ry="1.3"/>
				
					<ellipse id="XMLID_1645_" transform="matrix(0.2056 -0.9786 0.9786 0.2056 1.5729 19.4741)" class="st16" cx="12.8" cy="8.8" rx="0.6" ry="0.6"/>
			</g>
		</g>
		<g id="XMLID_1598_">
			<path id="XMLID_1642_" class="st61" d="M31.8,31.2c1.8,3.5,2.9,9.7,2.9,9.7c0.1,0.3-0.1,0.6-0.4,0.7c-2.5,0.8-4.3,1.8-4.5,2.6
				c0,0.2,0.1,0.3,0.2,0.4c0.7,0.2,2.8,0.5,6.5-0.3c3.7-0.9,5.4-2.1,6-2.5c0.1-0.1,0.2-0.3,0.1-0.4c-0.6-0.7-2.7-0.8-5.2-0.4
				c-0.3,0.1-0.6-0.2-0.7-0.5c0,0-1.7-6.1-1.6-10L31.8,31.2z"/>
			<g id="XMLID_1637_">
				<path id="XMLID_1641_" class="st35" d="M38.9,22.8c0.9,3.9-1.4,8.4-5.3,9.3c-3.9,0.9-7.9-2.2-8.8-6L21.2,4.6l11.7-2.7L38.9,22.8
					z"/>
				<path id="XMLID_1640_" class="st36" d="M35.9,12.4l-3-10.5L21.2,4.6L24.8,26c0.2,0.9,0.6,1.8,1.1,2.6
					C30.5,24,34.1,18.4,35.9,12.4z"/>
				<path id="XMLID_1639_" class="st10" d="M38.9,22.8c0.9,3.9-1.4,8.4-5.3,9.3c-3.9,0.9-7.9-2.2-8.8-6L21.2,4.6l11.7-2.7L38.9,22.8
					z"/>
				
					<ellipse id="XMLID_1638_" transform="matrix(0.9747 -0.2235 0.2235 0.9747 -4.712598e-02 6.1152)" class="st61" cx="27" cy="3.3" rx="6" ry="1.3"/>
			</g>
			<g id="XMLID_1602_">
				<path id="XMLID_1636_" class="st11" d="M26.2,20.9c0,0,0.3-1.7,2.1-2.1c2.1-0.5,3.7,0.8,3.7,0.8L26.2,20.9z"/>
				<path id="XMLID_1635_" class="st11" d="M37.2,22.5c0.7,3-0.9,7.3-4,8c-3,0.7-6.4-2.4-7.1-5.5l-0.8-5c0,0,0.8,0.8,3,0.3
					c2.1-0.5,2.3-2.5,4.5-3c2.1-0.5,3,0.3,3,0.3L37.2,22.5z"/>
				<path id="XMLID_1634_" class="st45" d="M34,17.3c-0.3,0-0.7,0.1-1.2,0.2c-2.1,0.5-2.3,2.5-4.5,3c-2.1,0.5-3-0.3-3-0.3l0.8,5
					c0.2,0.8,0.5,1.5,1,2.3C29.9,24.3,32.3,20.9,34,17.3z"/>
				
					<ellipse id="XMLID_1633_" transform="matrix(0.9747 -0.2235 0.2235 0.9747 -2.415 7.6973)" class="st11" cx="32.8" cy="14.5" rx="0.6" ry="0.6"/>
				
					<ellipse id="XMLID_1609_" transform="matrix(0.9747 -0.2234 0.2234 0.9747 -3.9027 8.3698)" class="st45" cx="35" cy="21.4" rx="0.6" ry="0.6"/>
				
					<ellipse id="XMLID_1608_" transform="matrix(0.9747 -0.2234 0.2234 0.9747 -5.3691 7.6107)" class="st45" cx="30.9" cy="27.5" rx="0.6" ry="0.6"/>
				
					<ellipse id="XMLID_1607_" transform="matrix(0.9747 -0.2235 0.2235 0.9747 -4.4946 7.7535)" class="st45" cx="32" cy="23.7" rx="0.6" ry="0.6"/>
				
					<ellipse id="XMLID_1606_" transform="matrix(0.9747 -0.2235 0.2235 0.9747 -5.0644 8.4786)" class="st45" cx="34.9" cy="26.6" rx="0.6" ry="0.6"/>
				
					<ellipse id="XMLID_1605_" transform="matrix(0.9747 -0.2235 0.2235 0.9747 -3.1511 6.4565)" class="st11" cx="27" cy="17.2" rx="0.6" ry="0.6"/>
				
					<ellipse id="XMLID_1604_" transform="matrix(0.9747 -0.2235 0.2235 0.9747 -4.353 6.8803)" class="st28" cx="28.2" cy="22.7" rx="0.6" ry="0.6"/>
				
					<ellipse id="XMLID_1603_" transform="matrix(0.9747 -0.2235 0.2235 0.9747 -2.2492 6.8892)" class="st11" cx="29.3" cy="13.4" rx="0.6" ry="0.6"/>
			</g>
			<g id="XMLID_1599_">
				
					<ellipse id="XMLID_1601_" transform="matrix(0.9747 -0.2234 0.2234 0.9747 -1.2123 5.9997)" class="st16" cx="25.9" cy="8.4" rx="1.3" ry="1.3"/>
				
					<ellipse id="XMLID_1600_" transform="matrix(0.9747 -0.2235 0.2235 0.9747 -1.7536 5.7415)" class="st16" cx="24.5" cy="10.6" rx="0.6" ry="0.6"/>
			</g>
		</g>
	</g>
</g>
</svg>
