<?xml version="1.0" encoding="utf-8"?>
<!-- Generator: Adobe Illustrator 21.1.0, SVG Export Plug-In . SVG Version: 6.00 Build 0)  -->
<svg version="1.1" xmlns="http://www.w3.org/2000/svg" xmlns:xlink="http://www.w3.org/1999/xlink" x="0px" y="0px"
	 viewBox="0 0 48 48" style="enable-background:new 0 0 48 48;" xml:space="preserve">
<style type="text/css">
	.st0{fill:#FFD4C3;stroke:#504B46;stroke-linecap:round;stroke-linejoin:round;stroke-miterlimit:10;}
	.st1{fill:#FFC258;}
	.st2{fill:#4F4B45;}
	.st3{fill:#FABFA5;}
	.st4{fill:none;stroke:#504B46;stroke-linecap:round;stroke-linejoin:round;stroke-miterlimit:10;}
	.Graphic_x0020_Style{opacity:0.15;fill:#45413C;}
	.st5{opacity:0.15;fill:#45413C;}
	.st6{fill:#DEBB7E;stroke:#45413C;stroke-linecap:round;stroke-linejoin:round;stroke-miterlimit:10;}
	.st7{fill:#F0D5A8;}
	.st8{fill:#F7E5C6;}
	.st9{fill:#DEBB7E;}
	.st10{fill:none;stroke:#45413C;stroke-linecap:round;stroke-linejoin:round;stroke-miterlimit:10;}
	.st11{fill:#FFE500;}
	.st12{fill:#EBCB00;}
	.st13{fill:none;stroke:#EBCB00;stroke-linecap:round;stroke-linejoin:round;stroke-miterlimit:10;}
	.st14{fill:#FF6242;stroke:#45413C;stroke-linecap:round;stroke-linejoin:round;stroke-miterlimit:10;}
	.st15{fill:#FFFFFF;stroke:#45413C;stroke-linecap:round;stroke-linejoin:round;stroke-miterlimit:10;}
	.st16{fill:#E5F8FF;}
	.st17{fill:#FFFFFF;}
	.st18{fill:#E8F4FA;}
	.st19{fill:#E8F4FA;stroke:#45413C;stroke-linecap:round;stroke-linejoin:round;stroke-miterlimit:10;}
	.st20{fill:#FFCCDD;}
	.st21{fill:#FFB0CA;stroke:#45413C;stroke-linecap:round;stroke-linejoin:round;stroke-miterlimit:10;}
	.st22{fill:#FF87AF;stroke:#45413C;stroke-linecap:round;stroke-linejoin:round;stroke-miterlimit:10;}
	.st23{fill:#E5F8FF;stroke:#45413C;stroke-linecap:round;stroke-linejoin:round;stroke-miterlimit:10;}
	.st24{fill:#BF8256;stroke:#45413C;stroke-linecap:round;stroke-linejoin:round;stroke-miterlimit:10;}
	.st25{fill:#9CEB60;}
	.st26{fill:#6DD627;}
	.st27{fill:#C8FFA1;}
	.st28{fill:#FFFACF;}
	.st29{fill:#FF87AF;}
	.st30{fill:#FFB0CA;}
	.st31{fill:#FF6196;}
	.st32{fill:#FFCCDD;stroke:#45413C;stroke-linecap:round;stroke-linejoin:round;stroke-miterlimit:10;}
	.st33{fill:#FF6196;stroke:#45413C;stroke-linecap:round;stroke-linejoin:round;stroke-miterlimit:10;}
	.st34{fill:#FFE5EE;}
	.st35{fill:#00B8F0;}
	.st36{fill:#4ACFFF;}
	.st37{fill:#BF8256;}
	.st38{fill:#DEA47A;}
	.st39{fill:#915E3A;}
	.st40{fill:#FFF5E3;}
	.st41{fill:#F0F0F0;}
	.st42{fill:#8CA4B8;}
	.st43{fill:#627B8C;}
	.st44{fill:#C0DCEB;}
	.st45{fill:#FFF48C;}
	.st46{fill:#FFE500;stroke:#45413C;stroke-linecap:round;stroke-linejoin:round;stroke-miterlimit:10;}
	.st47{fill:#FFAA54;}
	.st48{fill:#6DD627;stroke:#45413C;stroke-linecap:round;stroke-linejoin:round;stroke-miterlimit:10;}
	.st49{fill:#FF8A14;}
	.st50{fill:#FFCC99;}
	.st51{fill:#EBCB00;stroke:#45413C;stroke-linecap:round;stroke-linejoin:round;stroke-miterlimit:10;}
	.st52{fill:#00F5BC;stroke:#45413C;stroke-linecap:round;stroke-linejoin:round;stroke-miterlimit:10;}
	.st53{fill:#BF8DF2;stroke:#45413C;stroke-linecap:round;stroke-linejoin:round;stroke-miterlimit:10;}
	.st54{fill:#FF8A14;stroke:#45413C;stroke-linecap:round;stroke-linejoin:round;stroke-miterlimit:10;}
	.st55{fill:#4AEFF7;stroke:#45413C;stroke-linecap:round;stroke-linejoin:round;stroke-miterlimit:10;}
	.st56{fill:#FFF48C;stroke:#45413C;stroke-linecap:round;stroke-linejoin:round;stroke-miterlimit:10;}
	.st57{fill:#FF6242;}
	.st58{fill:#E04122;}
	.st59{fill:#46B000;}
	.st60{fill:none;stroke:#45413C;stroke-miterlimit:10;}
	.st61{fill:#00B8F0;stroke:#45413C;stroke-linecap:round;stroke-linejoin:round;stroke-miterlimit:10;}
	.st62{fill:#FF866E;}
	.st63{fill:#9F5AE5;stroke:#45413C;stroke-linecap:round;stroke-linejoin:round;stroke-miterlimit:10;}
	.st64{fill:#E4FFD1;}
	.st65{fill:#FFFEF2;}
	.st66{fill:#B89558;}
	.st67{fill:none;stroke:#915E3A;stroke-linecap:round;stroke-linejoin:round;stroke-miterlimit:10;}
	.st68{fill:#915E3A;stroke:#45413C;stroke-linecap:round;stroke-linejoin:round;stroke-miterlimit:10;}
	.st69{fill:#BF8DF2;}
	.st70{fill:#9F5AE5;}
	.st71{fill:#DABFF5;}
	.st72{fill:none;stroke:#45413C;stroke-linejoin:round;stroke-miterlimit:10;}
	.st73{fill:#656769;}
	.st74{fill:#87898C;}
	.st75{fill:#E0E0E0;}
	.st76{fill:#BDBEC0;}
	.st77{fill:#656769;stroke:#45413C;stroke-linecap:round;stroke-linejoin:round;stroke-miterlimit:10;}
	.st78{fill:#45413C;stroke:#45413C;stroke-linecap:round;stroke-linejoin:round;stroke-miterlimit:10;}
	.st79{fill:#FFA694;}
	.st80{fill:#E04122;stroke:#45413C;stroke-linecap:round;stroke-linejoin:round;stroke-miterlimit:10;}
	.st81{fill:#E0E0E0;stroke:#45413C;stroke-linecap:round;stroke-linejoin:round;stroke-miterlimit:10;}
	.st82{fill:#F0F0F0;stroke:#45413C;stroke-linecap:round;stroke-linejoin:round;stroke-miterlimit:10;}
	.st83{fill:#DAEDF7;}
	.st84{fill:#BDBEC0;stroke:#45413C;stroke-linecap:round;stroke-linejoin:round;stroke-miterlimit:10;}
	.st85{fill:#87898C;stroke:#45413C;stroke-linecap:round;stroke-linejoin:round;stroke-miterlimit:10;}
	.st86{fill:#00DFEB;}
	.st87{fill:#4AEFF7;}
	.st88{fill:#DAEDF7;stroke:#45413C;stroke-linecap:round;stroke-linejoin:round;stroke-miterlimit:10;}
	.st89{fill:#FFDA8F;}
	.st90{fill:#FFBE3D;}
	.st91{fill:#FFE9BD;}
	.st92{fill:#DEA47A;stroke:#45413C;stroke-linecap:round;stroke-linejoin:round;stroke-miterlimit:10;}
	.st93{fill:#45413C;}
	.st94{fill:#F0C2A1;}
	.st95{fill:none;stroke:#45413C;stroke-width:1.0064;stroke-linecap:round;stroke-linejoin:round;stroke-miterlimit:10;}
	.st96{fill:#525252;}
	.st97{fill:#EB6D00;stroke:#45413C;stroke-linecap:round;stroke-linejoin:round;stroke-miterlimit:10;}
	.st98{fill:#EB6D00;}
	.st99{fill:#E5FEFF;}
	.st100{fill:#FF866E;stroke:#45413C;stroke-linecap:round;stroke-linejoin:round;stroke-miterlimit:10;}
	.st101{fill:#627B8C;stroke:#45413C;stroke-linecap:round;stroke-linejoin:round;stroke-miterlimit:10;}
	.st102{fill:#FFFCE5;stroke:#45413C;stroke-linecap:round;stroke-linejoin:round;stroke-miterlimit:10;}
	.st103{fill:#A6FBFF;}
	.st104{fill:#D9FDFF;}
	.st105{fill:#FFFACF;stroke:#45413C;stroke-linecap:round;stroke-linejoin:round;stroke-miterlimit:10;}
	.st106{fill:#B8ECFF;}
	.st107{fill:#FFCABF;}
	.st108{fill:#E5FFF9;}
	.st109{fill:#C8FFA1;stroke:#45413C;stroke-linecap:round;stroke-linejoin:round;stroke-miterlimit:10;}
	.st110{fill:#4CF4FC;}
	.st111{fill:#F0D5A8;stroke:#45413C;stroke-linecap:round;stroke-linejoin:round;stroke-miterlimit:10;}
	.st112{fill:#FFDCD1;stroke:#45413C;stroke-linecap:round;stroke-linejoin:round;stroke-miterlimit:10;}
	.st113{fill:#80DDFF;}
	.st114{fill:#46B000;stroke:#45413C;stroke-linecap:round;stroke-linejoin:round;stroke-miterlimit:10;}
	.st115{fill:#4ACFFF;stroke:#45413C;stroke-linecap:round;stroke-linejoin:round;stroke-miterlimit:10;}
	.st116{fill:#ADC4D9;}
	.st117{fill:#BDBEC0;stroke:#45413C;stroke-width:1.0064;stroke-linecap:round;stroke-linejoin:round;stroke-miterlimit:10;}
	.st118{fill:#FFFCE5;}
	.st119{fill:#947746;}
	.st120{fill:#525252;stroke:#45413C;stroke-linecap:round;stroke-linejoin:round;stroke-miterlimit:10;}
</style>
<symbol  id="New_Symbol_14" viewBox="-6.5 -6.5 13 13">
	<path class="st0" d="M0-6c2.2,0,4.1,1.5,4.7,3.5c0,0,0,0,0,0C6.3-2.5,6.4,0,5,0v1c0,2.8-2.2,5-5,5c-2.8,0-5-2.2-5-5V0
		c-1.4,0-1.3-2.5,0.2-2.5c0,0,0,0,0,0C-4.1-4.5-2.2-6,0-6z"/>
	<g>
		<circle class="st1" cx="-1.6" cy="-0.1" r="0.1"/>
		<path class="st2" d="M-1.6,0.5c-0.3,0-0.6-0.3-0.6-0.6S-2-0.8-1.6-0.8C-1.3-0.8-1-0.5-1-0.1S-1.3,0.5-1.6,0.5L-1.6,0.5z"/>
	</g>
	<g>
		<circle class="st1" cx="1.6" cy="-0.1" r="0.1"/>
		<path class="st2" d="M1.6,0.5C1.3,0.5,1,0.2,1-0.1s0.3-0.6,0.6-0.6c0.3,0,0.6,0.3,0.6,0.6S2,0.5,1.6,0.5L1.6,0.5z"/>
	</g>
	<circle class="st3" cx="-3" cy="-1.5" r="0.5"/>
	<circle class="st3" cx="3" cy="-1.5" r="0.5"/>
	<path class="st4" d="M-1.2-3c0.8-0.5,1.7-0.5,2.5,0"/>
</symbol>
<g id="Bg">
</g>
<g id="Icons">
	<g id="XMLID_1885_">
		<ellipse id="XMLID_241_" class="st5" cx="24" cy="44.3" rx="9.5" ry="1.5"/>
		<g id="XMLID_238_">
			<g id="XMLID_250_">
				<g id="XMLID_1766_">
					<path id="XMLID_210_" class="st7" d="M31,30.7H17c-0.4,0-0.8-0.3-0.9-0.7l-0.9-3.6c-0.1-0.6,0.3-1.1,0.9-1.1h15.8
						c0.6,0,1,0.6,0.9,1.1L31.9,30C31.8,30.4,31.4,30.7,31,30.7z"/>
					<path id="XMLID_209_" class="st8" d="M15.5,27.5h17l0.3-1.1c0.1-0.6-0.3-1.1-0.9-1.1H16.1c-0.6,0-1,0.6-0.9,1.1L15.5,27.5z"/>
					<path id="XMLID_208_" class="st10" d="M31,30.7H17c-0.4,0-0.8-0.3-0.9-0.7l-0.9-3.6c-0.1-0.6,0.3-1.1,0.9-1.1h15.8
						c0.6,0,1,0.6,0.9,1.1L31.9,30C31.8,30.4,31.4,30.7,31,30.7z"/>
				</g>
				<g id="XMLID_1761_">
					<path id="XMLID_207_" class="st7" d="M26.2,44.3h-4.3c-1.4,0-2.5-1-2.7-2.4l-1.5-11.2h12.7l-1.5,11.2
						C28.7,43.3,27.5,44.3,26.2,44.3z"/>
					<polygon id="XMLID_206_" class="st9" points="30,33 30.4,30.7 17.6,30.7 18,33 					"/>
					<path id="XMLID_205_" class="st10" d="M26.2,44.3h-4.3c-1.4,0-2.5-1-2.7-2.4l-1.5-11.2h12.7l-1.5,11.2
						C28.7,43.3,27.5,44.3,26.2,44.3z"/>
				</g>
			</g>
			<g id="XMLID_239_">
				<g id="XMLID_246_">
					<path id="XMLID_204_" class="st65" d="M33,15.6c0.3-0.5,0.5-1.1,0.5-1.7c0-1.8-1.4-3.2-3.2-3.2h-1.2c0.4-0.5,0.7-1.1,0.7-1.8
						c0-1.5-1.2-2.7-2.7-2.7l-1.4,0c-2,0-3.4-2.2-2.4-4.1c-3,0.3-5.4,2.8-5.4,5.9c0,0.8,0.2,2.1,0.5,2.7h-0.9
						c-1.8,0-3.2,1.4-3.2,3.2c0,0.6,0.2,1.2,0.5,1.7c-1.9,0.7-3.2,2.5-3.2,4.7c0,2.8,2.2,5,5,5h14.5c2.8,0,5-2.2,5-5
						C36.3,18.1,34.9,16.3,33,15.6z"/>
					<path id="XMLID_203_" class="st17" d="M14.5,22.1c0-2.1,1.3-3.9,3.2-4.7c-0.3-0.5-0.5-1.1-0.5-1.7c0-1.8,1.4-3.2,3.2-3.2h0.9
						c-0.3-0.7-0.5-1.9-0.5-2.7c0-2.1,1.1-3.9,2.7-4.9c-0.5-0.8-0.6-1.8,0-2.8c-3,0.3-5.4,2.8-5.4,5.9c0,0.8,0.2,2.1,0.5,2.7h-0.9
						c-1.8,0-3.2,1.4-3.2,3.2c0,0.6,0.2,1.2,0.5,1.7c-1.9,0.7-3.2,2.5-3.2,4.7c0,2.3,1.6,4.3,3.7,4.8C14.9,24.3,14.5,23.2,14.5,22.1
						z"/>
					<path id="XMLID_202_" class="st10" d="M33,15.6c0.3-0.5,0.5-1.1,0.5-1.7c0-1.8-1.4-3.2-3.2-3.2h-1.2c0.4-0.5,0.7-1.1,0.7-1.8
						c0-1.5-1.2-2.7-2.7-2.7l-1.4,0c-2,0-3.4-2.2-2.4-4.1c-3,0.3-5.4,2.8-5.4,5.9c0,0.8,0.2,2.1,0.5,2.7h-0.9
						c-1.8,0-3.2,1.4-3.2,3.2c0,0.6,0.2,1.2,0.5,1.7c-1.9,0.7-3.2,2.5-3.2,4.7c0,2.8,2.2,5,5,5h14.5c2.8,0,5-2.2,5-5
						C36.3,18.1,34.9,16.3,33,15.6z"/>
				</g>
				<path id="XMLID_201_" class="st10" d="M31.7,18.9v1.4c0,0.8-0.6,1.4-1.4,1.4S29,21,29,20.3v-3.2"/>
				<path id="XMLID_200_" class="st10" d="M23.5,13.5v2.3c0,0.8-0.6,1.4-1.4,1.4s-1.4-0.6-1.4-1.4v-0.9"/>
				<g id="XMLID_240_">
					<path id="XMLID_187_" class="st65" d="M19.9,24.3v2.3c0,0.8-0.6,1.4-1.4,1.4s-1.4-0.6-1.4-1.4v-2.3H19.9z"/>
					<path id="XMLID_184_" class="st10" d="M19.9,25.3v1.4c0,0.8-0.6,1.4-1.4,1.4s-1.4-0.6-1.4-1.4v-2.3"/>
				</g>
			</g>
		</g>
	</g>
</g>
</svg>
