<?xml version="1.0" encoding="utf-8"?>
<!-- Generator: Adobe Illustrator 21.1.0, SVG Export Plug-In . SVG Version: 6.00 Build 0)  -->
<svg version="1.1" xmlns="http://www.w3.org/2000/svg" xmlns:xlink="http://www.w3.org/1999/xlink" x="0px" y="0px"
	 viewBox="0 0 48 48" style="enable-background:new 0 0 48 48;" xml:space="preserve">
<style type="text/css">
	.st0{fill:#FFD4C3;stroke:#504B46;stroke-linecap:round;stroke-linejoin:round;stroke-miterlimit:10;}
	.st1{fill:#FFC258;}
	.st2{fill:#4F4B45;}
	.st3{fill:#FABFA5;}
	.st4{fill:none;stroke:#504B46;stroke-linecap:round;stroke-linejoin:round;stroke-miterlimit:10;}
	.Graphic_x0020_Style{opacity:0.15;fill:#45413C;}
	.st5{opacity:0.15;fill:#45413C;}
	.st6{fill:#DEBB7E;stroke:#45413C;stroke-linecap:round;stroke-linejoin:round;stroke-miterlimit:10;}
	.st7{fill:#F0D5A8;}
	.st8{fill:#F7E5C6;}
	.st9{fill:#DEBB7E;}
	.st10{fill:none;stroke:#45413C;stroke-linecap:round;stroke-linejoin:round;stroke-miterlimit:10;}
	.st11{fill:#FFE500;}
	.st12{fill:#EBCB00;}
	.st13{fill:none;stroke:#EBCB00;stroke-linecap:round;stroke-linejoin:round;stroke-miterlimit:10;}
	.st14{fill:#FF6242;stroke:#45413C;stroke-linecap:round;stroke-linejoin:round;stroke-miterlimit:10;}
	.st15{fill:#FFFFFF;stroke:#45413C;stroke-linecap:round;stroke-linejoin:round;stroke-miterlimit:10;}
	.st16{fill:#E5F8FF;}
	.st17{fill:#FFFFFF;}
	.st18{fill:#E8F4FA;}
	.st19{fill:#E8F4FA;stroke:#45413C;stroke-linecap:round;stroke-linejoin:round;stroke-miterlimit:10;}
	.st20{fill:#FFCCDD;}
	.st21{fill:#FFB0CA;stroke:#45413C;stroke-linecap:round;stroke-linejoin:round;stroke-miterlimit:10;}
	.st22{fill:#FF87AF;stroke:#45413C;stroke-linecap:round;stroke-linejoin:round;stroke-miterlimit:10;}
	.st23{fill:#E5F8FF;stroke:#45413C;stroke-linecap:round;stroke-linejoin:round;stroke-miterlimit:10;}
	.st24{fill:#BF8256;stroke:#45413C;stroke-linecap:round;stroke-linejoin:round;stroke-miterlimit:10;}
	.st25{fill:#9CEB60;}
	.st26{fill:#6DD627;}
	.st27{fill:#C8FFA1;}
	.st28{fill:#FFFACF;}
	.st29{fill:#FF87AF;}
	.st30{fill:#FFB0CA;}
	.st31{fill:#FF6196;}
	.st32{fill:#FFCCDD;stroke:#45413C;stroke-linecap:round;stroke-linejoin:round;stroke-miterlimit:10;}
	.st33{fill:#FF6196;stroke:#45413C;stroke-linecap:round;stroke-linejoin:round;stroke-miterlimit:10;}
	.st34{fill:#FFE5EE;}
	.st35{fill:#00B8F0;}
	.st36{fill:#4ACFFF;}
	.st37{fill:#BF8256;}
	.st38{fill:#DEA47A;}
	.st39{fill:#915E3A;}
	.st40{fill:#FFF5E3;}
	.st41{fill:#F0F0F0;}
	.st42{fill:#8CA4B8;}
	.st43{fill:#627B8C;}
	.st44{fill:#C0DCEB;}
	.st45{fill:#FFF48C;}
	.st46{fill:#FFE500;stroke:#45413C;stroke-linecap:round;stroke-linejoin:round;stroke-miterlimit:10;}
	.st47{fill:#FFAA54;}
	.st48{fill:#6DD627;stroke:#45413C;stroke-linecap:round;stroke-linejoin:round;stroke-miterlimit:10;}
	.st49{fill:#FF8A14;}
	.st50{fill:#FFCC99;}
	.st51{fill:#EBCB00;stroke:#45413C;stroke-linecap:round;stroke-linejoin:round;stroke-miterlimit:10;}
	.st52{fill:#00F5BC;stroke:#45413C;stroke-linecap:round;stroke-linejoin:round;stroke-miterlimit:10;}
	.st53{fill:#BF8DF2;stroke:#45413C;stroke-linecap:round;stroke-linejoin:round;stroke-miterlimit:10;}
	.st54{fill:#FF8A14;stroke:#45413C;stroke-linecap:round;stroke-linejoin:round;stroke-miterlimit:10;}
	.st55{fill:#4AEFF7;stroke:#45413C;stroke-linecap:round;stroke-linejoin:round;stroke-miterlimit:10;}
	.st56{fill:#FFF48C;stroke:#45413C;stroke-linecap:round;stroke-linejoin:round;stroke-miterlimit:10;}
	.st57{fill:#FF6242;}
	.st58{fill:#E04122;}
	.st59{fill:#46B000;}
	.st60{fill:none;stroke:#45413C;stroke-miterlimit:10;}
	.st61{fill:#00B8F0;stroke:#45413C;stroke-linecap:round;stroke-linejoin:round;stroke-miterlimit:10;}
	.st62{fill:#FF866E;}
	.st63{fill:#9F5AE5;stroke:#45413C;stroke-linecap:round;stroke-linejoin:round;stroke-miterlimit:10;}
	.st64{fill:#E4FFD1;}
	.st65{fill:#FFFEF2;}
	.st66{fill:#B89558;}
	.st67{fill:none;stroke:#915E3A;stroke-linecap:round;stroke-linejoin:round;stroke-miterlimit:10;}
	.st68{fill:#915E3A;stroke:#45413C;stroke-linecap:round;stroke-linejoin:round;stroke-miterlimit:10;}
	.st69{fill:#BF8DF2;}
	.st70{fill:#9F5AE5;}
	.st71{fill:#DABFF5;}
	.st72{fill:none;stroke:#45413C;stroke-linejoin:round;stroke-miterlimit:10;}
	.st73{fill:#656769;}
	.st74{fill:#87898C;}
	.st75{fill:#E0E0E0;}
	.st76{fill:#BDBEC0;}
	.st77{fill:#656769;stroke:#45413C;stroke-linecap:round;stroke-linejoin:round;stroke-miterlimit:10;}
	.st78{fill:#45413C;stroke:#45413C;stroke-linecap:round;stroke-linejoin:round;stroke-miterlimit:10;}
	.st79{fill:#FFA694;}
	.st80{fill:#E04122;stroke:#45413C;stroke-linecap:round;stroke-linejoin:round;stroke-miterlimit:10;}
	.st81{fill:#E0E0E0;stroke:#45413C;stroke-linecap:round;stroke-linejoin:round;stroke-miterlimit:10;}
	.st82{fill:#F0F0F0;stroke:#45413C;stroke-linecap:round;stroke-linejoin:round;stroke-miterlimit:10;}
	.st83{fill:#DAEDF7;}
	.st84{fill:#BDBEC0;stroke:#45413C;stroke-linecap:round;stroke-linejoin:round;stroke-miterlimit:10;}
	.st85{fill:#87898C;stroke:#45413C;stroke-linecap:round;stroke-linejoin:round;stroke-miterlimit:10;}
	.st86{fill:#00DFEB;}
	.st87{fill:#4AEFF7;}
	.st88{fill:#DAEDF7;stroke:#45413C;stroke-linecap:round;stroke-linejoin:round;stroke-miterlimit:10;}
	.st89{fill:#FFDA8F;}
	.st90{fill:#FFBE3D;}
	.st91{fill:#FFE9BD;}
	.st92{fill:#DEA47A;stroke:#45413C;stroke-linecap:round;stroke-linejoin:round;stroke-miterlimit:10;}
	.st93{fill:#45413C;}
	.st94{fill:#F0C2A1;}
	.st95{fill:none;stroke:#45413C;stroke-width:1.0064;stroke-linecap:round;stroke-linejoin:round;stroke-miterlimit:10;}
	.st96{fill:#525252;}
	.st97{fill:#EB6D00;stroke:#45413C;stroke-linecap:round;stroke-linejoin:round;stroke-miterlimit:10;}
	.st98{fill:#EB6D00;}
	.st99{fill:#E5FEFF;}
	.st100{fill:#FF866E;stroke:#45413C;stroke-linecap:round;stroke-linejoin:round;stroke-miterlimit:10;}
	.st101{fill:#627B8C;stroke:#45413C;stroke-linecap:round;stroke-linejoin:round;stroke-miterlimit:10;}
	.st102{fill:#FFFCE5;stroke:#45413C;stroke-linecap:round;stroke-linejoin:round;stroke-miterlimit:10;}
	.st103{fill:#A6FBFF;}
	.st104{fill:#D9FDFF;}
	.st105{fill:#FFFACF;stroke:#45413C;stroke-linecap:round;stroke-linejoin:round;stroke-miterlimit:10;}
	.st106{fill:#B8ECFF;}
	.st107{fill:#FFCABF;}
	.st108{fill:#E5FFF9;}
	.st109{fill:#C8FFA1;stroke:#45413C;stroke-linecap:round;stroke-linejoin:round;stroke-miterlimit:10;}
	.st110{fill:#4CF4FC;}
	.st111{fill:#F0D5A8;stroke:#45413C;stroke-linecap:round;stroke-linejoin:round;stroke-miterlimit:10;}
	.st112{fill:#FFDCD1;stroke:#45413C;stroke-linecap:round;stroke-linejoin:round;stroke-miterlimit:10;}
	.st113{fill:#80DDFF;}
	.st114{fill:#46B000;stroke:#45413C;stroke-linecap:round;stroke-linejoin:round;stroke-miterlimit:10;}
	.st115{fill:#4ACFFF;stroke:#45413C;stroke-linecap:round;stroke-linejoin:round;stroke-miterlimit:10;}
	.st116{fill:#ADC4D9;}
	.st117{fill:#BDBEC0;stroke:#45413C;stroke-width:1.0064;stroke-linecap:round;stroke-linejoin:round;stroke-miterlimit:10;}
	.st118{fill:#FFFCE5;}
	.st119{fill:#947746;}
	.st120{fill:#525252;stroke:#45413C;stroke-linecap:round;stroke-linejoin:round;stroke-miterlimit:10;}
</style>
<symbol  id="New_Symbol_14" viewBox="-6.5 -6.5 13 13">
	<path class="st0" d="M0-6c2.2,0,4.1,1.5,4.7,3.5c0,0,0,0,0,0C6.3-2.5,6.4,0,5,0v1c0,2.8-2.2,5-5,5c-2.8,0-5-2.2-5-5V0
		c-1.4,0-1.3-2.5,0.2-2.5c0,0,0,0,0,0C-4.1-4.5-2.2-6,0-6z"/>
	<g>
		<circle class="st1" cx="-1.6" cy="-0.1" r="0.1"/>
		<path class="st2" d="M-1.6,0.5c-0.3,0-0.6-0.3-0.6-0.6S-2-0.8-1.6-0.8C-1.3-0.8-1-0.5-1-0.1S-1.3,0.5-1.6,0.5L-1.6,0.5z"/>
	</g>
	<g>
		<circle class="st1" cx="1.6" cy="-0.1" r="0.1"/>
		<path class="st2" d="M1.6,0.5C1.3,0.5,1,0.2,1-0.1s0.3-0.6,0.6-0.6c0.3,0,0.6,0.3,0.6,0.6S2,0.5,1.6,0.5L1.6,0.5z"/>
	</g>
	<circle class="st3" cx="-3" cy="-1.5" r="0.5"/>
	<circle class="st3" cx="3" cy="-1.5" r="0.5"/>
	<path class="st4" d="M-1.2-3c0.8-0.5,1.7-0.5,2.5,0"/>
</symbol>
<g id="Bg">
</g>
<g id="Icons">
	<g id="XMLID_1327_">
		<ellipse id="XMLID_1148_" class="st5" cx="24" cy="45.1" rx="14.9" ry="1.6"/>
		<path id="XMLID_611_" class="st57" d="M26.7,31c-1.1,5.5-6,8.8-11.5,7.7c-5.5-1.1-8.8-6-7.7-11.5c1.1-5.5,7.2-8.9,11.2-5.9
			C23,20.1,27.9,25.4,26.7,31z"/>
		<path id="XMLID_610_" class="st62" d="M7.5,30c1.1-5.5,7.2-7.3,11.2-5.9s7.3,2.4,8.1,6.7c0.9-5.5-3.8-10.6-8.1-9.5
			c-3.9-3-10.1,0.4-11.2,5.9c-0.2,1.2-0.3,2.4-0.1,3.5C7.5,30.5,7.5,30.2,7.5,30z"/>
		<path id="XMLID_609_" class="st72" d="M26.7,31c-1.1,5.5-6,8.8-11.5,7.7c-5.5-1.1-8.8-6-7.7-11.5c1.1-5.5,7.2-8.9,11.2-5.9
			C23,20.1,27.9,25.4,26.7,31z"/>
		<path id="XMLID_608_" class="st57" d="M38.4,35.1c0,5.7-4.1,9.8-9.8,9.8c-5.7,0-9.8-4.1-9.8-9.8c0-5.7,5.3-10.2,9.8-8
			C32.7,25.1,38.4,29.4,38.4,35.1z"/>
		<path id="XMLID_607_" class="st62" d="M28.7,30c3.3,0,8.8,1.7,9.7,6.6c0.1-0.5,0.1-1.1,0.1-1.6c0-5.7-5.8-10-9.8-8
			c-4.4-2.2-9.8,2.4-9.8,8c0,0.5,0,1.1,0.1,1.6C19.8,31.7,25.4,30,28.7,30z"/>
		<path id="XMLID_606_" class="st72" d="M38.4,35.1c0,5.7-4.1,9.8-9.8,9.8c-5.7,0-9.8-4.1-9.8-9.8c0-5.7,5.3-10.2,9.8-8
			C32.7,25.1,38.4,29.4,38.4,35.1z"/>
		<path id="XMLID_605_" class="st10" d="M18.7,21.2c0,0,2-4.1,9.5-8.1c6-3.2,12-1.8,12-1.8"/>
		<path id="XMLID_603_" class="st10" d="M28.7,27.1c0,0,0.7-11,11.6-15.7"/>
		<path id="XMLID_602_" class="st26" d="M34,3.3C30.7,1.4,27,0.9,24,1.6c-0.6,0.2-1,0.7-0.8,1.3c0.9,3,3.2,5.8,6.5,7.7
			c3.5,2,7.4,2.5,10.5,1.5c0.3-0.1,0.4-0.3,0.4-0.6C39.9,8.4,37.5,5.3,34,3.3z"/>
		<path id="XMLID_601_" class="st25" d="M23.9,4.7C23.9,4.7,24,4.6,23.9,4.7c3.1-0.8,6.7-0.2,10,1.7c2.7,1.5,4.7,3.7,5.8,6
			c0.2,0,0.3-0.1,0.5-0.1c0.3-0.1,0.4-0.3,0.4-0.6c-0.8-3.2-3.2-6.3-6.7-8.3C30.7,1.4,27,0.9,24,1.6c-0.6,0.2-1,0.7-0.8,1.3
			C23.4,3.5,23.6,4.1,23.9,4.7z"/>
		<path id="XMLID_598_" class="st10" d="M34,3.3C30.7,1.4,27,0.9,24,1.6c-0.6,0.2-1,0.7-0.8,1.3c0.9,3,3.2,5.8,6.5,7.7
			c3.5,2,7.4,2.5,10.5,1.5c0.3-0.1,0.4-0.3,0.4-0.6C39.9,8.4,37.5,5.3,34,3.3z"/>
	</g>
</g>
</svg>
