<?xml version="1.0" encoding="utf-8"?>
<!-- Generator: Adobe Illustrator 21.1.0, SVG Export Plug-In . SVG Version: 6.00 Build 0)  -->
<svg version="1.1" xmlns="http://www.w3.org/2000/svg" xmlns:xlink="http://www.w3.org/1999/xlink" x="0px" y="0px"
	 viewBox="0 0 48 48" style="enable-background:new 0 0 48 48;" xml:space="preserve">
<style type="text/css">
	.st0{fill:#FFD4C3;stroke:#504B46;stroke-linecap:round;stroke-linejoin:round;stroke-miterlimit:10;}
	.st1{fill:#FFC258;}
	.st2{fill:#4F4B45;}
	.st3{fill:#FABFA5;}
	.st4{fill:none;stroke:#504B46;stroke-linecap:round;stroke-linejoin:round;stroke-miterlimit:10;}
	.Graphic_x0020_Style{opacity:0.15;fill:#45413C;}
	.st5{opacity:0.15;fill:#45413C;}
	.st6{fill:#DEBB7E;stroke:#45413C;stroke-linecap:round;stroke-linejoin:round;stroke-miterlimit:10;}
	.st7{fill:#F0D5A8;}
	.st8{fill:#F7E5C6;}
	.st9{fill:#DEBB7E;}
	.st10{fill:none;stroke:#45413C;stroke-linecap:round;stroke-linejoin:round;stroke-miterlimit:10;}
	.st11{fill:#FFE500;}
	.st12{fill:#EBCB00;}
	.st13{fill:none;stroke:#EBCB00;stroke-linecap:round;stroke-linejoin:round;stroke-miterlimit:10;}
	.st14{fill:#FF6242;stroke:#45413C;stroke-linecap:round;stroke-linejoin:round;stroke-miterlimit:10;}
	.st15{fill:#FFFFFF;stroke:#45413C;stroke-linecap:round;stroke-linejoin:round;stroke-miterlimit:10;}
	.st16{fill:#E5F8FF;}
	.st17{fill:#FFFFFF;}
	.st18{fill:#E8F4FA;}
	.st19{fill:#E8F4FA;stroke:#45413C;stroke-linecap:round;stroke-linejoin:round;stroke-miterlimit:10;}
	.st20{fill:#FFCCDD;}
	.st21{fill:#FFB0CA;stroke:#45413C;stroke-linecap:round;stroke-linejoin:round;stroke-miterlimit:10;}
	.st22{fill:#FF87AF;stroke:#45413C;stroke-linecap:round;stroke-linejoin:round;stroke-miterlimit:10;}
	.st23{fill:#E5F8FF;stroke:#45413C;stroke-linecap:round;stroke-linejoin:round;stroke-miterlimit:10;}
	.st24{fill:#BF8256;stroke:#45413C;stroke-linecap:round;stroke-linejoin:round;stroke-miterlimit:10;}
	.st25{fill:#9CEB60;}
	.st26{fill:#6DD627;}
	.st27{fill:#C8FFA1;}
	.st28{fill:#FFFACF;}
	.st29{fill:#FF87AF;}
	.st30{fill:#FFB0CA;}
	.st31{fill:#FF6196;}
	.st32{fill:#FFCCDD;stroke:#45413C;stroke-linecap:round;stroke-linejoin:round;stroke-miterlimit:10;}
	.st33{fill:#FF6196;stroke:#45413C;stroke-linecap:round;stroke-linejoin:round;stroke-miterlimit:10;}
	.st34{fill:#FFE5EE;}
	.st35{fill:#00B8F0;}
	.st36{fill:#4ACFFF;}
	.st37{fill:#BF8256;}
	.st38{fill:#DEA47A;}
	.st39{fill:#915E3A;}
	.st40{fill:#FFF5E3;}
	.st41{fill:#F0F0F0;}
	.st42{fill:#8CA4B8;}
	.st43{fill:#627B8C;}
	.st44{fill:#C0DCEB;}
	.st45{fill:#FFF48C;}
	.st46{fill:#FFE500;stroke:#45413C;stroke-linecap:round;stroke-linejoin:round;stroke-miterlimit:10;}
	.st47{fill:#FFAA54;}
	.st48{fill:#6DD627;stroke:#45413C;stroke-linecap:round;stroke-linejoin:round;stroke-miterlimit:10;}
	.st49{fill:#FF8A14;}
	.st50{fill:#FFCC99;}
	.st51{fill:#EBCB00;stroke:#45413C;stroke-linecap:round;stroke-linejoin:round;stroke-miterlimit:10;}
	.st52{fill:#00F5BC;stroke:#45413C;stroke-linecap:round;stroke-linejoin:round;stroke-miterlimit:10;}
	.st53{fill:#BF8DF2;stroke:#45413C;stroke-linecap:round;stroke-linejoin:round;stroke-miterlimit:10;}
	.st54{fill:#FF8A14;stroke:#45413C;stroke-linecap:round;stroke-linejoin:round;stroke-miterlimit:10;}
	.st55{fill:#4AEFF7;stroke:#45413C;stroke-linecap:round;stroke-linejoin:round;stroke-miterlimit:10;}
	.st56{fill:#FFF48C;stroke:#45413C;stroke-linecap:round;stroke-linejoin:round;stroke-miterlimit:10;}
	.st57{fill:#FF6242;}
	.st58{fill:#E04122;}
	.st59{fill:#46B000;}
	.st60{fill:none;stroke:#45413C;stroke-miterlimit:10;}
	.st61{fill:#00B8F0;stroke:#45413C;stroke-linecap:round;stroke-linejoin:round;stroke-miterlimit:10;}
	.st62{fill:#FF866E;}
	.st63{fill:#9F5AE5;stroke:#45413C;stroke-linecap:round;stroke-linejoin:round;stroke-miterlimit:10;}
	.st64{fill:#E4FFD1;}
	.st65{fill:#FFFEF2;}
	.st66{fill:#B89558;}
	.st67{fill:none;stroke:#915E3A;stroke-linecap:round;stroke-linejoin:round;stroke-miterlimit:10;}
	.st68{fill:#915E3A;stroke:#45413C;stroke-linecap:round;stroke-linejoin:round;stroke-miterlimit:10;}
	.st69{fill:#BF8DF2;}
	.st70{fill:#9F5AE5;}
	.st71{fill:#DABFF5;}
	.st72{fill:none;stroke:#45413C;stroke-linejoin:round;stroke-miterlimit:10;}
	.st73{fill:#656769;}
	.st74{fill:#87898C;}
	.st75{fill:#E0E0E0;}
	.st76{fill:#BDBEC0;}
	.st77{fill:#656769;stroke:#45413C;stroke-linecap:round;stroke-linejoin:round;stroke-miterlimit:10;}
	.st78{fill:#45413C;stroke:#45413C;stroke-linecap:round;stroke-linejoin:round;stroke-miterlimit:10;}
	.st79{fill:#FFA694;}
	.st80{fill:#E04122;stroke:#45413C;stroke-linecap:round;stroke-linejoin:round;stroke-miterlimit:10;}
	.st81{fill:#E0E0E0;stroke:#45413C;stroke-linecap:round;stroke-linejoin:round;stroke-miterlimit:10;}
	.st82{fill:#F0F0F0;stroke:#45413C;stroke-linecap:round;stroke-linejoin:round;stroke-miterlimit:10;}
	.st83{fill:#DAEDF7;}
	.st84{fill:#BDBEC0;stroke:#45413C;stroke-linecap:round;stroke-linejoin:round;stroke-miterlimit:10;}
	.st85{fill:#87898C;stroke:#45413C;stroke-linecap:round;stroke-linejoin:round;stroke-miterlimit:10;}
	.st86{fill:#00DFEB;}
	.st87{fill:#4AEFF7;}
	.st88{fill:#DAEDF7;stroke:#45413C;stroke-linecap:round;stroke-linejoin:round;stroke-miterlimit:10;}
	.st89{fill:#FFDA8F;}
	.st90{fill:#FFBE3D;}
	.st91{fill:#FFE9BD;}
	.st92{fill:#DEA47A;stroke:#45413C;stroke-linecap:round;stroke-linejoin:round;stroke-miterlimit:10;}
	.st93{fill:#45413C;}
	.st94{fill:#F0C2A1;}
	.st95{fill:none;stroke:#45413C;stroke-width:1.0064;stroke-linecap:round;stroke-linejoin:round;stroke-miterlimit:10;}
	.st96{fill:#525252;}
	.st97{fill:#EB6D00;stroke:#45413C;stroke-linecap:round;stroke-linejoin:round;stroke-miterlimit:10;}
	.st98{fill:#EB6D00;}
	.st99{fill:#E5FEFF;}
	.st100{fill:#FF866E;stroke:#45413C;stroke-linecap:round;stroke-linejoin:round;stroke-miterlimit:10;}
	.st101{fill:#627B8C;stroke:#45413C;stroke-linecap:round;stroke-linejoin:round;stroke-miterlimit:10;}
	.st102{fill:#FFFCE5;stroke:#45413C;stroke-linecap:round;stroke-linejoin:round;stroke-miterlimit:10;}
	.st103{fill:#A6FBFF;}
	.st104{fill:#D9FDFF;}
	.st105{fill:#FFFACF;stroke:#45413C;stroke-linecap:round;stroke-linejoin:round;stroke-miterlimit:10;}
	.st106{fill:#B8ECFF;}
	.st107{fill:#FFCABF;}
	.st108{fill:#E5FFF9;}
	.st109{fill:#C8FFA1;stroke:#45413C;stroke-linecap:round;stroke-linejoin:round;stroke-miterlimit:10;}
	.st110{fill:#4CF4FC;}
	.st111{fill:#F0D5A8;stroke:#45413C;stroke-linecap:round;stroke-linejoin:round;stroke-miterlimit:10;}
	.st112{fill:#FFDCD1;stroke:#45413C;stroke-linecap:round;stroke-linejoin:round;stroke-miterlimit:10;}
	.st113{fill:#80DDFF;}
	.st114{fill:#46B000;stroke:#45413C;stroke-linecap:round;stroke-linejoin:round;stroke-miterlimit:10;}
	.st115{fill:#4ACFFF;stroke:#45413C;stroke-linecap:round;stroke-linejoin:round;stroke-miterlimit:10;}
	.st116{fill:#ADC4D9;}
	.st117{fill:#BDBEC0;stroke:#45413C;stroke-width:1.0064;stroke-linecap:round;stroke-linejoin:round;stroke-miterlimit:10;}
	.st118{fill:#FFFCE5;}
	.st119{fill:#947746;}
	.st120{fill:#525252;stroke:#45413C;stroke-linecap:round;stroke-linejoin:round;stroke-miterlimit:10;}
</style>
<symbol  id="New_Symbol_14" viewBox="-6.5 -6.5 13 13">
	<path class="st0" d="M0-6c2.2,0,4.1,1.5,4.7,3.5c0,0,0,0,0,0C6.3-2.5,6.4,0,5,0v1c0,2.8-2.2,5-5,5c-2.8,0-5-2.2-5-5V0
		c-1.4,0-1.3-2.5,0.2-2.5c0,0,0,0,0,0C-4.1-4.5-2.2-6,0-6z"/>
	<g>
		<circle class="st1" cx="-1.6" cy="-0.1" r="0.1"/>
		<path class="st2" d="M-1.6,0.5c-0.3,0-0.6-0.3-0.6-0.6S-2-0.8-1.6-0.8C-1.3-0.8-1-0.5-1-0.1S-1.3,0.5-1.6,0.5L-1.6,0.5z"/>
	</g>
	<g>
		<circle class="st1" cx="1.6" cy="-0.1" r="0.1"/>
		<path class="st2" d="M1.6,0.5C1.3,0.5,1,0.2,1-0.1s0.3-0.6,0.6-0.6c0.3,0,0.6,0.3,0.6,0.6S2,0.5,1.6,0.5L1.6,0.5z"/>
	</g>
	<circle class="st3" cx="-3" cy="-1.5" r="0.5"/>
	<circle class="st3" cx="3" cy="-1.5" r="0.5"/>
	<path class="st4" d="M-1.2-3c0.8-0.5,1.7-0.5,2.5,0"/>
</symbol>
<g id="Bg">
</g>
<g id="Icons">
	<g id="XMLID_1314_">
		<ellipse id="XMLID_657_" class="st5" cx="23.7" cy="45.1" rx="16.3" ry="1.7"/>
		<path id="XMLID_1801_" class="st80" d="M42.9,14.7c0-6.6-8.5-11.9-18.9-11.9S5.1,8.1,5.1,14.7c0,0.1,0,0.2,0,0.3h0l3.2,27
			c0.1,1.2,1.1,2,2.3,2h26.7c1.2,0,2.2-0.9,2.3-2l3.2-27h0C42.9,14.9,42.9,14.8,42.9,14.7z"/>
		<path id="XMLID_1800_" class="st11" d="M15.1,29.6l-3.4,0.6C11.3,30.2,11,30,11,29.7L6.5,3.8c0-0.3,0.1-0.5,0.3-0.6l3.3-1.4
			c0.3-0.2,0.7,0.1,0.8,0.4l4.6,26.7C15.6,29.2,15.4,29.5,15.1,29.6z"/>
		<path id="XMLID_1799_" class="st45" d="M7,6.6C7,6.6,7,6.6,7,6.6l4.4-1.6L11,2.2c-0.1-0.4-0.5-0.6-0.8-0.4L6.9,3.2
			C6.6,3.3,6.5,3.6,6.5,3.8L7,6.6z"/>
		<path id="XMLID_1798_" class="st10" d="M15.1,29.6l-3.4,0.6C11.3,30.2,11,30,11,29.7L6.5,3.8c0-0.3,0.1-0.5,0.3-0.6l3.3-1.4
			c0.3-0.2,0.7,0.1,0.8,0.4l4.6,26.7C15.6,29.2,15.4,29.5,15.1,29.6z"/>
		<path id="XMLID_1797_" class="st11" d="M16.2,1.6l3.5,0c0.3,0,0.6,0.3,0.6,0.6L20,28.5c0,0.3-0.2,0.5-0.4,0.6l-3.5,0.8
			c-0.4,0.1-0.7-0.2-0.7-0.6l0.2-27.1C15.6,1.9,15.8,1.6,16.2,1.6z"/>
		<path id="XMLID_1796_" class="st45" d="M20.2,5.6l0-3.3c0-0.3-0.3-0.6-0.6-0.6l-3.5,0c-0.3,0-0.6,0.3-0.6,0.6l0,3.3L20.2,5.6z"/>
		<path id="XMLID_1795_" class="st10" d="M16.2,1.6l3.5,0c0.3,0,0.6,0.3,0.6,0.6L20,28.5c0,0.3-0.2,0.5-0.4,0.6l-3.5,0.8
			c-0.4,0.1-0.7-0.2-0.7-0.6l0.2-27.1C15.6,1.9,15.8,1.6,16.2,1.6z"/>
		<path id="XMLID_1794_" class="st11" d="M22.6,5.7L26.1,6c0.3,0,0.6,0.3,0.5,0.6l-2.2,26.2c0,0.3-0.2,0.5-0.5,0.5l-3.5,0.6
			c-0.4,0.1-0.7-0.2-0.7-0.6l2.2-27C22,6,22.3,5.7,22.6,5.7z"/>
		<path id="XMLID_1793_" class="st45" d="M25.8,9.7c0.2,0,0.4,0.1,0.6,0.2l0.3-3.2c0-0.3-0.2-0.6-0.5-0.6l-3.5-0.3
			C22.3,5.7,22,6,22,6.3l-0.3,3.1L25.8,9.7z"/>
		<path id="XMLID_1792_" class="st10" d="M22.6,5.7L26.1,6c0.3,0,0.6,0.3,0.5,0.6l-2.2,26.2c0,0.3-0.2,0.5-0.5,0.5l-3.5,0.6
			c-0.4,0.1-0.7-0.2-0.7-0.6l2.2-27C22,6,22.3,5.7,22.6,5.7z"/>
		<path id="XMLID_1791_" class="st11" d="M36.9,34.3l-3.4-0.5c-0.3,0-0.5-0.3-0.5-0.7l3.9-26c0-0.3,0.3-0.5,0.5-0.5L41,6.4
			c0.4,0,0.7,0.3,0.6,0.7l-4,26.8C37.6,34.2,37.3,34.4,36.9,34.3z"/>
		<path id="XMLID_1790_" class="st45" d="M40.4,9.4c0.4,0,0.7,0.2,0.8,0.4L41.6,7c0.1-0.4-0.3-0.7-0.6-0.7l-3.6,0.3
			c-0.3,0-0.5,0.2-0.5,0.5l-0.4,2.4L40.4,9.4z"/>
		<path id="XMLID_1789_" class="st10" d="M36.9,34.3l-3.4-0.5c-0.3,0-0.5-0.3-0.5-0.7l3.9-26c0-0.3,0.3-0.5,0.5-0.5L41,6.4
			c0.4,0,0.7,0.3,0.6,0.7l-4,26.8C37.6,34.2,37.3,34.4,36.9,34.3z"/>
		<path id="XMLID_1788_" class="st11" d="M31.6,29.4l3.5-0.3c0.3,0,0.6-0.3,0.5-0.6l-2-26.2c0-0.3-0.2-0.5-0.5-0.5l-3.5-0.6
			c-0.4-0.1-0.7,0.2-0.7,0.6l2,27.1C31,29.2,31.3,29.4,31.6,29.4z"/>
		<path id="XMLID_1787_" class="st45" d="M29.7,5.2l4.2,0.5l-0.3-3.4c0-0.3-0.2-0.5-0.5-0.5l-3.5-0.6c-0.4-0.1-0.7,0.2-0.7,0.6
			l0.3,3.5C29.3,5.3,29.5,5.2,29.7,5.2z"/>
		<path id="XMLID_1785_" class="st10" d="M31.6,29.4l3.5-0.3c0.3,0,0.6-0.3,0.5-0.6l-2-26.2c0-0.3-0.2-0.5-0.5-0.5l-3.5-0.6
			c-0.4-0.1-0.7,0.2-0.7,0.6l2,27.1C31,29.2,31.3,29.4,31.6,29.4z"/>
		<path id="XMLID_1784_" class="st11" d="M34.6,36.7l-3.4,0.6c-0.3,0.1-0.6-0.2-0.7-0.5L26,11c0-0.3,0.1-0.5,0.3-0.6l3.3-1.4
			C30,8.8,30.4,9,30.5,9.3l4.6,26.7C35.1,36.4,34.9,36.7,34.6,36.7z"/>
		<path id="XMLID_1783_" class="st45" d="M26.7,14.8l4.4-1.6l-0.7-3.8C30.4,9,30,8.8,29.7,8.9l-3.3,1.4C26.1,10.5,26,10.7,26,11
			L26.7,14.8C26.7,14.8,26.7,14.8,26.7,14.8z"/>
		<path id="XMLID_1781_" class="st10" d="M34.6,36.7l-3.4,0.6c-0.3,0.1-0.6-0.2-0.7-0.5L26,11c0-0.3,0.1-0.5,0.3-0.6l3.3-1.4
			C30,8.8,30.4,9,30.5,9.3l4.6,26.7C35.1,36.4,34.9,36.7,34.6,36.7z"/>
		<path id="XMLID_1780_" class="st11" d="M12.3,38.5l3.5,0.3c0.3,0,0.6-0.2,0.6-0.5l2-26.2c0-0.3-0.1-0.5-0.4-0.6l-3.4-1.1
			c-0.4-0.1-0.7,0.1-0.8,0.5l-2.1,27.1C11.8,38.2,12,38.5,12.3,38.5z"/>
		<path id="XMLID_1779_" class="st45" d="M18.1,14.7c0,0,0.1,0,0.1,0l0.2-2.7c0-0.3-0.1-0.5-0.4-0.6l-3.4-1.1
			c-0.4-0.1-0.7,0.1-0.8,0.5l-0.2,2.7L18.1,14.7z"/>
		<path id="XMLID_1776_" class="st10" d="M12.3,38.5l3.5,0.3c0.3,0,0.6-0.2,0.6-0.5l2-26.2c0-0.3-0.1-0.5-0.4-0.6l-3.4-1.1
			c-0.4-0.1-0.7,0.1-0.8,0.5l-2.1,27.1C11.8,38.2,12,38.5,12.3,38.5z"/>
		<path id="XMLID_1775_" class="st11" d="M21.5,43.5L18,43.5c-0.3,0-0.6-0.2-0.6-0.6l-0.7-26.3c0-0.3,0.2-0.5,0.4-0.6l3.5-1
			c0.4-0.1,0.7,0.2,0.7,0.5l0.7,27.1C22.1,43.2,21.8,43.4,21.5,43.5z"/>
		<path id="XMLID_1774_" class="st45" d="M17.3,19.7l4.1-0.9l-0.1-3.1c0-0.4-0.4-0.6-0.7-0.5l-3.5,1c-0.3,0.1-0.4,0.3-0.4,0.6
			l0.1,3.3C16.9,19.9,17.1,19.8,17.3,19.7z"/>
		<path id="XMLID_1772_" class="st10" d="M21.5,43.5L18,43.5c-0.3,0-0.6-0.2-0.6-0.6l-0.7-26.3c0-0.3,0.2-0.5,0.4-0.6l3.5-1
			c0.4-0.1,0.7,0.2,0.7,0.5l0.7,27.1C22.1,43.2,21.8,43.4,21.5,43.5z"/>
		<path id="XMLID_1771_" class="st11" d="M25.5,13.3l3.5,0.4c0.3,0,0.5,0.3,0.5,0.6l-3.1,26.1c0,0.3-0.2,0.5-0.5,0.5l-3.6,0.5
			c-0.4,0-0.7-0.3-0.7-0.6l3.2-26.9C24.9,13.5,25.2,13.3,25.5,13.3z"/>
		<path id="XMLID_1770_" class="st45" d="M28.8,17.3c0.1,0,0.2,0.1,0.3,0.1l0.4-3c0-0.3-0.2-0.6-0.5-0.6l-3.5-0.4
			c-0.3,0-0.6,0.2-0.6,0.5l-0.3,3L28.8,17.3z"/>
		<path id="XMLID_1765_" class="st10" d="M25.5,13.3l3.5,0.4c0.3,0,0.5,0.3,0.5,0.6l-3.1,26.1c0,0.3-0.2,0.5-0.5,0.5l-3.6,0.5
			c-0.4,0-0.7-0.3-0.7-0.6l3.2-26.9C24.9,13.5,25.2,13.3,25.5,13.3z"/>
		<path id="XMLID_1764_" class="st57" d="M39.2,15c-0.5,0-1,0.3-1.1,0.8c-1.5,4.9-7.2,8.5-14.1,8.5s-12.6-3.6-14.1-8.5
			C9.7,15.3,9.3,15,8.8,15H5.1l3.2,27c0.1,1.2,1.1,2,2.3,2h26.7c1.2,0,2.2-0.9,2.3-2l3.2-27H39.2z"/>
		<path id="XMLID_1359_" class="st62" d="M7.5,20.2c0.5,0,1,0.3,1.1,0.7c1.5,4.3,8.5,7.5,15.4,7.5s13.9-3.2,15.4-7.5
			c0.1-0.4,0.6-0.7,1.1-0.7h1.7l0.6-5.2h-3.6c-0.5,0-1,0.3-1.1,0.8c-1.5,4.9-7.2,8.5-14.1,8.5s-12.6-3.6-14.1-8.5
			C9.7,15.3,9.3,15,8.8,15H5.1l0.6,5.2H7.5z"/>
		<path id="XMLID_1358_" class="st10" d="M39.2,15c-0.5,0-1,0.3-1.1,0.8c-1.5,4.9-7.2,8.5-14.1,8.5s-12.6-3.6-14.1-8.5
			C9.7,15.3,9.3,15,8.8,15H5.1l3.2,27c0.1,1.2,1.1,2,2.3,2h26.7c1.2,0,2.2-0.9,2.3-2l3.2-27H39.2z"/>
		<ellipse id="XMLID_1357_" class="st46" cx="23.7" cy="34.2" rx="6.4" ry="4.1"/>
	</g>
</g>
</svg>
