<?xml version="1.0" encoding="utf-8"?>
<!-- Generator: Adobe Illustrator 21.1.0, SVG Export Plug-In . SVG Version: 6.00 Build 0)  -->
<svg version="1.1" xmlns="http://www.w3.org/2000/svg" xmlns:xlink="http://www.w3.org/1999/xlink" x="0px" y="0px"
	 viewBox="0 0 48 48" style="enable-background:new 0 0 48 48;" xml:space="preserve">
<style type="text/css">
	.st0{fill:#FFD4C3;stroke:#504B46;stroke-linecap:round;stroke-linejoin:round;stroke-miterlimit:10;}
	.st1{fill:#FFC258;}
	.st2{fill:#4F4B45;}
	.st3{fill:#FABFA5;}
	.st4{fill:none;stroke:#504B46;stroke-linecap:round;stroke-linejoin:round;stroke-miterlimit:10;}
	.Graphic_x0020_Style{opacity:0.15;fill:#45413C;}
	.st5{opacity:0.15;fill:#45413C;}
	.st6{fill:#DEBB7E;stroke:#45413C;stroke-linecap:round;stroke-linejoin:round;stroke-miterlimit:10;}
	.st7{fill:#F0D5A8;}
	.st8{fill:#F7E5C6;}
	.st9{fill:#DEBB7E;}
	.st10{fill:none;stroke:#45413C;stroke-linecap:round;stroke-linejoin:round;stroke-miterlimit:10;}
	.st11{fill:#FFE500;}
	.st12{fill:#EBCB00;}
	.st13{fill:none;stroke:#EBCB00;stroke-linecap:round;stroke-linejoin:round;stroke-miterlimit:10;}
	.st14{fill:#FF6242;stroke:#45413C;stroke-linecap:round;stroke-linejoin:round;stroke-miterlimit:10;}
	.st15{fill:#FFFFFF;stroke:#45413C;stroke-linecap:round;stroke-linejoin:round;stroke-miterlimit:10;}
	.st16{fill:#E5F8FF;}
	.st17{fill:#FFFFFF;}
	.st18{fill:#E8F4FA;}
	.st19{fill:#E8F4FA;stroke:#45413C;stroke-linecap:round;stroke-linejoin:round;stroke-miterlimit:10;}
	.st20{fill:#FFCCDD;}
	.st21{fill:#FFB0CA;stroke:#45413C;stroke-linecap:round;stroke-linejoin:round;stroke-miterlimit:10;}
	.st22{fill:#FF87AF;stroke:#45413C;stroke-linecap:round;stroke-linejoin:round;stroke-miterlimit:10;}
	.st23{fill:#E5F8FF;stroke:#45413C;stroke-linecap:round;stroke-linejoin:round;stroke-miterlimit:10;}
	.st24{fill:#BF8256;stroke:#45413C;stroke-linecap:round;stroke-linejoin:round;stroke-miterlimit:10;}
	.st25{fill:#9CEB60;}
	.st26{fill:#6DD627;}
	.st27{fill:#C8FFA1;}
	.st28{fill:#FFFACF;}
	.st29{fill:#FF87AF;}
	.st30{fill:#FFB0CA;}
	.st31{fill:#FF6196;}
	.st32{fill:#FFCCDD;stroke:#45413C;stroke-linecap:round;stroke-linejoin:round;stroke-miterlimit:10;}
	.st33{fill:#FF6196;stroke:#45413C;stroke-linecap:round;stroke-linejoin:round;stroke-miterlimit:10;}
	.st34{fill:#FFE5EE;}
	.st35{fill:#00B8F0;}
	.st36{fill:#4ACFFF;}
	.st37{fill:#BF8256;}
	.st38{fill:#DEA47A;}
	.st39{fill:#915E3A;}
	.st40{fill:#FFF5E3;}
	.st41{fill:#F0F0F0;}
	.st42{fill:#8CA4B8;}
	.st43{fill:#627B8C;}
	.st44{fill:#C0DCEB;}
	.st45{fill:#FFF48C;}
	.st46{fill:#FFE500;stroke:#45413C;stroke-linecap:round;stroke-linejoin:round;stroke-miterlimit:10;}
	.st47{fill:#FFAA54;}
	.st48{fill:#6DD627;stroke:#45413C;stroke-linecap:round;stroke-linejoin:round;stroke-miterlimit:10;}
	.st49{fill:#FF8A14;}
	.st50{fill:#FFCC99;}
	.st51{fill:#EBCB00;stroke:#45413C;stroke-linecap:round;stroke-linejoin:round;stroke-miterlimit:10;}
	.st52{fill:#00F5BC;stroke:#45413C;stroke-linecap:round;stroke-linejoin:round;stroke-miterlimit:10;}
	.st53{fill:#BF8DF2;stroke:#45413C;stroke-linecap:round;stroke-linejoin:round;stroke-miterlimit:10;}
	.st54{fill:#FF8A14;stroke:#45413C;stroke-linecap:round;stroke-linejoin:round;stroke-miterlimit:10;}
	.st55{fill:#4AEFF7;stroke:#45413C;stroke-linecap:round;stroke-linejoin:round;stroke-miterlimit:10;}
	.st56{fill:#FFF48C;stroke:#45413C;stroke-linecap:round;stroke-linejoin:round;stroke-miterlimit:10;}
	.st57{fill:#FF6242;}
	.st58{fill:#E04122;}
	.st59{fill:#46B000;}
	.st60{fill:none;stroke:#45413C;stroke-miterlimit:10;}
	.st61{fill:#00B8F0;stroke:#45413C;stroke-linecap:round;stroke-linejoin:round;stroke-miterlimit:10;}
	.st62{fill:#FF866E;}
	.st63{fill:#9F5AE5;stroke:#45413C;stroke-linecap:round;stroke-linejoin:round;stroke-miterlimit:10;}
	.st64{fill:#E4FFD1;}
	.st65{fill:#FFFEF2;}
	.st66{fill:#B89558;}
	.st67{fill:none;stroke:#915E3A;stroke-linecap:round;stroke-linejoin:round;stroke-miterlimit:10;}
	.st68{fill:#915E3A;stroke:#45413C;stroke-linecap:round;stroke-linejoin:round;stroke-miterlimit:10;}
	.st69{fill:#BF8DF2;}
	.st70{fill:#9F5AE5;}
	.st71{fill:#DABFF5;}
	.st72{fill:none;stroke:#45413C;stroke-linejoin:round;stroke-miterlimit:10;}
	.st73{fill:#656769;}
	.st74{fill:#87898C;}
	.st75{fill:#E0E0E0;}
	.st76{fill:#BDBEC0;}
	.st77{fill:#656769;stroke:#45413C;stroke-linecap:round;stroke-linejoin:round;stroke-miterlimit:10;}
	.st78{fill:#45413C;stroke:#45413C;stroke-linecap:round;stroke-linejoin:round;stroke-miterlimit:10;}
	.st79{fill:#FFA694;}
	.st80{fill:#E04122;stroke:#45413C;stroke-linecap:round;stroke-linejoin:round;stroke-miterlimit:10;}
	.st81{fill:#E0E0E0;stroke:#45413C;stroke-linecap:round;stroke-linejoin:round;stroke-miterlimit:10;}
	.st82{fill:#F0F0F0;stroke:#45413C;stroke-linecap:round;stroke-linejoin:round;stroke-miterlimit:10;}
	.st83{fill:#DAEDF7;}
	.st84{fill:#BDBEC0;stroke:#45413C;stroke-linecap:round;stroke-linejoin:round;stroke-miterlimit:10;}
	.st85{fill:#87898C;stroke:#45413C;stroke-linecap:round;stroke-linejoin:round;stroke-miterlimit:10;}
	.st86{fill:#00DFEB;}
	.st87{fill:#4AEFF7;}
	.st88{fill:#DAEDF7;stroke:#45413C;stroke-linecap:round;stroke-linejoin:round;stroke-miterlimit:10;}
	.st89{fill:#FFDA8F;}
	.st90{fill:#FFBE3D;}
	.st91{fill:#FFE9BD;}
	.st92{fill:#DEA47A;stroke:#45413C;stroke-linecap:round;stroke-linejoin:round;stroke-miterlimit:10;}
	.st93{fill:#45413C;}
	.st94{fill:#F0C2A1;}
	.st95{fill:none;stroke:#45413C;stroke-width:1.0064;stroke-linecap:round;stroke-linejoin:round;stroke-miterlimit:10;}
	.st96{fill:#525252;}
	.st97{fill:#EB6D00;stroke:#45413C;stroke-linecap:round;stroke-linejoin:round;stroke-miterlimit:10;}
	.st98{fill:#EB6D00;}
	.st99{fill:#E5FEFF;}
	.st100{fill:#FF866E;stroke:#45413C;stroke-linecap:round;stroke-linejoin:round;stroke-miterlimit:10;}
	.st101{fill:#627B8C;stroke:#45413C;stroke-linecap:round;stroke-linejoin:round;stroke-miterlimit:10;}
	.st102{fill:#FFFCE5;stroke:#45413C;stroke-linecap:round;stroke-linejoin:round;stroke-miterlimit:10;}
	.st103{fill:#A6FBFF;}
	.st104{fill:#D9FDFF;}
	.st105{fill:#FFFACF;stroke:#45413C;stroke-linecap:round;stroke-linejoin:round;stroke-miterlimit:10;}
	.st106{fill:#B8ECFF;}
	.st107{fill:#FFCABF;}
	.st108{fill:#E5FFF9;}
	.st109{fill:#C8FFA1;stroke:#45413C;stroke-linecap:round;stroke-linejoin:round;stroke-miterlimit:10;}
	.st110{fill:#4CF4FC;}
	.st111{fill:#F0D5A8;stroke:#45413C;stroke-linecap:round;stroke-linejoin:round;stroke-miterlimit:10;}
	.st112{fill:#FFDCD1;stroke:#45413C;stroke-linecap:round;stroke-linejoin:round;stroke-miterlimit:10;}
	.st113{fill:#80DDFF;}
	.st114{fill:#46B000;stroke:#45413C;stroke-linecap:round;stroke-linejoin:round;stroke-miterlimit:10;}
	.st115{fill:#4ACFFF;stroke:#45413C;stroke-linecap:round;stroke-linejoin:round;stroke-miterlimit:10;}
	.st116{fill:#ADC4D9;}
	.st117{fill:#BDBEC0;stroke:#45413C;stroke-width:1.0064;stroke-linecap:round;stroke-linejoin:round;stroke-miterlimit:10;}
	.st118{fill:#FFFCE5;}
	.st119{fill:#947746;}
	.st120{fill:#525252;stroke:#45413C;stroke-linecap:round;stroke-linejoin:round;stroke-miterlimit:10;}
</style>
<symbol  id="New_Symbol_14" viewBox="-6.5 -6.5 13 13">
	<path class="st0" d="M0-6c2.2,0,4.1,1.5,4.7,3.5c0,0,0,0,0,0C6.3-2.5,6.4,0,5,0v1c0,2.8-2.2,5-5,5c-2.8,0-5-2.2-5-5V0
		c-1.4,0-1.3-2.5,0.2-2.5c0,0,0,0,0,0C-4.1-4.5-2.2-6,0-6z"/>
	<g>
		<circle class="st1" cx="-1.6" cy="-0.1" r="0.1"/>
		<path class="st2" d="M-1.6,0.5c-0.3,0-0.6-0.3-0.6-0.6S-2-0.8-1.6-0.8C-1.3-0.8-1-0.5-1-0.1S-1.3,0.5-1.6,0.5L-1.6,0.5z"/>
	</g>
	<g>
		<circle class="st1" cx="1.6" cy="-0.1" r="0.1"/>
		<path class="st2" d="M1.6,0.5C1.3,0.5,1,0.2,1-0.1s0.3-0.6,0.6-0.6c0.3,0,0.6,0.3,0.6,0.6S2,0.5,1.6,0.5L1.6,0.5z"/>
	</g>
	<circle class="st3" cx="-3" cy="-1.5" r="0.5"/>
	<circle class="st3" cx="3" cy="-1.5" r="0.5"/>
	<path class="st4" d="M-1.2-3c0.8-0.5,1.7-0.5,2.5,0"/>
</symbol>
<g id="Bg">
</g>
<g id="Icons">
	<g id="XMLID_1928_">
		<ellipse id="XMLID_2018_" class="st5" cx="24" cy="41.5" rx="17.8" ry="1.7"/>
		<path id="XMLID_1234_" class="st9" d="M39,40.7H9c-2.5,0-4.4-2-4.4-4.4V16.8c0-2.5,2-4.4,4.4-4.4h30c2.5,0,4.4,2,4.4,4.4v19.5
			C43.5,38.7,41.5,40.7,39,40.7z"/>
		<path id="XMLID_806_" class="st7" d="M39,12.3H9c-2.5,0-4.4,2-4.4,4.4v2.8c0-2.5,2-4.4,4.4-4.4h30c2.5,0,4.4,2,4.4,4.4v-2.8
			C43.5,14.3,41.5,12.3,39,12.3z"/>
		<path id="XMLID_805_" class="st10" d="M39,40.7H9c-2.5,0-4.4-2-4.4-4.4V16.8c0-2.5,2-4.4,4.4-4.4h30c2.5,0,4.4,2,4.4,4.4v19.5
			C43.5,38.7,41.5,40.7,39,40.7z"/>
		<path id="XMLID_804_" class="st83" d="M2.9,23.5h1.7v-5.6H2.9c-0.6,0-1.1,0.5-1.1,1.1v3.3C1.8,23,2.2,23.5,2.9,23.5z"/>
		<path id="XMLID_801_" class="st83" d="M43.5,23.5h1.7c0.6,0,1.1-0.5,1.1-1.1V19c0-0.6-0.5-1.1-1.1-1.1h-1.7V23.5z"/>
		<path id="XMLID_738_" class="st18" d="M2.9,17.9c-0.6,0-1.1,0.5-1.1,1.1v1.8c0-0.6,0.5-1.1,1.1-1.1h1.7v-1.8H2.9z"/>
		<path id="XMLID_737_" class="st18" d="M45.1,17.9h-1.7v1.8h1.7c0.6,0,1.1,0.5,1.1,1.1V19C46.2,18.4,45.8,17.9,45.1,17.9z"/>
		<path id="XMLID_735_" class="st10" d="M2.9,23.5h1.7v-5.6H2.9c-0.6,0-1.1,0.5-1.1,1.1v3.3C1.8,23,2.2,23.5,2.9,23.5z"/>
		<path id="XMLID_734_" class="st10" d="M43.5,23.5h1.7c0.6,0,1.1-0.5,1.1-1.1V19c0-0.6-0.5-1.1-1.1-1.1h-1.7V23.5z"/>
		<path id="XMLID_732_" class="st76" d="M38.5,15.1H9.5c-1.2,0-2.2,1-2.2,2.2V24h33.4v-6.7C40.7,16.1,39.7,15.1,38.5,15.1z"/>
		<path id="XMLID_719_" class="st74" d="M38.5,15.1H9.5c-1.2,0-2.2,1-2.2,2.2v2.2c0-1.2,1-2.2,2.2-2.2h28.9c1.2,0,2.2,1,2.2,2.2
			v-2.2C40.7,16.1,39.7,15.1,38.5,15.1z"/>
		<path id="XMLID_715_" class="st10" d="M38.5,15.1H9.5c-1.2,0-2.2,1-2.2,2.2V24h33.4v-6.7C40.7,16.1,39.7,15.1,38.5,15.1z"/>
		<path id="XMLID_714_" class="st8" d="M38.5,37.9H9.5c-1.2,0-2.2-1-2.2-2.2V24h33.4v11.7C40.7,36.9,39.7,37.9,38.5,37.9z"/>
		<rect id="XMLID_711_" x="7.3" y="24" class="st7" width="33.4" height="2.5"/>
		<path id="XMLID_710_" class="st10" d="M38.5,37.9H9.5c-1.2,0-2.2-1-2.2-2.2V24h33.4v11.7C40.7,36.9,39.7,37.9,38.5,37.9z"/>
		<circle id="XMLID_701_" class="st7" cx="11.8" cy="19.6" r="2.2"/>
		<circle id="XMLID_700_" class="st7" cx="36.2" cy="19.6" r="2.2"/>
		<path id="XMLID_693_" class="st8" d="M11.8,19c0.9,0,1.7,0.6,2.1,1.4c0.1-0.3,0.2-0.5,0.2-0.8c0-1.2-1-2.2-2.2-2.2s-2.2,1-2.2,2.2
			c0,0.3,0.1,0.6,0.2,0.8C10,19.6,10.8,19,11.8,19z"/>
		<path id="XMLID_53_" class="st8" d="M36.2,19c0.9,0,1.7,0.6,2.1,1.4c0.1-0.3,0.2-0.5,0.2-0.8c0-1.2-1-2.2-2.2-2.2s-2.2,1-2.2,2.2
			c0,0.3,0.1,0.6,0.2,0.8C34.5,19.6,35.3,19,36.2,19z"/>
		<circle id="XMLID_52_" class="st10" cx="11.8" cy="19.6" r="2.2"/>
		<circle id="XMLID_51_" class="st10" cx="36.2" cy="19.6" r="2.2"/>
		<path id="XMLID_50_" class="st19" d="M30.7,21.8H17.3c-0.6,0-1.1-0.5-1.1-1.1v-2.2c0-0.6,0.5-1.1,1.1-1.1h13.3
			c0.6,0,1.1,0.5,1.1,1.1v2.2C31.8,21.3,31.3,21.8,30.7,21.8z"/>
		<line id="XMLID_49_" class="st10" x1="22.3" y1="21.8" x2="22.3" y2="19"/>
		<line id="XMLID_48_" class="st10" x1="16.2" y1="19.6" x2="31.8" y2="19.6"/>
		<path id="XMLID_47_" class="st88" d="M12.8,11.2l-0.4-2.2l21.3-4.2c0.6-0.1,1.2,0.3,1.3,0.9l0.2,1.1L12.8,11.2z"/>
		<line id="XMLID_46_" class="st10" x1="34.9" y1="5.7" x2="40.7" y2="4.5"/>
		<path id="XMLID_45_" class="st88" d="M12.3,9L12.3,9c-0.9,0-1.7,0.7-1.7,1.7v1.7H14v-1.7C14,9.7,13.2,9,12.3,9z"/>
		<line id="XMLID_44_" class="st10" x1="10.1" y1="26.8" x2="37.9" y2="26.8"/>
		<line id="XMLID_43_" class="st10" x1="10.1" y1="29.6" x2="37.9" y2="29.6"/>
		<line id="XMLID_42_" class="st10" x1="10.1" y1="32.4" x2="37.9" y2="32.4"/>
		<line id="XMLID_41_" class="st10" x1="10.1" y1="35.1" x2="37.9" y2="35.1"/>
	</g>
</g>
</svg>
