<?xml version="1.0" encoding="utf-8"?>
<!-- Generator: Adobe Illustrator 21.1.0, SVG Export Plug-In . SVG Version: 6.00 Build 0)  -->
<svg version="1.1" xmlns="http://www.w3.org/2000/svg" xmlns:xlink="http://www.w3.org/1999/xlink" x="0px" y="0px"
	 viewBox="0 0 48 48" style="enable-background:new 0 0 48 48;" xml:space="preserve">
<style type="text/css">
	.st0{fill:#FFD4C3;stroke:#504B46;stroke-linecap:round;stroke-linejoin:round;stroke-miterlimit:10;}
	.st1{fill:#FFC258;}
	.st2{fill:#4F4B45;}
	.st3{fill:#FABFA5;}
	.st4{fill:none;stroke:#504B46;stroke-linecap:round;stroke-linejoin:round;stroke-miterlimit:10;}
	.Graphic_x0020_Style{opacity:0.15;fill:#45413C;}
	.st5{opacity:0.15;fill:#45413C;}
	.st6{fill:#DEBB7E;stroke:#45413C;stroke-linecap:round;stroke-linejoin:round;stroke-miterlimit:10;}
	.st7{fill:#F0D5A8;}
	.st8{fill:#F7E5C6;}
	.st9{fill:#DEBB7E;}
	.st10{fill:none;stroke:#45413C;stroke-linecap:round;stroke-linejoin:round;stroke-miterlimit:10;}
	.st11{fill:#FFE500;}
	.st12{fill:#EBCB00;}
	.st13{fill:none;stroke:#EBCB00;stroke-linecap:round;stroke-linejoin:round;stroke-miterlimit:10;}
	.st14{fill:#FF6242;stroke:#45413C;stroke-linecap:round;stroke-linejoin:round;stroke-miterlimit:10;}
	.st15{fill:#FFFFFF;stroke:#45413C;stroke-linecap:round;stroke-linejoin:round;stroke-miterlimit:10;}
	.st16{fill:#E5F8FF;}
	.st17{fill:#FFFFFF;}
	.st18{fill:#E8F4FA;}
	.st19{fill:#E8F4FA;stroke:#45413C;stroke-linecap:round;stroke-linejoin:round;stroke-miterlimit:10;}
	.st20{fill:#FFCCDD;}
	.st21{fill:#FFB0CA;stroke:#45413C;stroke-linecap:round;stroke-linejoin:round;stroke-miterlimit:10;}
	.st22{fill:#FF87AF;stroke:#45413C;stroke-linecap:round;stroke-linejoin:round;stroke-miterlimit:10;}
	.st23{fill:#E5F8FF;stroke:#45413C;stroke-linecap:round;stroke-linejoin:round;stroke-miterlimit:10;}
	.st24{fill:#BF8256;stroke:#45413C;stroke-linecap:round;stroke-linejoin:round;stroke-miterlimit:10;}
	.st25{fill:#9CEB60;}
	.st26{fill:#6DD627;}
	.st27{fill:#C8FFA1;}
	.st28{fill:#FFFACF;}
	.st29{fill:#FF87AF;}
	.st30{fill:#FFB0CA;}
	.st31{fill:#FF6196;}
	.st32{fill:#FFCCDD;stroke:#45413C;stroke-linecap:round;stroke-linejoin:round;stroke-miterlimit:10;}
	.st33{fill:#FF6196;stroke:#45413C;stroke-linecap:round;stroke-linejoin:round;stroke-miterlimit:10;}
	.st34{fill:#FFE5EE;}
	.st35{fill:#00B8F0;}
	.st36{fill:#4ACFFF;}
	.st37{fill:#BF8256;}
	.st38{fill:#DEA47A;}
	.st39{fill:#915E3A;}
	.st40{fill:#FFF5E3;}
	.st41{fill:#F0F0F0;}
	.st42{fill:#8CA4B8;}
	.st43{fill:#627B8C;}
	.st44{fill:#C0DCEB;}
	.st45{fill:#FFF48C;}
	.st46{fill:#FFE500;stroke:#45413C;stroke-linecap:round;stroke-linejoin:round;stroke-miterlimit:10;}
	.st47{fill:#FFAA54;}
	.st48{fill:#6DD627;stroke:#45413C;stroke-linecap:round;stroke-linejoin:round;stroke-miterlimit:10;}
	.st49{fill:#FF8A14;}
	.st50{fill:#FFCC99;}
	.st51{fill:#EBCB00;stroke:#45413C;stroke-linecap:round;stroke-linejoin:round;stroke-miterlimit:10;}
	.st52{fill:#00F5BC;stroke:#45413C;stroke-linecap:round;stroke-linejoin:round;stroke-miterlimit:10;}
	.st53{fill:#BF8DF2;stroke:#45413C;stroke-linecap:round;stroke-linejoin:round;stroke-miterlimit:10;}
	.st54{fill:#FF8A14;stroke:#45413C;stroke-linecap:round;stroke-linejoin:round;stroke-miterlimit:10;}
	.st55{fill:#4AEFF7;stroke:#45413C;stroke-linecap:round;stroke-linejoin:round;stroke-miterlimit:10;}
	.st56{fill:#FFF48C;stroke:#45413C;stroke-linecap:round;stroke-linejoin:round;stroke-miterlimit:10;}
	.st57{fill:#FF6242;}
	.st58{fill:#E04122;}
	.st59{fill:#46B000;}
	.st60{fill:none;stroke:#45413C;stroke-miterlimit:10;}
	.st61{fill:#00B8F0;stroke:#45413C;stroke-linecap:round;stroke-linejoin:round;stroke-miterlimit:10;}
	.st62{fill:#FF866E;}
	.st63{fill:#9F5AE5;stroke:#45413C;stroke-linecap:round;stroke-linejoin:round;stroke-miterlimit:10;}
	.st64{fill:#E4FFD1;}
	.st65{fill:#FFFEF2;}
	.st66{fill:#B89558;}
	.st67{fill:none;stroke:#915E3A;stroke-linecap:round;stroke-linejoin:round;stroke-miterlimit:10;}
	.st68{fill:#915E3A;stroke:#45413C;stroke-linecap:round;stroke-linejoin:round;stroke-miterlimit:10;}
	.st69{fill:#BF8DF2;}
	.st70{fill:#9F5AE5;}
	.st71{fill:#DABFF5;}
	.st72{fill:none;stroke:#45413C;stroke-linejoin:round;stroke-miterlimit:10;}
	.st73{fill:#656769;}
	.st74{fill:#87898C;}
	.st75{fill:#E0E0E0;}
	.st76{fill:#BDBEC0;}
	.st77{fill:#656769;stroke:#45413C;stroke-linecap:round;stroke-linejoin:round;stroke-miterlimit:10;}
	.st78{fill:#45413C;stroke:#45413C;stroke-linecap:round;stroke-linejoin:round;stroke-miterlimit:10;}
	.st79{fill:#FFA694;}
	.st80{fill:#E04122;stroke:#45413C;stroke-linecap:round;stroke-linejoin:round;stroke-miterlimit:10;}
	.st81{fill:#E0E0E0;stroke:#45413C;stroke-linecap:round;stroke-linejoin:round;stroke-miterlimit:10;}
	.st82{fill:#F0F0F0;stroke:#45413C;stroke-linecap:round;stroke-linejoin:round;stroke-miterlimit:10;}
	.st83{fill:#DAEDF7;}
	.st84{fill:#BDBEC0;stroke:#45413C;stroke-linecap:round;stroke-linejoin:round;stroke-miterlimit:10;}
	.st85{fill:#87898C;stroke:#45413C;stroke-linecap:round;stroke-linejoin:round;stroke-miterlimit:10;}
	.st86{fill:#00DFEB;}
	.st87{fill:#4AEFF7;}
	.st88{fill:#DAEDF7;stroke:#45413C;stroke-linecap:round;stroke-linejoin:round;stroke-miterlimit:10;}
	.st89{fill:#FFDA8F;}
	.st90{fill:#FFBE3D;}
	.st91{fill:#FFE9BD;}
	.st92{fill:#DEA47A;stroke:#45413C;stroke-linecap:round;stroke-linejoin:round;stroke-miterlimit:10;}
	.st93{fill:#45413C;}
	.st94{fill:#F0C2A1;}
	.st95{fill:none;stroke:#45413C;stroke-width:1.0064;stroke-linecap:round;stroke-linejoin:round;stroke-miterlimit:10;}
	.st96{fill:#525252;}
	.st97{fill:#EB6D00;stroke:#45413C;stroke-linecap:round;stroke-linejoin:round;stroke-miterlimit:10;}
	.st98{fill:#EB6D00;}
	.st99{fill:#E5FEFF;}
	.st100{fill:#FF866E;stroke:#45413C;stroke-linecap:round;stroke-linejoin:round;stroke-miterlimit:10;}
	.st101{fill:#627B8C;stroke:#45413C;stroke-linecap:round;stroke-linejoin:round;stroke-miterlimit:10;}
	.st102{fill:#FFFCE5;stroke:#45413C;stroke-linecap:round;stroke-linejoin:round;stroke-miterlimit:10;}
	.st103{fill:#A6FBFF;}
	.st104{fill:#D9FDFF;}
	.st105{fill:#FFFACF;stroke:#45413C;stroke-linecap:round;stroke-linejoin:round;stroke-miterlimit:10;}
	.st106{fill:#B8ECFF;}
	.st107{fill:#FFCABF;}
	.st108{fill:#E5FFF9;}
	.st109{fill:#C8FFA1;stroke:#45413C;stroke-linecap:round;stroke-linejoin:round;stroke-miterlimit:10;}
	.st110{fill:#4CF4FC;}
	.st111{fill:#F0D5A8;stroke:#45413C;stroke-linecap:round;stroke-linejoin:round;stroke-miterlimit:10;}
	.st112{fill:#FFDCD1;stroke:#45413C;stroke-linecap:round;stroke-linejoin:round;stroke-miterlimit:10;}
	.st113{fill:#80DDFF;}
	.st114{fill:#46B000;stroke:#45413C;stroke-linecap:round;stroke-linejoin:round;stroke-miterlimit:10;}
	.st115{fill:#4ACFFF;stroke:#45413C;stroke-linecap:round;stroke-linejoin:round;stroke-miterlimit:10;}
	.st116{fill:#ADC4D9;}
	.st117{fill:#BDBEC0;stroke:#45413C;stroke-width:1.0064;stroke-linecap:round;stroke-linejoin:round;stroke-miterlimit:10;}
	.st118{fill:#FFFCE5;}
	.st119{fill:#947746;}
	.st120{fill:#525252;stroke:#45413C;stroke-linecap:round;stroke-linejoin:round;stroke-miterlimit:10;}
</style>
<symbol  id="New_Symbol_14" viewBox="-6.5 -6.5 13 13">
	<path class="st0" d="M0-6c2.2,0,4.1,1.5,4.7,3.5c0,0,0,0,0,0C6.3-2.5,6.4,0,5,0v1c0,2.8-2.2,5-5,5c-2.8,0-5-2.2-5-5V0
		c-1.4,0-1.3-2.5,0.2-2.5c0,0,0,0,0,0C-4.1-4.5-2.2-6,0-6z"/>
	<g>
		<circle class="st1" cx="-1.6" cy="-0.1" r="0.1"/>
		<path class="st2" d="M-1.6,0.5c-0.3,0-0.6-0.3-0.6-0.6S-2-0.8-1.6-0.8C-1.3-0.8-1-0.5-1-0.1S-1.3,0.5-1.6,0.5L-1.6,0.5z"/>
	</g>
	<g>
		<circle class="st1" cx="1.6" cy="-0.1" r="0.1"/>
		<path class="st2" d="M1.6,0.5C1.3,0.5,1,0.2,1-0.1s0.3-0.6,0.6-0.6c0.3,0,0.6,0.3,0.6,0.6S2,0.5,1.6,0.5L1.6,0.5z"/>
	</g>
	<circle class="st3" cx="-3" cy="-1.5" r="0.5"/>
	<circle class="st3" cx="3" cy="-1.5" r="0.5"/>
	<path class="st4" d="M-1.2-3c0.8-0.5,1.7-0.5,2.5,0"/>
</symbol>
<g id="Bg">
</g>
<g id="Icons">
	<g id="XMLID_1931_">
		
			<ellipse id="XMLID_2072_" transform="matrix(0.3022 -0.9532 0.9532 0.3022 8.4452 60.1139)" class="st92" cx="45.3" cy="24.3" rx="2.7" ry="1.5"/>
		<path id="XMLID_2071_" class="st74" d="M14.1,6.3c0,0,1.9-5,7.4-5.5c4.9-0.5,6.1,2.3,4.6,4c-1.8,2.1-5-3.2-9.9,1.7
			C14,8.7,14.1,6.3,14.1,6.3z"/>
		<path id="XMLID_2070_" class="st74" d="M15.1,6.3c0,0-1.9-5-7.4-5.5c-4.9-0.5-6.1,2.3-4.6,4c1.8,2.1,5-3.2,9.9,1.7
			C15.2,8.7,15.1,6.3,15.1,6.3z"/>
		<path id="XMLID_2069_" class="st76" d="M14.5,7.4c0.8-1.4,2.9-4.2,6.9-4.6c2.8-0.3,4.4,0.5,4.9,1.6c0.9-1.7-0.5-3.9-4.9-3.5
			c-5.5,0.5-7.4,5.5-7.4,5.5S14.1,7.2,14.5,7.4z"/>
		<path id="XMLID_2068_" class="st76" d="M7.8,2.8c4,0.4,6.1,3.2,6.9,4.6c0.5-0.2,0.4-1.1,0.4-1.1s-1.9-5-7.4-5.5
			C3.3,0.4,1.9,2.7,2.8,4.4C3.4,3.3,5,2.6,7.8,2.8z"/>
		<path id="XMLID_2067_" class="st10" d="M14.1,6.3c0,0,1.9-5,7.4-5.5c4.9-0.5,6.1,2.3,4.6,4c-1.8,2.1-5-3.2-9.9,1.7
			C14,8.7,14.1,6.3,14.1,6.3z"/>
		<path id="XMLID_2066_" class="st10" d="M15.1,6.3c0,0-1.9-5-7.4-5.5c-4.9-0.5-6.1,2.3-4.6,4c1.8,2.1,5-3.2,9.9,1.7
			C15.2,8.7,15.1,6.3,15.1,6.3z"/>
		<ellipse id="XMLID_2065_" class="st5" cx="23.5" cy="45.7" rx="19" ry="1.5"/>
		<circle id="XMLID_2064_" class="st25" cx="41.4" cy="28.9" r="4.8"/>
		<path id="XMLID_2063_" class="st27" d="M41.4,26.5c2.2,0,4.1,1.5,4.6,3.6c0.1-0.4,0.2-0.7,0.2-1.1c0-2.6-2.1-4.8-4.8-4.8
			s-4.8,2.1-4.8,4.8c0,0.4,0.1,0.8,0.2,1.1C37.3,28,39.2,26.5,41.4,26.5z"/>
		<circle id="XMLID_2062_" class="st10" cx="41.4" cy="28.9" r="4.8"/>
		<circle id="XMLID_2061_" class="st25" cx="35.9" cy="32.9" r="6.8"/>
		<path id="XMLID_2060_" class="st27" d="M35.9,28.3c3.4,0,6.1,2.5,6.7,5.7c0.1-0.4,0.1-0.7,0.1-1.1c0-3.7-3-6.8-6.8-6.8
			s-6.7,3-6.7,6.8c0,0.4,0,0.7,0.1,1.1C29.7,30.8,32.5,28.3,35.9,28.3z"/>
		<circle id="XMLID_2059_" class="st10" cx="35.9" cy="32.9" r="6.8"/>
		<circle id="XMLID_2058_" class="st25" cx="27.6" cy="33.7" r="8.5"/>
		<path id="XMLID_2057_" class="st27" d="M27.6,27.7c4.3,0,7.8,3.1,8.4,7.2c0.1-0.4,0.1-0.8,0.1-1.2c0-4.7-3.8-8.5-8.5-8.5
			s-8.5,3.8-8.5,8.5c0,0.4,0,0.8,0.1,1.2C19.8,30.8,23.4,27.7,27.6,27.7z"/>
		<circle id="XMLID_2056_" class="st10" cx="27.6" cy="33.7" r="8.5"/>
		<circle id="XMLID_2055_" class="st25" cx="19.6" cy="33.7" r="8.5"/>
		<path id="XMLID_2054_" class="st26" d="M11.1,33.7c0,0.7,0.1,1.4,0.3,2.1c1.5,1.3,3.4,2.1,5.5,2.1c4.7,0,8.5-3.8,8.5-8.5
			c0-0.7-0.1-1.4-0.3-2.1c-1.5-1.3-3.4-2.1-5.5-2.1C14.9,25.2,11.1,29,11.1,33.7z"/>
		<circle id="XMLID_2053_" class="st10" cx="19.6" cy="33.7" r="8.5"/>
		<circle id="XMLID_2052_" class="st25" cx="15.6" cy="26.2" r="8.5"/>
		<path id="XMLID_2051_" class="st26" d="M7.2,25.8c1.4,2.8,4.3,4.7,7.6,4.7c4.5,0,8.3-3.6,8.5-8.1c-1.4-2.8-4.3-4.7-7.6-4.7
			C11.1,17.7,7.4,21.3,7.2,25.8z"/>
		<circle id="XMLID_2050_" class="st10" cx="15.6" cy="26.2" r="8.5"/>
		<circle id="XMLID_2049_" class="st25" cx="13.6" cy="16.2" r="10.5"/>
		<path id="XMLID_2048_" class="st27" d="M13.6,9.2c5.2,0,9.5,3.8,10.3,8.7c0.1-0.6,0.2-1.2,0.2-1.8c0-5.8-4.7-10.5-10.5-10.5
			S3.1,10.4,3.1,16.2c0,0.6,0.1,1.2,0.2,1.8C4.1,13,8.4,9.2,13.6,9.2z"/>
		<circle id="XMLID_2047_" class="st10" cx="13.6" cy="16.2" r="10.5"/>
		
			<ellipse id="XMLID_2046_" transform="matrix(0.8302 -0.5575 0.5575 0.8302 -15.5646 11.3764)" class="st74" cx="10.9" cy="31.2" rx="3" ry="3.8"/>
		<path id="XMLID_2045_" class="st76" d="M8.8,30.1c1.4-0.9,3.4-0.3,4.6,1.4c0.3,0.4,0.5,0.9,0.6,1.4c0.3-1,0.1-2.3-0.6-3.4
			c-1.2-1.7-3.2-2.4-4.6-1.4c-1,0.7-1.4,2.1-1,3.4C8,31,8.3,30.5,8.8,30.1z"/>
		
			<ellipse id="XMLID_2044_" transform="matrix(0.8302 -0.5575 0.5575 0.8302 -15.5646 11.3764)" class="st10" cx="10.9" cy="31.2" rx="3" ry="3.8"/>
		
			<ellipse id="XMLID_2043_" transform="matrix(0.3024 -0.9532 0.9532 0.3024 -26.2261 44.7408)" class="st74" cx="17.5" cy="40.3" rx="3" ry="3.7"/>
		<path id="XMLID_2042_" class="st76" d="M18.4,39.4c1.2,0.4,2.2,1.3,2.6,2.2c0-0.1,0.1-0.2,0.1-0.2c0.5-1.6-0.7-3.4-2.7-4
			c-2-0.6-4,0.1-4.5,1.7c-0.2,0.6-0.1,1.2,0.1,1.8C14.6,39.5,16.5,38.9,18.4,39.4z"/>
		
			<ellipse id="XMLID_2041_" transform="matrix(0.3024 -0.9532 0.9532 0.3024 -26.2261 44.7408)" class="st10" cx="17.5" cy="40.3" rx="3" ry="3.7"/>
		
			<ellipse id="XMLID_2040_" transform="matrix(0.9621 -0.2726 0.2726 0.9621 -9.7906 10.0952)" class="st74" cx="31.4" cy="40.3" rx="3.8" ry="3"/>
		<path id="XMLID_2039_" class="st76" d="M27.9,41.6c0.4-1,1.4-1.9,2.7-2.2c1.9-0.5,3.7,0.2,4.3,1.5c0.2-0.5,0.3-1.1,0.1-1.7
			c-0.5-1.6-2.4-2.4-4.4-1.9c-2,0.6-3.2,2.3-2.8,3.9C27.9,41.4,27.9,41.5,27.9,41.6z"/>
		
			<ellipse id="XMLID_2038_" transform="matrix(0.9621 -0.2726 0.2726 0.9621 -9.7906 10.0952)" class="st10" cx="31.4" cy="40.3" rx="3.8" ry="3"/>
		
			<ellipse id="XMLID_2037_" transform="matrix(0.2284 -0.9736 0.9736 0.2284 -4.7686 20.2573)" class="st93" cx="10.4" cy="13.1" rx="1.8" ry="1.8"/>
		<path id="XMLID_2036_" class="st59" d="M15.1,18.7c-0.2,0.5-1.2,0.9-2.1,0.7c-0.9-0.1-1.5-0.7-1.3-1.2c0.2-0.5,1.2-0.9,2.1-0.7
			C14.8,17.6,15.4,18.1,15.1,18.7z"/>
		<path id="XMLID_2035_" class="st47" d="M3.6,13.7c0,0-3.1,1.4-2.5,5c0.5,3.2,4,3.5,4,3.5s2.2-0.1,2.5-3C8,15.7,3.6,13.7,3.6,13.7z
			"/>
		<path id="XMLID_2034_" class="st50" d="M1.2,18.9C1.2,18.8,1.2,18.8,1.2,18.9c0.5-2.3,3.4-3,5-1.3c0.6,0.6,1.1,1.4,1.4,2.3
			c0-0.2,0.1-0.4,0.1-0.7c0.3-3.5-4-5.5-4-5.5s-3.1,1.4-2.5,5C1.2,18.8,1.2,18.8,1.2,18.9z"/>
		<path id="XMLID_2033_" class="st10" d="M3.6,13.7c0,0-3.1,1.4-2.5,5c0.5,3.2,4,3.5,4,3.5s2.2-0.1,2.5-3C8,15.7,3.6,13.7,3.6,13.7z
			"/>
		<path id="XMLID_2032_" class="st10" d="M1.1,18.7c0,0,3,1.5,6.5,0"/>
		<path id="XMLID_2031_" class="st38" d="M10.6,31.1c-1.2-1.9-2.3-0.3-4,0.4c-1.9,0.7-1.8,2.3,1,3C10.7,35.2,11.9,33.2,10.6,31.1z"
			/>
		<path id="XMLID_1720_" class="st94" d="M6.6,33.1c1.8-0.7,2.8-2.2,4-0.4c0.2,0.2,0.3,0.5,0.4,0.7c0.3-0.7,0.2-1.5-0.4-2.3
			c-1.2-1.9-2.3-0.3-4,0.4c-1.3,0.5-1.7,1.4-0.9,2.1C5.9,33.4,6.2,33.2,6.6,33.1z"/>
		<path id="XMLID_1719_" class="st10" d="M10.6,31.1c-1.2-1.9-2.3-0.3-4,0.4c-1.9,0.7-1.8,2.3,1,3C10.7,35.2,11.9,33.2,10.6,31.1z"
			/>
		<path id="XMLID_1718_" class="st38" d="M16.6,40.1c-2.2,0-1.5,1.8-1.8,3.6c-0.4,2,1,2.8,3.1,0.7C20.2,42.2,19.1,40.1,16.6,40.1z"
			/>
		<path id="XMLID_1594_" class="st94" d="M15.9,42.2c1.4,0,2.4,0.7,2.5,1.7c1.5-2,0.4-3.8-1.8-3.7c-1.7,0-1.7,1-1.7,2.2
			C15.2,42.2,15.5,42.2,15.9,42.2z"/>
		<path id="XMLID_1593_" class="st10" d="M16.6,40.1c-2.2,0-1.5,1.8-1.8,3.6c-0.4,2,1,2.8,3.1,0.7C20.2,42.2,19.1,40.1,16.6,40.1z"
			/>
		<path id="XMLID_1592_" class="st38" d="M30.9,41.2c-1.3,1.8,0.5,2.2,1.8,3.7c1.4,1.5,2.8,0.9,2.5-2C34.7,39.7,32.3,39.3,30.9,41.2
			z"/>
		<path id="XMLID_1591_" class="st94" d="M30.9,42.9c1.5-1.9,3.8-1.5,4.2,1.5c0.1-0.4,0.1-1,0-1.6c-0.4-3.2-2.7-3.6-4.2-1.7
			c-0.7,0.9-0.6,1.4-0.1,1.9C30.8,43.1,30.8,43,30.9,42.9z"/>
		<path id="XMLID_1590_" class="st10" d="M30.9,41.2c-1.3,1.8,0.5,2.2,1.8,3.7c1.4,1.5,2.8,0.9,2.5-2C34.7,39.7,32.3,39.3,30.9,41.2
			z"/>
		
			<ellipse id="XMLID_1589_" transform="matrix(0.826 -0.5637 0.5637 0.826 -14.2173 29.3274)" class="st74" cx="40.4" cy="37.7" rx="3" ry="2.4"/>
		<path id="XMLID_1588_" class="st76" d="M39,37.4c1.4-0.9,3.1-0.8,3.8,0.3c0.1,0.1,0.1,0.2,0.2,0.4c0.2-0.7,0.2-1.4-0.2-2
			c-0.7-1.1-2.5-1.2-3.8-0.3c-1.2,0.8-1.8,2.2-1.3,3.3C37.9,38.4,38.4,37.8,39,37.4z"/>
		
			<ellipse id="XMLID_1587_" transform="matrix(0.826 -0.5637 0.5637 0.826 -14.2173 29.3274)" class="st10" cx="40.4" cy="37.7" rx="3" ry="2.4"/>
		<path id="XMLID_1586_" class="st38" d="M39.8,38.5c-0.7,1.6,0.8,1.7,2,2.6c1.3,1,2.3,0.2,1.6-2C42.6,36.7,40.6,36.7,39.8,38.5z"/>
		<path id="XMLID_1585_" class="st94" d="M39.8,39.8c0.8-1.8,2.7-1.8,3.6,0.6c0.1,0.2,0.1,0.4,0.2,0.6c0.2-0.4,0.1-1-0.2-1.9
			c-0.8-2.4-2.7-2.4-3.6-0.6C39.5,39.1,39.6,39.5,39.8,39.8C39.8,39.8,39.8,39.8,39.8,39.8z"/>
		<path id="XMLID_1584_" class="st10" d="M39.8,38.5c-0.7,1.6,0.8,1.7,2,2.6c1.3,1,2.3,0.2,1.6-2C42.6,36.7,40.6,36.7,39.8,38.5z"/>
	</g>
</g>
</svg>
