<?xml version="1.0" encoding="utf-8"?>
<!-- Generator: Adobe Illustrator 21.1.0, SVG Export Plug-In . SVG Version: 6.00 Build 0)  -->
<svg version="1.1" xmlns="http://www.w3.org/2000/svg" xmlns:xlink="http://www.w3.org/1999/xlink" x="0px" y="0px"
	 viewBox="0 0 48 48" style="enable-background:new 0 0 48 48;" xml:space="preserve">
<style type="text/css">
	.st0{fill:#FFD4C3;stroke:#504B46;stroke-linecap:round;stroke-linejoin:round;stroke-miterlimit:10;}
	.st1{fill:#FFC258;}
	.st2{fill:#4F4B45;}
	.st3{fill:#FABFA5;}
	.st4{fill:none;stroke:#504B46;stroke-linecap:round;stroke-linejoin:round;stroke-miterlimit:10;}
	.Graphic_x0020_Style{opacity:0.15;fill:#45413C;}
	.st5{opacity:0.15;fill:#45413C;}
	.st6{fill:#DEBB7E;stroke:#45413C;stroke-linecap:round;stroke-linejoin:round;stroke-miterlimit:10;}
	.st7{fill:#F0D5A8;}
	.st8{fill:#F7E5C6;}
	.st9{fill:#DEBB7E;}
	.st10{fill:none;stroke:#45413C;stroke-linecap:round;stroke-linejoin:round;stroke-miterlimit:10;}
	.st11{fill:#FFE500;}
	.st12{fill:#EBCB00;}
	.st13{fill:none;stroke:#EBCB00;stroke-linecap:round;stroke-linejoin:round;stroke-miterlimit:10;}
	.st14{fill:#FF6242;stroke:#45413C;stroke-linecap:round;stroke-linejoin:round;stroke-miterlimit:10;}
	.st15{fill:#FFFFFF;stroke:#45413C;stroke-linecap:round;stroke-linejoin:round;stroke-miterlimit:10;}
	.st16{fill:#E5F8FF;}
	.st17{fill:#FFFFFF;}
	.st18{fill:#E8F4FA;}
	.st19{fill:#E8F4FA;stroke:#45413C;stroke-linecap:round;stroke-linejoin:round;stroke-miterlimit:10;}
	.st20{fill:#FFCCDD;}
	.st21{fill:#FFB0CA;stroke:#45413C;stroke-linecap:round;stroke-linejoin:round;stroke-miterlimit:10;}
	.st22{fill:#FF87AF;stroke:#45413C;stroke-linecap:round;stroke-linejoin:round;stroke-miterlimit:10;}
	.st23{fill:#E5F8FF;stroke:#45413C;stroke-linecap:round;stroke-linejoin:round;stroke-miterlimit:10;}
	.st24{fill:#BF8256;stroke:#45413C;stroke-linecap:round;stroke-linejoin:round;stroke-miterlimit:10;}
	.st25{fill:#9CEB60;}
	.st26{fill:#6DD627;}
	.st27{fill:#C8FFA1;}
	.st28{fill:#FFFACF;}
	.st29{fill:#FF87AF;}
	.st30{fill:#FFB0CA;}
	.st31{fill:#FF6196;}
	.st32{fill:#FFCCDD;stroke:#45413C;stroke-linecap:round;stroke-linejoin:round;stroke-miterlimit:10;}
	.st33{fill:#FF6196;stroke:#45413C;stroke-linecap:round;stroke-linejoin:round;stroke-miterlimit:10;}
	.st34{fill:#FFE5EE;}
	.st35{fill:#00B8F0;}
	.st36{fill:#4ACFFF;}
	.st37{fill:#BF8256;}
	.st38{fill:#DEA47A;}
	.st39{fill:#915E3A;}
	.st40{fill:#FFF5E3;}
	.st41{fill:#F0F0F0;}
	.st42{fill:#8CA4B8;}
	.st43{fill:#627B8C;}
	.st44{fill:#C0DCEB;}
	.st45{fill:#FFF48C;}
	.st46{fill:#FFE500;stroke:#45413C;stroke-linecap:round;stroke-linejoin:round;stroke-miterlimit:10;}
	.st47{fill:#FFAA54;}
	.st48{fill:#6DD627;stroke:#45413C;stroke-linecap:round;stroke-linejoin:round;stroke-miterlimit:10;}
	.st49{fill:#FF8A14;}
	.st50{fill:#FFCC99;}
	.st51{fill:#EBCB00;stroke:#45413C;stroke-linecap:round;stroke-linejoin:round;stroke-miterlimit:10;}
	.st52{fill:#00F5BC;stroke:#45413C;stroke-linecap:round;stroke-linejoin:round;stroke-miterlimit:10;}
	.st53{fill:#BF8DF2;stroke:#45413C;stroke-linecap:round;stroke-linejoin:round;stroke-miterlimit:10;}
	.st54{fill:#FF8A14;stroke:#45413C;stroke-linecap:round;stroke-linejoin:round;stroke-miterlimit:10;}
	.st55{fill:#4AEFF7;stroke:#45413C;stroke-linecap:round;stroke-linejoin:round;stroke-miterlimit:10;}
	.st56{fill:#FFF48C;stroke:#45413C;stroke-linecap:round;stroke-linejoin:round;stroke-miterlimit:10;}
	.st57{fill:#FF6242;}
	.st58{fill:#E04122;}
	.st59{fill:#46B000;}
	.st60{fill:none;stroke:#45413C;stroke-miterlimit:10;}
	.st61{fill:#00B8F0;stroke:#45413C;stroke-linecap:round;stroke-linejoin:round;stroke-miterlimit:10;}
	.st62{fill:#FF866E;}
	.st63{fill:#9F5AE5;stroke:#45413C;stroke-linecap:round;stroke-linejoin:round;stroke-miterlimit:10;}
	.st64{fill:#E4FFD1;}
	.st65{fill:#FFFEF2;}
	.st66{fill:#B89558;}
	.st67{fill:none;stroke:#915E3A;stroke-linecap:round;stroke-linejoin:round;stroke-miterlimit:10;}
	.st68{fill:#915E3A;stroke:#45413C;stroke-linecap:round;stroke-linejoin:round;stroke-miterlimit:10;}
	.st69{fill:#BF8DF2;}
	.st70{fill:#9F5AE5;}
	.st71{fill:#DABFF5;}
	.st72{fill:none;stroke:#45413C;stroke-linejoin:round;stroke-miterlimit:10;}
	.st73{fill:#656769;}
	.st74{fill:#87898C;}
	.st75{fill:#E0E0E0;}
	.st76{fill:#BDBEC0;}
	.st77{fill:#656769;stroke:#45413C;stroke-linecap:round;stroke-linejoin:round;stroke-miterlimit:10;}
	.st78{fill:#45413C;stroke:#45413C;stroke-linecap:round;stroke-linejoin:round;stroke-miterlimit:10;}
	.st79{fill:#FFA694;}
	.st80{fill:#E04122;stroke:#45413C;stroke-linecap:round;stroke-linejoin:round;stroke-miterlimit:10;}
	.st81{fill:#E0E0E0;stroke:#45413C;stroke-linecap:round;stroke-linejoin:round;stroke-miterlimit:10;}
	.st82{fill:#F0F0F0;stroke:#45413C;stroke-linecap:round;stroke-linejoin:round;stroke-miterlimit:10;}
	.st83{fill:#DAEDF7;}
	.st84{fill:#BDBEC0;stroke:#45413C;stroke-linecap:round;stroke-linejoin:round;stroke-miterlimit:10;}
	.st85{fill:#87898C;stroke:#45413C;stroke-linecap:round;stroke-linejoin:round;stroke-miterlimit:10;}
	.st86{fill:#00DFEB;}
	.st87{fill:#4AEFF7;}
	.st88{fill:#DAEDF7;stroke:#45413C;stroke-linecap:round;stroke-linejoin:round;stroke-miterlimit:10;}
	.st89{fill:#FFDA8F;}
	.st90{fill:#FFBE3D;}
	.st91{fill:#FFE9BD;}
	.st92{fill:#DEA47A;stroke:#45413C;stroke-linecap:round;stroke-linejoin:round;stroke-miterlimit:10;}
	.st93{fill:#45413C;}
	.st94{fill:#F0C2A1;}
	.st95{fill:none;stroke:#45413C;stroke-width:1.0064;stroke-linecap:round;stroke-linejoin:round;stroke-miterlimit:10;}
	.st96{fill:#525252;}
	.st97{fill:#EB6D00;stroke:#45413C;stroke-linecap:round;stroke-linejoin:round;stroke-miterlimit:10;}
	.st98{fill:#EB6D00;}
	.st99{fill:#E5FEFF;}
	.st100{fill:#FF866E;stroke:#45413C;stroke-linecap:round;stroke-linejoin:round;stroke-miterlimit:10;}
	.st101{fill:#627B8C;stroke:#45413C;stroke-linecap:round;stroke-linejoin:round;stroke-miterlimit:10;}
	.st102{fill:#FFFCE5;stroke:#45413C;stroke-linecap:round;stroke-linejoin:round;stroke-miterlimit:10;}
	.st103{fill:#A6FBFF;}
	.st104{fill:#D9FDFF;}
	.st105{fill:#FFFACF;stroke:#45413C;stroke-linecap:round;stroke-linejoin:round;stroke-miterlimit:10;}
	.st106{fill:#B8ECFF;}
	.st107{fill:#FFCABF;}
	.st108{fill:#E5FFF9;}
	.st109{fill:#C8FFA1;stroke:#45413C;stroke-linecap:round;stroke-linejoin:round;stroke-miterlimit:10;}
	.st110{fill:#4CF4FC;}
	.st111{fill:#F0D5A8;stroke:#45413C;stroke-linecap:round;stroke-linejoin:round;stroke-miterlimit:10;}
	.st112{fill:#FFDCD1;stroke:#45413C;stroke-linecap:round;stroke-linejoin:round;stroke-miterlimit:10;}
	.st113{fill:#80DDFF;}
	.st114{fill:#46B000;stroke:#45413C;stroke-linecap:round;stroke-linejoin:round;stroke-miterlimit:10;}
	.st115{fill:#4ACFFF;stroke:#45413C;stroke-linecap:round;stroke-linejoin:round;stroke-miterlimit:10;}
	.st116{fill:#ADC4D9;}
	.st117{fill:#BDBEC0;stroke:#45413C;stroke-width:1.0064;stroke-linecap:round;stroke-linejoin:round;stroke-miterlimit:10;}
	.st118{fill:#FFFCE5;}
	.st119{fill:#947746;}
	.st120{fill:#525252;stroke:#45413C;stroke-linecap:round;stroke-linejoin:round;stroke-miterlimit:10;}
</style>
<symbol  id="New_Symbol_14" viewBox="-6.5 -6.5 13 13">
	<path class="st0" d="M0-6c2.2,0,4.1,1.5,4.7,3.5c0,0,0,0,0,0C6.3-2.5,6.4,0,5,0v1c0,2.8-2.2,5-5,5c-2.8,0-5-2.2-5-5V0
		c-1.4,0-1.3-2.5,0.2-2.5c0,0,0,0,0,0C-4.1-4.5-2.2-6,0-6z"/>
	<g>
		<circle class="st1" cx="-1.6" cy="-0.1" r="0.1"/>
		<path class="st2" d="M-1.6,0.5c-0.3,0-0.6-0.3-0.6-0.6S-2-0.8-1.6-0.8C-1.3-0.8-1-0.5-1-0.1S-1.3,0.5-1.6,0.5L-1.6,0.5z"/>
	</g>
	<g>
		<circle class="st1" cx="1.6" cy="-0.1" r="0.1"/>
		<path class="st2" d="M1.6,0.5C1.3,0.5,1,0.2,1-0.1s0.3-0.6,0.6-0.6c0.3,0,0.6,0.3,0.6,0.6S2,0.5,1.6,0.5L1.6,0.5z"/>
	</g>
	<circle class="st3" cx="-3" cy="-1.5" r="0.5"/>
	<circle class="st3" cx="3" cy="-1.5" r="0.5"/>
	<path class="st4" d="M-1.2-3c0.8-0.5,1.7-0.5,2.5,0"/>
</symbol>
<g id="Bg">
</g>
<g id="Icons">
	<g id="XMLID_1812_">
		<path id="XMLID_2159_" class="st45" d="M30.6,26c0,0,2.9-4.2,8.8-5.4c5.7-1.2,7.8,2.3,7,5.2C45.7,27.7,42.5,29.5,30.6,26z"/>
		<path id="XMLID_2158_" class="st28" d="M39.4,22.8c4.1-0.8,6.4,0.8,7,2.8c0.8-2.9-1.3-6.3-7-5.1c-5.9,1.2-8.8,5.4-8.8,5.4
			c0.6,0.2,1.1,0.3,1.7,0.5C33.7,25.1,36.1,23.5,39.4,22.8z"/>
		<path id="XMLID_2157_" class="st10" d="M30.6,26c0,0,2.9-4.2,8.8-5.4c5.7-1.2,7.8,2.3,7,5.2C45.7,27.7,42.5,29.5,30.6,26z"/>
		<path id="XMLID_2156_" class="st45" d="M30.6,26c0,0,0.1,5.1,4.4,9.4c4.1,4.1,7.8,2.3,8.7-0.6C44.2,32.8,42.5,29.5,30.6,26z"/>
		<path id="XMLID_2155_" class="st11" d="M36,32.3c3.2,3.2,6.1,2.8,7.7,1.2c-0.4-1.9-3.1-4.3-11.3-7C32.9,28.2,34,30.4,36,32.3z"/>
		<path id="XMLID_2154_" class="st10" d="M30.6,26c0,0,0.1,5.1,4.4,9.4c4.1,4.1,7.8,2.3,8.7-0.6C44.2,32.8,42.5,29.5,30.6,26z"/>
		<path id="XMLID_2153_" class="st29" d="M30.6,26c0,0,9.3-0.8,13.4,0.4c4.2,1.2,2.4,7.9-2,6.6C37.7,31.7,30.6,26,30.6,26z"/>
		<path id="XMLID_2152_" class="st30" d="M44,28.8c1.1,0.3,1.8,1.1,2.1,2c0.6-1.7,0-3.8-2.1-4.4C39.8,25.1,30.6,26,30.6,26
			s1.3,1,3,2.3C36.7,28.1,41.4,28,44,28.8z"/>
		<path id="XMLID_2151_" class="st10" d="M30.6,26c0,0,9.3-0.8,13.4,0.4c4.2,1.2,2.4,7.9-2,6.6C37.7,31.7,30.6,26,30.6,26z"/>
		<path id="XMLID_2150_" class="st45" d="M17.4,22c0,0-0.1-5.1-4.4-9.4c-4.1-4.1-7.8-2.3-8.7,0.6C3.8,15.2,5.5,18.5,17.4,22z"/>
		<path id="XMLID_2149_" class="st28" d="M13,15.1c2.3,2.3,3.4,4.9,3.9,6.8c0.2,0,0.3,0.1,0.4,0.1c0,0-0.1-5.1-4.4-9.4
			c-4.1-4.1-7.8-2.3-8.7,0.6c-0.2,0.5-0.1,1.2,0.2,1.9C5.7,12.6,9.2,11.3,13,15.1z"/>
		<path id="XMLID_2148_" class="st10" d="M17.4,22c0,0-0.1-5.1-4.4-9.4c-4.1-4.1-7.8-2.3-8.7,0.6C3.8,15.2,5.5,18.5,17.4,22z"/>
		<path id="XMLID_2147_" class="st45" d="M17.4,22c0,0-2.9,4.2-8.8,5.4c-5.7,1.2-7.8-2.3-7-5.2C2.3,20.3,5.5,18.5,17.4,22z"/>
		<path id="XMLID_2146_" class="st11" d="M2.2,21.4c0.5,2.2,2.7,4,7,3.1c2.7-0.6,4.8-1.8,6.3-2.9C6.9,19.2,3.5,19.9,2.2,21.4z"/>
		<path id="XMLID_2145_" class="st10" d="M17.4,22c0,0-2.9,4.2-8.8,5.4c-5.7,1.2-7.8-2.3-7-5.2C2.3,20.3,5.5,18.5,17.4,22z"/>
		<path id="XMLID_2144_" class="st29" d="M17.4,22c0,0-7.3-5.8-11.5-7c-4.2-1.2-6.3,5.3-2,6.6C8.3,22.9,17.4,22,17.4,22z"/>
		<path id="XMLID_2143_" class="st30" d="M6,17.3c2.5,0.7,6.2,3.1,8.7,4.9c1.7-0.1,2.8-0.2,2.8-0.2s-7.3-5.8-11.5-7
			c-3-0.9-4.9,2.3-4.1,4.6C2.3,18,3.9,16.7,6,17.3z"/>
		<path id="XMLID_2142_" class="st10" d="M17.4,22c0,0-7.3-5.8-11.5-7c-4.2-1.2-6.3,5.3-2,6.6C8.3,22.9,17.4,22,17.4,22z"/>
		<ellipse id="XMLID_2141_" class="st5" cx="23.5" cy="35.7" rx="12.6" ry="1.6"/>
		
			<ellipse id="XMLID_2140_" transform="matrix(0.2852 -0.9585 0.9585 0.2852 -5.8479 40.1587)" class="st29" cx="24" cy="24" rx="10.7" ry="10.7"/>
		<path id="XMLID_2139_" class="st30" d="M13.7,24.7c1.7-5.7,7.7-8.9,13.3-7.2c4,1.2,6.8,4.5,7.5,8.4c1-5.3-2.2-10.6-7.5-12.2
			c-5.7-1.7-11.6,1.5-13.3,7.2c-0.5,1.7-0.6,3.4-0.3,5C13.5,25.5,13.6,25.1,13.7,24.7z"/>
		
			<ellipse id="XMLID_2138_" transform="matrix(0.2852 -0.9585 0.9585 0.2852 -5.8479 40.1587)" class="st10" cx="24" cy="24" rx="10.7" ry="10.7"/>
		<path id="XMLID_2137_" class="st30" d="M29.7,15c0,0-0.1,0-0.1-0.1l0,0C29.7,14.9,29.7,14.9,29.7,15z"/>
		<path id="XMLID_2136_" class="st30" d="M30.4,15.4c-0.2-0.2-0.5-0.3-0.7-0.5C30,15.1,30.2,15.3,30.4,15.4z"/>
		<path id="XMLID_2135_" class="st30" d="M31.2,16c-0.2-0.2-0.5-0.4-0.7-0.6C30.7,15.6,30.9,15.8,31.2,16z"/>
		<path id="XMLID_2134_" class="st45" d="M33.3,18.6c-2.3,0.3-5.4,1-9.6,2.5c-4.8,1.8-8,3.5-10.1,5c-0.3-1.5-0.3-3,0.1-4.6
			c2.2-1.6,5-3.3,8.4-4.5c3-1.1,5.5-1.7,7.7-2.1C31.2,15.8,32.4,17.1,33.3,18.6z"/>
		<path id="XMLID_2133_" class="st45" d="M33.3,18.6c-0.8,0.1-1.8,0.3-2.9,0.5c-1.8,0.4-4.1,1.1-6.7,2c-4.8,1.8-8,3.5-10.1,5
			c0,0,0-0.1,0-0.1c-0.1-0.3-0.1-0.6-0.2-0.9c-0.1-0.6-0.1-1.1,0-1.7c0-0.1,0-0.2,0-0.3c0-0.2,0-0.4,0.1-0.6c0-0.2,0.1-0.4,0.1-0.5
			c0-0.1,0-0.3,0.1-0.4c2.2-1.6,5-3.3,8.4-4.5c3-1.1,5.5-1.7,7.7-2.1c0.5,0.3,0.9,0.6,1.4,1c0.2,0.1,0.3,0.3,0.4,0.4
			c0.1,0.1,0.3,0.3,0.4,0.4c0.4,0.4,0.8,0.9,1.1,1.4C33,18.2,33.1,18.4,33.3,18.6z"/>
		<path id="XMLID_2933_" class="st28" d="M30.8,15.7C30.8,15.7,30.8,15.7,30.8,15.7C30.8,15.7,30.7,15.6,30.8,15.7
			c-0.4-0.3-0.8-0.6-1.1-0.8c-2.1,0.4-4.7,1-7.7,2.1c-3.4,1.2-6.2,2.9-8.4,4.5c0,0.1,0,0.1-0.1,0.2c-0.1,0.4-0.1,0.8-0.2,1.2
			c-0.1,0.7-0.1,1.6,0,2.4c0,0.2,0.1,0.4,0.1,0.6c0.1-0.4,0.2-0.8,0.3-1.2c1.7-5.7,7.7-8.9,13.3-7.2c0.2,0.1,0.3,0.1,0.5,0.2
			c0,0,0,0,0,0c0,0,0.1,0,0.1,0c1,0.3,1.9,0.8,2.7,1.4c1.1-0.2,2.1-0.4,2.9-0.5c-0.4-0.7-0.9-1.4-1.4-1.9
			C31.5,16.3,31.2,16,30.8,15.7z"/>
		<path id="XMLID_2131_" class="st10" d="M33.3,18.6c-2.3,0.3-5.4,1-9.6,2.5c-4.8,1.8-8,3.5-10.1,5c-0.3-1.5-0.3-3,0.1-4.6
			c2.2-1.6,5-3.3,8.4-4.5c3-1.1,5.5-1.7,7.7-2.1C31.2,15.8,32.4,17.1,33.3,18.6z"/>
		<path id="XMLID_2130_" class="st56" d="M34.4,26.6c-1.9,0.4-4.2,1.1-6.9,2.1c-4.2,1.5-7.1,3-9.2,4.4c-1.1-0.7-2-1.5-2.7-2.5
			c2.4-2.1,5.8-4.4,10.3-6c3.5-1.3,6.4-2,8.8-2.3C34.8,23.7,34.8,25.2,34.4,26.6z"/>
	</g>
</g>
</svg>
