<?xml version="1.0" encoding="utf-8"?>
<!-- Generator: Adobe Illustrator 21.1.0, SVG Export Plug-In . SVG Version: 6.00 Build 0)  -->
<svg version="1.1" xmlns="http://www.w3.org/2000/svg" xmlns:xlink="http://www.w3.org/1999/xlink" x="0px" y="0px"
	 viewBox="0 0 48 48" style="enable-background:new 0 0 48 48;" xml:space="preserve">
<style type="text/css">
	.st0{fill:#FFD4C3;stroke:#504B46;stroke-linecap:round;stroke-linejoin:round;stroke-miterlimit:10;}
	.st1{fill:#FFC258;}
	.st2{fill:#4F4B45;}
	.st3{fill:#FABFA5;}
	.st4{fill:none;stroke:#504B46;stroke-linecap:round;stroke-linejoin:round;stroke-miterlimit:10;}
	.Graphic_x0020_Style{opacity:0.15;fill:#45413C;}
	.st5{opacity:0.15;fill:#45413C;}
	.st6{fill:#DEBB7E;stroke:#45413C;stroke-linecap:round;stroke-linejoin:round;stroke-miterlimit:10;}
	.st7{fill:#F0D5A8;}
	.st8{fill:#F7E5C6;}
	.st9{fill:#DEBB7E;}
	.st10{fill:none;stroke:#45413C;stroke-linecap:round;stroke-linejoin:round;stroke-miterlimit:10;}
	.st11{fill:#FFE500;}
	.st12{fill:#EBCB00;}
	.st13{fill:none;stroke:#EBCB00;stroke-linecap:round;stroke-linejoin:round;stroke-miterlimit:10;}
	.st14{fill:#FF6242;stroke:#45413C;stroke-linecap:round;stroke-linejoin:round;stroke-miterlimit:10;}
	.st15{fill:#FFFFFF;stroke:#45413C;stroke-linecap:round;stroke-linejoin:round;stroke-miterlimit:10;}
	.st16{fill:#E5F8FF;}
	.st17{fill:#FFFFFF;}
	.st18{fill:#E8F4FA;}
	.st19{fill:#E8F4FA;stroke:#45413C;stroke-linecap:round;stroke-linejoin:round;stroke-miterlimit:10;}
	.st20{fill:#FFCCDD;}
	.st21{fill:#FFB0CA;stroke:#45413C;stroke-linecap:round;stroke-linejoin:round;stroke-miterlimit:10;}
	.st22{fill:#FF87AF;stroke:#45413C;stroke-linecap:round;stroke-linejoin:round;stroke-miterlimit:10;}
	.st23{fill:#E5F8FF;stroke:#45413C;stroke-linecap:round;stroke-linejoin:round;stroke-miterlimit:10;}
	.st24{fill:#BF8256;stroke:#45413C;stroke-linecap:round;stroke-linejoin:round;stroke-miterlimit:10;}
	.st25{fill:#9CEB60;}
	.st26{fill:#6DD627;}
	.st27{fill:#C8FFA1;}
	.st28{fill:#FFFACF;}
	.st29{fill:#FF87AF;}
	.st30{fill:#FFB0CA;}
	.st31{fill:#FF6196;}
	.st32{fill:#FFCCDD;stroke:#45413C;stroke-linecap:round;stroke-linejoin:round;stroke-miterlimit:10;}
	.st33{fill:#FF6196;stroke:#45413C;stroke-linecap:round;stroke-linejoin:round;stroke-miterlimit:10;}
	.st34{fill:#FFE5EE;}
	.st35{fill:#00B8F0;}
	.st36{fill:#4ACFFF;}
	.st37{fill:#BF8256;}
	.st38{fill:#DEA47A;}
	.st39{fill:#915E3A;}
	.st40{fill:#FFF5E3;}
	.st41{fill:#F0F0F0;}
	.st42{fill:#8CA4B8;}
	.st43{fill:#627B8C;}
	.st44{fill:#C0DCEB;}
	.st45{fill:#FFF48C;}
	.st46{fill:#FFE500;stroke:#45413C;stroke-linecap:round;stroke-linejoin:round;stroke-miterlimit:10;}
	.st47{fill:#FFAA54;}
	.st48{fill:#6DD627;stroke:#45413C;stroke-linecap:round;stroke-linejoin:round;stroke-miterlimit:10;}
	.st49{fill:#FF8A14;}
	.st50{fill:#FFCC99;}
	.st51{fill:#EBCB00;stroke:#45413C;stroke-linecap:round;stroke-linejoin:round;stroke-miterlimit:10;}
	.st52{fill:#00F5BC;stroke:#45413C;stroke-linecap:round;stroke-linejoin:round;stroke-miterlimit:10;}
	.st53{fill:#BF8DF2;stroke:#45413C;stroke-linecap:round;stroke-linejoin:round;stroke-miterlimit:10;}
	.st54{fill:#FF8A14;stroke:#45413C;stroke-linecap:round;stroke-linejoin:round;stroke-miterlimit:10;}
	.st55{fill:#4AEFF7;stroke:#45413C;stroke-linecap:round;stroke-linejoin:round;stroke-miterlimit:10;}
	.st56{fill:#FFF48C;stroke:#45413C;stroke-linecap:round;stroke-linejoin:round;stroke-miterlimit:10;}
	.st57{fill:#FF6242;}
	.st58{fill:#E04122;}
	.st59{fill:#46B000;}
	.st60{fill:none;stroke:#45413C;stroke-miterlimit:10;}
	.st61{fill:#00B8F0;stroke:#45413C;stroke-linecap:round;stroke-linejoin:round;stroke-miterlimit:10;}
	.st62{fill:#FF866E;}
	.st63{fill:#9F5AE5;stroke:#45413C;stroke-linecap:round;stroke-linejoin:round;stroke-miterlimit:10;}
	.st64{fill:#E4FFD1;}
	.st65{fill:#FFFEF2;}
	.st66{fill:#B89558;}
	.st67{fill:none;stroke:#915E3A;stroke-linecap:round;stroke-linejoin:round;stroke-miterlimit:10;}
	.st68{fill:#915E3A;stroke:#45413C;stroke-linecap:round;stroke-linejoin:round;stroke-miterlimit:10;}
	.st69{fill:#BF8DF2;}
	.st70{fill:#9F5AE5;}
	.st71{fill:#DABFF5;}
	.st72{fill:none;stroke:#45413C;stroke-linejoin:round;stroke-miterlimit:10;}
	.st73{fill:#656769;}
	.st74{fill:#87898C;}
	.st75{fill:#E0E0E0;}
	.st76{fill:#BDBEC0;}
	.st77{fill:#656769;stroke:#45413C;stroke-linecap:round;stroke-linejoin:round;stroke-miterlimit:10;}
	.st78{fill:#45413C;stroke:#45413C;stroke-linecap:round;stroke-linejoin:round;stroke-miterlimit:10;}
	.st79{fill:#FFA694;}
	.st80{fill:#E04122;stroke:#45413C;stroke-linecap:round;stroke-linejoin:round;stroke-miterlimit:10;}
	.st81{fill:#E0E0E0;stroke:#45413C;stroke-linecap:round;stroke-linejoin:round;stroke-miterlimit:10;}
	.st82{fill:#F0F0F0;stroke:#45413C;stroke-linecap:round;stroke-linejoin:round;stroke-miterlimit:10;}
	.st83{fill:#DAEDF7;}
	.st84{fill:#BDBEC0;stroke:#45413C;stroke-linecap:round;stroke-linejoin:round;stroke-miterlimit:10;}
	.st85{fill:#87898C;stroke:#45413C;stroke-linecap:round;stroke-linejoin:round;stroke-miterlimit:10;}
	.st86{fill:#00DFEB;}
	.st87{fill:#4AEFF7;}
	.st88{fill:#DAEDF7;stroke:#45413C;stroke-linecap:round;stroke-linejoin:round;stroke-miterlimit:10;}
	.st89{fill:#FFDA8F;}
	.st90{fill:#FFBE3D;}
	.st91{fill:#FFE9BD;}
	.st92{fill:#DEA47A;stroke:#45413C;stroke-linecap:round;stroke-linejoin:round;stroke-miterlimit:10;}
	.st93{fill:#45413C;}
	.st94{fill:#F0C2A1;}
	.st95{fill:none;stroke:#45413C;stroke-width:1.0064;stroke-linecap:round;stroke-linejoin:round;stroke-miterlimit:10;}
	.st96{fill:#525252;}
	.st97{fill:#EB6D00;stroke:#45413C;stroke-linecap:round;stroke-linejoin:round;stroke-miterlimit:10;}
	.st98{fill:#EB6D00;}
	.st99{fill:#E5FEFF;}
	.st100{fill:#FF866E;stroke:#45413C;stroke-linecap:round;stroke-linejoin:round;stroke-miterlimit:10;}
	.st101{fill:#627B8C;stroke:#45413C;stroke-linecap:round;stroke-linejoin:round;stroke-miterlimit:10;}
	.st102{fill:#FFFCE5;stroke:#45413C;stroke-linecap:round;stroke-linejoin:round;stroke-miterlimit:10;}
	.st103{fill:#A6FBFF;}
	.st104{fill:#D9FDFF;}
	.st105{fill:#FFFACF;stroke:#45413C;stroke-linecap:round;stroke-linejoin:round;stroke-miterlimit:10;}
	.st106{fill:#B8ECFF;}
	.st107{fill:#FFCABF;}
	.st108{fill:#E5FFF9;}
	.st109{fill:#C8FFA1;stroke:#45413C;stroke-linecap:round;stroke-linejoin:round;stroke-miterlimit:10;}
	.st110{fill:#4CF4FC;}
	.st111{fill:#F0D5A8;stroke:#45413C;stroke-linecap:round;stroke-linejoin:round;stroke-miterlimit:10;}
	.st112{fill:#FFDCD1;stroke:#45413C;stroke-linecap:round;stroke-linejoin:round;stroke-miterlimit:10;}
	.st113{fill:#80DDFF;}
	.st114{fill:#46B000;stroke:#45413C;stroke-linecap:round;stroke-linejoin:round;stroke-miterlimit:10;}
	.st115{fill:#4ACFFF;stroke:#45413C;stroke-linecap:round;stroke-linejoin:round;stroke-miterlimit:10;}
	.st116{fill:#ADC4D9;}
	.st117{fill:#BDBEC0;stroke:#45413C;stroke-width:1.0064;stroke-linecap:round;stroke-linejoin:round;stroke-miterlimit:10;}
	.st118{fill:#FFFCE5;}
	.st119{fill:#947746;}
	.st120{fill:#525252;stroke:#45413C;stroke-linecap:round;stroke-linejoin:round;stroke-miterlimit:10;}
</style>
<symbol  id="New_Symbol_14" viewBox="-6.5 -6.5 13 13">
	<path class="st0" d="M0-6c2.2,0,4.1,1.5,4.7,3.5c0,0,0,0,0,0C6.3-2.5,6.4,0,5,0v1c0,2.8-2.2,5-5,5c-2.8,0-5-2.2-5-5V0
		c-1.4,0-1.3-2.5,0.2-2.5c0,0,0,0,0,0C-4.1-4.5-2.2-6,0-6z"/>
	<g>
		<circle class="st1" cx="-1.6" cy="-0.1" r="0.1"/>
		<path class="st2" d="M-1.6,0.5c-0.3,0-0.6-0.3-0.6-0.6S-2-0.8-1.6-0.8C-1.3-0.8-1-0.5-1-0.1S-1.3,0.5-1.6,0.5L-1.6,0.5z"/>
	</g>
	<g>
		<circle class="st1" cx="1.6" cy="-0.1" r="0.1"/>
		<path class="st2" d="M1.6,0.5C1.3,0.5,1,0.2,1-0.1s0.3-0.6,0.6-0.6c0.3,0,0.6,0.3,0.6,0.6S2,0.5,1.6,0.5L1.6,0.5z"/>
	</g>
	<circle class="st3" cx="-3" cy="-1.5" r="0.5"/>
	<circle class="st3" cx="3" cy="-1.5" r="0.5"/>
	<path class="st4" d="M-1.2-3c0.8-0.5,1.7-0.5,2.5,0"/>
</symbol>
<g id="Bg">
</g>
<g id="Icons">
	<g id="XMLID_1810_">
		<path id="XMLID_2229_" class="st99" d="M30.9,25.3L30.9,25.3c-0.7-0.1-1.2-0.7-1.3-1.3l-0.7-10.5c-0.2-2.4,2.2-4.2,4.8-3.7l0,0
			c2.6,0.5,4.2,3,3.2,5.1l-4.3,9.6C32.3,25.1,31.6,25.4,30.9,25.3z"/>
		<path id="XMLID_2228_" class="st17" d="M29,15.4c0.5-1.7,2.5-2.9,4.6-2.5c1.4,0.3,2.5,1.1,3.1,2.2l0.1-0.3c1-2.2-0.6-4.7-3.2-5.1
			s-4.9,1.4-4.8,3.7L29,15.4z"/>
		<path id="XMLID_2227_" class="st10" d="M30.9,25.3L30.9,25.3c-0.7-0.1-1.2-0.7-1.3-1.3l-0.7-10.5c-0.2-2.4,2.2-4.2,4.8-3.7l0,0
			c2.6,0.5,4.2,3,3.2,5.1l-4.3,9.6C32.3,25.1,31.6,25.4,30.9,25.3z"/>
		<path id="XMLID_2226_" class="st10" d="M13.5,10.9c0,0-1.4-6.4-7.5-5.8"/>
		<path id="XMLID_2225_" class="st77" d="M38.6,34.8l1.7,4c0.1,0.3-0.1,0.6-0.4,0.6L35.5,39L38.6,34.8z"/>
		<ellipse id="XMLID_2224_" class="st5" cx="24.6" cy="45.3" rx="11.5" ry="1.5"/>
		
			<ellipse id="XMLID_2223_" transform="matrix(0.5966 -0.8025 0.8025 0.5966 -13.2325 35.045)" class="st11" cx="28.2" cy="30.7" rx="8.4" ry="11.6"/>
		<path id="XMLID_2222_" class="st45" d="M18.9,27.6c2.8-3.7,9.2-3.6,14.3,0.2c2.9,2.1,4.7,4.9,5.4,7.7c1-3.6-1.1-8.4-5.4-11.5
			c-5.2-3.8-11.6-3.9-14.3-0.2c-1.2,1.7-1.5,3.8-1,6C18.1,29,18.4,28.3,18.9,27.6z"/>
		
			<ellipse id="XMLID_2221_" transform="matrix(0.5966 -0.8025 0.8025 0.5966 -13.2325 35.045)" class="st10" cx="28.2" cy="30.7" rx="8.4" ry="11.6"/>
		
			<ellipse id="XMLID_2220_" transform="matrix(0.2317 -0.9728 0.9728 0.2317 -3.3135 28.8659)" class="st73" cx="16.6" cy="16.5" rx="9.7" ry="9.7"/>
		<path id="XMLID_2219_" class="st74" d="M7.2,17.9c1.2-5.2,6.4-8.4,11.6-7.2c3.8,0.9,6.5,4,7.2,7.6c0.9-5-2.2-10-7.2-11.2
			c-5.2-1.2-10.4,2-11.6,7.2c-0.3,1.4-0.3,2.7-0.1,4C7.2,18.2,7.2,18,7.2,17.9z"/>
		<path id="XMLID_2218_" class="st73" d="M31.2,22.7c-0.6,2.4-1.8,5.1-3.7,7.6c-1.8,2.4-3.9,4.3-6,5.6c-1.3-1.2-2.2-2.6-2.9-4v0
			c1.6-1.2,3.2-2.8,4.6-4.7c1.5-2,2.6-4.1,3.2-6C28.1,21.3,29.7,21.9,31.2,22.7z"/>
		
			<ellipse id="XMLID_2217_" transform="matrix(0.2317 -0.9728 0.9728 0.2317 -3.3135 28.8659)" class="st10" cx="16.6" cy="16.5" rx="9.7" ry="9.7"/>
		<path id="XMLID_2216_" class="st74" d="M30,26c0.5-1.1,0.9-2.3,1.2-3.3c-1.5-0.8-3.1-1.3-4.7-1.5c-0.4,1.2-1,2.5-1.8,3.8
			C26.4,24.9,28.2,25.2,30,26z"/>
		<path id="XMLID_2215_" class="st10" d="M31.2,22.7c-0.6,2.4-1.8,5.1-3.7,7.6c-1.8,2.4-3.9,4.3-6,5.6c-1.3-1.2-2.2-2.6-2.9-4v0
			c1.6-1.2,3.2-2.8,4.6-4.7c1.5-2,2.6-4.1,3.2-6C28.1,21.3,29.7,21.9,31.2,22.7z"/>
		<path id="XMLID_2214_" class="st73" d="M38,29.9c-0.7,1.9-1.8,3.9-3.2,5.9c-1.4,1.8-2.9,3.3-4.4,4.5c-1.9-0.2-3.9-0.9-5.9-2
			c2.1-1.2,4.2-3.2,6.1-5.6c1.9-2.6,3.2-5.3,3.8-7.7C36.1,26.4,37.3,28.2,38,29.9z"/>
		<path id="XMLID_2213_" class="st74" d="M37.1,32c0.3-0.7,0.7-1.4,0.9-2.1c-0.7-1.8-2-3.5-3.6-5c-0.2,1-0.6,2-1,3
			C34.9,29.2,36.2,30.6,37.1,32z"/>
		<path id="XMLID_2212_" class="st10" d="M38,29.9c-0.7,1.9-1.8,3.9-3.2,5.9c-1.4,1.8-2.9,3.3-4.4,4.5c-1.9-0.2-3.9-0.9-5.9-2
			c2.1-1.2,4.2-3.2,6.1-5.6c1.9-2.6,3.2-5.3,3.8-7.7C36.1,26.4,37.3,28.2,38,29.9z"/>
		<circle id="XMLID_2211_" class="st15" cx="15.6" cy="14.2" r="1.5"/>
		<ellipse id="XMLID_2210_" class="st11" cx="20.9" cy="18.9" rx="1.8" ry="1"/>
		<path id="XMLID_2209_" class="st10" d="M16.2,9.5c0,0,1.4-6.4-4.4-8.3"/>
		<path id="XMLID_2208_" class="st99" d="M30.9,25.4L30.9,25.4c-0.6-0.4-0.8-1.1-0.6-1.7l3.9-9.8c0.9-2.2,3.7-2.9,5.9-1.3l0,0
			c2.2,1.5,2.5,4.5,0.7,6l-8,6.9C32.2,25.8,31.5,25.8,30.9,25.4z"/>
		<path id="XMLID_2207_" class="st17" d="M30.9,25.4C30.9,25.4,30.9,25.4,30.9,25.4l3.3-8.3c0.9-2.2,3.7-2.9,5.9-1.3
			c0.7,0.5,1.1,1.1,1.4,1.7c0.8-1.6,0.3-3.8-1.4-5c-2.2-1.5-5-0.9-5.9,1.3l-3.9,9.8C30.1,24.3,30.3,25,30.9,25.4z"/>
		<path id="XMLID_2206_" class="st10" d="M30.9,25.4L30.9,25.4c-0.6-0.4-0.8-1.1-0.6-1.7l3.9-9.8c0.9-2.2,3.7-2.9,5.9-1.3l0,0
			c2.2,1.5,2.5,4.5,0.7,6l-8,6.9C32.2,25.8,31.5,25.8,30.9,25.4z"/>
		<path id="XMLID_2205_" class="st10" d="M19.6,33.6c-0.4,0-3.6-0.1-5.2,4.4"/>
		<path id="XMLID_2204_" class="st10" d="M21.4,35.8c0,0-2.9,1.7-2.6,5.7"/>
		<path id="XMLID_2203_" class="st10" d="M27,39.5c-0.4,0.6-1.8,3-0.8,6.5"/>
		<path id="XMLID_2202_" class="st10" d="M28.6,40c-0.2,0.6-0.6,3,1.7,5.4"/>
	</g>
</g>
</svg>
