<?xml version="1.0" encoding="utf-8"?>
<!-- Generator: Adobe Illustrator 21.1.0, SVG Export Plug-In . SVG Version: 6.00 Build 0)  -->
<svg version="1.1" xmlns="http://www.w3.org/2000/svg" xmlns:xlink="http://www.w3.org/1999/xlink" x="0px" y="0px"
	 viewBox="0 0 48 48" style="enable-background:new 0 0 48 48;" xml:space="preserve">
<style type="text/css">
	.st0{fill:#FFD4C3;stroke:#504B46;stroke-linecap:round;stroke-linejoin:round;stroke-miterlimit:10;}
	.st1{fill:#FFC258;}
	.st2{fill:#4F4B45;}
	.st3{fill:#FABFA5;}
	.st4{fill:none;stroke:#504B46;stroke-linecap:round;stroke-linejoin:round;stroke-miterlimit:10;}
	.Graphic_x0020_Style{opacity:0.15;fill:#45413C;}
	.st5{opacity:0.15;fill:#45413C;}
	.st6{fill:#DEBB7E;stroke:#45413C;stroke-linecap:round;stroke-linejoin:round;stroke-miterlimit:10;}
	.st7{fill:#F0D5A8;}
	.st8{fill:#F7E5C6;}
	.st9{fill:#DEBB7E;}
	.st10{fill:none;stroke:#45413C;stroke-linecap:round;stroke-linejoin:round;stroke-miterlimit:10;}
	.st11{fill:#FFE500;}
	.st12{fill:#EBCB00;}
	.st13{fill:none;stroke:#EBCB00;stroke-linecap:round;stroke-linejoin:round;stroke-miterlimit:10;}
	.st14{fill:#FF6242;stroke:#45413C;stroke-linecap:round;stroke-linejoin:round;stroke-miterlimit:10;}
	.st15{fill:#FFFFFF;stroke:#45413C;stroke-linecap:round;stroke-linejoin:round;stroke-miterlimit:10;}
	.st16{fill:#E5F8FF;}
	.st17{fill:#FFFFFF;}
	.st18{fill:#E8F4FA;}
	.st19{fill:#E8F4FA;stroke:#45413C;stroke-linecap:round;stroke-linejoin:round;stroke-miterlimit:10;}
	.st20{fill:#FFCCDD;}
	.st21{fill:#FFB0CA;stroke:#45413C;stroke-linecap:round;stroke-linejoin:round;stroke-miterlimit:10;}
	.st22{fill:#FF87AF;stroke:#45413C;stroke-linecap:round;stroke-linejoin:round;stroke-miterlimit:10;}
	.st23{fill:#E5F8FF;stroke:#45413C;stroke-linecap:round;stroke-linejoin:round;stroke-miterlimit:10;}
	.st24{fill:#BF8256;stroke:#45413C;stroke-linecap:round;stroke-linejoin:round;stroke-miterlimit:10;}
	.st25{fill:#9CEB60;}
	.st26{fill:#6DD627;}
	.st27{fill:#C8FFA1;}
	.st28{fill:#FFFACF;}
	.st29{fill:#FF87AF;}
	.st30{fill:#FFB0CA;}
	.st31{fill:#FF6196;}
	.st32{fill:#FFCCDD;stroke:#45413C;stroke-linecap:round;stroke-linejoin:round;stroke-miterlimit:10;}
	.st33{fill:#FF6196;stroke:#45413C;stroke-linecap:round;stroke-linejoin:round;stroke-miterlimit:10;}
	.st34{fill:#FFE5EE;}
	.st35{fill:#00B8F0;}
	.st36{fill:#4ACFFF;}
	.st37{fill:#BF8256;}
	.st38{fill:#DEA47A;}
	.st39{fill:#915E3A;}
	.st40{fill:#FFF5E3;}
	.st41{fill:#F0F0F0;}
	.st42{fill:#8CA4B8;}
	.st43{fill:#627B8C;}
	.st44{fill:#C0DCEB;}
	.st45{fill:#FFF48C;}
	.st46{fill:#FFE500;stroke:#45413C;stroke-linecap:round;stroke-linejoin:round;stroke-miterlimit:10;}
	.st47{fill:#FFAA54;}
	.st48{fill:#6DD627;stroke:#45413C;stroke-linecap:round;stroke-linejoin:round;stroke-miterlimit:10;}
	.st49{fill:#FF8A14;}
	.st50{fill:#FFCC99;}
	.st51{fill:#EBCB00;stroke:#45413C;stroke-linecap:round;stroke-linejoin:round;stroke-miterlimit:10;}
	.st52{fill:#00F5BC;stroke:#45413C;stroke-linecap:round;stroke-linejoin:round;stroke-miterlimit:10;}
	.st53{fill:#BF8DF2;stroke:#45413C;stroke-linecap:round;stroke-linejoin:round;stroke-miterlimit:10;}
	.st54{fill:#FF8A14;stroke:#45413C;stroke-linecap:round;stroke-linejoin:round;stroke-miterlimit:10;}
	.st55{fill:#4AEFF7;stroke:#45413C;stroke-linecap:round;stroke-linejoin:round;stroke-miterlimit:10;}
	.st56{fill:#FFF48C;stroke:#45413C;stroke-linecap:round;stroke-linejoin:round;stroke-miterlimit:10;}
	.st57{fill:#FF6242;}
	.st58{fill:#E04122;}
	.st59{fill:#46B000;}
	.st60{fill:none;stroke:#45413C;stroke-miterlimit:10;}
	.st61{fill:#00B8F0;stroke:#45413C;stroke-linecap:round;stroke-linejoin:round;stroke-miterlimit:10;}
	.st62{fill:#FF866E;}
	.st63{fill:#9F5AE5;stroke:#45413C;stroke-linecap:round;stroke-linejoin:round;stroke-miterlimit:10;}
	.st64{fill:#E4FFD1;}
	.st65{fill:#FFFEF2;}
	.st66{fill:#B89558;}
	.st67{fill:none;stroke:#915E3A;stroke-linecap:round;stroke-linejoin:round;stroke-miterlimit:10;}
	.st68{fill:#915E3A;stroke:#45413C;stroke-linecap:round;stroke-linejoin:round;stroke-miterlimit:10;}
	.st69{fill:#BF8DF2;}
	.st70{fill:#9F5AE5;}
	.st71{fill:#DABFF5;}
	.st72{fill:none;stroke:#45413C;stroke-linejoin:round;stroke-miterlimit:10;}
	.st73{fill:#656769;}
	.st74{fill:#87898C;}
	.st75{fill:#E0E0E0;}
	.st76{fill:#BDBEC0;}
	.st77{fill:#656769;stroke:#45413C;stroke-linecap:round;stroke-linejoin:round;stroke-miterlimit:10;}
	.st78{fill:#45413C;stroke:#45413C;stroke-linecap:round;stroke-linejoin:round;stroke-miterlimit:10;}
	.st79{fill:#FFA694;}
	.st80{fill:#E04122;stroke:#45413C;stroke-linecap:round;stroke-linejoin:round;stroke-miterlimit:10;}
	.st81{fill:#E0E0E0;stroke:#45413C;stroke-linecap:round;stroke-linejoin:round;stroke-miterlimit:10;}
	.st82{fill:#F0F0F0;stroke:#45413C;stroke-linecap:round;stroke-linejoin:round;stroke-miterlimit:10;}
	.st83{fill:#DAEDF7;}
	.st84{fill:#BDBEC0;stroke:#45413C;stroke-linecap:round;stroke-linejoin:round;stroke-miterlimit:10;}
	.st85{fill:#87898C;stroke:#45413C;stroke-linecap:round;stroke-linejoin:round;stroke-miterlimit:10;}
	.st86{fill:#00DFEB;}
	.st87{fill:#4AEFF7;}
	.st88{fill:#DAEDF7;stroke:#45413C;stroke-linecap:round;stroke-linejoin:round;stroke-miterlimit:10;}
	.st89{fill:#FFDA8F;}
	.st90{fill:#FFBE3D;}
	.st91{fill:#FFE9BD;}
	.st92{fill:#DEA47A;stroke:#45413C;stroke-linecap:round;stroke-linejoin:round;stroke-miterlimit:10;}
	.st93{fill:#45413C;}
	.st94{fill:#F0C2A1;}
	.st95{fill:none;stroke:#45413C;stroke-width:1.0064;stroke-linecap:round;stroke-linejoin:round;stroke-miterlimit:10;}
	.st96{fill:#525252;}
	.st97{fill:#EB6D00;stroke:#45413C;stroke-linecap:round;stroke-linejoin:round;stroke-miterlimit:10;}
	.st98{fill:#EB6D00;}
	.st99{fill:#E5FEFF;}
	.st100{fill:#FF866E;stroke:#45413C;stroke-linecap:round;stroke-linejoin:round;stroke-miterlimit:10;}
	.st101{fill:#627B8C;stroke:#45413C;stroke-linecap:round;stroke-linejoin:round;stroke-miterlimit:10;}
	.st102{fill:#FFFCE5;stroke:#45413C;stroke-linecap:round;stroke-linejoin:round;stroke-miterlimit:10;}
	.st103{fill:#A6FBFF;}
	.st104{fill:#D9FDFF;}
	.st105{fill:#FFFACF;stroke:#45413C;stroke-linecap:round;stroke-linejoin:round;stroke-miterlimit:10;}
	.st106{fill:#B8ECFF;}
	.st107{fill:#FFCABF;}
	.st108{fill:#E5FFF9;}
	.st109{fill:#C8FFA1;stroke:#45413C;stroke-linecap:round;stroke-linejoin:round;stroke-miterlimit:10;}
	.st110{fill:#4CF4FC;}
	.st111{fill:#F0D5A8;stroke:#45413C;stroke-linecap:round;stroke-linejoin:round;stroke-miterlimit:10;}
	.st112{fill:#FFDCD1;stroke:#45413C;stroke-linecap:round;stroke-linejoin:round;stroke-miterlimit:10;}
	.st113{fill:#80DDFF;}
	.st114{fill:#46B000;stroke:#45413C;stroke-linecap:round;stroke-linejoin:round;stroke-miterlimit:10;}
	.st115{fill:#4ACFFF;stroke:#45413C;stroke-linecap:round;stroke-linejoin:round;stroke-miterlimit:10;}
	.st116{fill:#ADC4D9;}
	.st117{fill:#BDBEC0;stroke:#45413C;stroke-width:1.0064;stroke-linecap:round;stroke-linejoin:round;stroke-miterlimit:10;}
	.st118{fill:#FFFCE5;}
	.st119{fill:#947746;}
	.st120{fill:#525252;stroke:#45413C;stroke-linecap:round;stroke-linejoin:round;stroke-miterlimit:10;}
</style>
<symbol  id="New_Symbol_14" viewBox="-6.5 -6.5 13 13">
	<path class="st0" d="M0-6c2.2,0,4.1,1.5,4.7,3.5c0,0,0,0,0,0C6.3-2.5,6.4,0,5,0v1c0,2.8-2.2,5-5,5c-2.8,0-5-2.2-5-5V0
		c-1.4,0-1.3-2.5,0.2-2.5c0,0,0,0,0,0C-4.1-4.5-2.2-6,0-6z"/>
	<g>
		<circle class="st1" cx="-1.6" cy="-0.1" r="0.1"/>
		<path class="st2" d="M-1.6,0.5c-0.3,0-0.6-0.3-0.6-0.6S-2-0.8-1.6-0.8C-1.3-0.8-1-0.5-1-0.1S-1.3,0.5-1.6,0.5L-1.6,0.5z"/>
	</g>
	<g>
		<circle class="st1" cx="1.6" cy="-0.1" r="0.1"/>
		<path class="st2" d="M1.6,0.5C1.3,0.5,1,0.2,1-0.1s0.3-0.6,0.6-0.6c0.3,0,0.6,0.3,0.6,0.6S2,0.5,1.6,0.5L1.6,0.5z"/>
	</g>
	<circle class="st3" cx="-3" cy="-1.5" r="0.5"/>
	<circle class="st3" cx="3" cy="-1.5" r="0.5"/>
	<path class="st4" d="M-1.2-3c0.8-0.5,1.7-0.5,2.5,0"/>
</symbol>
<g id="Bg">
</g>
<g id="Icons">
	<g id="XMLID_1808_">
		<path id="XMLID_2301_" class="st35" d="M24,7.3L5,8.2c-1.1,0.1-1.9,0.9-1.9,2v27c0,1.2,1,2.1,2.1,2l13.4-0.8
			c0.4,0,0.8,0.2,0.9,0.5c0.3,0.7,1,0.9,1.9,0.9h5c0.9,0,1.6-0.3,1.9-0.9c0.1-0.4,0.6-0.6,0.9-0.5l13.4,0.8c1.2,0.1,2.1-0.8,2.1-2
			v-27c0-1.1-0.8-1.9-1.9-2L24,7.3z"/>
		<path id="XMLID_2300_" class="st36" d="M43,8.2L24,7.3L5,8.2c-1.1,0.1-1.9,0.9-1.9,2v3.5c0-1.1,0.8-1.9,1.9-2l19-0.9l19,0.9
			c1.1,0.1,1.9,0.9,1.9,2v-3.5C44.9,9.2,44.1,8.3,43,8.2z"/>
		<path id="XMLID_2299_" class="st10" d="M24,7.3L5,8.2c-1.1,0.1-1.9,0.9-1.9,2v27c0,1.2,1,2.1,2.1,2l13.4-0.8
			c0.4,0,0.8,0.2,0.9,0.5c0.3,0.7,1,0.9,1.9,0.9h5c0.9,0,1.6-0.3,1.9-0.9c0.1-0.4,0.6-0.6,0.9-0.5l13.4,0.8c1.2,0.1,2.1-0.8,2.1-2
			v-27c0-1.1-0.8-1.9-1.9-2L24,7.3z"/>
		<path id="XMLID_2298_" class="st101" d="M25.5,37.3h-2.9c-0.8,0-1.5-0.7-1.5-1.5v-2h6v2C27,36.6,26.3,37.3,25.5,37.3z"/>
		<ellipse id="XMLID_2297_" class="st5" cx="23.9" cy="41.3" rx="17" ry="1.5"/>
		<path id="XMLID_2296_" class="st65" d="M8.6,7.3l-2.2,2.7c-0.2,0.3-0.3,0.7-0.3,1.1v25.6l2.5-3.7V7.3z"/>
		<path id="XMLID_2295_" class="st65" d="M39.4,7.3l2.2,2.7c0.2,0.3,0.3,0.7,0.3,1.1v25.6l-2.5-3.7V7.3z"/>
		<path id="XMLID_2294_" class="st17" d="M6.4,10.1c-0.2,0.3-0.3,0.7-0.3,1.1v3.5c0-0.4,0.1-0.8,0.3-1.1l2.2-2.7V7.3L6.4,10.1z"/>
		<path id="XMLID_2293_" class="st17" d="M41.6,10.1l-2.2-2.7v3.5l2.2,2.7c0.2,0.3,0.3,0.7,0.3,1.1v-3.5
			C41.9,10.8,41.8,10.4,41.6,10.1z"/>
		<path id="XMLID_2292_" class="st10" d="M8.6,7.3l-2.2,2.7c-0.2,0.3-0.3,0.7-0.3,1.1v25.6l2.5-3.7V7.3z"/>
		<path id="XMLID_2291_" class="st10" d="M39.4,7.3l2.2,2.7c0.2,0.3,0.3,0.7,0.3,1.1v25.6l-2.5-3.7V7.3z"/>
		<path id="XMLID_2290_" class="st65" d="M24,34.8v-26c0-1.7-1.3-3-3-3L9.5,6.8C9,6.8,8.6,7.3,8.6,7.3v29l12.6-0.4
			C21.7,35.3,22.7,34.8,24,34.8z"/>
		<path id="XMLID_2289_" class="st65" d="M27,5.8c-1.7,0-3,1.3-3,3v26c1.3,0,2.3,0.5,2.8,1.1l12.6,0.4v-29c0,0-0.4-0.5-0.9-0.6
			L27,5.8z"/>
		<path id="XMLID_2288_" class="st17" d="M21,5.8L9.5,6.8C9,6.8,8.6,7.3,8.6,7.3v2.9c0-0.5,0.4-1,0.9-1L21,8.3c1.7,0,3,1.3,3,3V8.8
			C24,7.2,22.7,5.8,21,5.8z"/>
		<path id="XMLID_2287_" class="st17" d="M38.5,6.8L27,5.8c-1.7,0-3,1.3-3,3v2.5c0-1.7,1.3-3,3-3l11.5,0.9c0.5,0,0.9,0.5,0.9,1V7.3
			C39.4,7.3,39,6.8,38.5,6.8z"/>
		<path id="XMLID_2286_" class="st10" d="M24,34.8v-26c0-1.7-1.3-3-3-3L9.5,6.8C9,6.8,8.6,7.3,8.6,7.3v29l12.6-0.4
			C21.7,35.3,22.7,34.8,24,34.8z"/>
		<path id="XMLID_2285_" class="st10" d="M27,5.8c-1.7,0-3,1.3-3,3v26c1.3,0,2.3,0.5,2.8,1.1l12.6,0.4l0-29c0,0-0.4-0.5-0.9-0.6
			L27,5.8z"/>
		<path id="XMLID_2284_" class="st102" d="M24,34.8c-0.2-1.4-1.5-2.5-3-2.5L8.6,33.2l-2.5,3.7L21.2,36C21.6,35.3,22.7,34.9,24,34.8z
			"/>
		<path id="XMLID_2283_" class="st102" d="M26.8,36l15.1,0.8l-2.5-3.7L27,32.3c-1.5,0-2.7,1.1-3,2.5C25.3,34.9,26.4,35.3,26.8,36z"
			/>
		<line id="XMLID_2282_" class="st10" x1="28" y1="9.3" x2="37" y2="10.2"/>
		<line id="XMLID_2281_" class="st10" x1="28" y1="13.2" x2="37" y2="14"/>
		<line id="XMLID_2280_" class="st10" x1="28" y1="17" x2="37" y2="17.8"/>
		<line id="XMLID_2279_" class="st10" x1="28" y1="20.8" x2="37" y2="21.7"/>
		<line id="XMLID_2278_" class="st10" x1="28" y1="24.6" x2="37" y2="25.5"/>
		<line id="XMLID_2277_" class="st10" x1="28" y1="28.5" x2="37" y2="29.3"/>
		<line id="XMLID_2276_" class="st10" x1="20.5" y1="9.3" x2="11.5" y2="10.2"/>
		<line id="XMLID_2275_" class="st10" x1="20.5" y1="13.2" x2="11.5" y2="14"/>
		<line id="XMLID_2274_" class="st10" x1="20.5" y1="17" x2="11.5" y2="17.8"/>
		<line id="XMLID_2273_" class="st10" x1="20.5" y1="20.8" x2="11.5" y2="21.7"/>
		<line id="XMLID_2272_" class="st10" x1="20.5" y1="24.6" x2="11.5" y2="25.5"/>
		<line id="XMLID_2271_" class="st10" x1="20.5" y1="28.5" x2="11.5" y2="29.3"/>
	</g>
</g>
</svg>
