<?xml version="1.0" encoding="utf-8"?>
<!-- Generator: Adobe Illustrator 21.1.0, SVG Export Plug-In . SVG Version: 6.00 Build 0)  -->
<svg version="1.1" xmlns="http://www.w3.org/2000/svg" xmlns:xlink="http://www.w3.org/1999/xlink" x="0px" y="0px"
	 viewBox="0 0 48 48" style="enable-background:new 0 0 48 48;" xml:space="preserve">
<style type="text/css">
	.st0{fill:#FFD4C3;stroke:#504B46;stroke-linecap:round;stroke-linejoin:round;stroke-miterlimit:10;}
	.st1{fill:#FFC258;}
	.st2{fill:#4F4B45;}
	.st3{fill:#FABFA5;}
	.st4{fill:none;stroke:#504B46;stroke-linecap:round;stroke-linejoin:round;stroke-miterlimit:10;}
	.Graphic_x0020_Style{opacity:0.15;fill:#45413C;}
	.st5{opacity:0.15;fill:#45413C;}
	.st6{fill:#DEBB7E;stroke:#45413C;stroke-linecap:round;stroke-linejoin:round;stroke-miterlimit:10;}
	.st7{fill:#F0D5A8;}
	.st8{fill:#F7E5C6;}
	.st9{fill:#DEBB7E;}
	.st10{fill:none;stroke:#45413C;stroke-linecap:round;stroke-linejoin:round;stroke-miterlimit:10;}
	.st11{fill:#FFE500;}
	.st12{fill:#EBCB00;}
	.st13{fill:none;stroke:#EBCB00;stroke-linecap:round;stroke-linejoin:round;stroke-miterlimit:10;}
	.st14{fill:#FF6242;stroke:#45413C;stroke-linecap:round;stroke-linejoin:round;stroke-miterlimit:10;}
	.st15{fill:#FFFFFF;stroke:#45413C;stroke-linecap:round;stroke-linejoin:round;stroke-miterlimit:10;}
	.st16{fill:#E5F8FF;}
	.st17{fill:#FFFFFF;}
	.st18{fill:#E8F4FA;}
	.st19{fill:#E8F4FA;stroke:#45413C;stroke-linecap:round;stroke-linejoin:round;stroke-miterlimit:10;}
	.st20{fill:#FFCCDD;}
	.st21{fill:#FFB0CA;stroke:#45413C;stroke-linecap:round;stroke-linejoin:round;stroke-miterlimit:10;}
	.st22{fill:#FF87AF;stroke:#45413C;stroke-linecap:round;stroke-linejoin:round;stroke-miterlimit:10;}
	.st23{fill:#E5F8FF;stroke:#45413C;stroke-linecap:round;stroke-linejoin:round;stroke-miterlimit:10;}
	.st24{fill:#BF8256;stroke:#45413C;stroke-linecap:round;stroke-linejoin:round;stroke-miterlimit:10;}
	.st25{fill:#9CEB60;}
	.st26{fill:#6DD627;}
	.st27{fill:#C8FFA1;}
	.st28{fill:#FFFACF;}
	.st29{fill:#FF87AF;}
	.st30{fill:#FFB0CA;}
	.st31{fill:#FF6196;}
	.st32{fill:#FFCCDD;stroke:#45413C;stroke-linecap:round;stroke-linejoin:round;stroke-miterlimit:10;}
	.st33{fill:#FF6196;stroke:#45413C;stroke-linecap:round;stroke-linejoin:round;stroke-miterlimit:10;}
	.st34{fill:#FFE5EE;}
	.st35{fill:#00B8F0;}
	.st36{fill:#4ACFFF;}
	.st37{fill:#BF8256;}
	.st38{fill:#DEA47A;}
	.st39{fill:#915E3A;}
	.st40{fill:#FFF5E3;}
	.st41{fill:#F0F0F0;}
	.st42{fill:#8CA4B8;}
	.st43{fill:#627B8C;}
	.st44{fill:#C0DCEB;}
	.st45{fill:#FFF48C;}
	.st46{fill:#FFE500;stroke:#45413C;stroke-linecap:round;stroke-linejoin:round;stroke-miterlimit:10;}
	.st47{fill:#FFAA54;}
	.st48{fill:#6DD627;stroke:#45413C;stroke-linecap:round;stroke-linejoin:round;stroke-miterlimit:10;}
	.st49{fill:#FF8A14;}
	.st50{fill:#FFCC99;}
	.st51{fill:#EBCB00;stroke:#45413C;stroke-linecap:round;stroke-linejoin:round;stroke-miterlimit:10;}
	.st52{fill:#00F5BC;stroke:#45413C;stroke-linecap:round;stroke-linejoin:round;stroke-miterlimit:10;}
	.st53{fill:#BF8DF2;stroke:#45413C;stroke-linecap:round;stroke-linejoin:round;stroke-miterlimit:10;}
	.st54{fill:#FF8A14;stroke:#45413C;stroke-linecap:round;stroke-linejoin:round;stroke-miterlimit:10;}
	.st55{fill:#4AEFF7;stroke:#45413C;stroke-linecap:round;stroke-linejoin:round;stroke-miterlimit:10;}
	.st56{fill:#FFF48C;stroke:#45413C;stroke-linecap:round;stroke-linejoin:round;stroke-miterlimit:10;}
	.st57{fill:#FF6242;}
	.st58{fill:#E04122;}
	.st59{fill:#46B000;}
	.st60{fill:none;stroke:#45413C;stroke-miterlimit:10;}
	.st61{fill:#00B8F0;stroke:#45413C;stroke-linecap:round;stroke-linejoin:round;stroke-miterlimit:10;}
	.st62{fill:#FF866E;}
	.st63{fill:#9F5AE5;stroke:#45413C;stroke-linecap:round;stroke-linejoin:round;stroke-miterlimit:10;}
	.st64{fill:#E4FFD1;}
	.st65{fill:#FFFEF2;}
	.st66{fill:#B89558;}
	.st67{fill:none;stroke:#915E3A;stroke-linecap:round;stroke-linejoin:round;stroke-miterlimit:10;}
	.st68{fill:#915E3A;stroke:#45413C;stroke-linecap:round;stroke-linejoin:round;stroke-miterlimit:10;}
	.st69{fill:#BF8DF2;}
	.st70{fill:#9F5AE5;}
	.st71{fill:#DABFF5;}
	.st72{fill:none;stroke:#45413C;stroke-linejoin:round;stroke-miterlimit:10;}
	.st73{fill:#656769;}
	.st74{fill:#87898C;}
	.st75{fill:#E0E0E0;}
	.st76{fill:#BDBEC0;}
	.st77{fill:#656769;stroke:#45413C;stroke-linecap:round;stroke-linejoin:round;stroke-miterlimit:10;}
	.st78{fill:#45413C;stroke:#45413C;stroke-linecap:round;stroke-linejoin:round;stroke-miterlimit:10;}
	.st79{fill:#FFA694;}
	.st80{fill:#E04122;stroke:#45413C;stroke-linecap:round;stroke-linejoin:round;stroke-miterlimit:10;}
	.st81{fill:#E0E0E0;stroke:#45413C;stroke-linecap:round;stroke-linejoin:round;stroke-miterlimit:10;}
	.st82{fill:#F0F0F0;stroke:#45413C;stroke-linecap:round;stroke-linejoin:round;stroke-miterlimit:10;}
	.st83{fill:#DAEDF7;}
	.st84{fill:#BDBEC0;stroke:#45413C;stroke-linecap:round;stroke-linejoin:round;stroke-miterlimit:10;}
	.st85{fill:#87898C;stroke:#45413C;stroke-linecap:round;stroke-linejoin:round;stroke-miterlimit:10;}
	.st86{fill:#00DFEB;}
	.st87{fill:#4AEFF7;}
	.st88{fill:#DAEDF7;stroke:#45413C;stroke-linecap:round;stroke-linejoin:round;stroke-miterlimit:10;}
	.st89{fill:#FFDA8F;}
	.st90{fill:#FFBE3D;}
	.st91{fill:#FFE9BD;}
	.st92{fill:#DEA47A;stroke:#45413C;stroke-linecap:round;stroke-linejoin:round;stroke-miterlimit:10;}
	.st93{fill:#45413C;}
	.st94{fill:#F0C2A1;}
	.st95{fill:none;stroke:#45413C;stroke-width:1.0064;stroke-linecap:round;stroke-linejoin:round;stroke-miterlimit:10;}
	.st96{fill:#525252;}
	.st97{fill:#EB6D00;stroke:#45413C;stroke-linecap:round;stroke-linejoin:round;stroke-miterlimit:10;}
	.st98{fill:#EB6D00;}
	.st99{fill:#E5FEFF;}
	.st100{fill:#FF866E;stroke:#45413C;stroke-linecap:round;stroke-linejoin:round;stroke-miterlimit:10;}
	.st101{fill:#627B8C;stroke:#45413C;stroke-linecap:round;stroke-linejoin:round;stroke-miterlimit:10;}
	.st102{fill:#FFFCE5;stroke:#45413C;stroke-linecap:round;stroke-linejoin:round;stroke-miterlimit:10;}
	.st103{fill:#A6FBFF;}
	.st104{fill:#D9FDFF;}
	.st105{fill:#FFFACF;stroke:#45413C;stroke-linecap:round;stroke-linejoin:round;stroke-miterlimit:10;}
	.st106{fill:#B8ECFF;}
	.st107{fill:#FFCABF;}
	.st108{fill:#E5FFF9;}
	.st109{fill:#C8FFA1;stroke:#45413C;stroke-linecap:round;stroke-linejoin:round;stroke-miterlimit:10;}
	.st110{fill:#4CF4FC;}
	.st111{fill:#F0D5A8;stroke:#45413C;stroke-linecap:round;stroke-linejoin:round;stroke-miterlimit:10;}
	.st112{fill:#FFDCD1;stroke:#45413C;stroke-linecap:round;stroke-linejoin:round;stroke-miterlimit:10;}
	.st113{fill:#80DDFF;}
	.st114{fill:#46B000;stroke:#45413C;stroke-linecap:round;stroke-linejoin:round;stroke-miterlimit:10;}
	.st115{fill:#4ACFFF;stroke:#45413C;stroke-linecap:round;stroke-linejoin:round;stroke-miterlimit:10;}
	.st116{fill:#ADC4D9;}
	.st117{fill:#BDBEC0;stroke:#45413C;stroke-width:1.0064;stroke-linecap:round;stroke-linejoin:round;stroke-miterlimit:10;}
	.st118{fill:#FFFCE5;}
	.st119{fill:#947746;}
	.st120{fill:#525252;stroke:#45413C;stroke-linecap:round;stroke-linejoin:round;stroke-miterlimit:10;}
</style>
<symbol  id="New_Symbol_14" viewBox="-6.5 -6.5 13 13">
	<path class="st0" d="M0-6c2.2,0,4.1,1.5,4.7,3.5c0,0,0,0,0,0C6.3-2.5,6.4,0,5,0v1c0,2.8-2.2,5-5,5c-2.8,0-5-2.2-5-5V0
		c-1.4,0-1.3-2.5,0.2-2.5c0,0,0,0,0,0C-4.1-4.5-2.2-6,0-6z"/>
	<g>
		<circle class="st1" cx="-1.6" cy="-0.1" r="0.1"/>
		<path class="st2" d="M-1.6,0.5c-0.3,0-0.6-0.3-0.6-0.6S-2-0.8-1.6-0.8C-1.3-0.8-1-0.5-1-0.1S-1.3,0.5-1.6,0.5L-1.6,0.5z"/>
	</g>
	<g>
		<circle class="st1" cx="1.6" cy="-0.1" r="0.1"/>
		<path class="st2" d="M1.6,0.5C1.3,0.5,1,0.2,1-0.1s0.3-0.6,0.6-0.6c0.3,0,0.6,0.3,0.6,0.6S2,0.5,1.6,0.5L1.6,0.5z"/>
	</g>
	<circle class="st3" cx="-3" cy="-1.5" r="0.5"/>
	<circle class="st3" cx="3" cy="-1.5" r="0.5"/>
	<path class="st4" d="M-1.2-3c0.8-0.5,1.7-0.5,2.5,0"/>
</symbol>
<g id="Bg">
</g>
<g id="Icons">
	<g id="XMLID_1807_">
		<path id="XMLID_2316_" class="st31" d="M34.9,9.6l-1.2-6.3c-0.1-0.6-0.6-1-1.2-1h-1.3c-0.4,0-0.7,0.3-0.6,0.7l1.2,6.6
			c0,0.2,0.1,0.4,0.1,0.6l0,0c0.5,4.7-3.3,8.8-7.9,8.8c-4.7,0-8.4-4.1-7.9-8.8l0,0c0-0.2,0-0.4,0.1-0.6L17.3,3
			c0.1-0.4-0.2-0.7-0.6-0.7h-1.3c-0.6,0-1.1,0.4-1.2,1l-1.2,6.3c-0.1,0.4-0.3,0.7-0.7,0.9C10,11.6,8.5,14,8.5,17.2
			c0,4,3.2,7.2,7.2,7.2c2.2,0,4.8-1,6.2-2.5c0.2-0.3,0.6-0.4,0.9-0.4h2.5c0.4,0,0.7,0.1,0.9,0.4c1.4,1.5,4,2.5,6.2,2.5
			c4,0,7.2-3.2,7.2-7.2c0-3.2-1.5-5.6-3.9-6.7C35.2,10.3,35,10,34.9,9.6z"/>
		<g id="XMLID_315_">
			<path id="XMLID_2315_" class="st29" d="M31.3,4.5h1.3c0.6,0,1.1,0.4,1.2,1l1.2,6.3c0.1,0.4,0.3,0.7,0.7,0.9c2.1,1,3.5,3,3.8,5.6
				c0-0.3,0.1-0.7,0.1-1c0-3.2-1.5-5.6-3.9-6.7c-0.4-0.2-0.6-0.5-0.7-0.9l-1.2-6.3c-0.1-0.6-0.6-1-1.2-1h-1.3
				c-0.4,0-0.7,0.3-0.6,0.7L31,4.6C31.1,4.5,31.2,4.5,31.3,4.5z"/>
			<path id="XMLID_2314_" class="st29" d="M12.4,12.6c0.3-0.2,0.6-0.5,0.7-0.9l1.2-6.3c0.1-0.6,0.6-1,1.2-1h1.3c0.1,0,0.2,0,0.3,0.1
				L17.3,3c0.1-0.4-0.2-0.7-0.6-0.7h-1.3c-0.6,0-1.1,0.4-1.2,1l-1.2,6.3c-0.1,0.4-0.3,0.7-0.7,0.9C10,11.6,8.5,14,8.5,17.2
				c0,0.3,0,0.7,0.1,1C8.9,15.6,10.3,13.7,12.4,12.6z"/>
			<path id="XMLID_316_" class="st29" d="M16.1,12.4c-0.5,4.7,3.3,8.8,7.9,8.8c4.7,0,8.4-4.1,7.9-8.8c0-0.1,0-0.2,0-0.3
				C31.4,15.9,28,19,24,19c-4,0-7.4-3-7.9-6.9C16.1,12.2,16.1,12.3,16.1,12.4z"/>
		</g>
		<g id="XMLID_305_">
			<polygon id="XMLID_314_" class="st45" points="34.6,8.1 31.6,8.1 31.1,5.1 34.1,5.1 			"/>
			<polygon id="XMLID_313_" class="st45" points="16.9,5.1 16.4,8.1 13.4,8.1 13.9,5.1 			"/>
			<path id="XMLID_312_" class="st45" d="M39.2,19.1c-0.3,1.1-0.9,2.2-1.7,3H26.5c0,0,0,0,0,0c-0.1-0.1-0.2-0.2-0.3-0.3
				c-0.2-0.3-0.6-0.4-0.9-0.4h-2.4c-0.4,0-0.7,0.2-0.9,0.4c-0.1,0.1-0.2,0.2-0.3,0.3c0,0,0,0,0,0h-11c-0.8-0.8-1.4-1.9-1.7-3H39.2z"
				/>
			<path id="XMLID_311_" class="st28" d="M29.3,19.1c-1.4,1.3-3.3,2-5.3,2c-2,0-3.9-0.8-5.3-2H29.3z"/>
			<path id="XMLID_310_" class="st45" d="M39.3,15.1h-8.4c0.2-0.3,0.3-0.6,0.5-0.9c0,0,0,0,0,0c0.3-0.7,0.5-1.4,0.6-2.1h5.9
				C38.5,12.9,39,14,39.3,15.1z"/>
			<path id="XMLID_309_" class="st28" d="M39.3,15.1h-0.9c-0.7-1.1-1.6-1.9-2.8-2.5c-0.2-0.1-0.4-0.3-0.5-0.5h2.7
				C38.5,13.1,39,14.1,39.3,15.1z"/>
			<path id="XMLID_308_" class="st45" d="M17.2,15.1H8.7c0.3-1.2,0.8-2.2,1.5-3h5.9c0.1,0.7,0.3,1.4,0.6,2.1c0,0,0,0,0,0
				C16.9,14.5,17,14.8,17.2,15.1z"/>
			<path id="XMLID_307_" class="st28" d="M13,12.1c-0.1,0.2-0.3,0.4-0.5,0.5c-1.2,0.6-2.1,1.4-2.8,2.5H8.7c0.3-1.2,0.8-2.1,1.5-3H13
				z"/>
		</g>
		<ellipse id="XMLID_304_" class="st5" cx="24" cy="44.2" rx="11.5" ry="1.5"/>
		<path id="XMLID_258_" class="st10" d="M34.9,9.6l-1.2-6.3c-0.1-0.6-0.6-1-1.2-1h-1.3c-0.4,0-0.7,0.3-0.6,0.7l1.2,6.6
			c0,0.2,0.1,0.4,0.1,0.6l0,0c0.5,4.7-3.3,8.8-7.9,8.8c-4.7,0-8.4-4.1-7.9-8.8l0,0c0-0.2,0-0.4,0.1-0.6L17.3,3
			c0.1-0.4-0.2-0.7-0.6-0.7h-1.3c-0.6,0-1.1,0.4-1.2,1l-1.2,6.3c-0.1,0.4-0.3,0.7-0.7,0.9C10,11.6,8.5,14,8.5,17.2
			c0,4,3.2,7.2,7.2,7.2c2.2,0,4.8-1,6.2-2.5c0.2-0.3,0.6-0.4,0.9-0.4h2.5c0.4,0,0.7,0.1,0.9,0.4c1.4,1.5,4,2.5,6.2,2.5
			c4,0,7.2-3.2,7.2-7.2c0-3.2-1.5-5.6-3.9-6.7C35.2,10.3,35,10,34.9,9.6z"/>
		<path id="XMLID_257_" class="st31" d="M37.1,30.4v1.1c0,0.6-0.4,1.1-1,1.2c-4.5,0.6-9.1,4.5-10.1,9.1c-0.2,0.9-0.9,1.6-1.9,1.6
			h-0.2c-0.9,0-1.7-0.7-1.8-1.6c-1-4.6-5.6-8.5-10.1-9.1c-0.6-0.1-1-0.6-1-1.2v-1.1c0-0.7,0.6-1.2,1.3-1h0C16,30.5,20,31,24,31
			s8-0.5,11.8-1.6C36.5,29.3,37.1,29.8,37.1,30.4z"/>
		<path id="XMLID_256_" class="st29" d="M35.8,29.5C32,30.5,28,31,24,31s-8-0.5-11.8-1.6h0c-0.6-0.2-1.3,0.3-1.3,1v1.1
			c0,0.2,0.1,0.4,0.2,0.6c0.2-0.4,0.7-0.6,1.1-0.4h0C16,32.8,20,33.3,24,33.3s8-0.5,11.8-1.6c0.5-0.1,0.9,0.1,1.1,0.4
			c0.1-0.2,0.2-0.4,0.2-0.6v-1.1C37.1,29.8,36.5,29.3,35.8,29.5z"/>
		<path id="XMLID_255_" class="st10" d="M37.1,30.4v1.1c0,0.6-0.4,1.1-1,1.2c-4.5,0.6-9.1,4.5-10.1,9.1c-0.2,0.9-0.9,1.6-1.9,1.6
			h-0.2c-0.9,0-1.7-0.7-1.8-1.6c-1-4.6-5.6-8.5-10.1-9.1c-0.6-0.1-1-0.6-1-1.2v-1.1c0-0.7,0.6-1.2,1.3-1h0C16,30.5,20,31,24,31
			s8-0.5,11.8-1.6C36.5,29.3,37.1,29.8,37.1,30.4z"/>
		<g id="XMLID_251_">
			<path id="XMLID_254_" class="st56" d="M34.4,33.1c-1.8,0.6-3.6,1.6-5,3H18.7c-1.5-1.4-3.2-2.4-5-3H34.4z"/>
			<path id="XMLID_253_" class="st56" d="M26.3,40.6c-0.1,0.4-0.3,0.8-0.4,1.2c-0.2,0.9-0.9,1.6-1.9,1.6h-0.2
				c-0.9,0-1.7-0.7-1.8-1.6c-0.1-0.4-0.2-0.8-0.4-1.2H26.3z"/>
		</g>
		<g id="XMLID_242_">
			<polygon id="XMLID_249_" class="st10" points="34.6,8.1 31.6,8.1 31.1,5.1 34.1,5.1 			"/>
			<polygon id="XMLID_248_" class="st10" points="16.9,5.1 16.4,8.1 13.4,8.1 13.9,5.1 			"/>
			<path id="XMLID_247_" class="st10" d="M39.2,19.1c-0.3,1.1-0.9,2.2-1.7,3H26.5c0,0,0,0,0,0c-0.1-0.1-0.2-0.2-0.3-0.3
				c-0.2-0.3-0.6-0.4-0.9-0.4h-2.4c-0.4,0-0.7,0.2-0.9,0.4c-0.1,0.1-0.2,0.2-0.3,0.3c0,0,0,0,0,0h-11c-0.8-0.8-1.4-1.9-1.7-3H39.2z"
				/>
			<path id="XMLID_245_" class="st10" d="M39.3,15.1h-8.4c0.2-0.3,0.3-0.6,0.5-0.9c0,0,0,0,0,0c0.3-0.7,0.5-1.4,0.6-2.1h5.9
				C38.5,12.9,39,14,39.3,15.1z"/>
			<path id="XMLID_244_" class="st10" d="M17.2,15.1H8.7c0.3-1.2,0.8-2.2,1.5-3h5.9c0.1,0.7,0.3,1.4,0.6,2.1c0,0,0,0,0,0
				C16.9,14.5,17,14.8,17.2,15.1z"/>
		</g>
	</g>
</g>
</svg>
