<?xml version="1.0" encoding="utf-8"?>
<!-- Generator: Adobe Illustrator 21.1.0, SVG Export Plug-In . SVG Version: 6.00 Build 0)  -->
<svg version="1.1" xmlns="http://www.w3.org/2000/svg" xmlns:xlink="http://www.w3.org/1999/xlink" x="0px" y="0px"
	 viewBox="0 0 48 48" style="enable-background:new 0 0 48 48;" xml:space="preserve">
<style type="text/css">
	.st0{fill:#FFD4C3;stroke:#504B46;stroke-linecap:round;stroke-linejoin:round;stroke-miterlimit:10;}
	.st1{fill:#FFC258;}
	.st2{fill:#4F4B45;}
	.st3{fill:#FABFA5;}
	.st4{fill:none;stroke:#504B46;stroke-linecap:round;stroke-linejoin:round;stroke-miterlimit:10;}
	.Graphic_x0020_Style{opacity:0.15;fill:#45413C;}
	.st5{opacity:0.15;fill:#45413C;}
	.st6{fill:#DEBB7E;stroke:#45413C;stroke-linecap:round;stroke-linejoin:round;stroke-miterlimit:10;}
	.st7{fill:#F0D5A8;}
	.st8{fill:#F7E5C6;}
	.st9{fill:#DEBB7E;}
	.st10{fill:none;stroke:#45413C;stroke-linecap:round;stroke-linejoin:round;stroke-miterlimit:10;}
	.st11{fill:#FFE500;}
	.st12{fill:#EBCB00;}
	.st13{fill:none;stroke:#EBCB00;stroke-linecap:round;stroke-linejoin:round;stroke-miterlimit:10;}
	.st14{fill:#FF6242;stroke:#45413C;stroke-linecap:round;stroke-linejoin:round;stroke-miterlimit:10;}
	.st15{fill:#FFFFFF;stroke:#45413C;stroke-linecap:round;stroke-linejoin:round;stroke-miterlimit:10;}
	.st16{fill:#E5F8FF;}
	.st17{fill:#FFFFFF;}
	.st18{fill:#E8F4FA;}
	.st19{fill:#E8F4FA;stroke:#45413C;stroke-linecap:round;stroke-linejoin:round;stroke-miterlimit:10;}
	.st20{fill:#FFCCDD;}
	.st21{fill:#FFB0CA;stroke:#45413C;stroke-linecap:round;stroke-linejoin:round;stroke-miterlimit:10;}
	.st22{fill:#FF87AF;stroke:#45413C;stroke-linecap:round;stroke-linejoin:round;stroke-miterlimit:10;}
	.st23{fill:#E5F8FF;stroke:#45413C;stroke-linecap:round;stroke-linejoin:round;stroke-miterlimit:10;}
	.st24{fill:#BF8256;stroke:#45413C;stroke-linecap:round;stroke-linejoin:round;stroke-miterlimit:10;}
	.st25{fill:#9CEB60;}
	.st26{fill:#6DD627;}
	.st27{fill:#C8FFA1;}
	.st28{fill:#FFFACF;}
	.st29{fill:#FF87AF;}
	.st30{fill:#FFB0CA;}
	.st31{fill:#FF6196;}
	.st32{fill:#FFCCDD;stroke:#45413C;stroke-linecap:round;stroke-linejoin:round;stroke-miterlimit:10;}
	.st33{fill:#FF6196;stroke:#45413C;stroke-linecap:round;stroke-linejoin:round;stroke-miterlimit:10;}
	.st34{fill:#FFE5EE;}
	.st35{fill:#00B8F0;}
	.st36{fill:#4ACFFF;}
	.st37{fill:#BF8256;}
	.st38{fill:#DEA47A;}
	.st39{fill:#915E3A;}
	.st40{fill:#FFF5E3;}
	.st41{fill:#F0F0F0;}
	.st42{fill:#8CA4B8;}
	.st43{fill:#627B8C;}
	.st44{fill:#C0DCEB;}
	.st45{fill:#FFF48C;}
	.st46{fill:#FFE500;stroke:#45413C;stroke-linecap:round;stroke-linejoin:round;stroke-miterlimit:10;}
	.st47{fill:#FFAA54;}
	.st48{fill:#6DD627;stroke:#45413C;stroke-linecap:round;stroke-linejoin:round;stroke-miterlimit:10;}
	.st49{fill:#FF8A14;}
	.st50{fill:#FFCC99;}
	.st51{fill:#EBCB00;stroke:#45413C;stroke-linecap:round;stroke-linejoin:round;stroke-miterlimit:10;}
	.st52{fill:#00F5BC;stroke:#45413C;stroke-linecap:round;stroke-linejoin:round;stroke-miterlimit:10;}
	.st53{fill:#BF8DF2;stroke:#45413C;stroke-linecap:round;stroke-linejoin:round;stroke-miterlimit:10;}
	.st54{fill:#FF8A14;stroke:#45413C;stroke-linecap:round;stroke-linejoin:round;stroke-miterlimit:10;}
	.st55{fill:#4AEFF7;stroke:#45413C;stroke-linecap:round;stroke-linejoin:round;stroke-miterlimit:10;}
	.st56{fill:#FFF48C;stroke:#45413C;stroke-linecap:round;stroke-linejoin:round;stroke-miterlimit:10;}
	.st57{fill:#FF6242;}
	.st58{fill:#E04122;}
	.st59{fill:#46B000;}
	.st60{fill:none;stroke:#45413C;stroke-miterlimit:10;}
	.st61{fill:#00B8F0;stroke:#45413C;stroke-linecap:round;stroke-linejoin:round;stroke-miterlimit:10;}
	.st62{fill:#FF866E;}
	.st63{fill:#9F5AE5;stroke:#45413C;stroke-linecap:round;stroke-linejoin:round;stroke-miterlimit:10;}
	.st64{fill:#E4FFD1;}
	.st65{fill:#FFFEF2;}
	.st66{fill:#B89558;}
	.st67{fill:none;stroke:#915E3A;stroke-linecap:round;stroke-linejoin:round;stroke-miterlimit:10;}
	.st68{fill:#915E3A;stroke:#45413C;stroke-linecap:round;stroke-linejoin:round;stroke-miterlimit:10;}
	.st69{fill:#BF8DF2;}
	.st70{fill:#9F5AE5;}
	.st71{fill:#DABFF5;}
	.st72{fill:none;stroke:#45413C;stroke-linejoin:round;stroke-miterlimit:10;}
	.st73{fill:#656769;}
	.st74{fill:#87898C;}
	.st75{fill:#E0E0E0;}
	.st76{fill:#BDBEC0;}
	.st77{fill:#656769;stroke:#45413C;stroke-linecap:round;stroke-linejoin:round;stroke-miterlimit:10;}
	.st78{fill:#45413C;stroke:#45413C;stroke-linecap:round;stroke-linejoin:round;stroke-miterlimit:10;}
	.st79{fill:#FFA694;}
	.st80{fill:#E04122;stroke:#45413C;stroke-linecap:round;stroke-linejoin:round;stroke-miterlimit:10;}
	.st81{fill:#E0E0E0;stroke:#45413C;stroke-linecap:round;stroke-linejoin:round;stroke-miterlimit:10;}
	.st82{fill:#F0F0F0;stroke:#45413C;stroke-linecap:round;stroke-linejoin:round;stroke-miterlimit:10;}
	.st83{fill:#DAEDF7;}
	.st84{fill:#BDBEC0;stroke:#45413C;stroke-linecap:round;stroke-linejoin:round;stroke-miterlimit:10;}
	.st85{fill:#87898C;stroke:#45413C;stroke-linecap:round;stroke-linejoin:round;stroke-miterlimit:10;}
	.st86{fill:#00DFEB;}
	.st87{fill:#4AEFF7;}
	.st88{fill:#DAEDF7;stroke:#45413C;stroke-linecap:round;stroke-linejoin:round;stroke-miterlimit:10;}
	.st89{fill:#FFDA8F;}
	.st90{fill:#FFBE3D;}
	.st91{fill:#FFE9BD;}
	.st92{fill:#DEA47A;stroke:#45413C;stroke-linecap:round;stroke-linejoin:round;stroke-miterlimit:10;}
	.st93{fill:#45413C;}
	.st94{fill:#F0C2A1;}
	.st95{fill:none;stroke:#45413C;stroke-width:1.0064;stroke-linecap:round;stroke-linejoin:round;stroke-miterlimit:10;}
	.st96{fill:#525252;}
	.st97{fill:#EB6D00;stroke:#45413C;stroke-linecap:round;stroke-linejoin:round;stroke-miterlimit:10;}
	.st98{fill:#EB6D00;}
	.st99{fill:#E5FEFF;}
	.st100{fill:#FF866E;stroke:#45413C;stroke-linecap:round;stroke-linejoin:round;stroke-miterlimit:10;}
	.st101{fill:#627B8C;stroke:#45413C;stroke-linecap:round;stroke-linejoin:round;stroke-miterlimit:10;}
	.st102{fill:#FFFCE5;stroke:#45413C;stroke-linecap:round;stroke-linejoin:round;stroke-miterlimit:10;}
	.st103{fill:#A6FBFF;}
	.st104{fill:#D9FDFF;}
	.st105{fill:#FFFACF;stroke:#45413C;stroke-linecap:round;stroke-linejoin:round;stroke-miterlimit:10;}
	.st106{fill:#B8ECFF;}
	.st107{fill:#FFCABF;}
	.st108{fill:#E5FFF9;}
	.st109{fill:#C8FFA1;stroke:#45413C;stroke-linecap:round;stroke-linejoin:round;stroke-miterlimit:10;}
	.st110{fill:#4CF4FC;}
	.st111{fill:#F0D5A8;stroke:#45413C;stroke-linecap:round;stroke-linejoin:round;stroke-miterlimit:10;}
	.st112{fill:#FFDCD1;stroke:#45413C;stroke-linecap:round;stroke-linejoin:round;stroke-miterlimit:10;}
	.st113{fill:#80DDFF;}
	.st114{fill:#46B000;stroke:#45413C;stroke-linecap:round;stroke-linejoin:round;stroke-miterlimit:10;}
	.st115{fill:#4ACFFF;stroke:#45413C;stroke-linecap:round;stroke-linejoin:round;stroke-miterlimit:10;}
	.st116{fill:#ADC4D9;}
	.st117{fill:#BDBEC0;stroke:#45413C;stroke-width:1.0064;stroke-linecap:round;stroke-linejoin:round;stroke-miterlimit:10;}
	.st118{fill:#FFFCE5;}
	.st119{fill:#947746;}
	.st120{fill:#525252;stroke:#45413C;stroke-linecap:round;stroke-linejoin:round;stroke-miterlimit:10;}
</style>
<symbol  id="New_Symbol_14" viewBox="-6.5 -6.5 13 13">
	<path class="st0" d="M0-6c2.2,0,4.1,1.5,4.7,3.5c0,0,0,0,0,0C6.3-2.5,6.4,0,5,0v1c0,2.8-2.2,5-5,5c-2.8,0-5-2.2-5-5V0
		c-1.4,0-1.3-2.5,0.2-2.5c0,0,0,0,0,0C-4.1-4.5-2.2-6,0-6z"/>
	<g>
		<circle class="st1" cx="-1.6" cy="-0.1" r="0.1"/>
		<path class="st2" d="M-1.6,0.5c-0.3,0-0.6-0.3-0.6-0.6S-2-0.8-1.6-0.8C-1.3-0.8-1-0.5-1-0.1S-1.3,0.5-1.6,0.5L-1.6,0.5z"/>
	</g>
	<g>
		<circle class="st1" cx="1.6" cy="-0.1" r="0.1"/>
		<path class="st2" d="M1.6,0.5C1.3,0.5,1,0.2,1-0.1s0.3-0.6,0.6-0.6c0.3,0,0.6,0.3,0.6,0.6S2,0.5,1.6,0.5L1.6,0.5z"/>
	</g>
	<circle class="st3" cx="-3" cy="-1.5" r="0.5"/>
	<circle class="st3" cx="3" cy="-1.5" r="0.5"/>
	<path class="st4" d="M-1.2-3c0.8-0.5,1.7-0.5,2.5,0"/>
</symbol>
<g id="Bg">
</g>
<g id="Icons">
	<g id="XMLID_1976_">
		<path id="XMLID_2385_" class="st46" d="M21.5,42.5l2-0.6l0.8-5.6l3,0.4l-0.8,5.6l0.8,0.6c0.5,0.3,0.7,1.1,0.3,1.6
			c-0.3,0.5-1,0.6-1.5,0.3l-1-0.6c-0.2-0.1-0.5-0.2-0.8-0.1l-2.2,0.6c-0.6,0.2-1.2-0.2-1.4-0.7C20.5,43.3,20.8,42.7,21.5,42.5z"/>
		<path id="XMLID_2384_" class="st46" d="M30.3,43.4l1.8-1.1l-0.8-5.6l3-0.4l0.8,5.6l0.9,0.3c0.6,0.2,1,0.8,0.8,1.4
			c-0.2,0.6-0.8,0.9-1.4,0.7l-1.1-0.3c-0.3-0.1-0.5,0-0.8,0.1l-2,1.2C31,45.7,30.3,45.5,30,45C29.6,44.5,29.8,43.8,30.3,43.4z"/>
		<ellipse id="XMLID_2383_" class="st5" cx="29.8" cy="45" rx="11.5" ry="1.5"/>
		<path id="XMLID_231_" class="st86" d="M44,12.3c-0.6-0.4-1.4-0.2-1.6,0.5c-0.4,1.3-1.2,3.3-2.4,4.8c-2.2,2.6-5.5,4.3-9.2,4.3
			l-0.2,0c-2.7,0-4.4-2.7-3.5-5.2c0.6-1.7,0.9-3.5,0.6-5.4c-0.7-5-4.8-9.1-9.8-9.6C11.1,0.8,5.4,6.1,5.4,12.7
			c0,5.3,3.7,9.8,8.7,10.9c0.5,0.1,0.8,0.6,0.7,1.1c0,0.4-0.1,0.8-0.1,1.2c0,7.7,6.3,14,14,14c7.7,0,14-6.3,14-14c0-0.1,0-0.3,0-0.4
			c1.4-0.9,2.7-2.5,3.5-4.9C47.7,16.1,45.5,13.5,44,12.3z"/>
		<g id="XMLID_227_">
			<path id="XMLID_229_" class="st87" d="M27.1,20.9c-1,2.5,0.8,5.2,3.5,5.2l0.2,0c3.7,0,7-1.7,9.2-4.3c1.2-1.5,2-3.5,2.4-4.8
				c0.2-0.7,1-0.9,1.6-0.5c0.8,0.7,1.9,1.8,2.4,3.5c1.1-4.1-1-6.6-2.4-7.7c-0.6-0.4-1.4-0.2-1.6,0.5c-0.4,1.3-1.2,3.3-2.4,4.8
				c-2.2,2.6-5.5,4.3-9.2,4.3l-0.2,0c-1.4,0-2.6-0.8-3.2-1.9C27.3,20.3,27.2,20.6,27.1,20.9z"/>
			<path id="XMLID_228_" class="st87" d="M17.9,5.8c4.8,0.5,8.8,4.2,9.7,8.9c0.2-1.1,0.3-2.3,0.1-3.6c-0.7-5-4.8-9.1-9.8-9.6
				C11.1,0.8,5.4,6.1,5.4,12.7c0,0.7,0.1,1.4,0.2,2.1C6.7,9.3,11.9,5.2,17.9,5.8z"/>
		</g>
		<path id="XMLID_226_" class="st10" d="M44,12.3c-0.6-0.4-1.4-0.2-1.6,0.5c-0.4,1.3-1.2,3.3-2.4,4.8c-2.2,2.6-5.5,4.3-9.2,4.3
			l-0.2,0c-2.7,0-4.4-2.7-3.5-5.2c0.6-1.7,0.9-3.5,0.6-5.4c-0.7-5-4.8-9.1-9.8-9.6C11.1,0.8,5.4,6.1,5.4,12.7
			c0,5.3,3.7,9.8,8.7,10.9c0.5,0.1,0.8,0.6,0.7,1.1c0,0.4-0.1,0.8-0.1,1.2c0,7.7,6.3,14,14,14c7.7,0,14-6.3,14-14c0-0.1,0-0.3,0-0.4
			c1.4-0.9,2.7-2.5,3.5-4.9C47.7,16.1,45.5,13.5,44,12.3z"/>
		<path id="XMLID_225_" class="st51" d="M8.4,15.7c0,0,0,2.3-1.2,2.9S3,19.5,2.5,16.8C2,14.1,6.9,13.5,8.4,15.7z"/>
		<path id="XMLID_224_" class="st11" d="M5.4,12.1c0,0-1.5-0.4-2.9,1.2c-1.3,1.4-1.2,4.1-1.2,4.1s3.1,0.1,4.7-0.6s2.4-1.2,2.4-1.2
			S7.3,12.9,5.4,12.1z"/>
		<path id="XMLID_223_" class="st45" d="M1.5,17.4c0.2-0.8,0.7-1.6,1.5-2.2c2.2-1.6,4.4-1.2,4.4-1.2c0,0,0.1,0,0.1,0
			c-0.5-0.8-1.2-1.6-2.1-2c0,0-1.5-0.4-2.9,1.2c-1.3,1.4-1.2,4.1-1.2,4.1S1.4,17.4,1.5,17.4z"/>
		<path id="XMLID_222_" class="st10" d="M5.4,12.1c0,0-1.5-0.4-2.9,1.2c-1.3,1.4-1.2,4.1-1.2,4.1s3.1,0.1,4.7-0.6
			c1.6-0.7,2.4-1.2,2.4-1.2S7.3,12.9,5.4,12.1z"/>
		<path id="XMLID_221_" class="st10" d="M21.3,27.5c0,0,1,9,8,10c4.8,0.7,5.8-3.6,6-5.6c0-0.5-0.3-0.9-0.8-1.1
			c-0.7-0.2-1.8-0.6-2.7-1.4"/>
		
			<ellipse id="XMLID_220_" transform="matrix(0.2284 -0.9736 0.9736 0.2284 0.33 22.312)" class="st93" cx="14.2" cy="10.9" rx="1.8" ry="1.8"/>
		<path id="XMLID_219_" class="st104" d="M20.7,14.6c-0.2,0.5-1.2,0.9-2.1,0.7c-0.9-0.1-1.5-0.7-1.3-1.2c0.2-0.5,1.2-0.9,2.1-0.7
			C20.3,13.5,20.9,14,20.7,14.6z"/>
	</g>
</g>
</svg>
