<?xml version="1.0" encoding="utf-8"?>
<!-- Generator: Adobe Illustrator 21.1.0, SVG Export Plug-In . SVG Version: 6.00 Build 0)  -->
<svg version="1.1" xmlns="http://www.w3.org/2000/svg" xmlns:xlink="http://www.w3.org/1999/xlink" x="0px" y="0px"
	 viewBox="0 0 48 48" style="enable-background:new 0 0 48 48;" xml:space="preserve">
<style type="text/css">
	.st0{fill:#FFD4C3;stroke:#504B46;stroke-linecap:round;stroke-linejoin:round;stroke-miterlimit:10;}
	.st1{fill:#FFC258;}
	.st2{fill:#4F4B45;}
	.st3{fill:#FABFA5;}
	.st4{fill:none;stroke:#504B46;stroke-linecap:round;stroke-linejoin:round;stroke-miterlimit:10;}
	.Graphic_x0020_Style{opacity:0.15;fill:#45413C;}
	.st5{opacity:0.15;fill:#45413C;}
	.st6{fill:#DEBB7E;stroke:#45413C;stroke-linecap:round;stroke-linejoin:round;stroke-miterlimit:10;}
	.st7{fill:#F0D5A8;}
	.st8{fill:#F7E5C6;}
	.st9{fill:#DEBB7E;}
	.st10{fill:none;stroke:#45413C;stroke-linecap:round;stroke-linejoin:round;stroke-miterlimit:10;}
	.st11{fill:#FFE500;}
	.st12{fill:#EBCB00;}
	.st13{fill:none;stroke:#EBCB00;stroke-linecap:round;stroke-linejoin:round;stroke-miterlimit:10;}
	.st14{fill:#FF6242;stroke:#45413C;stroke-linecap:round;stroke-linejoin:round;stroke-miterlimit:10;}
	.st15{fill:#FFFFFF;stroke:#45413C;stroke-linecap:round;stroke-linejoin:round;stroke-miterlimit:10;}
	.st16{fill:#E5F8FF;}
	.st17{fill:#FFFFFF;}
	.st18{fill:#E8F4FA;}
	.st19{fill:#E8F4FA;stroke:#45413C;stroke-linecap:round;stroke-linejoin:round;stroke-miterlimit:10;}
	.st20{fill:#FFCCDD;}
	.st21{fill:#FFB0CA;stroke:#45413C;stroke-linecap:round;stroke-linejoin:round;stroke-miterlimit:10;}
	.st22{fill:#FF87AF;stroke:#45413C;stroke-linecap:round;stroke-linejoin:round;stroke-miterlimit:10;}
	.st23{fill:#E5F8FF;stroke:#45413C;stroke-linecap:round;stroke-linejoin:round;stroke-miterlimit:10;}
	.st24{fill:#BF8256;stroke:#45413C;stroke-linecap:round;stroke-linejoin:round;stroke-miterlimit:10;}
	.st25{fill:#9CEB60;}
	.st26{fill:#6DD627;}
	.st27{fill:#C8FFA1;}
	.st28{fill:#FFFACF;}
	.st29{fill:#FF87AF;}
	.st30{fill:#FFB0CA;}
	.st31{fill:#FF6196;}
	.st32{fill:#FFCCDD;stroke:#45413C;stroke-linecap:round;stroke-linejoin:round;stroke-miterlimit:10;}
	.st33{fill:#FF6196;stroke:#45413C;stroke-linecap:round;stroke-linejoin:round;stroke-miterlimit:10;}
	.st34{fill:#FFE5EE;}
	.st35{fill:#00B8F0;}
	.st36{fill:#4ACFFF;}
	.st37{fill:#BF8256;}
	.st38{fill:#DEA47A;}
	.st39{fill:#915E3A;}
	.st40{fill:#FFF5E3;}
	.st41{fill:#F0F0F0;}
	.st42{fill:#8CA4B8;}
	.st43{fill:#627B8C;}
	.st44{fill:#C0DCEB;}
	.st45{fill:#FFF48C;}
	.st46{fill:#FFE500;stroke:#45413C;stroke-linecap:round;stroke-linejoin:round;stroke-miterlimit:10;}
	.st47{fill:#FFAA54;}
	.st48{fill:#6DD627;stroke:#45413C;stroke-linecap:round;stroke-linejoin:round;stroke-miterlimit:10;}
	.st49{fill:#FF8A14;}
	.st50{fill:#FFCC99;}
	.st51{fill:#EBCB00;stroke:#45413C;stroke-linecap:round;stroke-linejoin:round;stroke-miterlimit:10;}
	.st52{fill:#00F5BC;stroke:#45413C;stroke-linecap:round;stroke-linejoin:round;stroke-miterlimit:10;}
	.st53{fill:#BF8DF2;stroke:#45413C;stroke-linecap:round;stroke-linejoin:round;stroke-miterlimit:10;}
	.st54{fill:#FF8A14;stroke:#45413C;stroke-linecap:round;stroke-linejoin:round;stroke-miterlimit:10;}
	.st55{fill:#4AEFF7;stroke:#45413C;stroke-linecap:round;stroke-linejoin:round;stroke-miterlimit:10;}
	.st56{fill:#FFF48C;stroke:#45413C;stroke-linecap:round;stroke-linejoin:round;stroke-miterlimit:10;}
	.st57{fill:#FF6242;}
	.st58{fill:#E04122;}
	.st59{fill:#46B000;}
	.st60{fill:none;stroke:#45413C;stroke-miterlimit:10;}
	.st61{fill:#00B8F0;stroke:#45413C;stroke-linecap:round;stroke-linejoin:round;stroke-miterlimit:10;}
	.st62{fill:#FF866E;}
	.st63{fill:#9F5AE5;stroke:#45413C;stroke-linecap:round;stroke-linejoin:round;stroke-miterlimit:10;}
	.st64{fill:#E4FFD1;}
	.st65{fill:#FFFEF2;}
	.st66{fill:#B89558;}
	.st67{fill:none;stroke:#915E3A;stroke-linecap:round;stroke-linejoin:round;stroke-miterlimit:10;}
	.st68{fill:#915E3A;stroke:#45413C;stroke-linecap:round;stroke-linejoin:round;stroke-miterlimit:10;}
	.st69{fill:#BF8DF2;}
	.st70{fill:#9F5AE5;}
	.st71{fill:#DABFF5;}
	.st72{fill:none;stroke:#45413C;stroke-linejoin:round;stroke-miterlimit:10;}
	.st73{fill:#656769;}
	.st74{fill:#87898C;}
	.st75{fill:#E0E0E0;}
	.st76{fill:#BDBEC0;}
	.st77{fill:#656769;stroke:#45413C;stroke-linecap:round;stroke-linejoin:round;stroke-miterlimit:10;}
	.st78{fill:#45413C;stroke:#45413C;stroke-linecap:round;stroke-linejoin:round;stroke-miterlimit:10;}
	.st79{fill:#FFA694;}
	.st80{fill:#E04122;stroke:#45413C;stroke-linecap:round;stroke-linejoin:round;stroke-miterlimit:10;}
	.st81{fill:#E0E0E0;stroke:#45413C;stroke-linecap:round;stroke-linejoin:round;stroke-miterlimit:10;}
	.st82{fill:#F0F0F0;stroke:#45413C;stroke-linecap:round;stroke-linejoin:round;stroke-miterlimit:10;}
	.st83{fill:#DAEDF7;}
	.st84{fill:#BDBEC0;stroke:#45413C;stroke-linecap:round;stroke-linejoin:round;stroke-miterlimit:10;}
	.st85{fill:#87898C;stroke:#45413C;stroke-linecap:round;stroke-linejoin:round;stroke-miterlimit:10;}
	.st86{fill:#00DFEB;}
	.st87{fill:#4AEFF7;}
	.st88{fill:#DAEDF7;stroke:#45413C;stroke-linecap:round;stroke-linejoin:round;stroke-miterlimit:10;}
	.st89{fill:#FFDA8F;}
	.st90{fill:#FFBE3D;}
	.st91{fill:#FFE9BD;}
	.st92{fill:#DEA47A;stroke:#45413C;stroke-linecap:round;stroke-linejoin:round;stroke-miterlimit:10;}
	.st93{fill:#45413C;}
	.st94{fill:#F0C2A1;}
	.st95{fill:none;stroke:#45413C;stroke-width:1.0064;stroke-linecap:round;stroke-linejoin:round;stroke-miterlimit:10;}
	.st96{fill:#525252;}
	.st97{fill:#EB6D00;stroke:#45413C;stroke-linecap:round;stroke-linejoin:round;stroke-miterlimit:10;}
	.st98{fill:#EB6D00;}
	.st99{fill:#E5FEFF;}
	.st100{fill:#FF866E;stroke:#45413C;stroke-linecap:round;stroke-linejoin:round;stroke-miterlimit:10;}
	.st101{fill:#627B8C;stroke:#45413C;stroke-linecap:round;stroke-linejoin:round;stroke-miterlimit:10;}
	.st102{fill:#FFFCE5;stroke:#45413C;stroke-linecap:round;stroke-linejoin:round;stroke-miterlimit:10;}
	.st103{fill:#A6FBFF;}
	.st104{fill:#D9FDFF;}
	.st105{fill:#FFFACF;stroke:#45413C;stroke-linecap:round;stroke-linejoin:round;stroke-miterlimit:10;}
	.st106{fill:#B8ECFF;}
	.st107{fill:#FFCABF;}
	.st108{fill:#E5FFF9;}
	.st109{fill:#C8FFA1;stroke:#45413C;stroke-linecap:round;stroke-linejoin:round;stroke-miterlimit:10;}
	.st110{fill:#4CF4FC;}
	.st111{fill:#F0D5A8;stroke:#45413C;stroke-linecap:round;stroke-linejoin:round;stroke-miterlimit:10;}
	.st112{fill:#FFDCD1;stroke:#45413C;stroke-linecap:round;stroke-linejoin:round;stroke-miterlimit:10;}
	.st113{fill:#80DDFF;}
	.st114{fill:#46B000;stroke:#45413C;stroke-linecap:round;stroke-linejoin:round;stroke-miterlimit:10;}
	.st115{fill:#4ACFFF;stroke:#45413C;stroke-linecap:round;stroke-linejoin:round;stroke-miterlimit:10;}
	.st116{fill:#ADC4D9;}
	.st117{fill:#BDBEC0;stroke:#45413C;stroke-width:1.0064;stroke-linecap:round;stroke-linejoin:round;stroke-miterlimit:10;}
	.st118{fill:#FFFCE5;}
	.st119{fill:#947746;}
	.st120{fill:#525252;stroke:#45413C;stroke-linecap:round;stroke-linejoin:round;stroke-miterlimit:10;}
</style>
<symbol  id="New_Symbol_14" viewBox="-6.5 -6.5 13 13">
	<path class="st0" d="M0-6c2.2,0,4.1,1.5,4.7,3.5c0,0,0,0,0,0C6.3-2.5,6.4,0,5,0v1c0,2.8-2.2,5-5,5c-2.8,0-5-2.2-5-5V0
		c-1.4,0-1.3-2.5,0.2-2.5c0,0,0,0,0,0C-4.1-4.5-2.2-6,0-6z"/>
	<g>
		<circle class="st1" cx="-1.6" cy="-0.1" r="0.1"/>
		<path class="st2" d="M-1.6,0.5c-0.3,0-0.6-0.3-0.6-0.6S-2-0.8-1.6-0.8C-1.3-0.8-1-0.5-1-0.1S-1.3,0.5-1.6,0.5L-1.6,0.5z"/>
	</g>
	<g>
		<circle class="st1" cx="1.6" cy="-0.1" r="0.1"/>
		<path class="st2" d="M1.6,0.5C1.3,0.5,1,0.2,1-0.1s0.3-0.6,0.6-0.6c0.3,0,0.6,0.3,0.6,0.6S2,0.5,1.6,0.5L1.6,0.5z"/>
	</g>
	<circle class="st3" cx="-3" cy="-1.5" r="0.5"/>
	<circle class="st3" cx="3" cy="-1.5" r="0.5"/>
	<path class="st4" d="M-1.2-3c0.8-0.5,1.7-0.5,2.5,0"/>
</symbol>
<g id="Bg">
</g>
<g id="Icons">
	<g id="XMLID_1867_">
		<path id="XMLID_2563_" class="st18" d="M38.1,5.2L38.1,5.2c-0.7,0.2-1.4,0.3-2.2,0.3h-9.6c-0.6,0-1.2-0.3-1.5-0.8l0,0
			c-0.3-0.5-0.9-0.8-1.5-0.8h-7v5.3h7c0.6,0,1.2-0.3,1.5-0.8l0,0c0.3-0.5,0.9-0.8,1.5-0.8h9.6c0.7,0,1.5,0.1,2.2,0.3l0,0
			c0.7,0.2,1.4,0.3,2.2,0.3h4.3c0.9,0,1.6-0.7,1.6-1.6l0,0c0-0.9-0.7-1.6-1.6-1.6h-4.3C39.5,5,38.8,5.1,38.1,5.2z"/>
		<path id="XMLID_2562_" class="st17" d="M24.8,6.1c0.3,0.4,0.9,0.6,1.5,0.6h9.6c0.7,0,1.5-0.1,2.2-0.2c0.7-0.1,1.4-0.2,2.2-0.2h4.3
			c0.7,0,1.3,0.3,1.5,0.8c0.1-0.2,0.1-0.3,0.1-0.5c0-0.9-0.7-1.6-1.6-1.6h-4.3c-0.7,0-1.5,0.1-2.2,0.3c-0.7,0.2-1.4,0.3-2.2,0.3
			h-9.6c-0.6,0-1.2-0.3-1.5-0.8s-0.9-0.8-1.5-0.8h-7v1.6h7C23.9,5.5,24.5,5.7,24.8,6.1z"/>
		<path id="XMLID_2561_" class="st10" d="M38.1,5.2L38.1,5.2c-0.7,0.2-1.4,0.3-2.2,0.3h-9.6c-0.6,0-1.2-0.3-1.5-0.8l0,0
			c-0.3-0.5-0.9-0.8-1.5-0.8h-7v5.3h7c0.6,0,1.2-0.3,1.5-0.8l0,0c0.3-0.5,0.9-0.8,1.5-0.8h9.6c0.7,0,1.5,0.1,2.2,0.3l0,0
			c0.7,0.2,1.4,0.3,2.2,0.3h4.3c0.9,0,1.6-0.7,1.6-1.6l0,0c0-0.9-0.7-1.6-1.6-1.6h-4.3C39.5,5,38.8,5.1,38.1,5.2z"/>
		<path id="XMLID_2560_" class="st11" d="M16.8,15.1L16.8,15.1c-0.6,0-1.1-0.5-1.1-1.1V9.2c0-0.6,0.5-1.1,1.1-1.1l0,0
			c0.6,0,1.1,0.5,1.1,1.1V14C17.9,14.6,17.4,15.1,16.8,15.1z"/>
		<path id="XMLID_2559_" class="st12" d="M17.9,12.7h-2.1V9.2c0-0.6,0.5-1.1,1.1-1.1l0,0c0.6,0,1.1,0.5,1.1,1.1V12.7z"/>
		<rect id="XMLID_2558_" x="17.9" y="8.2" class="st11" width="2.1" height="13.3"/>
		<rect id="XMLID_2557_" x="17.9" y="8.2" class="st12" width="2.1" height="4.3"/>
		<path id="XMLID_2556_" class="st10" d="M16.8,15.1L16.8,15.1c-0.6,0-1.1-0.5-1.1-1.1V9.2c0-0.6,0.5-1.1,1.1-1.1l0,0
			c0.6,0,1.1,0.5,1.1,1.1V14C17.9,14.6,17.4,15.1,16.8,15.1z"/>
		<rect id="XMLID_2555_" x="17.9" y="8.2" class="st10" width="2.1" height="13.3"/>
		<ellipse id="XMLID_2554_" class="st5" cx="22.7" cy="43.6" rx="12.2" ry="1.6"/>
		<path id="XMLID_2553_" class="st41" d="M43.4,29.7c0,6-9.3,10.9-20.8,10.9c-11.5,0-20.8-4.9-20.8-10.9s9.3-10.4,20.8-10.4
			C34.1,19.3,43.4,23.7,43.4,29.7z"/>
		<path id="XMLID_2552_" class="st17" d="M22.7,22.7c10.4,0,18.9,3.6,20.5,8.7c0.2-0.6,0.3-1.1,0.3-1.7c0-6-9.3-10.4-20.8-10.4
			S1.9,23.7,1.9,29.7c0,0.6,0.1,1.1,0.3,1.7C3.7,26.3,12.3,22.7,22.7,22.7z"/>
		<path id="XMLID_2551_" class="st10" d="M43.4,29.7c0,6-9.3,10.9-20.8,10.9c-11.5,0-20.8-4.9-20.8-10.9s9.3-10.4,20.8-10.4
			C34.1,19.3,43.4,23.7,43.4,29.7z"/>
		<path id="XMLID_2550_" class="st11" d="M37,27.4c0,4.3-6.4,7.9-14.4,7.9S8.3,31.8,8.3,27.4s6.4-9.7,14.4-9.7S37,23.1,37,27.4z"/>
		<path id="XMLID_2549_" class="st45" d="M22.7,20.4c7.1,0,13,4.3,14.2,8.3c0.1-0.4,0.2-0.9,0.2-1.3c0-4.4-6.4-9.7-14.4-9.7
			S8.3,23.1,8.3,27.4c0,0.4,0.1,0.9,0.2,1.3C9.7,24.7,15.5,20.4,22.7,20.4z"/>
		<path id="XMLID_2548_" class="st10" d="M37,27.4c0,4.3-6.4,7.9-14.4,7.9S8.3,31.8,8.3,27.4s6.4-9.7,14.4-9.7S37,23.1,37,27.4z"/>
		<path id="XMLID_2547_" class="st46" d="M10,31.1l-0.1-0.6c0,0-0.7-5,3.7-7.5"/>
		<path id="XMLID_2546_" class="st10" d="M12,32.7L12,32.7c0-0.1-1.2-5.6,3.2-8.1c0,0-2,6.1,2.4,7.6"/>
		<path id="XMLID_2545_" class="st10" d="M14.2,33.7c0,0,3.4,0.4,4.8-3.7s-1.1-7.5-1.1-7.5"/>
		<path id="XMLID_2544_" class="st10" d="M17.9,34.8c0,0,3.5-0.6,4.8-4.8s-0.5-8.5-0.5-8.5"/>
		<path id="XMLID_2543_" class="st10" d="M23.2,27.3c0,0,2.3,2.6,6.2,2.7"/>
		<path id="XMLID_2542_" class="st10" d="M34.9,31.6c0,0,1-2.2,0-4.8s-3.7-3.2-3.7-3.2c2,3.1,1.5,10.6-3.7,11.2
			c-5.2,0.5-4.8-4.3-4.8-4.3c2.1,2.9,6,2.4,6.9-1.1c0.9-3.4-1.1-5.3-1.1-5.3"/>
		<path id="XMLID_2541_" class="st57" d="M23.2,16.7c-8.1,0-10.9,3.5-11.2,5.9s1.9,3.7,4.3,3.2c2.4-0.5,2.8,3.5,8,3.2
			c5.2-0.3,4.1-3.2,7.5-4.3c2.1-0.7,3.9-2.7,1.1-4.8C30.8,18.4,28.4,16.7,23.2,16.7z"/>
		<path id="XMLID_2540_" class="st62" d="M23.2,18.8c5.2,0,7.6,1.8,9.6,3.2c0.5,0.4,0.9,0.8,1.1,1.1c0.6-0.9,0.5-2.1-1.1-3.3
			c-1.9-1.4-4.3-3.2-9.6-3.2c-8.1,0-10.9,3.5-11.2,5.9c-0.1,0.5,0,1,0.2,1.5C12.9,21.7,15.9,18.8,23.2,18.8z"/>
		<path id="XMLID_2539_" class="st10" d="M23.2,16.7c-8.1,0-10.9,3.5-11.2,5.9s1.9,3.7,4.3,3.2c2.4-0.5,2.8,3.5,8,3.2
			c5.2-0.3,4.1-3.2,7.5-4.3c2.1-0.7,3.9-2.7,1.1-4.8C30.8,18.4,28.4,16.7,23.2,16.7z"/>
		<path id="XMLID_2538_" class="st11" d="M16.3,10.3L16.3,10.3c-0.6,0-1.1-0.5-1.1-1.1V4.4c0-0.6,0.5-1.1,1.1-1.1l0,0
			c0.6,0,1.1,0.5,1.1,1.1v4.8C17.3,9.8,16.9,10.3,16.3,10.3z"/>
		<path id="XMLID_2537_" class="st11" d="M18.4,10.3L18.4,10.3c-0.6,0-1.1-0.5-1.1-1.1V4.4c0-0.6,0.5-1.1,1.1-1.1l0,0
			c0.6,0,1.1,0.5,1.1,1.1v4.8C19.5,9.8,19,10.3,18.4,10.3z"/>
		<path id="XMLID_1146_" class="st11" d="M20.5,10.3L20.5,10.3c-0.6,0-1.1-0.5-1.1-1.1V3.9c0-0.6,0.5-1.1,1.1-1.1l0,0
			c0.6,0,1.1,0.5,1.1,1.1v5.3C21.6,9.8,21.1,10.3,20.5,10.3z"/>
		<path id="XMLID_1145_" class="st11" d="M14.3,9.8H14c-0.5,0-0.9-0.4-0.9-0.9v-4c0-0.5,0.4-0.9,0.9-0.9h0.2c0.5,0,0.9,0.4,0.9,0.9
			v4C15.2,9.3,14.8,9.8,14.3,9.8z"/>
		<path id="XMLID_1144_" class="st45" d="M16.3,3.4c-0.6,0-1.1,0.5-1.1,1.1v2.1c0-0.6,0.5-1.1,1.1-1.1c0.6,0,1.1,0.5,1.1,1.1V4.4
			C17.3,3.8,16.9,3.4,16.3,3.4z"/>
		<path id="XMLID_1143_" class="st45" d="M18.4,3.4c-0.6,0-1.1,0.5-1.1,1.1v2.1c0-0.6,0.5-1.1,1.1-1.1s1.1,0.5,1.1,1.1V4.4
			C19.5,3.8,19,3.4,18.4,3.4z"/>
		<path id="XMLID_1142_" class="st45" d="M20.5,2.8c-0.6,0-1.1,0.5-1.1,1.1V6c0-0.6,0.5-1.1,1.1-1.1s1.1,0.5,1.1,1.1V3.9
			C21.6,3.3,21.1,2.8,20.5,2.8z"/>
		<path id="XMLID_1141_" class="st45" d="M14.3,3.9H14c-0.5,0-0.9,0.4-0.9,0.9v2.1C13.1,6.4,13.5,6,14,6h0.2c0.5,0,0.9,0.4,0.9,0.9
			V4.8C15.2,4.3,14.8,3.9,14.3,3.9z"/>
		<path id="XMLID_1140_" class="st10" d="M16.3,10.3L16.3,10.3c-0.6,0-1.1-0.5-1.1-1.1V4.4c0-0.6,0.5-1.1,1.1-1.1l0,0
			c0.6,0,1.1,0.5,1.1,1.1v4.8C17.3,9.8,16.9,10.3,16.3,10.3z"/>
		<path id="XMLID_1139_" class="st10" d="M18.4,10.3L18.4,10.3c-0.6,0-1.1-0.5-1.1-1.1V4.4c0-0.6,0.5-1.1,1.1-1.1l0,0
			c0.6,0,1.1,0.5,1.1,1.1v4.8C19.5,9.8,19,10.3,18.4,10.3z"/>
		<path id="XMLID_1138_" class="st10" d="M20.5,10.3L20.5,10.3c-0.6,0-1.1-0.5-1.1-1.1V3.9c0-0.6,0.5-1.1,1.1-1.1l0,0
			c0.6,0,1.1,0.5,1.1,1.1v5.3C21.6,9.8,21.1,10.3,20.5,10.3z"/>
		<path id="XMLID_1137_" class="st10" d="M14.3,9.8H14c-0.5,0-0.9-0.4-0.9-0.9v-4c0-0.5,0.4-0.9,0.9-0.9h0.2c0.5,0,0.9,0.4,0.9,0.9
			v4C15.2,9.3,14.8,9.8,14.3,9.8z"/>
		<path id="XMLID_1128_" class="st37" d="M19.8,22.7l-2.1-0.4c-0.3,0-0.5-0.3-0.4-0.6l0.3-1.6c0-0.3,0.3-0.5,0.6-0.4l2.1,0.4
			c0.3,0,0.5,0.3,0.4,0.6l-0.3,1.6C20.3,22.6,20.1,22.7,19.8,22.7z"/>
		<path id="XMLID_1135_" class="st38" d="M17.4,22.2l0.1-0.7c0-0.3,0.3-0.5,0.6-0.4l2.1,0.4c0.1,0,0.2,0.1,0.3,0.2l0.1-0.9
			c0-0.3-0.1-0.6-0.4-0.6l-2.1-0.4c-0.3,0-0.6,0.1-0.6,0.4l-0.3,1.6C17.2,21.9,17.3,22.1,17.4,22.2z"/>
		<path id="XMLID_1127_" class="st10" d="M19.8,22.7l-2.1-0.4c-0.3,0-0.5-0.3-0.4-0.6l0.3-1.6c0-0.3,0.3-0.5,0.6-0.4l2.1,0.4
			c0.3,0,0.5,0.3,0.4,0.6l-0.3,1.6C20.3,22.6,20.1,22.7,19.8,22.7z"/>
		<path id="XMLID_1126_" class="st37" d="M27.6,24.3l-2,0.8c-0.3,0.1-0.6,0-0.7-0.3l-0.6-1.5c-0.1-0.3,0-0.6,0.3-0.7l2-0.8
			c0.3-0.1,0.6,0,0.7,0.3l0.6,1.5C28,23.9,27.9,24.2,27.6,24.3z"/>
		<path id="XMLID_1132_" class="st38" d="M24.7,24.3l1.9-0.8c0.3-0.1,0.6,0,0.7,0.3l0.3,0.6l0.1,0c0.3-0.1,0.4-0.4,0.3-0.7l-0.6-1.5
			c-0.1-0.3-0.4-0.4-0.7-0.3l-2,0.8c-0.3,0.1-0.4,0.4-0.3,0.7L24.7,24.3z"/>
		<path id="XMLID_1125_" class="st10" d="M27.6,24.3l-2,0.8c-0.3,0.1-0.6,0-0.7-0.3l-0.6-1.5c-0.1-0.3,0-0.6,0.3-0.7l2-0.8
			c0.3-0.1,0.6,0,0.7,0.3l0.6,1.5C28,23.9,27.9,24.2,27.6,24.3z"/>
		<path id="XMLID_1123_" class="st37" d="M25.1,19.1l-1.3-1.7c-0.2-0.2-0.1-0.6,0.1-0.7l1.3-1c0.2-0.2,0.6-0.1,0.7,0.1l1.3,1.7
			c0.2,0.2,0.1,0.6-0.1,0.7l-1.3,1C25.6,19.4,25.3,19.4,25.1,19.1z"/>
		<path id="XMLID_1129_" class="st38" d="M24.3,18l0.9-0.7c0.2-0.2,0.6-0.1,0.7,0.1l0.8,1.1l0.3-0.3c0.2-0.2,0.3-0.5,0.1-0.7
			L26,15.8c-0.2-0.2-0.5-0.3-0.7-0.1l-1.3,1c-0.2,0.2-0.3,0.5-0.1,0.7L24.3,18z"/>
		<path id="XMLID_1121_" class="st10" d="M25.1,19.1l-1.3-1.7c-0.2-0.2-0.1-0.6,0.1-0.7l1.3-1c0.2-0.2,0.6-0.1,0.7,0.1l1.3,1.7
			c0.2,0.2,0.1,0.6-0.1,0.7l-1.3,1C25.6,19.4,25.3,19.4,25.1,19.1z"/>
	</g>
</g>
</svg>
