<?xml version="1.0" encoding="utf-8"?>
<!-- Generator: Adobe Illustrator 21.1.0, SVG Export Plug-In . SVG Version: 6.00 Build 0)  -->
<svg version="1.1" xmlns="http://www.w3.org/2000/svg" xmlns:xlink="http://www.w3.org/1999/xlink" x="0px" y="0px"
	 viewBox="0 0 48 48" style="enable-background:new 0 0 48 48;" xml:space="preserve">
<style type="text/css">
	.st0{fill:#FFD4C3;stroke:#504B46;stroke-linecap:round;stroke-linejoin:round;stroke-miterlimit:10;}
	.st1{fill:#FFC258;}
	.st2{fill:#4F4B45;}
	.st3{fill:#FABFA5;}
	.st4{fill:none;stroke:#504B46;stroke-linecap:round;stroke-linejoin:round;stroke-miterlimit:10;}
	.Graphic_x0020_Style{opacity:0.15;fill:#45413C;}
	.st5{opacity:0.15;fill:#45413C;}
	.st6{fill:#DEBB7E;stroke:#45413C;stroke-linecap:round;stroke-linejoin:round;stroke-miterlimit:10;}
	.st7{fill:#F0D5A8;}
	.st8{fill:#F7E5C6;}
	.st9{fill:#DEBB7E;}
	.st10{fill:none;stroke:#45413C;stroke-linecap:round;stroke-linejoin:round;stroke-miterlimit:10;}
	.st11{fill:#FFE500;}
	.st12{fill:#EBCB00;}
	.st13{fill:none;stroke:#EBCB00;stroke-linecap:round;stroke-linejoin:round;stroke-miterlimit:10;}
	.st14{fill:#FF6242;stroke:#45413C;stroke-linecap:round;stroke-linejoin:round;stroke-miterlimit:10;}
	.st15{fill:#FFFFFF;stroke:#45413C;stroke-linecap:round;stroke-linejoin:round;stroke-miterlimit:10;}
	.st16{fill:#E5F8FF;}
	.st17{fill:#FFFFFF;}
	.st18{fill:#E8F4FA;}
	.st19{fill:#E8F4FA;stroke:#45413C;stroke-linecap:round;stroke-linejoin:round;stroke-miterlimit:10;}
	.st20{fill:#FFCCDD;}
	.st21{fill:#FFB0CA;stroke:#45413C;stroke-linecap:round;stroke-linejoin:round;stroke-miterlimit:10;}
	.st22{fill:#FF87AF;stroke:#45413C;stroke-linecap:round;stroke-linejoin:round;stroke-miterlimit:10;}
	.st23{fill:#E5F8FF;stroke:#45413C;stroke-linecap:round;stroke-linejoin:round;stroke-miterlimit:10;}
	.st24{fill:#BF8256;stroke:#45413C;stroke-linecap:round;stroke-linejoin:round;stroke-miterlimit:10;}
	.st25{fill:#9CEB60;}
	.st26{fill:#6DD627;}
	.st27{fill:#C8FFA1;}
	.st28{fill:#FFFACF;}
	.st29{fill:#FF87AF;}
	.st30{fill:#FFB0CA;}
	.st31{fill:#FF6196;}
	.st32{fill:#FFCCDD;stroke:#45413C;stroke-linecap:round;stroke-linejoin:round;stroke-miterlimit:10;}
	.st33{fill:#FF6196;stroke:#45413C;stroke-linecap:round;stroke-linejoin:round;stroke-miterlimit:10;}
	.st34{fill:#FFE5EE;}
	.st35{fill:#00B8F0;}
	.st36{fill:#4ACFFF;}
	.st37{fill:#BF8256;}
	.st38{fill:#DEA47A;}
	.st39{fill:#915E3A;}
	.st40{fill:#FFF5E3;}
	.st41{fill:#F0F0F0;}
	.st42{fill:#8CA4B8;}
	.st43{fill:#627B8C;}
	.st44{fill:#C0DCEB;}
	.st45{fill:#FFF48C;}
	.st46{fill:#FFE500;stroke:#45413C;stroke-linecap:round;stroke-linejoin:round;stroke-miterlimit:10;}
	.st47{fill:#FFAA54;}
	.st48{fill:#6DD627;stroke:#45413C;stroke-linecap:round;stroke-linejoin:round;stroke-miterlimit:10;}
	.st49{fill:#FF8A14;}
	.st50{fill:#FFCC99;}
	.st51{fill:#EBCB00;stroke:#45413C;stroke-linecap:round;stroke-linejoin:round;stroke-miterlimit:10;}
	.st52{fill:#00F5BC;stroke:#45413C;stroke-linecap:round;stroke-linejoin:round;stroke-miterlimit:10;}
	.st53{fill:#BF8DF2;stroke:#45413C;stroke-linecap:round;stroke-linejoin:round;stroke-miterlimit:10;}
	.st54{fill:#FF8A14;stroke:#45413C;stroke-linecap:round;stroke-linejoin:round;stroke-miterlimit:10;}
	.st55{fill:#4AEFF7;stroke:#45413C;stroke-linecap:round;stroke-linejoin:round;stroke-miterlimit:10;}
	.st56{fill:#FFF48C;stroke:#45413C;stroke-linecap:round;stroke-linejoin:round;stroke-miterlimit:10;}
	.st57{fill:#FF6242;}
	.st58{fill:#E04122;}
	.st59{fill:#46B000;}
	.st60{fill:none;stroke:#45413C;stroke-miterlimit:10;}
	.st61{fill:#00B8F0;stroke:#45413C;stroke-linecap:round;stroke-linejoin:round;stroke-miterlimit:10;}
	.st62{fill:#FF866E;}
	.st63{fill:#9F5AE5;stroke:#45413C;stroke-linecap:round;stroke-linejoin:round;stroke-miterlimit:10;}
	.st64{fill:#E4FFD1;}
	.st65{fill:#FFFEF2;}
	.st66{fill:#B89558;}
	.st67{fill:none;stroke:#915E3A;stroke-linecap:round;stroke-linejoin:round;stroke-miterlimit:10;}
	.st68{fill:#915E3A;stroke:#45413C;stroke-linecap:round;stroke-linejoin:round;stroke-miterlimit:10;}
	.st69{fill:#BF8DF2;}
	.st70{fill:#9F5AE5;}
	.st71{fill:#DABFF5;}
	.st72{fill:none;stroke:#45413C;stroke-linejoin:round;stroke-miterlimit:10;}
	.st73{fill:#656769;}
	.st74{fill:#87898C;}
	.st75{fill:#E0E0E0;}
	.st76{fill:#BDBEC0;}
	.st77{fill:#656769;stroke:#45413C;stroke-linecap:round;stroke-linejoin:round;stroke-miterlimit:10;}
	.st78{fill:#45413C;stroke:#45413C;stroke-linecap:round;stroke-linejoin:round;stroke-miterlimit:10;}
	.st79{fill:#FFA694;}
	.st80{fill:#E04122;stroke:#45413C;stroke-linecap:round;stroke-linejoin:round;stroke-miterlimit:10;}
	.st81{fill:#E0E0E0;stroke:#45413C;stroke-linecap:round;stroke-linejoin:round;stroke-miterlimit:10;}
	.st82{fill:#F0F0F0;stroke:#45413C;stroke-linecap:round;stroke-linejoin:round;stroke-miterlimit:10;}
	.st83{fill:#DAEDF7;}
	.st84{fill:#BDBEC0;stroke:#45413C;stroke-linecap:round;stroke-linejoin:round;stroke-miterlimit:10;}
	.st85{fill:#87898C;stroke:#45413C;stroke-linecap:round;stroke-linejoin:round;stroke-miterlimit:10;}
	.st86{fill:#00DFEB;}
	.st87{fill:#4AEFF7;}
	.st88{fill:#DAEDF7;stroke:#45413C;stroke-linecap:round;stroke-linejoin:round;stroke-miterlimit:10;}
	.st89{fill:#FFDA8F;}
	.st90{fill:#FFBE3D;}
	.st91{fill:#FFE9BD;}
	.st92{fill:#DEA47A;stroke:#45413C;stroke-linecap:round;stroke-linejoin:round;stroke-miterlimit:10;}
	.st93{fill:#45413C;}
	.st94{fill:#F0C2A1;}
	.st95{fill:none;stroke:#45413C;stroke-width:1.0064;stroke-linecap:round;stroke-linejoin:round;stroke-miterlimit:10;}
	.st96{fill:#525252;}
	.st97{fill:#EB6D00;stroke:#45413C;stroke-linecap:round;stroke-linejoin:round;stroke-miterlimit:10;}
	.st98{fill:#EB6D00;}
	.st99{fill:#E5FEFF;}
	.st100{fill:#FF866E;stroke:#45413C;stroke-linecap:round;stroke-linejoin:round;stroke-miterlimit:10;}
	.st101{fill:#627B8C;stroke:#45413C;stroke-linecap:round;stroke-linejoin:round;stroke-miterlimit:10;}
	.st102{fill:#FFFCE5;stroke:#45413C;stroke-linecap:round;stroke-linejoin:round;stroke-miterlimit:10;}
	.st103{fill:#A6FBFF;}
	.st104{fill:#D9FDFF;}
	.st105{fill:#FFFACF;stroke:#45413C;stroke-linecap:round;stroke-linejoin:round;stroke-miterlimit:10;}
	.st106{fill:#B8ECFF;}
	.st107{fill:#FFCABF;}
	.st108{fill:#E5FFF9;}
	.st109{fill:#C8FFA1;stroke:#45413C;stroke-linecap:round;stroke-linejoin:round;stroke-miterlimit:10;}
	.st110{fill:#4CF4FC;}
	.st111{fill:#F0D5A8;stroke:#45413C;stroke-linecap:round;stroke-linejoin:round;stroke-miterlimit:10;}
	.st112{fill:#FFDCD1;stroke:#45413C;stroke-linecap:round;stroke-linejoin:round;stroke-miterlimit:10;}
	.st113{fill:#80DDFF;}
	.st114{fill:#46B000;stroke:#45413C;stroke-linecap:round;stroke-linejoin:round;stroke-miterlimit:10;}
	.st115{fill:#4ACFFF;stroke:#45413C;stroke-linecap:round;stroke-linejoin:round;stroke-miterlimit:10;}
	.st116{fill:#ADC4D9;}
	.st117{fill:#BDBEC0;stroke:#45413C;stroke-width:1.0064;stroke-linecap:round;stroke-linejoin:round;stroke-miterlimit:10;}
	.st118{fill:#FFFCE5;}
	.st119{fill:#947746;}
	.st120{fill:#525252;stroke:#45413C;stroke-linecap:round;stroke-linejoin:round;stroke-miterlimit:10;}
</style>
<symbol  id="New_Symbol_14" viewBox="-6.5 -6.5 13 13">
	<path class="st0" d="M0-6c2.2,0,4.1,1.5,4.7,3.5c0,0,0,0,0,0C6.3-2.5,6.4,0,5,0v1c0,2.8-2.2,5-5,5c-2.8,0-5-2.2-5-5V0
		c-1.4,0-1.3-2.5,0.2-2.5c0,0,0,0,0,0C-4.1-4.5-2.2-6,0-6z"/>
	<g>
		<circle class="st1" cx="-1.6" cy="-0.1" r="0.1"/>
		<path class="st2" d="M-1.6,0.5c-0.3,0-0.6-0.3-0.6-0.6S-2-0.8-1.6-0.8C-1.3-0.8-1-0.5-1-0.1S-1.3,0.5-1.6,0.5L-1.6,0.5z"/>
	</g>
	<g>
		<circle class="st1" cx="1.6" cy="-0.1" r="0.1"/>
		<path class="st2" d="M1.6,0.5C1.3,0.5,1,0.2,1-0.1s0.3-0.6,0.6-0.6c0.3,0,0.6,0.3,0.6,0.6S2,0.5,1.6,0.5L1.6,0.5z"/>
	</g>
	<circle class="st3" cx="-3" cy="-1.5" r="0.5"/>
	<circle class="st3" cx="3" cy="-1.5" r="0.5"/>
	<path class="st4" d="M-1.2-3c0.8-0.5,1.7-0.5,2.5,0"/>
</symbol>
<g id="Bg">
</g>
<g id="Icons">
	<g id="XMLID_1984_">
		<path id="XMLID_2723_" class="st8" d="M37.8,11.9c0,0-1.8-2-0.8-4.4c0.8-2.1,2.3-2.9,3.6-3.6c1.5-0.8,1.6-2.4,1.6-2.4
			s3.3,4.6,1.6,8.5c-1.6,3.7-4,2.8-4,2.8L37.8,11.9z"/>
		<path id="XMLID_2722_" class="st40" d="M40.6,3.9c-1.3,0.7-2.8,1.5-3.6,3.6c0.8-0.3,2-0.5,3.7,0.1c1.6,0.6,2.5,1.6,3,2.6
			c0-0.1,0.1-0.1,0.1-0.2c1.7-3.9-1.6-8.5-1.6-8.5S42.1,3,40.6,3.9z"/>
		<path id="XMLID_2721_" class="st10" d="M37.8,11.9c0,0-1.8-2-0.8-4.4c0.8-2.1,2.3-2.9,3.6-3.6c1.5-0.8,1.6-2.4,1.6-2.4
			s3.3,4.6,1.6,8.5c-1.6,3.7-4,2.8-4,2.8L37.8,11.9z"/>
		<path id="XMLID_2720_" class="st10" d="M39.5,12.5c0,0,1.3-0.8,2.3-3.4"/>
		<path id="XMLID_2719_" class="st10" d="M38.6,12.2c0,0-0.3-2,0.4-3.7"/>
		<ellipse id="XMLID_2718_" class="st5" cx="24.2" cy="45.3" rx="11.5" ry="1.5"/>
		<path id="XMLID_2715_" class="st7" d="M21.3,6.4c-9.7,0-17.5,4.7-17.5,13c0,0,0,0,0,0.1c0,2.9,3.2,4.6,5.7,3.2l3.1-1.7
			c1-0.6,2.1,0.6,1.5,1.5l-4.3,7c-1.1,1.7-0.4,4,1.4,4.9c2.5,1.2,5.5,2,8.6,2c9.7,0,17.5-6.7,17.5-15C37.3,13.1,30.9,6.4,21.3,6.4z
			 M18.3,32.9c-1.7,0-3-1-3-2.2c0-1.2,1.3-2.2,3-2.2s3,1,3,2.2C21.3,31.9,19.9,32.9,18.3,32.9z"/>
		<g id="XMLID_2713_">
			<path id="XMLID_2714_" class="st8" d="M21.3,9.4c9,0,15.2,5.9,15.9,13.4c0-0.5,0.1-0.9,0.1-1.4c0-8.3-6.3-15-16-15
				s-17.5,4.7-17.5,13c0,0,0,0,0,0.1c0,0.4,0.1,0.7,0.2,1.1C5,13.4,12.4,9.4,21.3,9.4z"/>
		</g>
		<path id="XMLID_2710_" class="st10" d="M21.3,6.4c-9.7,0-17.5,4.7-17.5,13c0,0,0,0,0,0.1c0,2.9,3.2,4.6,5.7,3.2l3.1-1.7
			c1-0.6,2.1,0.6,1.5,1.5l-4.3,7c-1.1,1.7-0.4,4,1.4,4.9c2.5,1.2,5.5,2,8.6,2c9.7,0,17.5-6.7,17.5-15C37.3,13.1,30.9,6.4,21.3,6.4z
			 M18.3,32.9c-1.7,0-3-1-3-2.2c0-1.2,1.3-2.2,3-2.2s3,1,3,2.2C21.3,31.9,19.9,32.9,18.3,32.9z"/>
		<ellipse id="XMLID_2709_" class="st57" cx="28.6" cy="27.1" rx="3.2" ry="2.2"/>
		<ellipse id="XMLID_2708_" class="st49" cx="30" cy="17.1" rx="2.8" ry="2.3"/>
		<ellipse id="XMLID_2707_" class="st26" cx="11.5" cy="14.1" rx="2.7" ry="2.2"/>
		<ellipse id="XMLID_2706_" class="st11" cx="21.2" cy="11.6" rx="2.9" ry="2.2"/>
		<path id="XMLID_2011_" class="st58" d="M28.6,26.2c1.4,0,2.6,0.7,3,1.6c0.1-0.2,0.2-0.4,0.2-0.7c0-1.2-1.4-2.2-3.1-2.2
			s-3.1,1-3.1,2.2c0,0.2,0.1,0.5,0.2,0.7C26,26.9,27.2,26.2,28.6,26.2z"/>
		<path id="XMLID_2010_" class="st98" d="M30,16.2c1.2,0,2.3,0.7,2.6,1.6c0.1-0.2,0.1-0.4,0.1-0.7c0-1.3-1.2-2.3-2.8-2.3
			s-2.8,1-2.8,2.3c0,0.2,0.1,0.5,0.1,0.7C27.8,16.8,28.8,16.2,30,16.2z"/>
		<path id="XMLID_2009_" class="st59" d="M11.5,13.2c1.2,0,2.2,0.7,2.6,1.6c0.1-0.2,0.1-0.4,0.1-0.7c0-1.2-1.2-2.2-2.7-2.2
			s-2.7,1-2.7,2.2c0,0.2,0.1,0.5,0.1,0.7C9.3,13.9,10.3,13.2,11.5,13.2z"/>
		<path id="XMLID_2008_" class="st12" d="M21.2,10.7c1.3,0,2.4,0.7,2.8,1.6c0.1-0.2,0.2-0.4,0.2-0.7c0-1.2-1.3-2.2-2.9-2.2
			c-1.6,0-2.9,1-2.9,2.2c0,0.2,0.1,0.5,0.2,0.7C18.8,11.4,19.9,10.7,21.2,10.7z"/>
		<ellipse id="XMLID_2007_" class="st10" cx="28.6" cy="27.1" rx="3.2" ry="2.2"/>
		<ellipse id="XMLID_2006_" class="st10" cx="30" cy="17.1" rx="2.8" ry="2.3"/>
		<ellipse id="XMLID_2005_" class="st10" cx="11.5" cy="14.1" rx="2.7" ry="2.2"/>
		<ellipse id="XMLID_2004_" class="st10" cx="21.2" cy="11.6" rx="2.9" ry="2.2"/>
		<path id="XMLID_2003_" class="st36" d="M28.9,44.6L28.9,44.6c-0.8-0.3-1.3-1.1-1.1-1.9l2.9-12.5c0.9-3.7,2.1-7.4,3.6-10.9l0.5-1.2
			c0.5-1,1.6-1.6,2.7-1.2l0,0c1.1,0.3,1.7,1.4,1.5,2.6l-0.2,1.3c-0.7,3.8-1.8,7.4-3.2,11l-4.7,11.9C30.6,44.4,29.7,44.8,28.9,44.6z"
			/>
		<path id="XMLID_2002_" class="st113" d="M29.6,43.7l2.9-12.5c0.9-3.7,2.1-7.4,3.6-10.9l0.5-1.2c0.4-0.9,1.3-1.4,2.2-1.3
			c-0.3-0.4-0.7-0.8-1.2-1c-1.1-0.3-2.3,0.2-2.7,1.2l-0.5,1.2c-1.5,3.5-2.8,7.1-3.6,10.9l-2.9,12.5c-0.2,0.8,0.3,1.7,1.1,1.9
			c0.2,0.1,0.5,0.1,0.7,0C29.5,44.4,29.5,44,29.6,43.7z"/>
		<path id="XMLID_2001_" class="st10" d="M28.9,44.6L28.9,44.6c-0.8-0.3-1.3-1.1-1.1-1.9l2.9-12.5c0.9-3.7,2.1-7.4,3.6-10.9l0.5-1.2
			c0.5-1,1.6-1.6,2.7-1.2l0,0c1.1,0.3,1.7,1.4,1.5,2.6l-0.2,1.3c-0.7,3.8-1.8,7.4-3.2,11l-4.7,11.9C30.6,44.4,29.7,44.8,28.9,44.6z"
			/>
		<path id="XMLID_2000_" class="st83" d="M38.8,19.4c0.3,0.1,0.6-0.1,0.6-0.4c0.1-0.9,0.2-2.4,0.5-3.3c0.2-0.8,0.7-1.5,1-2.1
			c0.2-0.4-0.1-0.8-0.6-1l-2.5-0.8c-0.6-0.2-1.1,0.1-1.1,0.5c0,0.6-0.1,1.5-0.3,2.3c-0.3,0.9-1,2.3-1.5,3c-0.2,0.3,0,0.6,0.3,0.7
			L38.8,19.4z"/>
		<path id="XMLID_1999_" class="st18" d="M36.4,18.3c0.4-0.7,1.2-2.1,1.5-3c0.2-0.8,0.3-1.7,0.3-2.3c0-0.4,0.5-0.6,1.1-0.5l1.6,0.5
			c-0.1-0.2-0.3-0.4-0.6-0.5l-2.5-0.8c-0.6-0.2-1.1,0.1-1.1,0.5c0,0.6-0.1,1.5-0.3,2.3c-0.3,0.9-1,2.3-1.5,3c-0.2,0.3,0,0.6,0.3,0.7
			l1.1,0.4C36.3,18.5,36.3,18.4,36.4,18.3z"/>
		<path id="XMLID_1995_" class="st10" d="M38.8,19.4c0.3,0.1,0.6-0.1,0.6-0.4c0.1-0.9,0.2-2.4,0.5-3.3c0.2-0.8,0.7-1.5,1-2.1
			c0.2-0.4-0.1-0.8-0.6-1l-2.5-0.8c-0.6-0.2-1.1,0.1-1.1,0.5c0,0.6-0.1,1.5-0.3,2.3c-0.3,0.9-1,2.3-1.5,3c-0.2,0.3,0,0.6,0.3,0.7
			L38.8,19.4z"/>
	</g>
</g>
</svg>
