<?xml version="1.0" encoding="utf-8"?>
<!-- Generator: Adobe Illustrator 21.1.0, SVG Export Plug-In . SVG Version: 6.00 Build 0)  -->
<svg version="1.1" xmlns="http://www.w3.org/2000/svg" xmlns:xlink="http://www.w3.org/1999/xlink" x="0px" y="0px"
	 viewBox="0 0 48 48" style="enable-background:new 0 0 48 48;" xml:space="preserve">
<style type="text/css">
	.st0{fill:#FFD4C3;stroke:#504B46;stroke-linecap:round;stroke-linejoin:round;stroke-miterlimit:10;}
	.st1{fill:#FFC258;}
	.st2{fill:#4F4B45;}
	.st3{fill:#FABFA5;}
	.st4{fill:none;stroke:#504B46;stroke-linecap:round;stroke-linejoin:round;stroke-miterlimit:10;}
	.Graphic_x0020_Style{opacity:0.15;fill:#45413C;}
	.st5{opacity:0.15;fill:#45413C;}
	.st6{fill:#DEBB7E;stroke:#45413C;stroke-linecap:round;stroke-linejoin:round;stroke-miterlimit:10;}
	.st7{fill:#F0D5A8;}
	.st8{fill:#F7E5C6;}
	.st9{fill:#DEBB7E;}
	.st10{fill:none;stroke:#45413C;stroke-linecap:round;stroke-linejoin:round;stroke-miterlimit:10;}
	.st11{fill:#FFE500;}
	.st12{fill:#EBCB00;}
	.st13{fill:none;stroke:#EBCB00;stroke-linecap:round;stroke-linejoin:round;stroke-miterlimit:10;}
	.st14{fill:#FF6242;stroke:#45413C;stroke-linecap:round;stroke-linejoin:round;stroke-miterlimit:10;}
	.st15{fill:#FFFFFF;stroke:#45413C;stroke-linecap:round;stroke-linejoin:round;stroke-miterlimit:10;}
	.st16{fill:#E5F8FF;}
	.st17{fill:#FFFFFF;}
	.st18{fill:#E8F4FA;}
	.st19{fill:#E8F4FA;stroke:#45413C;stroke-linecap:round;stroke-linejoin:round;stroke-miterlimit:10;}
	.st20{fill:#FFCCDD;}
	.st21{fill:#FFB0CA;stroke:#45413C;stroke-linecap:round;stroke-linejoin:round;stroke-miterlimit:10;}
	.st22{fill:#FF87AF;stroke:#45413C;stroke-linecap:round;stroke-linejoin:round;stroke-miterlimit:10;}
	.st23{fill:#E5F8FF;stroke:#45413C;stroke-linecap:round;stroke-linejoin:round;stroke-miterlimit:10;}
	.st24{fill:#BF8256;stroke:#45413C;stroke-linecap:round;stroke-linejoin:round;stroke-miterlimit:10;}
	.st25{fill:#9CEB60;}
	.st26{fill:#6DD627;}
	.st27{fill:#C8FFA1;}
	.st28{fill:#FFFACF;}
	.st29{fill:#FF87AF;}
	.st30{fill:#FFB0CA;}
	.st31{fill:#FF6196;}
	.st32{fill:#FFCCDD;stroke:#45413C;stroke-linecap:round;stroke-linejoin:round;stroke-miterlimit:10;}
	.st33{fill:#FF6196;stroke:#45413C;stroke-linecap:round;stroke-linejoin:round;stroke-miterlimit:10;}
	.st34{fill:#FFE5EE;}
	.st35{fill:#00B8F0;}
	.st36{fill:#4ACFFF;}
	.st37{fill:#BF8256;}
	.st38{fill:#DEA47A;}
	.st39{fill:#915E3A;}
	.st40{fill:#FFF5E3;}
	.st41{fill:#F0F0F0;}
	.st42{fill:#8CA4B8;}
	.st43{fill:#627B8C;}
	.st44{fill:#C0DCEB;}
	.st45{fill:#FFF48C;}
	.st46{fill:#FFE500;stroke:#45413C;stroke-linecap:round;stroke-linejoin:round;stroke-miterlimit:10;}
	.st47{fill:#FFAA54;}
	.st48{fill:#6DD627;stroke:#45413C;stroke-linecap:round;stroke-linejoin:round;stroke-miterlimit:10;}
	.st49{fill:#FF8A14;}
	.st50{fill:#FFCC99;}
	.st51{fill:#EBCB00;stroke:#45413C;stroke-linecap:round;stroke-linejoin:round;stroke-miterlimit:10;}
	.st52{fill:#00F5BC;stroke:#45413C;stroke-linecap:round;stroke-linejoin:round;stroke-miterlimit:10;}
	.st53{fill:#BF8DF2;stroke:#45413C;stroke-linecap:round;stroke-linejoin:round;stroke-miterlimit:10;}
	.st54{fill:#FF8A14;stroke:#45413C;stroke-linecap:round;stroke-linejoin:round;stroke-miterlimit:10;}
	.st55{fill:#4AEFF7;stroke:#45413C;stroke-linecap:round;stroke-linejoin:round;stroke-miterlimit:10;}
	.st56{fill:#FFF48C;stroke:#45413C;stroke-linecap:round;stroke-linejoin:round;stroke-miterlimit:10;}
	.st57{fill:#FF6242;}
	.st58{fill:#E04122;}
	.st59{fill:#46B000;}
	.st60{fill:none;stroke:#45413C;stroke-miterlimit:10;}
	.st61{fill:#00B8F0;stroke:#45413C;stroke-linecap:round;stroke-linejoin:round;stroke-miterlimit:10;}
	.st62{fill:#FF866E;}
	.st63{fill:#9F5AE5;stroke:#45413C;stroke-linecap:round;stroke-linejoin:round;stroke-miterlimit:10;}
	.st64{fill:#E4FFD1;}
	.st65{fill:#FFFEF2;}
	.st66{fill:#B89558;}
	.st67{fill:none;stroke:#915E3A;stroke-linecap:round;stroke-linejoin:round;stroke-miterlimit:10;}
	.st68{fill:#915E3A;stroke:#45413C;stroke-linecap:round;stroke-linejoin:round;stroke-miterlimit:10;}
	.st69{fill:#BF8DF2;}
	.st70{fill:#9F5AE5;}
	.st71{fill:#DABFF5;}
	.st72{fill:none;stroke:#45413C;stroke-linejoin:round;stroke-miterlimit:10;}
	.st73{fill:#656769;}
	.st74{fill:#87898C;}
	.st75{fill:#E0E0E0;}
	.st76{fill:#BDBEC0;}
	.st77{fill:#656769;stroke:#45413C;stroke-linecap:round;stroke-linejoin:round;stroke-miterlimit:10;}
	.st78{fill:#45413C;stroke:#45413C;stroke-linecap:round;stroke-linejoin:round;stroke-miterlimit:10;}
	.st79{fill:#FFA694;}
	.st80{fill:#E04122;stroke:#45413C;stroke-linecap:round;stroke-linejoin:round;stroke-miterlimit:10;}
	.st81{fill:#E0E0E0;stroke:#45413C;stroke-linecap:round;stroke-linejoin:round;stroke-miterlimit:10;}
	.st82{fill:#F0F0F0;stroke:#45413C;stroke-linecap:round;stroke-linejoin:round;stroke-miterlimit:10;}
	.st83{fill:#DAEDF7;}
	.st84{fill:#BDBEC0;stroke:#45413C;stroke-linecap:round;stroke-linejoin:round;stroke-miterlimit:10;}
	.st85{fill:#87898C;stroke:#45413C;stroke-linecap:round;stroke-linejoin:round;stroke-miterlimit:10;}
	.st86{fill:#00DFEB;}
	.st87{fill:#4AEFF7;}
	.st88{fill:#DAEDF7;stroke:#45413C;stroke-linecap:round;stroke-linejoin:round;stroke-miterlimit:10;}
	.st89{fill:#FFDA8F;}
	.st90{fill:#FFBE3D;}
	.st91{fill:#FFE9BD;}
	.st92{fill:#DEA47A;stroke:#45413C;stroke-linecap:round;stroke-linejoin:round;stroke-miterlimit:10;}
	.st93{fill:#45413C;}
	.st94{fill:#F0C2A1;}
	.st95{fill:none;stroke:#45413C;stroke-width:1.0064;stroke-linecap:round;stroke-linejoin:round;stroke-miterlimit:10;}
	.st96{fill:#525252;}
	.st97{fill:#EB6D00;stroke:#45413C;stroke-linecap:round;stroke-linejoin:round;stroke-miterlimit:10;}
	.st98{fill:#EB6D00;}
	.st99{fill:#E5FEFF;}
	.st100{fill:#FF866E;stroke:#45413C;stroke-linecap:round;stroke-linejoin:round;stroke-miterlimit:10;}
	.st101{fill:#627B8C;stroke:#45413C;stroke-linecap:round;stroke-linejoin:round;stroke-miterlimit:10;}
	.st102{fill:#FFFCE5;stroke:#45413C;stroke-linecap:round;stroke-linejoin:round;stroke-miterlimit:10;}
	.st103{fill:#A6FBFF;}
	.st104{fill:#D9FDFF;}
	.st105{fill:#FFFACF;stroke:#45413C;stroke-linecap:round;stroke-linejoin:round;stroke-miterlimit:10;}
	.st106{fill:#B8ECFF;}
	.st107{fill:#FFCABF;}
	.st108{fill:#E5FFF9;}
	.st109{fill:#C8FFA1;stroke:#45413C;stroke-linecap:round;stroke-linejoin:round;stroke-miterlimit:10;}
	.st110{fill:#4CF4FC;}
	.st111{fill:#F0D5A8;stroke:#45413C;stroke-linecap:round;stroke-linejoin:round;stroke-miterlimit:10;}
	.st112{fill:#FFDCD1;stroke:#45413C;stroke-linecap:round;stroke-linejoin:round;stroke-miterlimit:10;}
	.st113{fill:#80DDFF;}
	.st114{fill:#46B000;stroke:#45413C;stroke-linecap:round;stroke-linejoin:round;stroke-miterlimit:10;}
	.st115{fill:#4ACFFF;stroke:#45413C;stroke-linecap:round;stroke-linejoin:round;stroke-miterlimit:10;}
	.st116{fill:#ADC4D9;}
	.st117{fill:#BDBEC0;stroke:#45413C;stroke-width:1.0064;stroke-linecap:round;stroke-linejoin:round;stroke-miterlimit:10;}
	.st118{fill:#FFFCE5;}
	.st119{fill:#947746;}
	.st120{fill:#525252;stroke:#45413C;stroke-linecap:round;stroke-linejoin:round;stroke-miterlimit:10;}
</style>
<symbol  id="New_Symbol_14" viewBox="-6.5 -6.5 13 13">
	<path class="st0" d="M0-6c2.2,0,4.1,1.5,4.7,3.5c0,0,0,0,0,0C6.3-2.5,6.4,0,5,0v1c0,2.8-2.2,5-5,5c-2.8,0-5-2.2-5-5V0
		c-1.4,0-1.3-2.5,0.2-2.5c0,0,0,0,0,0C-4.1-4.5-2.2-6,0-6z"/>
	<g>
		<circle class="st1" cx="-1.6" cy="-0.1" r="0.1"/>
		<path class="st2" d="M-1.6,0.5c-0.3,0-0.6-0.3-0.6-0.6S-2-0.8-1.6-0.8C-1.3-0.8-1-0.5-1-0.1S-1.3,0.5-1.6,0.5L-1.6,0.5z"/>
	</g>
	<g>
		<circle class="st1" cx="1.6" cy="-0.1" r="0.1"/>
		<path class="st2" d="M1.6,0.5C1.3,0.5,1,0.2,1-0.1s0.3-0.6,0.6-0.6c0.3,0,0.6,0.3,0.6,0.6S2,0.5,1.6,0.5L1.6,0.5z"/>
	</g>
	<circle class="st3" cx="-3" cy="-1.5" r="0.5"/>
	<circle class="st3" cx="3" cy="-1.5" r="0.5"/>
	<path class="st4" d="M-1.2-3c0.8-0.5,1.7-0.5,2.5,0"/>
</symbol>
<g id="Bg">
</g>
<g id="Icons">
	<g id="XMLID_1985_">
		<ellipse id="XMLID_2012_" class="st5" cx="24.7" cy="44.4" rx="11.5" ry="1.5"/>
		<path id="XMLID_1241_" class="st87" d="M35,27.7c-0.3-3.4,4-5.5,4-5.5v-5c0,0-6.8-2.2-7-7c-0.2-4.1,6.1-5.8,11.2-7.1
			c0.6-0.1,0.5-1-0.1-1C37.7,2.2,28.4,2.9,21,5.7c-5.8,2.2-9,6-10.9,9.2c-1.3,2.3-3.3,4-5.8,5l-1.7,0.6C2.3,20.6,2,21,2,21.4v1
			c0,0.5,0.3,0.9,0.8,1l1.5,0.3c2.9,0.6,5.4,2.3,7.3,4.7c2.1,2.7,5.4,5.2,10.4,5.8c6.6,0.9,13.3-0.8,16.1-1.6
			c0.4-0.1,0.5-0.7,0.1-0.9C37,31.1,35.2,29.9,35,27.7z"/>
		<g id="XMLID_1238_">
			<path id="XMLID_1240_" class="st103" d="M2.8,23.4l1.5,0.3c0.1,0,0.2,0.1,0.4,0.1c2.3-0.9,4.2-2.6,5.5-4.8
				c1.8-3.2,5.1-7,10.9-9.2c4-1.5,8.5-2.4,12.7-2.9C35.8,5,39.8,4,43.2,3.1c0.6-0.1,0.5-1-0.1-1C37.7,2.2,28.4,2.9,21,5.7
				c-5.8,2.2-9,6-10.9,9.2c-1.3,2.3-3.3,4-5.8,5l-1.7,0.6C2.3,20.6,2,21,2,21.4v1C2,22.8,2.3,23.3,2.8,23.4z"/>
			<path id="XMLID_1239_" class="st103" d="M32.5,12.2c-0.4,0.6-0.6,1.3-0.5,2c0.2,4.8,7,7,7,7v-4.1C39,17.2,34.2,15.6,32.5,12.2z"
				/>
		</g>
		<path id="XMLID_1237_" class="st10" d="M35,27.7c-0.3-3.4,4-5.5,4-5.5v-5c0,0-6.8-2.2-7-7c-0.2-4.1,6.1-5.8,11.2-7.1
			c0.6-0.1,0.5-1-0.1-1C37.7,2.2,28.4,2.9,21,5.7c-5.8,2.2-9,6-10.9,9.2c-1.3,2.3-3.3,4-5.8,5l-1.7,0.6C2.3,20.6,2,21,2,21.4v1
			c0,0.5,0.3,0.9,0.8,1l1.5,0.3c2.9,0.6,5.4,2.3,7.3,4.7c2.1,2.7,5.4,5.2,10.4,5.8c6.6,0.9,13.3-0.8,16.1-1.6
			c0.4-0.1,0.5-0.7,0.1-0.9C37,31.1,35.2,29.9,35,27.7z"/>
		<path id="XMLID_1236_" class="st41" d="M30.9,34.1c-1.1-2.7-2.4-7.3-2.4-13.9c0-7.8,1.6-13.9,2.6-17.1c-1.4,0.2-2.9,0.5-4.3,0.8
			c-0.9,3.1-2.3,9.2-2.3,16.2c0,5.9,1.2,11,2.1,14.2C28.1,34.4,29.6,34.3,30.9,34.1z"/>
		<g id="XMLID_39_">
			<path id="XMLID_1235_" class="st17" d="M31.1,3.1c-0.4,1.1-0.8,2.5-1.2,4.3c-1.4,0.2-2.8,0.5-4.2,0.9c0.4-1.8,0.7-3.2,1-4.3
				C28.2,3.6,29.7,3.4,31.1,3.1z"/>
		</g>
		<path id="XMLID_15_" class="st10" d="M30.9,34.1c-1.1-2.7-2.4-7.3-2.4-13.9c0-7.8,1.6-13.9,2.6-17.1c-1.4,0.2-2.9,0.5-4.3,0.8
			c-0.9,3.1-2.3,9.2-2.3,16.2c0,5.9,1.2,11,2.1,14.2C28.1,34.4,29.6,34.3,30.9,34.1z"/>
		<path id="XMLID_14_" class="st11" d="M21.5,33.2c-1.2-5.9-1.5-8.4-1-15C20.8,13.7,21.4,8.7,23,5c-0.7,0.2-1.4,0.4-2,0.7
			c-2,0.8-3.7,1.7-5.1,2.8c-0.7,2.8-1.4,6.9-1.4,12.2c0,10,2,15.2,6,18c2.4,1.7,4.4,2.3,5.9,2.5c0.5,0.1,0.8-0.6,0.3-0.9
			C24.9,39.1,22.3,36.9,21.5,33.2z"/>
		<g id="XMLID_12_">
			<path id="XMLID_13_" class="st45" d="M23,5c-0.6,1.4-1.1,2.9-1.4,4.6c-0.2,0.1-0.4,0.1-0.6,0.2c-2.4,0.9-4.4,2.1-6,3.5
				c0.2-1.9,0.6-3.5,0.9-4.8c1.4-1.1,3.1-2,5.1-2.8C21.7,5.4,22.3,5.2,23,5z"/>
		</g>
		<path id="XMLID_11_" class="st10" d="M21.5,33.2c-1.2-5.9-1.5-8.4-1-15C20.8,13.7,21.4,8.7,23,5c-0.7,0.2-1.4,0.4-2,0.7
			c-2,0.8-3.7,1.7-5.1,2.8c-0.7,2.8-1.4,6.9-1.4,12.2c0,10,2,15.2,6,18c2.4,1.7,4.4,2.3,5.9,2.5c0.5,0.1,0.8-0.6,0.3-0.9
			C24.9,39.1,22.3,36.9,21.5,33.2z"/>
		<path id="XMLID_10_" class="st11" d="M39,17.2c1.9,0.4,3.8-3.6,5-4c1.2-0.4,2,2.3,2,6c0,2.8-0.2,6.1-1.5,6c-1.5-0.1-2.7-4.3-5.5-3
			V17.2z"/>
		<path id="XMLID_9_" class="st45" d="M45.3,15.3c0.1,0,0.2,0,0.3,0c-0.4-1.5-0.9-2.3-1.6-2.1c-1.2,0.4-3.1,4.4-5,4v2.1
			C41.4,19.7,43.8,15.7,45.3,15.3z"/>
		<path id="XMLID_8_" class="st10" d="M39,17.2c1.9,0.4,3.8-3.6,5-4c1.2-0.4,2,2.3,2,6c0,2.8-0.2,6.1-1.5,6c-1.5-0.1-2.7-4.3-5.5-3
			V17.2z"/>
		<circle id="XMLID_7_" class="st93" cx="12.1" cy="19.1" r="1.1"/>
		<circle id="XMLID_6_" class="st28" cx="16.9" cy="23.1" r="1.3"/>
		<path id="XMLID_5_" class="st46" d="M42,18.2c0,0,2.1-0.1,3.5-1"/>
		<path id="XMLID_4_" class="st46" d="M42,20.2c0,0,2.2,0,3.5,1"/>
	</g>
</g>
</svg>
