<?xml version="1.0" encoding="utf-8"?>
<!-- Generator: Adobe Illustrator 21.1.0, SVG Export Plug-In . SVG Version: 6.00 Build 0)  -->
<svg version="1.1" xmlns="http://www.w3.org/2000/svg" xmlns:xlink="http://www.w3.org/1999/xlink" x="0px" y="0px"
	 viewBox="0 0 48 48" style="enable-background:new 0 0 48 48;" xml:space="preserve">
<style type="text/css">
	.st0{fill:#FFD4C3;stroke:#504B46;stroke-linecap:round;stroke-linejoin:round;stroke-miterlimit:10;}
	.st1{fill:#FFC258;}
	.st2{fill:#4F4B45;}
	.st3{fill:#FABFA5;}
	.st4{fill:none;stroke:#504B46;stroke-linecap:round;stroke-linejoin:round;stroke-miterlimit:10;}
	.Graphic_x0020_Style{opacity:0.15;fill:#45413C;}
	.st5{opacity:0.15;fill:#45413C;}
	.st6{fill:#DEBB7E;stroke:#45413C;stroke-linecap:round;stroke-linejoin:round;stroke-miterlimit:10;}
	.st7{fill:#F0D5A8;}
	.st8{fill:#F7E5C6;}
	.st9{fill:#DEBB7E;}
	.st10{fill:none;stroke:#45413C;stroke-linecap:round;stroke-linejoin:round;stroke-miterlimit:10;}
	.st11{fill:#FFE500;}
	.st12{fill:#EBCB00;}
	.st13{fill:none;stroke:#EBCB00;stroke-linecap:round;stroke-linejoin:round;stroke-miterlimit:10;}
	.st14{fill:#FF6242;stroke:#45413C;stroke-linecap:round;stroke-linejoin:round;stroke-miterlimit:10;}
	.st15{fill:#FFFFFF;stroke:#45413C;stroke-linecap:round;stroke-linejoin:round;stroke-miterlimit:10;}
	.st16{fill:#E5F8FF;}
	.st17{fill:#FFFFFF;}
	.st18{fill:#E8F4FA;}
	.st19{fill:#E8F4FA;stroke:#45413C;stroke-linecap:round;stroke-linejoin:round;stroke-miterlimit:10;}
	.st20{fill:#FFCCDD;}
	.st21{fill:#FFB0CA;stroke:#45413C;stroke-linecap:round;stroke-linejoin:round;stroke-miterlimit:10;}
	.st22{fill:#FF87AF;stroke:#45413C;stroke-linecap:round;stroke-linejoin:round;stroke-miterlimit:10;}
	.st23{fill:#E5F8FF;stroke:#45413C;stroke-linecap:round;stroke-linejoin:round;stroke-miterlimit:10;}
	.st24{fill:#BF8256;stroke:#45413C;stroke-linecap:round;stroke-linejoin:round;stroke-miterlimit:10;}
	.st25{fill:#9CEB60;}
	.st26{fill:#6DD627;}
	.st27{fill:#C8FFA1;}
	.st28{fill:#FFFACF;}
	.st29{fill:#FF87AF;}
	.st30{fill:#FFB0CA;}
	.st31{fill:#FF6196;}
	.st32{fill:#FFCCDD;stroke:#45413C;stroke-linecap:round;stroke-linejoin:round;stroke-miterlimit:10;}
	.st33{fill:#FF6196;stroke:#45413C;stroke-linecap:round;stroke-linejoin:round;stroke-miterlimit:10;}
	.st34{fill:#FFE5EE;}
	.st35{fill:#00B8F0;}
	.st36{fill:#4ACFFF;}
	.st37{fill:#BF8256;}
	.st38{fill:#DEA47A;}
	.st39{fill:#915E3A;}
	.st40{fill:#FFF5E3;}
	.st41{fill:#F0F0F0;}
	.st42{fill:#8CA4B8;}
	.st43{fill:#627B8C;}
	.st44{fill:#C0DCEB;}
	.st45{fill:#FFF48C;}
	.st46{fill:#FFE500;stroke:#45413C;stroke-linecap:round;stroke-linejoin:round;stroke-miterlimit:10;}
	.st47{fill:#FFAA54;}
	.st48{fill:#6DD627;stroke:#45413C;stroke-linecap:round;stroke-linejoin:round;stroke-miterlimit:10;}
	.st49{fill:#FF8A14;}
	.st50{fill:#FFCC99;}
	.st51{fill:#EBCB00;stroke:#45413C;stroke-linecap:round;stroke-linejoin:round;stroke-miterlimit:10;}
	.st52{fill:#00F5BC;stroke:#45413C;stroke-linecap:round;stroke-linejoin:round;stroke-miterlimit:10;}
	.st53{fill:#BF8DF2;stroke:#45413C;stroke-linecap:round;stroke-linejoin:round;stroke-miterlimit:10;}
	.st54{fill:#FF8A14;stroke:#45413C;stroke-linecap:round;stroke-linejoin:round;stroke-miterlimit:10;}
	.st55{fill:#4AEFF7;stroke:#45413C;stroke-linecap:round;stroke-linejoin:round;stroke-miterlimit:10;}
	.st56{fill:#FFF48C;stroke:#45413C;stroke-linecap:round;stroke-linejoin:round;stroke-miterlimit:10;}
	.st57{fill:#FF6242;}
	.st58{fill:#E04122;}
	.st59{fill:#46B000;}
	.st60{fill:none;stroke:#45413C;stroke-miterlimit:10;}
	.st61{fill:#00B8F0;stroke:#45413C;stroke-linecap:round;stroke-linejoin:round;stroke-miterlimit:10;}
	.st62{fill:#FF866E;}
	.st63{fill:#9F5AE5;stroke:#45413C;stroke-linecap:round;stroke-linejoin:round;stroke-miterlimit:10;}
	.st64{fill:#E4FFD1;}
	.st65{fill:#FFFEF2;}
	.st66{fill:#B89558;}
	.st67{fill:none;stroke:#915E3A;stroke-linecap:round;stroke-linejoin:round;stroke-miterlimit:10;}
	.st68{fill:#915E3A;stroke:#45413C;stroke-linecap:round;stroke-linejoin:round;stroke-miterlimit:10;}
	.st69{fill:#BF8DF2;}
	.st70{fill:#9F5AE5;}
	.st71{fill:#DABFF5;}
	.st72{fill:none;stroke:#45413C;stroke-linejoin:round;stroke-miterlimit:10;}
	.st73{fill:#656769;}
	.st74{fill:#87898C;}
	.st75{fill:#E0E0E0;}
	.st76{fill:#BDBEC0;}
	.st77{fill:#656769;stroke:#45413C;stroke-linecap:round;stroke-linejoin:round;stroke-miterlimit:10;}
	.st78{fill:#45413C;stroke:#45413C;stroke-linecap:round;stroke-linejoin:round;stroke-miterlimit:10;}
	.st79{fill:#FFA694;}
	.st80{fill:#E04122;stroke:#45413C;stroke-linecap:round;stroke-linejoin:round;stroke-miterlimit:10;}
	.st81{fill:#E0E0E0;stroke:#45413C;stroke-linecap:round;stroke-linejoin:round;stroke-miterlimit:10;}
	.st82{fill:#F0F0F0;stroke:#45413C;stroke-linecap:round;stroke-linejoin:round;stroke-miterlimit:10;}
	.st83{fill:#DAEDF7;}
	.st84{fill:#BDBEC0;stroke:#45413C;stroke-linecap:round;stroke-linejoin:round;stroke-miterlimit:10;}
	.st85{fill:#87898C;stroke:#45413C;stroke-linecap:round;stroke-linejoin:round;stroke-miterlimit:10;}
	.st86{fill:#00DFEB;}
	.st87{fill:#4AEFF7;}
	.st88{fill:#DAEDF7;stroke:#45413C;stroke-linecap:round;stroke-linejoin:round;stroke-miterlimit:10;}
	.st89{fill:#FFDA8F;}
	.st90{fill:#FFBE3D;}
	.st91{fill:#FFE9BD;}
	.st92{fill:#DEA47A;stroke:#45413C;stroke-linecap:round;stroke-linejoin:round;stroke-miterlimit:10;}
	.st93{fill:#45413C;}
	.st94{fill:#F0C2A1;}
	.st95{fill:none;stroke:#45413C;stroke-width:1.0064;stroke-linecap:round;stroke-linejoin:round;stroke-miterlimit:10;}
	.st96{fill:#525252;}
	.st97{fill:#EB6D00;stroke:#45413C;stroke-linecap:round;stroke-linejoin:round;stroke-miterlimit:10;}
	.st98{fill:#EB6D00;}
	.st99{fill:#E5FEFF;}
	.st100{fill:#FF866E;stroke:#45413C;stroke-linecap:round;stroke-linejoin:round;stroke-miterlimit:10;}
	.st101{fill:#627B8C;stroke:#45413C;stroke-linecap:round;stroke-linejoin:round;stroke-miterlimit:10;}
	.st102{fill:#FFFCE5;stroke:#45413C;stroke-linecap:round;stroke-linejoin:round;stroke-miterlimit:10;}
	.st103{fill:#A6FBFF;}
	.st104{fill:#D9FDFF;}
	.st105{fill:#FFFACF;stroke:#45413C;stroke-linecap:round;stroke-linejoin:round;stroke-miterlimit:10;}
	.st106{fill:#B8ECFF;}
	.st107{fill:#FFCABF;}
	.st108{fill:#E5FFF9;}
	.st109{fill:#C8FFA1;stroke:#45413C;stroke-linecap:round;stroke-linejoin:round;stroke-miterlimit:10;}
	.st110{fill:#4CF4FC;}
	.st111{fill:#F0D5A8;stroke:#45413C;stroke-linecap:round;stroke-linejoin:round;stroke-miterlimit:10;}
	.st112{fill:#FFDCD1;stroke:#45413C;stroke-linecap:round;stroke-linejoin:round;stroke-miterlimit:10;}
	.st113{fill:#80DDFF;}
	.st114{fill:#46B000;stroke:#45413C;stroke-linecap:round;stroke-linejoin:round;stroke-miterlimit:10;}
	.st115{fill:#4ACFFF;stroke:#45413C;stroke-linecap:round;stroke-linejoin:round;stroke-miterlimit:10;}
	.st116{fill:#ADC4D9;}
	.st117{fill:#BDBEC0;stroke:#45413C;stroke-width:1.0064;stroke-linecap:round;stroke-linejoin:round;stroke-miterlimit:10;}
	.st118{fill:#FFFCE5;}
	.st119{fill:#947746;}
	.st120{fill:#525252;stroke:#45413C;stroke-linecap:round;stroke-linejoin:round;stroke-miterlimit:10;}
</style>
<symbol  id="New_Symbol_14" viewBox="-6.5 -6.5 13 13">
	<path class="st0" d="M0-6c2.2,0,4.1,1.5,4.7,3.5c0,0,0,0,0,0C6.3-2.5,6.4,0,5,0v1c0,2.8-2.2,5-5,5c-2.8,0-5-2.2-5-5V0
		c-1.4,0-1.3-2.5,0.2-2.5c0,0,0,0,0,0C-4.1-4.5-2.2-6,0-6z"/>
	<g>
		<circle class="st1" cx="-1.6" cy="-0.1" r="0.1"/>
		<path class="st2" d="M-1.6,0.5c-0.3,0-0.6-0.3-0.6-0.6S-2-0.8-1.6-0.8C-1.3-0.8-1-0.5-1-0.1S-1.3,0.5-1.6,0.5L-1.6,0.5z"/>
	</g>
	<g>
		<circle class="st1" cx="1.6" cy="-0.1" r="0.1"/>
		<path class="st2" d="M1.6,0.5C1.3,0.5,1,0.2,1-0.1s0.3-0.6,0.6-0.6c0.3,0,0.6,0.3,0.6,0.6S2,0.5,1.6,0.5L1.6,0.5z"/>
	</g>
	<circle class="st3" cx="-3" cy="-1.5" r="0.5"/>
	<circle class="st3" cx="3" cy="-1.5" r="0.5"/>
	<path class="st4" d="M-1.2-3c0.8-0.5,1.7-0.5,2.5,0"/>
</symbol>
<g id="Bg">
</g>
<g id="Icons">
	<g id="XMLID_1884_">
		<ellipse id="XMLID_1264_" class="st5" cx="33.7" cy="44.9" rx="11.5" ry="1.5"/>
		<path id="XMLID_2848_" class="st115" d="M17.2,23l-3.6,1.6c-0.5,0.2-0.9,0.7-0.9,1.3l0,0c0,0.8,0.6,1.5,1.4,1.5l0,0
			c0.6,0,1.1-0.3,1.4-0.8l1.8-3.5C17.4,23.1,17.3,23,17.2,23z"/>
		<path id="XMLID_2847_" class="st115" d="M9.7,30.3l-3.2,2.2c-0.5,0.3-0.7,0.9-0.6,1.5l0,0c0.1,0.8,0.9,1.4,1.7,1.2l0,0
			c0.6-0.1,1-0.5,1.2-1l1.1-3.7C9.8,30.3,9.7,30.2,9.7,30.3z"/>
		<path id="XMLID_2846_" class="st115" d="M14.3,18l-3.8,0.8c-0.6,0.1-1,0.5-1.1,1.1l0,0c-0.2,0.8,0.3,1.6,1.1,1.8l0,0
			c0.6,0.1,1.1-0.1,1.5-0.5l2.5-3C14.4,18.1,14.4,18,14.3,18z"/>
		<path id="XMLID_2845_" class="st115" d="M5.7,23.7l-3.6,1.5c-0.5,0.2-0.9,0.7-0.9,1.3l0,0c0,0.8,0.6,1.5,1.4,1.6l0,0
			c0.6,0,1.1-0.3,1.4-0.8l1.8-3.4C5.8,23.8,5.8,23.7,5.7,23.7z"/>
		<path id="XMLID_2844_" class="st115" d="M21.8,27.1l-3.3,2.1c-0.5,0.3-0.7,0.9-0.7,1.4l0,0c0.1,0.8,0.8,1.4,1.7,1.3l0,0
			c0.6-0.1,1-0.5,1.2-1l1.2-3.7C21.9,27.1,21.9,27,21.8,27.1z"/>
		<path id="XMLID_2843_" class="st115" d="M15.9,35.9l-2.8,2.7c-0.4,0.4-0.6,1-0.4,1.5l0,0c0.3,0.8,1.1,1.2,1.9,0.9l0,0
			c0.5-0.2,0.9-0.7,1-1.2l0.4-3.9C16.1,35.9,16,35.8,15.9,35.9z"/>
		<path id="XMLID_2842_" class="st115" d="M27.1,29.3L24.3,32c-0.4,0.4-0.6,1-0.4,1.5l0,0c0.3,0.8,1.1,1.2,1.9,0.9l0,0
			c0.5-0.2,0.9-0.7,1-1.2l0.5-3.9C27.2,29.3,27.1,29.2,27.1,29.3z"/>
		<path id="XMLID_2841_" class="st115" d="M23.1,39.4l-2.4,3.1c-0.4,0.5-0.4,1.1-0.1,1.6l0,0c0.4,0.7,1.3,1,2,0.6l0,0
			c0.5-0.3,0.8-0.8,0.8-1.4l-0.1-3.9C23.3,39.4,23.2,39.3,23.1,39.4z"/>
		<g id="XMLID_2828_">
			<path id="XMLID_2840_" class="st44" d="M37,10.7L37,10.7c0.3-0.3,0.3-0.7,0-1l-2.8-2.8c-0.3-0.3-0.7-0.3-1,0l0,0
				c-0.8,0.8-1.9,1.3-3,1.3H19.5L36,24.7l-0.2-10.8C35.8,12.7,36.2,11.5,37,10.7z"/>
			<path id="XMLID_2839_" class="st83" d="M31.2,10.1c1.3-0.1,2.5-0.7,3.5-1.7l0,0c0.2-0.2,0.4-0.3,0.7-0.3l-1.2-1.2
				c-0.3-0.3-0.7-0.3-1,0l0,0c-0.8,0.8-1.9,1.3-3,1.3H19.5l2.8,2.8L31.2,10.1z"/>
			<path id="XMLID_2838_" class="st10" d="M37,10.7L37,10.7c0.3-0.3,0.3-0.7,0-1l-2.8-2.8c-0.3-0.3-0.7-0.3-1,0l0,0
				c-0.8,0.8-1.9,1.3-3,1.3H19.5L36,24.7l-0.2-10.8C35.8,12.7,36.2,11.5,37,10.7z"/>
			<path id="XMLID_2837_" class="st18" d="M34.2,27L17.1,9.9c-0.1-0.1-0.1-0.4,0-0.5l1.6-1.6c0.1-0.1,0.4-0.1,0.5,0l17.1,17.1
				c0.1,0.1,0.1,0.4,0,0.5L34.7,27C34.6,27.1,34.3,27.1,34.2,27z"/>
			<path id="XMLID_2836_" class="st17" d="M23.8,12.5l-4.6-4.6c-0.1-0.1-0.4-0.1-0.5,0l-1.6,1.6c-0.1,0.1-0.1,0.4,0,0.5l4.6,4.6
				L23.8,12.5z"/>
			<path id="XMLID_2835_" class="st10" d="M34.2,27L17.1,9.9c-0.1-0.1-0.1-0.4,0-0.5l1.6-1.6c0.1-0.1,0.4-0.1,0.5,0l17.1,17.1
				c0.1,0.1,0.1,0.4,0,0.5L34.7,27C34.6,27.1,34.3,27.1,34.2,27z"/>
			<path id="XMLID_2834_" class="st116" d="M31.9,27.2l-15-15c-0.3-0.3-0.3-0.7,0-1l0.8-0.8l16,16l-0.8,0.8
				C32.6,27.5,32.1,27.5,31.9,27.2z"/>
			<path id="XMLID_2833_" class="st44" d="M18.6,13c-0.2,0.2-0.3,0.6-0.1,0.9l-1.6-1.6c-0.3-0.3-0.3-0.7,0-1l0.8-0.8l1.8,1.8
				L18.6,13z"/>
			<path id="XMLID_2832_" class="st10" d="M31.9,27.2l-15-15c-0.3-0.3-0.3-0.7,0-1l0.8-0.8l16,16l-0.8,0.8
				C32.6,27.5,32.1,27.5,31.9,27.2z"/>
			<path id="XMLID_2831_" class="st18" d="M46.8,4l0-1.4c0-0.5-0.4-0.9-0.9-0.9l-3.1,0c-1.9,0-3.7,0.7-5,2.1l-3.4,3.4l2.3,2.3
				L40,6.1c0.8-0.8,1.8-1.2,2.9-1.2l2.9,0C46.4,4.9,46.8,4.5,46.8,4z"/>
			<path id="XMLID_2830_" class="st17" d="M37.8,5.3c1.3-1.3,3.1-2.1,5-2.1l3.1,0c0.5,0,0.9,0.4,0.9,0.8c0,0,0-0.1,0-0.1V2.6
				c0-0.5-0.4-0.9-0.9-0.9l-3.1,0c-1.9,0-3.7,0.7-5,2.1l-3.4,3.4l0.8,0.8L37.8,5.3z"/>
			<path id="XMLID_2829_" class="st10" d="M46.8,4l0-1.4c0-0.5-0.4-0.9-0.9-0.9l-3.1,0c-1.9,0-3.7,0.7-5,2.1l-3.4,3.4l2.3,2.3
				L40,6.1c0.8-0.8,1.8-1.2,2.9-1.2l2.9,0C46.4,4.9,46.8,4.5,46.8,4z"/>
		</g>
	</g>
</g>
</svg>
