<?xml version="1.0" encoding="UTF-8" standalone="no"?>
<!-- Created with Inkscape (http://www.inkscape.org/) -->

<svg
   xmlns:dc="http://purl.org/dc/elements/1.1/"
   xmlns:cc="http://creativecommons.org/ns#"
   xmlns:rdf="http://www.w3.org/1999/02/22-rdf-syntax-ns#"
   xmlns:svg="http://www.w3.org/2000/svg"
   xmlns="http://www.w3.org/2000/svg"
   xmlns:sodipodi="http://sodipodi.sourceforge.net/DTD/sodipodi-0.dtd"
   xmlns:inkscape="http://www.inkscape.org/namespaces/inkscape"
   width="210mm"
   height="210mm"
   viewBox="0 0 744.09449 744.09448"
   id="svg2"
   version="1.1"
   inkscape:version="0.91 r13725"
   sodipodi:docname="logo.svg">
  <defs
     id="defs4" />
  <sodipodi:namedview
     id="base"
     pagecolor="#ffffff"
     bordercolor="#666666"
     borderopacity="1.0"
     inkscape:pageopacity="0.0"
     inkscape:pageshadow="2"
     inkscape:zoom="0.52734375"
     inkscape:cx="61.322387"
     inkscape:cy="138.80459"
     inkscape:document-units="px"
     inkscape:current-layer="layer1"
     showgrid="false"
     inkscape:window-width="1920"
     inkscape:window-height="1017"
     inkscape:window-x="0"
     inkscape:window-y="30"
     inkscape:window-maximized="1"
     showguides="false" />
  <metadata
     id="metadata7">
    <rdf:RDF>
      <cc:Work
         rdf:about="">
        <dc:format>image/svg+xml</dc:format>
        <dc:type
           rdf:resource="http://purl.org/dc/dcmitype/StillImage" />
        <dc:title />
      </cc:Work>
    </rdf:RDF>
  </metadata>
  <g
     inkscape:label="Layer 1"
     inkscape:groupmode="layer"
     id="layer1"
     transform="translate(0,-308.26772)">
    <path
       id="path4288"
       d="m 567.47703,693.93223 -247.9844,147.49609 -99.5957,59.23829 0.01,0.008 c -10.3355,5.51776 -17.3399,16.39767 -17.3399,28.97656 0,18.19071 14.6433,32.83399 32.834,32.83399 l 1.7051,0 c 5.1629,0 10.0391,-1.18148 14.3769,-3.28711 l 0.1055,0.19335 101.9883,-60.6621 251.4961,-149.58399 67.4453,-40.11523 -0.2227,0 -38.2402,22.73828 -66.5742,-37.83594 z m -328.6797,202.92578 c 1.1224,0.0565 2.2291,0.16846 3.3184,0.33399 -1.0893,-0.16552 -2.196,-0.27746 -3.3184,-0.33399 z m -5.3008,0.0156 c -0.2186,0.0124 -0.4349,0.0322 -0.6523,0.0488 0.2174,-0.0166 0.4337,-0.0364 0.6523,-0.0488 z m -1.9375,0.16992 c -0.2043,0.0236 -0.4082,0.0508 -0.6113,0.0781 0.2033,-0.0274 0.4068,-0.0544 0.6113,-0.0781 z m -2,0.29492 c -0.1562,0.0278 -0.3133,0.052 -0.4687,0.082 0.1554,-0.0301 0.3125,-0.0541 0.4687,-0.082 z m -2.1015,0.44141 c -0.072,0.0179 -0.1465,0.0324 -0.2188,0.0508 0.072,-0.0184 0.1463,-0.0329 0.2188,-0.0508 z m -2.0704,0.58203 c -0.049,0.0156 -0.097,0.033 -0.1464,0.0488 0.049,-0.0159 0.097,-0.0332 0.1464,-0.0488 z m -1.7714,0.62305 c -0.1055,0.0403 -0.2096,0.0836 -0.3145,0.125 0.105,-0.0414 0.209,-0.0846 0.3145,-0.125 z m -1.7696,0.73828 c -0.1,0.045 -0.1997,0.0888 -0.2988,0.13476 0.099,-0.046 0.1992,-0.0897 0.2988,-0.13476 z m 47.7149,24.91406 c 0.1655,1.08927 0.2774,2.19597 0.334,3.31836 -0.057,-1.12239 -0.1685,-2.2291 -0.334,-3.31836 z m 0.2988,7.17578 c -0.013,0.19407 -0.029,0.38697 -0.045,0.58008 0.016,-0.19304 0.032,-0.38609 0.045,-0.58008 z m -0.2324,2.32227 c -0.018,0.13501 -0.031,0.27177 -0.051,0.40625 0.02,-0.13438 0.033,-0.27134 0.051,-0.40625 z m -0.4239,2.45312 c -0.035,0.16392 -0.076,0.3253 -0.1132,0.48828 0.037,-0.16276 0.078,-0.32459 0.1132,-0.48828 z m -0.541,2.15234 c -0.038,0.13461 -0.073,0.27042 -0.1132,0.4043 0.04,-0.13383 0.075,-0.26975 0.1132,-0.4043 z m -0.7715,2.375 c -0.041,0.11041 -0.087,0.21829 -0.1289,0.32813 0.042,-0.10986 0.088,-0.21769 0.1289,-0.32813 z m -0.8027,1.95508 c -0.066,0.14881 -0.1326,0.2977 -0.2012,0.44531 0.069,-0.14761 0.1348,-0.2965 0.2012,-0.44531 z m -2.166,4.06055 c -0.082,0.13103 -0.1659,0.26085 -0.25,0.39062 0.084,-0.12966 0.1678,-0.25969 0.25,-0.39062 z m -2.6875,3.68555 c -0.092,0.10884 -0.1862,0.21464 -0.2793,0.32226 0.093,-0.10754 0.1877,-0.2135 0.2793,-0.32226 z m -1.5137,1.67578 c -0.056,0.0583 -0.1111,0.11792 -0.1679,0.17578 0.057,-0.0578 0.1116,-0.11752 0.1679,-0.17578 z m -1.6914,1.63281 c -0.059,0.053 -0.1201,0.1037 -0.1797,0.15625 0.059,-0.0525 0.1207,-0.10334 0.1797,-0.15625 z m -1.6347,1.36523 c -0.087,0.0685 -0.1738,0.13748 -0.2618,0.20508 0.088,-0.0676 0.1746,-0.13663 0.2618,-0.20508 z m -3.7442,2.54297 c -0.1097,0.0639 -0.2196,0.12683 -0.3301,0.18946 0.1104,-0.0626 0.2205,-0.12563 0.3301,-0.18946 z"
       style="fill:#990000;stroke:none;fill-opacity:1"
       inkscape:connector-curvature="0" />
    <path
       id="path4290"
       d="m 151.77003,380.98887 -32.9415,57.96289 130.4102,74.11524 254.4023,144.58593 130.4102,74.11524 42.7461,-25.41797 c 5.2965,-2.15051 9.0156,-7.32967 9.0156,-13.41602 0,-5.19431 -2.715,-9.71974 -6.8008,-12.27539 0,-0.005 0.01,-0.0103 0.01,-0.0156 l -0.5449,-0.31055 -0.035,-0.0195 c -0.096,-0.0539 -0.1881,-0.11233 -0.2851,-0.16406 -0.3226,-0.17201 -0.6555,-0.32882 -0.9922,-0.47656 0.337,0.14801 0.6693,0.30441 0.9922,0.47656 L 569.58053,618.442 282.18013,455.10411 151.77003,380.98887 Z m 518.8066,297.45899 c -2.0062,0 -3.9143,0.40371 -5.6484,1.13476 1.734,-0.73115 3.6422,-1.13476 5.6484,-1.13476 z m 0.7519,0 c 0.4567,0 0.9061,0.0272 1.3516,0.0684 -0.4456,-0.0409 -0.8949,-0.0684 -1.3516,-0.0684 z m 1.5782,0.0898 c 0.4345,0.047 0.8633,0.11094 1.2851,0.19531 -0.4218,-0.084 -0.8507,-0.14859 -1.2851,-0.19531 z m 1.4707,0.23633 c 0.3722,0.0796 0.7387,0.17383 1.0996,0.28125 -0.361,-0.10708 -0.7273,-0.20202 -1.0996,-0.28125 z m 1.3418,0.35156 c 0.3629,0.11496 0.7185,0.24669 1.0683,0.38867 -0.3502,-0.14191 -0.7049,-0.27391 -1.0683,-0.38867 z m -12.0586,1.06641 c -0.8211,0.44495 -1.5938,0.96717 -2.3086,1.55664 0.7148,-0.58954 1.4875,-1.11163 2.3086,-1.55664 z m 9.1191,27.15429 c -0.4769,0.0477 -0.9611,0.0723 -1.4512,0.0723 0.4904,0 0.9737,-0.0251 1.4512,-0.0723 z"
       style="fill:#ff0000;stroke:none;fill-opacity:1"
       inkscape:connector-curvature="0" />
    <path
       id="path4292"
       d="m 117.30903,364.01035 c -8.0248,0 -14.4863,6.45959 -14.4863,14.48438 0,1.21928 0.1642,2.39747 0.4453,3.52734 l -0.2461,0 0,121.19336 0,330.57227 0,115.74805 0.016,0 c -0.026,0.54012 -0.039,1.08199 -0.039,1.6289 0,18.005 14.495,32.5 32.5,32.5 l 1.6875,0 c 18.005,0 32.5,-14.495 32.5,-32.5 0,-0.54691 -0.015,-1.08878 -0.041,-1.6289 l 0.047,0 0,-115.74805 0,-292.61914 0,-150 -44.7734,-25.48828 0,0.0449 c 0.01,0.004 0.014,0.008 0.022,0.0117 -2.0447,-1.1008 -4.3852,-1.72657 -6.8789,-1.72657 l -0.752,0 z m 7.8067,1.82813 c 0.2967,0.16517 0.5858,0.3424 0.8691,0.52734 -0.2833,-0.18499 -0.5724,-0.36214 -0.8691,-0.52734 z m 1.2285,0.76953 c 0.2717,0.18926 0.5373,0.38675 0.7949,0.59375 -0.2574,-0.20682 -0.5235,-0.40465 -0.7949,-0.59375 z m 0.9824,0.74023 c 0.2984,0.24792 0.582,0.51046 0.8594,0.78125 -0.2771,-0.27055 -0.5613,-0.53354 -0.8594,-0.78125 z m 1.1328,1.0586 c 0.2266,0.23346 0.4458,0.47431 0.6563,0.72265 -0.2106,-0.24848 -0.4296,-0.48906 -0.6563,-0.72265 z m 0.8242,0.91406 c 0.253,0.30931 0.4898,0.63094 0.7168,0.96094 -0.227,-0.3301 -0.4638,-0.65154 -0.7168,-0.96094 z m 0.9043,1.24609 c 0.1789,0.27366 0.3494,0.55365 0.5098,0.83985 -0.1603,-0.28607 -0.331,-0.5663 -0.5098,-0.83985 z m 0.6582,1.10157 c 0.1898,0.35587 0.3633,0.72073 0.5235,1.09375 -0.1602,-0.37321 -0.3336,-0.73769 -0.5235,-1.09375 z m 0.6387,1.38281 c 0.1215,0.30077 0.2344,0.60547 0.3359,0.91602 -0.1014,-0.31033 -0.2145,-0.61544 -0.3359,-0.91602 z m 0.4473,1.26562 c 0.1184,0.39593 0.2238,0.79743 0.3086,1.20704 -0.085,-0.4095 -0.1903,-0.81119 -0.3086,-1.20704 z m 0.3437,1.40235 c 0.07,0.36532 0.1254,0.73658 0.168,1.11133 -0.043,-0.3749 -0.097,-0.74584 -0.168,-1.11133 z m 0.2031,1.44726 c 0.04,0.43806 0.066,0.8794 0.066,1.32813 0,-0.44876 -0.027,-0.89001 -0.066,-1.32813 z m -25.957,10.99219 c 0.059,0.0659 0.1194,0.13049 0.1797,0.19531 -0.06,-0.065 -0.1207,-0.12924 -0.1797,-0.19531 z m 0.8262,0.85352 c 0.088,0.0837 0.181,0.16266 0.2715,0.24414 -0.09,-0.0816 -0.1832,-0.16027 -0.2715,-0.24414 z m 0.9414,0.82226 c 0.081,0.064 0.1662,0.1213 0.248,0.1836 -0.082,-0.0624 -0.1677,-0.11949 -0.248,-0.1836 z m 1.5683,1.07813 c 0.1509,0.0904 0.2968,0.18839 0.4512,0.27344 -0.1544,-0.0853 -0.3003,-0.18272 -0.4512,-0.27344 z m 0.9825,0.53906 c 0.2107,0.10501 0.4202,0.21175 0.6367,0.30664 -0.2163,-0.095 -0.4262,-0.20146 -0.6367,-0.30664 z m 1.2285,0.54492 c 0.2115,0.0817 0.4244,0.16045 0.6406,0.23242 -0.2163,-0.0722 -0.4291,-0.15045 -0.6406,-0.23242 z m 1.2344,0.41602 c 0.2408,0.0688 0.4845,0.13101 0.7304,0.1875 -0.2459,-0.0566 -0.4895,-0.11854 -0.7304,-0.1875 z m 1.2949,0.30859 c 0.2709,0.0509 0.5462,0.0893 0.8222,0.125 -0.2762,-0.0358 -0.5512,-0.0739 -0.8222,-0.125 z m 1.3437,0.19141 c 0.4501,0.0418 0.9059,0.0684 1.3672,0.0684 -0.4618,0 -0.9168,-0.0265 -1.3672,-0.0684 z"
       style="fill:#ff6666;stroke:none;fill-opacity:1"
       inkscape:connector-curvature="0" />
  </g>
</svg>
